<svg width="60" height="60" viewBox="0 0 60 60" fill="none" xmlns="http://www.w3.org/2000/svg">
<mask id="path-1-inside-1_903_17887" fill="white">
<path fill-rule="evenodd" clip-rule="evenodd" d="M0 0H60L60 29.0667H52.2V30.9333H60L60 60H0V30.9332H7.8V29.0665H0V0Z"/>
</mask>
<path d="M60 0L61 1.3124e-07L61 -1H60V0ZM0 0V-1H-1V0H0ZM60 29.0667V30.0667H61L61 29.0667L60 29.0667ZM52.2 29.0667V28.0667H51.2V29.0667H52.2ZM52.2 30.9333H51.2V31.9333H52.2V30.9333ZM60 30.9333L61 30.9333L61 29.9333H60V30.9333ZM60 60V61H61L61 60L60 60ZM0 60H-1V61H0V60ZM0 30.9332V29.9332H-1V30.9332H0ZM7.8 30.9332V31.9332H8.8V30.9332H7.8ZM7.8 29.0665H8.8V28.0665H7.8V29.0665ZM0 29.0665H-1V30.0665H0V29.0665ZM60 -1H0V1H60V-1ZM61 29.0667L61 1.3124e-07L59 -1.3124e-07L59 29.0667L61 29.0667ZM52.2 30.0667H60V28.0667H52.2V30.0667ZM53.2 30.9333V29.0667H51.2V30.9333H53.2ZM60 29.9333H52.2V31.9333H60V29.9333ZM61 60L61 30.9333L59 30.9333L59 60L61 60ZM0 61H60V59H0V61ZM-1 30.9332V60H1V30.9332H-1ZM7.8 29.9332H0V31.9332H7.8V29.9332ZM6.8 29.0665V30.9332H8.8V29.0665H6.8ZM0 30.0665H7.8V28.0665H0V30.0665ZM-1 0V29.0665H1V0H-1Z" fill="#F2994A" mask="url(#path-1-inside-1_903_17887)"/>
<path d="M31.6686 45.9869H18.4215C17.5489 45.9816 16.7135 45.6325 16.0964 45.0155C15.4794 44.3984 15.1303 43.563 15.125 42.6904V14.5276C15.1303 13.6549 15.4794 12.8196 16.0964 12.2025C16.7135 11.5854 17.5489 11.2364 18.4215 11.2311H44.875V31.3561" stroke="black" stroke-width="3" stroke-linecap="round" stroke-linejoin="round"/>
<path d="M21.7998 28.6294H36.4306" stroke="black" stroke-width="2" stroke-miterlimit="10" stroke-linecap="round"/>
<path d="M21.7998 23.2776H36.4306" stroke="black" stroke-width="2" stroke-miterlimit="10" stroke-linecap="round"/>
<path d="M21.7998 34.0013H30.326" stroke="black" stroke-width="2" stroke-miterlimit="10" stroke-linecap="round"/>
<path fill-rule="evenodd" clip-rule="evenodd" d="M41.006 37.2916C40.3139 37.6574 37.7144 42.1273 37.0857 44.0328C36.8076 44.8754 36.8088 46.056 37.0885 46.8764C37.5731 48.2978 38.6529 49.3847 40.1102 49.918C40.8488 50.1883 42.4022 50.1883 43.1408 49.918C44.598 49.3847 45.6779 48.2978 46.1625 46.8764C46.4424 46.0554 46.4433 44.8752 46.1649 44.0328C45.7412 42.7513 44.616 40.6226 43.2544 38.5269C42.7115 37.6913 42.4865 37.4201 42.2264 37.2873C41.8105 37.0752 41.413 37.0766 41.006 37.2916ZM42.2492 41.88C43.2885 43.7105 43.8001 44.8754 43.8001 45.4111C43.8001 46.5278 42.7579 47.5557 41.6255 47.5557C40.4931 47.5557 39.4508 46.5278 39.4508 45.4111C39.4508 45.0847 39.7315 44.2948 40.1419 43.4663C40.5132 42.7169 41.5705 40.858 41.6255 40.858C41.6494 40.858 41.9301 41.3179 42.2492 41.88Z" fill="black"/>
</svg>
