<svg width="60" height="60" viewBox="0 0 60 60" fill="none" xmlns="http://www.w3.org/2000/svg">
<mask id="path-1-inside-1_903_17771" fill="white">
<path fill-rule="evenodd" clip-rule="evenodd" d="M0 0H60L60 29.0667H52.2V30.9333H60L60 60H0V30.9332H7.8V29.0665H0V0Z"/>
</mask>
<path d="M60 0L61 1.3124e-07L61 -1H60V0ZM0 0V-1H-1V0H0ZM60 29.0667V30.0667H61L61 29.0667L60 29.0667ZM52.2 29.0667V28.0667H51.2V29.0667H52.2ZM52.2 30.9333H51.2V31.9333H52.2V30.9333ZM60 30.9333L61 30.9333L61 29.9333H60V30.9333ZM60 60V61H61L61 60L60 60ZM0 60H-1V61H0V60ZM0 30.9332V29.9332H-1V30.9332H0ZM7.8 30.9332V31.9332H8.8V30.9332H7.8ZM7.8 29.0665H8.8V28.0665H7.8V29.0665ZM0 29.0665H-1V30.0665H0V29.0665ZM60 -1H0V1H60V-1ZM61 29.0667L61 1.3124e-07L59 -1.3124e-07L59 29.0667L61 29.0667ZM52.2 30.0667H60V28.0667H52.2V30.0667ZM53.2 30.9333V29.0667H51.2V30.9333H53.2ZM60 29.9333H52.2V31.9333H60V29.9333ZM61 60L61 30.9333L59 30.9333L59 60L61 60ZM0 61H60V59H0V61ZM-1 30.9332V60H1V30.9332H-1ZM7.8 29.9332H0V31.9332H7.8V29.9332ZM6.8 29.0665V30.9332H8.8V29.0665H6.8ZM0 30.0665H7.8V28.0665H0V30.0665ZM-1 0V29.0665H1V0H-1Z" fill="#F2994A" mask="url(#path-1-inside-1_903_17771)"/>
<path fill-rule="evenodd" clip-rule="evenodd" d="M22.8515 16.2677L16.5842 22.5355L19.6851 25.6355L22.7859 28.7354L23.8782 27.6432L24.9704 26.5509L35.2083 36.7778L45.4463 47.0048L46.2047 47.3734C47.888 48.1915 49.6283 48.2087 51.2817 47.4236C53.403 46.4162 54.7051 44.2191 54.5584 41.895C54.4983 40.9448 54.3314 40.3351 53.8989 39.4861C53.6041 38.9077 52.8255 38.1053 43.3585 28.6241L33.1365 18.3866L34.2279 17.2926L35.3193 16.1986L32.219 13.0992L29.1188 10L22.8515 16.2677ZM30.3245 15.0411L31.527 16.2461L27.1785 20.5946L22.8299 24.9431L21.6035 23.7167L20.3769 22.4901L24.7032 18.1631C27.0827 15.7833 29.0504 13.8361 29.0758 13.8361C29.1012 13.8361 29.6631 14.3784 30.3245 15.0411ZM35.389 28.8032L30.9962 28.8263L28.9203 26.7518L26.8444 24.6774L29.052 22.4684L31.2597 20.2594L35.5207 24.5197L39.7817 28.78L35.389 28.8032ZM13.7602 28.3894C11.4518 31.2945 9.75108 34.0292 9.18928 35.739C8.75176 37.0707 8.87149 38.4225 9.54847 39.7954C10.5209 41.7675 12.8154 43.077 14.9584 42.8827C16.7614 42.7194 18.2777 41.8312 19.2594 40.3637C20.1037 39.1012 20.4133 37.5052 20.07 36.1851C19.5717 34.2689 17.6884 31.2265 14.7748 27.6311L14.5668 27.3744L13.7602 28.3894ZM46.938 35.9397C52.0056 41.015 51.8627 40.8333 51.8674 42.2089C51.8697 42.8892 51.8395 43.0307 51.5791 43.5598C51.2407 44.2477 50.7572 44.7194 50.0517 45.0502C49.6332 45.2464 49.4249 45.2853 48.792 45.2853C47.6267 45.2853 47.2861 45.0895 45.657 43.4829L44.3261 42.1702L45.3994 41.0945L46.4726 40.0186L45.5356 39.0847L44.5986 38.1508L43.5279 39.2187L42.4573 40.2866L41.1192 38.9507L39.7812 37.615L40.8519 36.5417L41.9225 35.4685L40.9855 34.5346L40.0485 33.6007L38.9773 34.6691L37.9063 35.7374L35.7882 33.6193L33.67 31.5012H38.0882H42.5062L46.938 35.9397ZM15.51 33.11C16.5117 34.6324 17.2109 35.9412 17.4335 36.7102C17.7052 37.6487 17.3679 38.6692 16.5344 39.431C14.6725 41.1326 11.628 39.8356 11.6376 37.3449C11.6406 36.5736 11.9184 35.8917 12.8914 34.2669C13.554 33.1607 14.4962 31.7688 14.5825 31.7688C14.6072 31.7688 15.0246 32.3724 15.51 33.11Z" fill="black"/>
</svg>
