<svg width="60" height="60" viewBox="0 0 60 60" fill="none" xmlns="http://www.w3.org/2000/svg">
<mask id="path-1-inside-1_903_17849" fill="white">
<path fill-rule="evenodd" clip-rule="evenodd" d="M0 0H60L60 29.0667H52.2V30.9333H60L60 60H0V30.9332H7.8V29.0665H0V0Z"/>
</mask>
<path d="M60 0L61 1.3124e-07L61 -1H60V0ZM0 0V-1H-1V0H0ZM60 29.0667V30.0667H61L61 29.0667L60 29.0667ZM52.2 29.0667V28.0667H51.2V29.0667H52.2ZM52.2 30.9333H51.2V31.9333H52.2V30.9333ZM60 30.9333L61 30.9333L61 29.9333H60V30.9333ZM60 60V61H61L61 60L60 60ZM0 60H-1V61H0V60ZM0 30.9332V29.9332H-1V30.9332H0ZM7.8 30.9332V31.9332H8.8V30.9332H7.8ZM7.8 29.0665H8.8V28.0665H7.8V29.0665ZM0 29.0665H-1V30.0665H0V29.0665ZM60 -1H0V1H60V-1ZM61 29.0667L61 1.3124e-07L59 -1.3124e-07L59 29.0667L61 29.0667ZM52.2 30.0667H60V28.0667H52.2V30.0667ZM53.2 30.9333V29.0667H51.2V30.9333H53.2ZM60 29.9333H52.2V31.9333H60V29.9333ZM61 60L61 30.9333L59 30.9333L59 60L61 60ZM0 61H60V59H0V61ZM-1 30.9332V60H1V30.9332H-1ZM7.8 29.9332H0V31.9332H7.8V29.9332ZM6.8 29.0665V30.9332H8.8V29.0665H6.8ZM0 30.0665H7.8V28.0665H0V30.0665ZM-1 0V29.0665H1V0H-1Z" fill="#F2994A" mask="url(#path-1-inside-1_903_17849)"/>
<path fill-rule="evenodd" clip-rule="evenodd" d="M40.5333 9.38647C38.7695 9.58914 36.9863 10.1361 35.3424 10.9786C33.4908 11.9275 32.8662 12.4325 29.8558 15.4145L27.1375 18.1071L26.8983 17.8839C26.7668 17.7613 26.5736 17.6169 26.4691 17.5632C26.2256 17.4381 25.6159 17.4374 25.3703 17.562C25.2658 17.615 24.6513 18.1827 24.0046 18.8235L22.8288 19.9888L22.004 19.1559C21.5502 18.6978 21.0733 18.2672 20.9441 18.1988C20.6645 18.0508 20.069 18.0361 19.8032 18.1706C19.5243 18.3117 13.8404 23.9894 13.6853 24.2819C13.6126 24.4188 13.5532 24.7059 13.5532 24.92C13.5532 25.254 13.6582 25.4836 14.2946 26.5412L15.0361 27.7734L11.3099 31.5138C9.26065 33.571 7.54069 35.3397 7.4878 35.4441C7.36663 35.6838 7.36428 36.1709 7.48284 36.4826C7.53286 36.6143 7.95065 37.1055 8.41115 37.5743L9.24848 38.4266L8.32625 39.3723C7.31 40.4144 6.83698 41.0805 6.48016 41.9716C6.02688 43.1039 6 43.4592 6 48.3131C6 52.627 6.00635 52.8011 6.1751 53.1319C6.37204 53.5179 6.87316 53.8256 7.30478 53.8256C7.73641 53.8256 8.23753 53.5179 8.43446 53.1319C8.60313 52.8012 8.60957 52.6268 8.60957 48.3672C8.60957 43.4881 8.62409 43.3294 9.15079 42.4567C9.30084 42.2081 9.80684 41.623 10.2751 41.1565L11.1265 40.3082L13.0647 42.2198C14.9971 44.1255 15.5833 44.6029 16.4753 44.9974C18.3456 45.8245 20.672 45.6997 22.4259 44.6783C23.1575 44.2523 34.4147 33.0254 34.5307 32.6062C34.5969 32.3667 34.4831 31.5321 33.9616 28.4309C33.6031 26.2992 33.2876 24.4839 33.2605 24.397C33.2334 24.3101 33.0905 24.1017 32.9432 23.9338L32.6753 23.6287L34.8863 21.4114C37.3331 18.9575 37.8529 18.5046 38.8002 18.0017C40.1667 17.2761 41.0133 17.1192 43.5659 17.1184C45.3147 17.1177 45.4442 17.1064 45.7623 16.9277C45.9777 16.8066 46.1634 16.6073 46.2743 16.3783C46.4373 16.0416 46.4483 15.8411 46.4483 13.2033C46.4483 10.5655 46.4373 10.3651 46.2743 10.0283C46.1634 9.7993 45.9777 9.60001 45.7623 9.47893C45.4387 9.29704 45.3337 9.28948 43.305 9.30026C42.1394 9.30644 40.8921 9.34523 40.5333 9.38647ZM43.8387 13.2033V14.5081H42.7142C42.0957 14.5081 41.2879 14.5501 40.919 14.6013C39.4436 14.8066 37.723 15.4768 36.5368 16.3085C36.2231 16.5284 34.811 17.8572 33.3988 19.2614L30.831 21.8144L29.8939 20.8745L28.9568 19.9345L31.5497 17.3735C34.3197 14.6375 35.0561 14.0341 36.5319 13.2914C38.5068 12.2977 40.1068 11.9306 42.5557 11.9096L43.8387 11.8985V13.2033ZM31.3569 28.6907L31.8741 31.8217L30.2898 33.4061L28.7053 34.9905L25.2416 33.2634C21.878 31.5863 21.7665 31.5381 21.3914 31.5986C21.0231 31.6579 20.8316 31.8338 17.307 35.3492L13.609 39.0376L12.0664 37.4932L10.5238 35.9487L14.1343 32.3395C18.0187 28.4564 18.11 28.345 17.9325 27.7021C17.8851 27.5304 17.5491 26.8968 17.1857 26.294C16.8225 25.6912 16.5253 25.171 16.5253 25.1382C16.5253 25.1052 17.3949 24.2079 18.458 23.1441L20.3906 21.21L21.3075 22.1134C22.0473 22.8424 22.2887 23.029 22.5581 23.0796C23.1808 23.1964 23.44 23.0383 24.701 21.7735L25.8745 20.5964L28.3571 23.078L30.8398 25.5595L31.3569 28.6907ZM45.133 22.5979C44.4408 22.9637 41.8414 27.4336 41.2126 29.3391C40.9345 30.1818 40.9358 31.3623 41.2154 32.1827C41.7 33.6041 42.7798 34.691 44.2371 35.2243C44.9757 35.4946 46.5291 35.4946 47.2677 35.2243C48.725 34.691 49.8048 33.6041 50.2894 32.1827C50.5693 31.3617 50.5703 30.1815 50.2918 29.3391C49.8681 28.0576 48.7429 25.9289 47.3813 23.8332C46.8384 22.9976 46.6135 22.7264 46.3533 22.5937C45.9374 22.3815 45.5399 22.3829 45.133 22.5979ZM46.3762 27.1863C47.4155 29.0168 47.927 30.1817 47.927 30.7174C47.927 31.8341 46.8848 32.862 45.7524 32.862C44.62 32.862 43.5778 31.8341 43.5778 30.7174C43.5778 30.391 43.8585 29.6011 44.2689 28.7726C44.6401 28.0232 45.6974 26.1643 45.7524 26.1643C45.7763 26.1643 46.057 26.6242 46.3762 27.1863ZM24.8114 35.9598C25.8277 36.4674 26.6769 36.8996 26.6987 36.9199C26.7205 36.9404 25.5658 38.1302 24.1326 39.5639C21.9525 41.7449 21.4331 42.22 20.9524 42.4726C20.1707 42.8835 19.3407 43.0231 18.5184 42.8821C17.5857 42.7221 17.023 42.4118 16.1789 41.5922L15.4379 40.8725L17.83 38.4754L20.2221 36.0782L20.2656 37.1606C20.3024 38.0758 20.3368 38.28 20.4885 38.4829C20.9515 39.1023 21.5466 39.2619 22.1729 38.9347C22.8119 38.6008 22.8752 38.3888 22.8752 36.5821C22.8752 35.7321 22.8951 35.0367 22.9195 35.0367C22.9438 35.0367 23.7952 35.452 24.8114 35.9598Z" fill="black"/>
</svg>
