<svg width="60" height="60" viewBox="0 0 60 60" fill="none" xmlns="http://www.w3.org/2000/svg">
<mask id="path-1-inside-1_903_17683" fill="white">
<path fill-rule="evenodd" clip-rule="evenodd" d="M0 0H60L60 29.0667H52.2V30.9333H60L60 60H0V30.9332H7.8V29.0665H0V0Z"/>
</mask>
<path d="M60 0L61 1.3124e-07L61 -1H60V0ZM0 0V-1H-1V0H0ZM60 29.0667V30.0667H61L61 29.0667L60 29.0667ZM52.2 29.0667V28.0667H51.2V29.0667H52.2ZM52.2 30.9333H51.2V31.9333H52.2V30.9333ZM60 30.9333L61 30.9333L61 29.9333H60V30.9333ZM60 60V61H61L61 60L60 60ZM0 60H-1V61H0V60ZM0 30.9332V29.9332H-1V30.9332H0ZM7.8 30.9332V31.9332H8.8V30.9332H7.8ZM7.8 29.0665H8.8V28.0665H7.8V29.0665ZM0 29.0665H-1V30.0665H0V29.0665ZM60 -1H0V1H60V-1ZM61 29.0667L61 1.3124e-07L59 -1.3124e-07L59 29.0667L61 29.0667ZM52.2 30.0667H60V28.0667H52.2V30.0667ZM53.2 30.9333V29.0667H51.2V30.9333H53.2ZM60 29.9333H52.2V31.9333H60V29.9333ZM61 60L61 30.9333L59 30.9333L59 60L61 60ZM0 61H60V59H0V61ZM-1 30.9332V60H1V30.9332H-1ZM7.8 29.9332H0V31.9332H7.8V29.9332ZM6.8 29.0665V30.9332H8.8V29.0665H6.8ZM0 30.0665H7.8V28.0665H0V30.0665ZM-1 0V29.0665H1V0H-1Z" fill="#F2994A" mask="url(#path-1-inside-1_903_17683)"/>
<path fill-rule="evenodd" clip-rule="evenodd" d="M16.9178 9.55881C15.0742 9.96388 13.6169 11.2541 12.9545 13.0674L12.7344 13.6702L12.7125 28.8943L12.6907 44.1184L11.6441 44.6439C10.5678 45.1845 10.3028 45.3875 10.1512 45.7878C10.097 45.9307 10.0635 46.8604 10.0635 48.2198C10.0635 50.3585 10.0688 50.4304 10.2527 50.7782C10.3823 51.0232 10.5552 51.196 10.8011 51.326L11.1602 51.5159L25.9737 51.4947L40.7872 51.4735L41.0141 51.304C41.139 51.2108 41.3173 51.0326 41.4105 50.9078C41.5703 50.694 41.5813 50.554 41.6051 48.4475C41.6189 47.2191 41.6081 46.0948 41.5813 45.9492C41.4961 45.4886 41.1621 45.205 40.0478 44.6465L38.9912 44.1171V34.7901C38.9912 29.6603 39.0225 25.4632 39.0607 25.4632C39.0989 25.4632 39.3485 25.6053 39.6154 25.7788C40.4274 26.3071 41.0703 27.0978 41.4321 28.0135C41.5646 28.3487 41.5811 28.9058 41.6219 34.4209C41.6648 40.2035 41.6737 40.4805 41.8317 40.9139C42.4269 42.5463 43.8661 43.5701 45.5657 43.5701C47.2647 43.5701 48.6964 42.5523 49.302 40.9139C49.4665 40.4689 49.4697 40.287 49.4942 30.1475C49.5111 23.1119 49.4914 19.7394 49.4326 19.5368C49.3851 19.3735 49.2445 19.1378 49.1201 19.0128C48.9958 18.8878 47.6441 18.1616 46.1163 17.399C43.1387 15.9126 42.9893 15.8623 42.392 16.1457C41.9932 16.335 41.7622 16.6987 41.7204 17.2035C41.655 17.9922 41.9352 18.284 43.4893 19.0454C44.3625 19.4732 44.394 19.4978 44.3347 19.7048C44.3007 19.8231 44.3047 20.1594 44.3435 20.4521C44.4873 21.5385 45.3017 22.704 46.3839 23.372L46.8806 23.6785L46.8793 31.8233L46.8779 39.9681L46.694 40.2969C46.4952 40.6523 45.941 40.9954 45.5657 40.9954C45.2182 40.9954 44.6396 40.652 44.4582 40.3379C44.2966 40.0584 44.2907 39.8826 44.2492 34.0511L44.2065 28.0519L44.0138 27.4766C43.4649 25.8383 42.4518 24.5214 41.0313 23.6C40.491 23.2495 39.3719 22.7512 39.1253 22.7512C39.0136 22.7512 38.9959 22.2278 38.972 18.2107C38.9474 14.0729 38.9317 13.6301 38.7946 13.2182C38.5175 12.3862 38.139 11.7261 37.6136 11.1585C36.9616 10.4543 36.2635 9.9919 35.4164 9.70312L34.7589 9.47893L26.0888 9.46381C19.1041 9.45164 17.3213 9.47014 16.9178 9.55881ZM34.8954 12.3372C35.4311 12.6003 35.8926 13.0738 36.1447 13.6191L36.3204 13.9989L36.3614 29.6544C36.4023 45.2107 36.4036 45.3117 36.5697 45.5975C36.7059 45.8319 36.9455 45.9918 37.8631 46.4604L38.9894 47.0357L38.9903 47.9602L38.9912 48.8848H25.8423H12.6933L12.6942 47.9602L12.6951 47.0357L13.8214 46.4604C14.739 45.9918 14.9786 45.8319 15.1148 45.5975C15.2809 45.3117 15.2822 45.2105 15.3231 29.6955L15.3642 14.0811L15.5531 13.6702C15.88 12.9593 16.5572 12.3783 17.2914 12.1788C17.5787 12.1007 19.606 12.0809 26.0477 12.0929L34.4302 12.1087L34.8954 12.3372ZM18.7295 16.1272C18.3986 16.2723 18.0533 16.692 17.9938 17.0214C17.9674 17.1671 17.9567 19.7705 17.97 22.8068C17.9935 28.2355 17.9968 28.3313 18.1634 28.5544C18.2566 28.6792 18.4349 28.8576 18.5598 28.9508C18.7849 29.1188 18.8444 29.1202 25.8423 29.1202C32.8401 29.1202 32.8996 29.1188 33.1247 28.9508C33.2496 28.8576 33.4279 28.6792 33.5211 28.5544C33.6885 28.3302 33.6906 28.2567 33.6906 22.5868C33.6906 16.917 33.6885 16.8434 33.5211 16.6192C33.4279 16.4944 33.2496 16.3161 33.1247 16.2229C32.9002 16.0552 32.825 16.0533 25.939 16.0353C20.2792 16.0207 18.9334 16.0378 18.7295 16.1272ZM31.1018 22.5868V26.5315H25.8423H20.5827V22.5868V18.6421H25.8423H31.1018V22.5868Z" fill="black"/>
</svg>
