<svg width="60" height="60" viewBox="0 0 60 60" fill="none" xmlns="http://www.w3.org/2000/svg">
<mask id="path-1-inside-1_903_17736" fill="white">
<path fill-rule="evenodd" clip-rule="evenodd" d="M0 0H60L60 29.0667H52.2V30.9333H60L60 60H0V30.9332H7.8V29.0665H0V0Z"/>
</mask>
<path d="M60 0L61 1.3124e-07L61 -1H60V0ZM0 0V-1H-1V0H0ZM60 29.0667V30.0667H61L61 29.0667L60 29.0667ZM52.2 29.0667V28.0667H51.2V29.0667H52.2ZM52.2 30.9333H51.2V31.9333H52.2V30.9333ZM60 30.9333L61 30.9333L61 29.9333H60V30.9333ZM60 60V61H61L61 60L60 60ZM0 60H-1V61H0V60ZM0 30.9332V29.9332H-1V30.9332H0ZM7.8 30.9332V31.9332H8.8V30.9332H7.8ZM7.8 29.0665H8.8V28.0665H7.8V29.0665ZM0 29.0665H-1V30.0665H0V29.0665ZM60 -1H0V1H60V-1ZM61 29.0667L61 1.3124e-07L59 -1.3124e-07L59 29.0667L61 29.0667ZM52.2 30.0667H60V28.0667H52.2V30.0667ZM53.2 30.9333V29.0667H51.2V30.9333H53.2ZM60 29.9333H52.2V31.9333H60V29.9333ZM61 60L61 30.9333L59 30.9333L59 60L61 60ZM0 61H60V59H0V61ZM-1 30.9332V60H1V30.9332H-1ZM7.8 29.9332H0V31.9332H7.8V29.9332ZM6.8 29.0665V30.9332H8.8V29.0665H6.8ZM0 30.0665H7.8V28.0665H0V30.0665ZM-1 0V29.0665H1V0H-1Z" fill="#F2994A" mask="url(#path-1-inside-1_903_17736)"/>
<path fill-rule="evenodd" clip-rule="evenodd" d="M29.006 23.2916C28.3139 23.6574 25.7144 28.1273 25.0857 30.0328C24.8076 30.8754 24.8088 32.056 25.0885 32.8764C25.5731 34.2978 26.6529 35.3847 28.1102 35.918C28.8488 36.1883 30.4022 36.1883 31.1408 35.918C32.598 35.3847 33.6779 34.2978 34.1625 32.8764C34.4424 32.0554 34.4433 30.8752 34.1649 30.0328C33.7412 28.7513 32.616 26.6226 31.2544 24.5269C30.7115 23.6913 30.4865 23.4201 30.2264 23.2873C29.8105 23.0752 29.413 23.0766 29.006 23.2916ZM30.2492 27.88C31.2885 29.7105 31.8001 30.8754 31.8001 31.4111C31.8001 32.5278 30.7579 33.5557 29.6255 33.5557C28.4931 33.5557 27.4508 32.5278 27.4508 31.4111C27.4508 31.0847 27.7315 30.2948 28.1419 29.4663C28.5132 28.7169 29.5705 26.858 29.6255 26.858C29.6494 26.858 29.9301 27.3179 30.2492 27.88Z" fill="black"/>
<rect x="11.25" y="18" width="36.75" height="23.25" rx="2" stroke="black" stroke-width="3"/>
</svg>
