<?xml version="1.0" encoding="utf-8"?>
<!-- Generator: Adobe Illustrator 22.0.0, SVG Export Plug-In . SVG Version: 6.00 Build 0)  -->
<svg version="1.1" id="Layer_1" xmlns="http://www.w3.org/2000/svg" xmlns:xlink="http://www.w3.org/1999/xlink" x="0px" y="0px"
	 viewBox="0 0 39 39" style="enable-background:new 0 0 39 39;" xml:space="preserve">
<style type="text/css">
	.st0{fill:#2B3C80;}
	.st1{fill:#FFFFFF;}
</style>
<path class="st0" d="M0.5,0.5h38v18h-5v3h5v17h-38v-17h5v-3h-5V0.5z"/>
<g>
	<path class="st1" d="M30.6,17.2c-0.3-0.4-0.8-0.6-1.3-0.6c-0.1,0-0.2,0-0.7,0.1l0,0c-1.4,0.3-5.1,1.1-8.9,1.1c-3.6,0-6.8-0.6-8.4-1
		c-0.8-0.2-1.2-0.2-1.5-0.2c-1.4,0-1.9,1.1-1.9,2.1v7.8c0,0.4,0.4,0.7,0.7,0.7h4.7c0.4,0,0.7-0.4,0.7-0.7c0-0.4-0.4-0.7-0.7-0.7h-4
		v-7.2c0-0.2,0-0.7,0.5-0.7c0.1,0,0.7,0.1,1.3,0.2l0.2,0c0.9,0.2,2.1,0.5,3.5,0.6v0.8H9.9c-0.4,0-0.6,0.3-0.6,0.6s0.3,0.6,0.6,0.6
		h5.3c0.4,0,0.6-0.3,0.6-0.6v-1.2c1.2,0.1,2.4,0.2,3.8,0.2c1.3,0,2.6-0.1,3.6-0.2v1.2c0,0.4,0.3,0.6,0.6,0.6h5.3
		c0.3,0,0.5-0.1,0.6-0.4v5.3h-4c-0.4,0-0.7,0.4-0.7,0.7c0,0.4,0.4,0.7,0.7,0.7h4.7c0.4,0,0.7-0.4,0.7-0.7l0-7.8
		C31.2,18.2,31,17.6,30.6,17.2z M29.1,19.7h-4.8V19c2-0.3,3.7-0.6,4.5-0.8c0.2-0.1,0.3-0.1,0.3-0.1c0.4,0,0.5,0.3,0.5,0.7V20
		C29.6,19.8,29.4,19.7,29.1,19.7z"/>
	<path class="st1" d="M26.9,23.8c0.1-0.1,0.1-0.3,0-0.4c-0.2-0.3-0.4-0.5-0.7-0.4c0,0-2.5,0.6-6.7,0.6c-4,0-6.8-0.7-6.8-0.7
		c-0.1,0-0.2-0.1-0.3,0c-0.2,0.1-0.4,0.2-0.4,0.4c-0.1,0.1-0.1,0.3,0,0.5c0.1,0.1,0.2,0.3,0.3,0.3l0,0c0,0,0.1,0,0.2,0
		c2.2,0.4,4.5,0.7,6.9,0.7c3.9,0,6.5-0.5,6.9-0.7C26.7,24,26.8,23.9,26.9,23.8z"/>
	<path class="st1" d="M11.6,15.6c0.5,0.2,0.9-0.1,0.9-0.1l0,0c0.1-0.1,1.3-2.1,1.4-2.3l0,0l10.8,0l0.1,0.1c0.1,0.1,1,1.4,1.5,2.3
		l0,0c0,0,0.3,0.2,0.5,0.2c0.1,0,0.2,0,0.3-0.1c0.4-0.2,0.4-0.6,0.4-0.8l0,0c0,0-1.3-2-1.5-2.3c-0.2-0.3-0.4-0.7-1.2-0.7H14.1
		c-0.7,0-1,0.4-1.2,0.6c-0.2,0.2-1.4,2.1-1.5,2.3C11.3,15,11.2,15.4,11.6,15.6z"/>
</g>
</svg>
