<?xml version="1.0" encoding="utf-8"?>
<!-- Generator: Adobe Illustrator 22.0.1, SVG Export Plug-In . SVG Version: 6.00 Build 0)  -->
<svg version="1.1" id="Layer_1" xmlns="http://www.w3.org/2000/svg" xmlns:xlink="http://www.w3.org/1999/xlink" x="0px" y="0px"
	 viewBox="0 0 39 39" style="enable-background:new 0 0 39 39;" xml:space="preserve">
<style type="text/css">
	.st0{fill:#333399;}
	.st1{display:none;}
	.st2{display:inline;}
	.st3{fill:#FFFFFF;}
	.st4{display:none;fill:none;stroke:#FFFFFF;stroke-width:1.5;stroke-miterlimit:10;}
	.st5{display:none;fill:#FFFFFF;}
	.st6{fill:#FFFFFF;stroke:#FFFFFF;stroke-width:0.25;stroke-miterlimit:10;}
</style>
<path class="st0" d="M0.5,0.5h38v18h-5v3h5v17h-38v-17h5v-3h-5V0.5z"/>
<g class="st1">
	<g class="st2">
		<path class="st3" d="M24,29.4H11.8c-1.4,0-2.5-1.1-2.5-2.5V12c0-1.4,1.1-2.5,2.5-2.5H21c0.2,0,0.4,0.1,0.5,0.2l4.8,4.9
			c0.2,0.2,0.3,0.5,0.1,0.8c-0.1,0.3-0.4,0.4-0.6,0.4h-4.9c-0.4,0-0.7-0.3-0.7-0.7V11h-8.5c-0.6,0-1,0.5-1,1v15c0,0.6,0.5,1,1,1H24
			c0.6,0,1-0.5,1-1v-2.2c0-0.4,0.3-0.7,0.7-0.7c0.4,0,0.7,0.3,0.7,0.7V27C26.5,28.3,25.4,29.4,24,29.4z M21.6,14.4h2.5l-2.5-2.5
			V14.4z"/>
	</g>
	<g class="st2">
		<rect x="13.5" y="19" class="st3" width="7.8" height="1.1"/>
	</g>
	<g class="st2">
		<rect x="13.5" y="16.1" class="st3" width="4.5" height="1.1"/>
	</g>
	<g class="st2">
		<rect x="13.5" y="21.8" class="st3" width="4.5" height="1.1"/>
	</g>
	<g class="st2">
		<g>
			<path class="st3" d="M21.8,25.9L21.8,25.9l-1.5-0.1c-0.4,0-0.7-0.3-0.7-0.7l-0.1-1.5c0-0.2,0.1-0.4,0.2-0.5l9-9
				c0.3-0.3,0.8-0.5,1.3-0.3c0.7,0.2,1.3,0.8,1.5,1.5c0.1,0.5,0,1-0.3,1.3l0,0l-9,9C22.2,25.9,22,25.9,21.8,25.9z M21,24.5h0.5
				l8.8-8.8c0-0.1-0.1-0.2-0.2-0.3c-0.2-0.2-0.3-0.2-0.3-0.2l0,0L21,24V24.5z M30.8,16.2L30.8,16.2L30.8,16.2z M30.3,15.7L30.3,15.7
				L30.3,15.7L30.3,15.7z"/>
		</g>
	</g>
</g>
<path class="st4" d="M29.6,13l-2.4,1.5c-0.2,0.1-0.4,0.1-0.5,0c-0.5-0.7-1-1.5-1.5-2.2c-0.1-0.2,0-0.4,0.2-0.5l2.8-1.6
	c-1.7-1.5-4.3-1.2-5.8,0.5c-0.7,0.9-1.1,2-0.9,3.2c0.1,0.4-0.1,0.9-0.4,1.2l-6.7,6.7c-0.3,0.3-0.7,0.4-1.2,0.4c-0.2,0-0.3,0-0.5,0
	c-2.3,0-4.1,1.8-4.1,4.1c0,0.2,0,0.5,0.1,0.7l2.8-1.8c0.2-0.1,0.4-0.1,0.5,0c0.5,0.7,1,1.5,1.5,2.2c0.1,0.2,0,0.4-0.2,0.5l-3,1.7
	C11,30,12,30.3,13,30.3c2.3-0.1,4-2.1,3.8-4.4c0-0.1,0-0.2,0-0.3c-0.1-0.4,0.1-0.9,0.4-1.2l6.6-6.6c0.3-0.3,0.7-0.4,1.2-0.4
	c2.3,0.3,4.3-1.3,4.6-3.5c0-0.2,0-0.4,0-0.5C29.6,13.2,29.6,13.1,29.6,13z"/>
<path class="st5" d="M11.7,30.6c0.4,0.4,1,0.7,1.6,0.7s1.2-0.2,1.6-0.7l4.9-4.9c0.8,0.2,1.6,0.4,2.5,0.4c2.2,0,4.4-0.9,6-2.5
	c2.4-2.4,3.1-6,1.8-9.2L29.4,13l-4.8,4.8l-2.4-2.4l4.8-4.8l-1.6-0.6c-1-0.4-2.1-0.6-3.2-0.6c-2.2,0-4.4,0.9-6,2.5
	c-2.2,2.2-3,5.5-2.1,8.4l-4.9,4.9c-0.9,0.9-0.9,2.3,0,3.2L11.7,30.6z M16.8,20.8l-0.3-0.7c-1-2.3-0.4-5,1.3-6.7
	c1.2-1.2,2.7-1.8,4.4-1.8c0.2,0,0.4,0,0.6,0l-3.8,3.8l5.6,5.6l3.8-3.8c0.2,1.8-0.5,3.6-1.8,5c-1.7,1.7-4.5,2.3-6.7,1.3l-0.7-0.3
	L13.3,29h0l0,1.1V29l-2.4-2.4L16.8,20.8z"/>
<path class="st6" d="M25.2,18.1c0.5,0.2,1,0.3,1.5,0.3c2.4,0,4.4-2,4.4-4.4c0-0.7-0.1-1.3-0.4-1.8c-0.1-0.2-0.2-0.3-0.4-0.3
	c-0.2,0-0.3,0-0.4,0.1L27,14.8l-1.3-1.3l2.9-2.8c0.1-0.1,0.2-0.3,0.1-0.4c0-0.2-0.1-0.3-0.3-0.4c-0.6-0.3-1.2-0.4-1.8-0.4
	c-2.4,0-4.3,1.9-4.3,4.3c0,0.5,0.1,1,0.3,1.5l-8.3,8.3c-0.5-0.2-1-0.3-1.5-0.3c-2.4,0-4.4,2-4.4,4.4c0,0.7,0.1,1.3,0.4,1.8
	c0.1,0.2,0.2,0.3,0.4,0.3c0.2,0,0.3,0,0.4-0.1l2.9-2.9l1.3,1.3L10.9,31c-0.1,0.1-0.2,0.3-0.1,0.4c0,0.2,0.1,0.3,0.3,0.4
	c0.6,0.3,1.2,0.4,1.8,0.4c2.4,0,4.4-2,4.4-4.4c0-0.5-0.1-1-0.3-1.5L25.2,18.1z M12.8,31.2c-0.3,0-0.5,0-0.7-0.1l2.7-2.7
	c0.1-0.1,0.2-0.2,0.2-0.4c0-0.1-0.1-0.3-0.2-0.4l-1.9-1.9c-0.2-0.2-0.5-0.2-0.7,0l-2.7,2.7c-0.1-0.2-0.1-0.5-0.1-0.7
	c0-1.9,1.5-3.4,3.4-3.4c0.5,0,1,0.1,1.4,0.3c0.2,0.1,0.4,0.1,0.6-0.1l8.7-8.7c0.2-0.2,0.2-0.4,0.1-0.6c-0.2-0.5-0.3-0.9-0.3-1.4
	c0-1.9,1.5-3.4,3.4-3.4c0.3,0,0.5,0,0.7,0.1l-2.6,2.6c-0.2,0.2-0.2,0.5,0,0.7l1.9,1.9C26.8,16,26.9,16,27,16c0.1,0,0.3-0.1,0.4-0.2
	l2.7-2.7c0.1,0.2,0.1,0.5,0.1,0.7c0,1.9-1.5,3.4-3.4,3.4c-0.5,0-1-0.1-1.4-0.3c-0.2-0.1-0.4-0.1-0.6,0.1L16,25.8
	c-0.2,0.2-0.2,0.4-0.1,0.6c0.2,0.5,0.3,0.9,0.3,1.4C16.2,29.7,14.7,31.2,12.8,31.2z M30.7,28.8c0.1,0.1,0.2,0.2,0.2,0.4
	c0,0.1-0.1,0.3-0.2,0.4l-2,2c-0.1,0.1-0.2,0.2-0.4,0.2c-0.1,0-0.3-0.1-0.4-0.2l0,0l-7-7c-0.2-0.2-0.2-0.5,0-0.7
	c0.2-0.2,0.5-0.2,0.7,0l6.7,6.7l1.4-1.4l-6.7-6.7c-0.2-0.2-0.2-0.5,0-0.7c0.2-0.2,0.5-0.2,0.7,0L30.7,28.8z M11.3,14.2
	c0.1,0.1,0.2,0.2,0.4,0.2s0.3-0.1,0.4-0.2l0.3-0.3l4.9,4.9c0.1,0.1,0.2,0.2,0.4,0.2c0.1,0,0.3-0.1,0.4-0.2c0.2-0.2,0.2-0.5,0-0.7
	L13,13.1l0.3-0.3c0.1-0.1,0.2-0.2,0.2-0.4s-0.1-0.3-0.2-0.4l-2-2c-0.2-0.2-0.5-0.2-0.7,0l-1.3,1.3c-0.2,0.2-0.2,0.5,0,0.7L11.3,14.2
	z M10.9,11.2l1.3,1.3L12,12.8l0,0l0,0l-0.3,0.3l-1.3-1.3L10.9,11.2z"/>
</svg>
