<svg width="39" height="39" viewBox="0 0 39 39" fill="none" xmlns="http://www.w3.org/2000/svg">
<path fill-rule="evenodd" clip-rule="evenodd" d="M0.396484 0.431152H38.3965V18.4312H33.3965V21.4312H38.3965V38.4312H0.396484V21.4312H5.39648V18.4312H0.396484V0.431152Z" fill="#2B3C80"/>
<path d="M26.2934 23.4575C25.6317 23.2168 24.6691 22.8559 23.8871 22.4348C23.7668 22.3746 23.5863 22.3746 23.466 22.4348C23.3457 22.4949 23.2254 22.5551 23.1652 22.7356C23.105 22.8559 23.105 23.0363 23.1652 23.1567C23.2254 23.277 23.2855 23.3973 23.466 23.4575C24.3082 23.8786 25.3309 24.2395 25.9926 24.4801C27.1958 24.9614 27.3762 25.2622 27.3762 26.0442V27.849H11.4344V26.0442C11.4344 25.2622 11.6149 24.9614 12.818 24.4801C13.4798 24.2395 14.5025 23.8184 15.3447 23.4575C15.465 23.3973 15.5853 23.277 15.6455 23.1567C15.7056 23.0363 15.7056 22.8559 15.6455 22.7356C15.5853 22.6152 15.465 22.4949 15.3447 22.4348C15.2244 22.3746 15.0439 22.3746 14.9236 22.4348C14.1415 22.7957 13.179 23.2168 12.5172 23.4575C11.1938 23.9387 10.3516 24.5403 10.3516 26.0442V28.3904C10.3516 28.6912 10.5922 28.9318 10.893 28.9318H27.8575C28.1583 28.9318 28.3989 28.6912 28.3989 28.3904V26.0442C28.4591 24.5403 27.6169 23.9387 26.2934 23.4575Z" fill="white"/>
<path d="M19.6159 21.8933C20.819 21.8933 22.3832 21.0511 23.5863 19.6675C24.9098 18.1635 25.6317 16.3588 25.6317 14.6743C25.6317 12.8696 25.0301 11.2453 23.9473 10.1023C22.8644 8.95934 21.3003 8.29761 19.6159 8.29761C16.1869 8.29761 13.6001 11.0047 13.6001 14.6743C13.6001 16.3588 14.3822 18.1635 15.6455 19.6675C16.8486 21.0511 18.3526 21.8933 19.6159 21.8933ZM16.1267 10.9446C17.0291 9.98203 18.2323 9.44061 19.6159 9.44061C20.9995 9.44061 22.2027 9.98203 23.105 10.9446C24.0074 11.9071 24.4887 13.2306 24.4887 14.6743C24.4887 16.6596 23.3457 18.2237 22.6839 18.9456C21.6613 20.0284 20.4581 20.7503 19.6159 20.7503C18.7737 20.7503 17.5705 20.0284 16.5478 18.9456C15.8861 18.2237 14.7431 16.6596 14.7431 14.6743C14.7431 13.1704 15.2244 11.8469 16.1267 10.9446Z" fill="white"/>
</svg>
