<svg width="60" height="60" viewBox="0 0 60 60" fill="none" xmlns="http://www.w3.org/2000/svg">
<mask id="path-1-inside-1_804_17383" fill="white">
<path fill-rule="evenodd" clip-rule="evenodd" d="M0 0H60L60 29.0667H52.2V30.9333H60L60 60H0V30.9332H7.8V29.0665H0V0Z"/>
</mask>
<path d="M60 0L61 1.3124e-07V-1H60V0ZM0 0V-1H-1V0H0ZM60 29.0667V30.0667H61V29.0667H60ZM52.2 29.0667V28.0667H51.2V29.0667H52.2ZM52.2 30.9333H51.2V31.9333H52.2V30.9333ZM60 30.9333H61V29.9333H60V30.9333ZM60 60V61H61V60H60ZM0 60H-1V61H0V60ZM0 30.9332V29.9332H-1V30.9332H0ZM7.8 30.9332V31.9332H8.8V30.9332H7.8ZM7.8 29.0665H8.8V28.0665H7.8V29.0665ZM0 29.0665H-1V30.0665H0V29.0665ZM60 -1H0V1H60V-1ZM61 29.0667L61 1.3124e-07L59 -1.3124e-07L59 29.0667H61ZM52.2 30.0667H60V28.0667H52.2V30.0667ZM53.2 30.9333V29.0667H51.2V30.9333H53.2ZM60 29.9333H52.2V31.9333H60V29.9333ZM61 60L61 30.9333H59L59 60H61ZM0 61H60V59H0V61ZM-1 30.9332V60H1V30.9332H-1ZM7.8 29.9332H0V31.9332H7.8V29.9332ZM6.8 29.0665V30.9332H8.8V29.0665H6.8ZM0 30.0665H7.8V28.0665H0V30.0665ZM-1 0V29.0665H1V0H-1Z" fill="#F2994A" mask="url(#path-1-inside-1_804_17383)"/>
<path d="M8.19058 37.5817C8.32719 36.8303 8.41827 36.0676 8.62318 35.339C8.85087 34.5421 9.15824 33.7566 9.48838 32.9939C9.77298 32.3222 10.2511 32.1059 10.7406 32.3336C11.2302 32.5613 11.3212 33.0622 11.0252 33.7225C9.42007 37.2174 9.42007 40.701 11.2643 44.0821C13.4273 48.0437 16.8653 50.1043 21.3734 50.0815C25.9043 50.0587 29.2741 47.9299 31.4712 43.9682C31.5395 43.843 31.585 43.7178 31.6533 43.5698C31.4826 43.5698 31.3574 43.5698 31.2321 43.5698C30.8223 43.5698 30.5605 43.3421 30.4466 42.9664C30.3328 42.5907 30.4125 42.215 30.7654 42.0443C31.5054 41.68 32.2567 41.3385 33.0194 41.0539C33.4065 40.9059 33.7594 41.1108 33.9416 41.4865C34.2603 42.1467 34.5677 42.8298 34.8409 43.5015C35.0117 43.9113 34.8409 44.3325 34.4994 44.5488C34.1123 44.7879 33.7253 44.6854 33.2699 44.23C33.213 44.3325 33.1561 44.4122 33.1105 44.5033C31.0272 48.5788 27.6917 50.9239 23.2063 51.6639C22.8875 51.7208 22.5688 51.7664 22.25 51.8233C21.6011 51.8233 20.9408 51.8233 20.292 51.8233C19.8707 51.7664 19.4495 51.7208 19.0397 51.6298C13.6436 50.5027 10.16 47.2924 8.62318 41.9988C8.40688 41.2588 8.32719 40.4733 8.1792 39.7105C8.19058 38.9933 8.19058 38.2875 8.19058 37.5817Z" fill="black" stroke="black" stroke-width="0.7"/>
<path d="M28.3633 16.4526C28.5454 16.4299 28.6593 16.4071 28.7731 16.4071C29.1829 16.4185 29.4789 16.612 29.6042 17.0105C29.718 17.3861 29.5928 17.7846 29.2399 17.9667C28.5454 18.3083 27.8282 18.627 27.0996 18.9116C26.667 19.0824 26.2686 18.8775 26.0523 18.4221C25.7905 17.8529 25.54 17.2837 25.2896 16.7145C25.0391 16.1339 25.1074 15.7241 25.5059 15.4622C25.8929 15.2004 26.3141 15.3028 26.7695 15.7696C26.8492 15.6216 26.9175 15.4964 26.9858 15.3598C31.1638 7.23147 41.1136 6.33212 46.9081 10.9996C52.5319 15.5191 53.4768 23.8865 48.9686 29.533C44.1645 35.5439 35.023 36.1131 29.5245 30.717C27.02 28.2466 24.0259 27.0741 20.5082 27.279C19.0738 27.3587 17.7191 27.7343 16.4213 28.3491C16.3416 28.3832 16.2733 28.4288 16.1936 28.4629C15.6586 28.702 15.169 28.554 14.9641 28.0986C14.7592 27.6433 14.9186 27.1538 15.4536 26.9488C16.4896 26.539 17.5369 26.0723 18.6184 25.856C23.2176 24.9566 27.259 26.1406 30.6287 29.4192C32.9739 31.7074 35.7744 32.7775 39.0189 32.7206C44.7679 32.6295 49.4809 28.258 50.0501 22.5432C50.6535 16.5209 46.8626 11.3412 40.9542 10.1117C35.9565 9.0757 30.8223 11.5575 28.5341 16.0997C28.4885 16.1908 28.443 16.2933 28.3633 16.4526Z" fill="black" stroke="black" stroke-width="0.7"/>
<path d="M44.5858 27.5523C44.0621 27.336 43.6295 27.1766 43.2083 26.9717C42.9123 26.8237 42.696 26.8806 42.3886 27.0058C41.5804 27.3474 41.2958 27.9052 41.2616 28.7476C41.2275 29.647 40.9542 29.8177 40.0435 29.8177C39.11 29.8177 38.1651 29.8177 37.2316 29.8177C36.4803 29.8177 36.207 29.5673 36.1273 28.8273C36.116 28.7704 36.1046 28.7135 36.1046 28.6565C36.2753 27.5864 35.4557 27.2449 34.7385 26.8578C34.6474 26.8123 34.488 26.8465 34.3856 26.892C34.0213 27.04 33.657 27.2107 33.2927 27.3587C32.7918 27.5637 32.4047 27.4384 32.1315 26.9717C31.5737 26.0268 31.0272 25.0819 30.4922 24.137C30.2076 23.6361 30.31 23.2718 30.7654 22.9075C30.7996 22.8848 30.8337 22.862 30.8679 22.8278C31.938 22.031 31.9494 22.031 31.8811 20.6876C31.8811 20.5738 31.7786 20.4258 31.6875 20.3575C31.3915 20.1184 31.0728 19.9021 30.7654 19.6744C30.31 19.3215 30.2076 18.9458 30.4922 18.4449C31.0272 17.4887 31.5737 16.5438 32.1315 15.6103C32.4047 15.1435 32.7918 15.0297 33.2927 15.2232C33.3496 15.246 33.3951 15.2688 33.4521 15.2915C34.6816 15.8266 34.6816 15.8266 35.8086 15.1094C35.9111 15.0525 35.9794 14.8931 36.0021 14.7679C36.059 14.3922 36.0932 14.0051 36.1387 13.6294C36.207 13.0716 36.5144 12.787 37.0609 12.7756C38.1537 12.7642 39.2466 12.7642 40.3395 12.7756C40.8745 12.7756 41.1819 13.0602 41.2502 13.5839C41.2616 13.6522 41.2844 13.7319 41.273 13.8002C41.1364 14.8475 41.7739 15.3485 42.6049 15.7014C42.7188 15.7469 42.8782 15.7355 42.992 15.69C43.3677 15.5534 43.7206 15.3712 44.0849 15.2232C44.5858 15.0183 44.9728 15.1435 45.2461 15.6103C45.8039 16.5552 46.3503 17.5001 46.8854 18.4449C47.1586 18.9345 47.0675 19.3215 46.6122 19.6744C46.5666 19.7086 46.5211 19.7427 46.4756 19.7769C45.4168 20.5624 45.4054 20.5624 45.4965 21.883C45.5079 21.9968 45.599 22.1334 45.69 22.2131C45.986 22.4522 46.3048 22.6685 46.6122 22.9075C47.0675 23.2604 47.1586 23.6475 46.8854 24.137C46.3503 25.0933 45.8153 26.0382 45.2347 26.9717C45.1208 27.2108 44.8249 27.3587 44.5858 27.5523ZM45.0981 23.898C44.7565 23.6475 44.4719 23.4198 44.1646 23.2149C43.8117 22.9645 43.7092 22.6457 43.732 22.2245C43.7661 21.6211 43.7661 21.0064 43.732 20.403C43.7092 19.959 43.8117 19.6289 44.176 19.3784C44.4833 19.1735 44.7679 18.9458 45.0867 18.7068C44.7679 18.149 44.4606 17.6253 44.1418 17.0788C43.732 17.2496 43.3904 17.3976 43.0375 17.557C42.6732 17.7164 42.3659 17.6481 42.0357 17.4318C41.4893 17.0788 40.9201 16.7601 40.3509 16.4527C40.0321 16.2819 39.8272 16.077 39.7817 15.7127C39.7361 15.3029 39.6792 14.9045 39.6337 14.4946C38.9962 14.4946 38.3928 14.4946 37.7553 14.4946C37.7097 14.8589 37.6642 15.2118 37.6414 15.5647C37.6073 16.0429 37.3568 16.3161 36.9129 16.521C36.4006 16.7601 35.911 17.0447 35.4443 17.3634C35.0572 17.6367 34.6929 17.7277 34.2603 17.5114C33.9302 17.3521 33.6001 17.2155 33.2472 17.0675C32.917 17.6367 32.621 18.1603 32.3137 18.6954C32.6552 18.9458 32.9398 19.1735 33.2472 19.3784C33.5887 19.6175 33.6911 19.9249 33.6684 20.3347C33.6342 20.9722 33.6342 21.6097 33.6684 22.2359C33.6911 22.6685 33.5659 22.9758 33.213 23.2149C32.917 23.4198 32.621 23.6475 32.3137 23.8866C32.6324 24.433 32.9284 24.9567 33.2472 25.5031C33.6456 25.3324 34.0099 25.1844 34.3628 25.025C34.7043 24.877 35.0117 24.9339 35.3305 25.1388C35.8769 25.4917 36.4347 25.8219 37.0153 26.1179C37.3455 26.2886 37.5618 26.5049 37.6073 26.8806C37.6528 27.2791 37.7097 27.6889 37.7553 28.0873C38.4042 28.0873 39.0075 28.0873 39.6223 28.0873C39.6678 27.7003 39.7361 27.336 39.7589 26.9717C39.793 26.5163 40.0435 26.2772 40.4419 26.0837C40.977 25.8219 41.4893 25.5259 41.9788 25.1958C42.3431 24.9453 42.6846 24.877 43.0945 25.0591C43.4246 25.2071 43.7661 25.3551 44.1418 25.5145C44.4719 24.9681 44.7679 24.4444 45.0981 23.898Z" fill="black" stroke="black" stroke-width="0.7"/>
<path d="M27.1793 44.9358C26.6556 44.7081 26.2116 44.5374 25.7904 44.3211C25.5172 44.1845 25.2895 44.1617 25.0618 44.378C24.948 44.4805 24.8114 44.5829 24.6634 44.6171C24.0942 44.7764 24.0031 45.1977 23.969 45.7099C23.8779 47.076 23.7299 47.2013 22.3752 47.2013C21.51 47.2013 20.6448 47.2013 19.7796 47.2013C19.1421 47.2013 18.8347 46.9167 18.7778 46.2905C18.7778 46.2792 18.7778 46.2678 18.7778 46.245C18.6412 44.8675 18.6525 44.8675 17.4231 44.2642C17.3206 44.2186 17.1498 44.2414 17.036 44.2755C16.6831 44.4122 16.3302 44.5829 15.9773 44.7309C15.4536 44.9472 15.0665 44.8334 14.7819 44.3438C14.2241 43.399 13.6777 42.4541 13.1426 41.5092C12.8694 41.0311 12.9718 40.6554 13.3931 40.3139C13.4158 40.2911 13.4386 40.2797 13.4614 40.2683C14.429 39.8585 14.6909 39.0844 14.5315 38.1281C14.5087 37.9915 14.429 37.8435 14.3266 37.7524C14.0306 37.502 13.7118 37.297 13.4044 37.058C12.9491 36.7051 12.858 36.3294 13.1312 35.8285C13.6663 34.8722 14.2127 33.9273 14.7705 32.9938C15.0438 32.5271 15.4308 32.4132 15.9317 32.6182C16.2846 32.7662 16.6262 32.9483 16.9905 33.0621C17.1498 33.1077 17.3434 33.0508 17.5255 33.0166C17.571 33.0052 17.6166 32.9483 17.6735 32.9255C18.5615 32.6637 18.7436 31.992 18.7664 31.1724C18.7892 30.3869 19.0851 30.1592 19.8707 30.1592C20.8611 30.1592 21.8629 30.1592 22.8533 30.1592C23.5477 30.1592 23.8779 30.3869 23.8779 31.0585C23.8665 32.049 24.2422 32.7206 25.1757 33.0394C25.3237 33.0849 25.5058 33.1191 25.631 33.0735C25.9953 32.9483 26.3369 32.7775 26.6898 32.6295C27.2248 32.4132 27.6005 32.5271 27.8851 33.0052C28.4429 33.9501 28.9894 34.895 29.5244 35.8399C29.7863 36.3066 29.6952 36.7051 29.274 37.0466C29.2398 37.0694 29.2057 37.1035 29.1715 37.1263C28.2608 37.5361 27.942 38.2533 28.1242 39.2096C28.1583 39.3576 28.2266 39.5283 28.3291 39.6194C28.6251 39.8813 28.9666 40.0862 29.2854 40.3366C29.6952 40.6554 29.7863 41.0538 29.5358 41.5092C28.9894 42.4882 28.4315 43.4673 27.8396 44.4122C27.7143 44.6285 27.4184 44.7537 27.1793 44.9358ZM15.8862 42.8981C16.2505 42.7387 16.592 42.6021 16.9222 42.4427C17.3206 42.2605 17.6621 42.3175 18.0378 42.5793C18.5159 42.9094 19.0168 43.2168 19.5405 43.4559C19.9959 43.6608 20.2349 43.9568 20.2805 44.4463C20.3032 44.7992 20.3602 45.1407 20.3943 45.4823C21.0432 45.4823 21.6466 45.4823 22.2727 45.4823C22.3182 45.0952 22.3866 44.7309 22.4093 44.3666C22.4435 43.9112 22.6939 43.6722 23.0924 43.4787C23.616 43.2282 24.1283 42.9436 24.5951 42.6135C24.9935 42.3288 25.3578 42.2719 25.779 42.4768C26.0978 42.6248 26.4165 42.7614 26.7695 42.9094C27.0882 42.3516 27.3956 41.8279 27.7143 41.2815C27.3956 41.0424 27.0882 40.8148 26.7808 40.5985C26.4279 40.348 26.3369 40.0179 26.3596 39.5967C26.3938 38.9933 26.3938 38.3785 26.3596 37.7752C26.3369 37.354 26.4279 37.0238 26.7808 36.7734C27.0882 36.5571 27.3956 36.318 27.7143 36.0789C27.3956 35.5211 27.0768 34.9861 26.7695 34.451C26.371 34.6218 26.0295 34.7698 25.6993 34.9178C25.3237 35.0885 25.0049 35.0202 24.6634 34.7925C24.1511 34.451 23.6047 34.1323 23.0582 33.859C22.6712 33.6655 22.4549 33.4264 22.4207 32.9938C22.3866 32.6182 22.3296 32.2425 22.2841 31.8896C21.6238 31.8896 21.0205 31.8896 20.4057 31.8896C20.3602 32.288 20.3146 32.6523 20.2805 33.0166C20.2349 33.4378 20.0073 33.6883 19.6202 33.8704C19.0738 34.1323 18.5501 34.4396 18.0492 34.7811C17.6963 35.0202 17.3661 35.0885 16.9791 34.9178C16.6375 34.7584 16.2846 34.6104 15.9203 34.451C15.5902 35.0202 15.2942 35.5439 14.9868 36.0789C15.317 36.3294 15.613 36.5571 15.909 36.762C16.2505 37.0011 16.3529 37.3084 16.3416 37.7183C16.3074 38.3672 16.3188 39.0161 16.3416 39.665C16.3643 40.0634 16.2391 40.3594 15.9203 40.5871C15.613 40.8034 15.3056 41.0424 14.9868 41.2815C15.2714 41.8279 15.5788 42.3516 15.8862 42.8981Z" fill="black" stroke="black" stroke-width="0.7"/>
<path d="M13.4846 29.977C13.4846 30.4438 13.1316 30.8195 12.6763 30.8422C12.2095 30.8536 11.7997 30.4666 11.7883 29.9998C11.7769 29.5331 12.1868 29.1346 12.6535 29.146C13.1089 29.146 13.4732 29.5103 13.4846 29.977Z" fill="black" stroke="black" stroke-width="0.7"/>
<path d="M41.6938 21.3365C41.6938 22.9416 40.3505 24.2736 38.7339 24.285C37.0946 24.2964 35.7285 22.9416 35.7285 21.3251C35.7399 19.6289 37.0263 18.3311 38.7226 18.3311C40.4074 18.3311 41.6938 19.6289 41.6938 21.3365ZM38.6998 22.566C39.4056 22.5773 39.9748 22.0309 39.9862 21.3137C39.9976 20.6193 39.4398 20.0273 38.7453 20.0159C38.0395 19.9931 37.4248 20.5851 37.4361 21.2909C37.4361 22.0081 37.994 22.566 38.6998 22.566Z" fill="black" stroke="black" stroke-width="0.7"/>
<path d="M21.3393 35.7032C22.9673 35.7032 24.3106 37.0238 24.3106 38.629C24.3106 40.3366 23.0469 41.6344 21.3507 41.6458C19.6545 41.6572 18.3339 40.3252 18.3453 38.6176C18.3567 37.0124 19.7114 35.7032 21.3393 35.7032ZM22.603 38.6859C22.603 37.9687 22.0679 37.4223 21.3507 37.4109C20.6221 37.3995 20.0529 37.9687 20.0529 38.6859C20.0529 39.3689 20.6563 39.9609 21.3393 39.9609C22.0224 39.9609 22.603 39.3803 22.603 38.6859Z" fill="black" stroke="black" stroke-width="0.7"/>
</svg>
