<svg width="60" height="60" viewBox="0 0 60 60" fill="none" xmlns="http://www.w3.org/2000/svg">
<mask id="path-1-inside-1_804_17396" fill="white">
<path fill-rule="evenodd" clip-rule="evenodd" d="M0 0H60L60 29.0667H52.2V30.9333H60L60 60H0V30.9332H7.8V29.0665H0V0Z"/>
</mask>
<path d="M60 0L61 1.3124e-07V-1H60V0ZM0 0V-1H-1V0H0ZM60 29.0667V30.0667H61V29.0667H60ZM52.2 29.0667V28.0667H51.2V29.0667H52.2ZM52.2 30.9333H51.2V31.9333H52.2V30.9333ZM60 30.9333H61V29.9333H60V30.9333ZM60 60V61H61V60H60ZM0 60H-1V61H0V60ZM0 30.9332V29.9332H-1V30.9332H0ZM7.8 30.9332V31.9332H8.8V30.9332H7.8ZM7.8 29.0665H8.8V28.0665H7.8V29.0665ZM0 29.0665H-1V30.0665H0V29.0665ZM60 -1H0V1H60V-1ZM61 29.0667L61 1.3124e-07L59 -1.3124e-07L59 29.0667H61ZM52.2 30.0667H60V28.0667H52.2V30.0667ZM53.2 30.9333V29.0667H51.2V30.9333H53.2ZM60 29.9333H52.2V31.9333H60V29.9333ZM61 60L61 30.9333H59L59 60H61ZM0 61H60V59H0V61ZM-1 30.9332V60H1V30.9332H-1ZM7.8 29.9332H0V31.9332H7.8V29.9332ZM6.8 29.0665V30.9332H8.8V29.0665H6.8ZM0 30.0665H7.8V28.0665H0V30.0665ZM-1 0V29.0665H1V0H-1Z" fill="#F2994A" mask="url(#path-1-inside-1_804_17396)"/>
<path d="M38.272 34.6396C37.992 34.647 37.7133 34.5972 37.4532 34.4932C37.1931 34.3891 36.957 34.233 36.7593 34.0345L35.3979 32.673C35.155 32.4323 34.9764 32.1343 34.8786 31.8066C34.7808 31.4789 34.7669 31.1318 34.8382 30.7973C35.0059 30.0678 34.9854 29.3076 34.7788 28.5881C34.5721 27.8687 34.186 27.2135 33.6567 26.6842C33.1274 26.1549 32.4723 25.7688 31.7528 25.5622C31.0334 25.3555 30.2732 25.3351 29.5437 25.5028C29.2197 25.5719 28.8838 25.5612 28.565 25.4716C28.2461 25.382 27.9538 25.2162 27.7133 24.9885L26.3518 23.6119C26.1575 23.4217 26.003 23.1946 25.8976 22.944C25.7921 22.6933 25.7378 22.4241 25.7378 22.1521C25.7378 21.8802 25.7921 21.611 25.8976 21.3603C26.003 21.1096 26.1575 20.8825 26.3518 20.6924L34.9289 12.1153C35.1204 11.9204 35.3488 11.7657 35.6007 11.66C35.8526 11.5544 36.1231 11.5 36.3963 11.5C36.6694 11.5 36.9399 11.5544 37.1918 11.66C37.4437 11.7657 37.6721 11.9204 37.8636 12.1153L48.3164 22.5681C48.5113 22.7596 48.666 22.988 48.7717 23.2399C48.8773 23.4918 48.9317 23.7623 48.9317 24.0355C48.9317 24.3086 48.8773 24.5791 48.7717 24.831C48.666 25.0829 48.5113 25.3113 48.3164 25.5028L39.7393 34.0647C39.5445 34.2523 39.3147 34.3996 39.0629 34.4982C38.8111 34.5969 38.5424 34.6449 38.272 34.6396V34.6396ZM30.6026 23.8842C31.4921 23.8835 32.3703 24.084 33.1715 24.4707C33.9726 24.8574 34.6759 25.4203 35.2288 26.1172C35.7817 26.8141 36.1698 27.627 36.3641 28.4951C36.5584 29.3632 36.5539 30.264 36.3509 31.1301C36.3394 31.2158 36.3484 31.3031 36.3774 31.3847C36.4063 31.4662 36.4543 31.5397 36.5173 31.599L37.8787 32.9605C37.9295 33.0135 37.9906 33.0558 38.0582 33.0846C38.1258 33.1135 38.1985 33.1284 38.272 33.1284C38.3455 33.1284 38.4182 33.1135 38.4858 33.0846C38.5534 33.0558 38.6145 33.0135 38.6653 32.9605L47.2575 24.3834C47.361 24.2786 47.419 24.1373 47.419 23.9901C47.419 23.8428 47.361 23.7015 47.2575 23.5968L36.7896 13.1288C36.6848 13.0253 36.5435 12.9673 36.3963 12.9673C36.249 12.9673 36.1077 13.0253 36.0029 13.1288V13.1288L27.4107 21.7059C27.3063 21.8132 27.2479 21.957 27.2479 22.1068C27.2479 22.2565 27.3063 22.4003 27.4107 22.5076L28.7722 23.8691C28.8315 23.9321 28.905 23.98 28.9865 24.009C29.0681 24.0379 29.1554 24.047 29.2411 24.0355C29.6873 23.931 30.1443 23.8802 30.6026 23.8842V23.8842Z" fill="black" stroke="black" stroke-width="0.4"/>
<path d="M46.4556 26.5014C46.3567 26.5008 46.2589 26.4804 46.1679 26.4415C46.077 26.4025 45.9948 26.3457 45.9262 26.2745L34.0665 14.5056C33.9956 14.4353 33.9393 14.3516 33.9009 14.2594C33.8625 14.1673 33.8428 14.0684 33.8428 13.9686C33.8428 13.8687 33.8625 13.7698 33.9009 13.6777C33.9393 13.5855 33.9956 13.5019 34.0665 13.4315C34.2079 13.293 34.398 13.2153 34.596 13.2153C34.7939 13.2153 34.984 13.293 35.1254 13.4315L46.9548 25.261C47.0934 25.4023 47.171 25.5924 47.171 25.7904C47.171 25.9884 47.0934 26.1785 46.9548 26.3199C46.8151 26.4375 46.6383 26.5019 46.4556 26.5014V26.5014Z" fill="black" stroke="black" stroke-width="0.4"/>
<path d="M17.0185 45.7883C16.3766 45.7883 15.761 45.5333 15.3071 45.0794C14.8532 44.6255 14.5982 44.0099 14.5982 43.3679C14.5912 43.0447 14.6507 42.7236 14.773 42.4243C14.8954 42.1251 15.0778 41.8541 15.3092 41.6283C15.5293 41.3854 15.7966 41.1897 16.0946 41.0531C16.3927 40.9165 16.7154 40.8419 17.0432 40.8339C17.371 40.8258 17.697 40.8844 18.0014 41.0061C18.3058 41.1279 18.5824 41.3102 18.8142 41.542C19.046 41.7739 19.2284 42.0504 19.3501 42.3548C19.4718 42.6593 19.5304 42.9853 19.5224 43.313C19.5143 43.6408 19.4397 43.9635 19.3032 44.2616C19.1666 44.5597 18.9709 44.8269 18.7279 45.0471V45.0471C18.5082 45.2802 18.2434 45.4661 17.9495 45.5935C17.6556 45.7209 17.3389 45.7872 17.0185 45.7883V45.7883ZM17.0185 42.4603C16.8974 42.46 16.7775 42.4839 16.6658 42.5307C16.5541 42.5775 16.4529 42.6461 16.3681 42.7326C16.2855 42.8163 16.2202 42.9156 16.1761 43.0246C16.1319 43.1336 16.1098 43.2503 16.1109 43.3679C16.1158 43.5409 16.1701 43.7089 16.2673 43.8521C16.3645 43.9953 16.5007 44.1077 16.6596 44.176C16.8186 44.2444 16.9939 44.2659 17.1646 44.238C17.3354 44.21 17.4947 44.1339 17.6236 44.0184V44.0184C17.7909 43.8462 17.8845 43.6156 17.8845 43.3755C17.8845 43.1354 17.7909 42.9048 17.6236 42.7326C17.4644 42.5675 17.2477 42.4699 17.0185 42.4603V42.4603Z" fill="black" stroke="black" stroke-width="0.4"/>
<path d="M37.3798 25.4725C36.7379 25.4725 36.1223 25.2175 35.6684 24.7636C35.2145 24.3097 34.9595 23.6941 34.9595 23.0522C34.9595 22.4103 35.2145 21.7946 35.6684 21.3407C36.1223 20.8868 36.7379 20.6318 37.3798 20.6318V20.6318C38.0217 20.6318 38.6374 20.8868 39.0913 21.3407C39.5452 21.7946 39.8002 22.4103 39.8002 23.0522C39.7974 23.6933 39.5419 24.3076 39.0892 24.7615C38.6361 25.2157 38.0213 25.4714 37.3798 25.4725V25.4725ZM37.3798 22.1445C37.1415 22.1521 36.915 22.2502 36.7464 22.4188C36.5778 22.5874 36.4798 22.8139 36.4722 23.0522C36.4798 23.2239 36.5361 23.3899 36.6344 23.5309C36.7327 23.6719 36.869 23.7821 37.0275 23.8486C37.1859 23.9152 37.36 23.9354 37.5295 23.9069C37.699 23.8783 37.8569 23.8023 37.9849 23.6875C38.0997 23.5596 38.1757 23.4016 38.2042 23.2321C38.2328 23.0627 38.2126 22.8885 38.146 22.7301C38.0795 22.5716 37.9693 22.4353 37.8283 22.337C37.6873 22.2387 37.5213 22.1824 37.3496 22.1748L37.3798 22.1445Z" fill="black" stroke="black" stroke-width="0.4"/>
<path d="M17.0184 48.3146H16.7159C16.0559 48.2838 15.4087 48.1211 14.8126 47.836C14.2164 47.551 13.6835 47.1494 13.2451 46.6549C12.8068 46.1605 12.472 45.5832 12.2604 44.9572C12.0488 44.3313 11.9648 43.6692 12.0134 43.0103C12.0619 42.3513 12.2419 41.7087 12.5429 41.1205C12.8438 40.5322 13.2596 40.0102 13.7656 39.5853C14.2716 39.1604 14.8577 38.8412 15.4891 38.6465C16.1205 38.4518 16.7846 38.3856 17.442 38.4517L32.2968 24.8373C32.4408 24.6978 32.6334 24.6198 32.8339 24.6198C33.0343 24.6198 33.2269 24.6978 33.3709 24.8373C33.4418 24.9076 33.498 24.9913 33.5364 25.0835C33.5748 25.1756 33.5946 25.2745 33.5946 25.3743C33.5946 25.4742 33.5748 25.5731 33.5364 25.6652C33.498 25.7574 33.4418 25.841 33.3709 25.9114L18.2437 39.7981C18.1591 39.8754 18.0577 39.932 17.9474 39.9635C17.8372 39.995 17.7211 40.0005 17.6084 39.9796C16.8904 39.8582 16.1524 39.9683 15.501 40.2939C14.8497 40.6194 14.3186 41.1436 13.9847 41.7907C13.6508 42.4378 13.5312 43.1743 13.6432 43.8938C13.7553 44.6134 14.0932 45.2786 14.6081 45.7935C15.123 46.3085 15.7883 46.6463 16.5078 46.7584C17.2273 46.8705 17.9638 46.7509 18.6109 46.4169C19.258 46.083 19.7822 45.552 20.1078 44.9006C20.4333 44.2492 20.5434 43.5112 20.422 42.7932C20.4011 42.6805 20.4066 42.5645 20.4381 42.4542C20.4696 42.344 20.5262 42.2425 20.6036 42.1579L34.4751 27.0308C34.5367 26.9421 34.6166 26.8677 34.7093 26.8125C34.8021 26.7572 34.9056 26.7225 35.0129 26.7106C35.1202 26.6987 35.2288 26.7099 35.3314 26.7435C35.434 26.777 35.5282 26.8321 35.6077 26.9051C35.6872 26.9781 35.7502 27.0673 35.7924 27.1666C35.8346 27.266 35.8551 27.3732 35.8524 27.4811C35.8497 27.589 35.824 27.6951 35.7769 27.7923C35.7298 27.8894 35.6625 27.9753 35.5794 28.0443L21.965 42.884C22.0259 43.5662 21.9441 44.2537 21.7246 44.9026C21.5052 45.5514 21.153 46.1474 20.6905 46.6527C20.228 47.1579 19.6653 47.5612 19.0382 47.8369C18.4112 48.1127 17.7337 48.2547 17.0487 48.2541L17.0184 48.3146Z" fill="black" stroke="black" stroke-width="0.4"/>
</svg>
