<svg width="60" height="60" viewBox="0 0 60 60" fill="none" xmlns="http://www.w3.org/2000/svg">
<mask id="path-1-inside-1_804_17389" fill="white">
<path fill-rule="evenodd" clip-rule="evenodd" d="M0 0H60L60 29.0667H52.2V30.9333H60L60 60H0V30.9332H7.8V29.0665H0V0Z"/>
</mask>
<path d="M60 0L61 1.3124e-07V-1H60V0ZM0 0V-1H-1V0H0ZM60 29.0667V30.0667H61V29.0667H60ZM52.2 29.0667V28.0667H51.2V29.0667H52.2ZM52.2 30.9333H51.2V31.9333H52.2V30.9333ZM60 30.9333H61V29.9333H60V30.9333ZM60 60V61H61V60H60ZM0 60H-1V61H0V60ZM0 30.9332V29.9332H-1V30.9332H0ZM7.8 30.9332V31.9332H8.8V30.9332H7.8ZM7.8 29.0665H8.8V28.0665H7.8V29.0665ZM0 29.0665H-1V30.0665H0V29.0665ZM60 -1H0V1H60V-1ZM61 29.0667L61 1.3124e-07L59 -1.3124e-07L59 29.0667H61ZM52.2 30.0667H60V28.0667H52.2V30.0667ZM53.2 30.9333V29.0667H51.2V30.9333H53.2ZM60 29.9333H52.2V31.9333H60V29.9333ZM61 60L61 30.9333H59L59 60H61ZM0 61H60V59H0V61ZM-1 30.9332V60H1V30.9332H-1ZM7.8 29.9332H0V31.9332H7.8V29.9332ZM6.8 29.0665V30.9332H8.8V29.0665H6.8ZM0 30.0665H7.8V28.0665H0V30.0665ZM-1 0V29.0665H1V0H-1Z" fill="#F2994A" mask="url(#path-1-inside-1_804_17389)"/>
<path d="M20.6975 24.0395C19.5275 24.0395 18.3837 23.6925 17.4109 23.0425C16.438 22.3924 15.6798 21.4685 15.2321 20.3875C14.7843 19.3066 14.6671 18.1171 14.8954 16.9696C15.1237 15.822 15.6871 14.7679 16.5144 13.9406C17.3418 13.1132 18.3959 12.5498 19.5434 12.3216C20.691 12.0933 21.8804 12.2104 22.9614 12.6582C24.0424 13.106 24.9663 13.8642 25.6163 14.837C26.2664 15.8099 26.6133 16.9536 26.6133 18.1237C26.6133 19.6926 25.99 21.1973 24.8806 22.3068C23.7712 23.4162 22.2665 24.0395 20.6975 24.0395V24.0395ZM20.6975 14.1798C19.9175 14.1798 19.155 14.4111 18.5064 14.8445C17.8579 15.2778 17.3524 15.8938 17.0539 16.6144C16.7554 17.3351 16.6773 18.1281 16.8294 18.8931C16.9816 19.6581 17.3572 20.3608 17.9088 20.9124C18.4604 21.464 19.1631 21.8396 19.9281 21.9918C20.6932 22.1439 21.4861 22.0658 22.2068 21.7673C22.9274 21.4688 23.5434 20.9633 23.9767 20.3148C24.4101 19.6662 24.6414 18.9037 24.6414 18.1237C24.6414 17.0777 24.2259 16.0746 23.4863 15.3349C22.7466 14.5953 21.7435 14.1798 20.6975 14.1798Z" fill="black"/>
<path d="M40.4561 17.0983C39.676 17.0983 38.9135 16.867 38.265 16.4336C37.6164 16.0003 37.1109 15.3843 36.8124 14.6637C36.5139 13.943 36.4358 13.1501 36.588 12.385C36.7402 11.62 37.1158 10.9173 37.6673 10.3657C38.2189 9.81414 38.9216 9.43853 39.6867 9.28635C40.4517 9.13418 41.2447 9.21228 41.9653 9.51078C42.686 9.80928 43.3019 10.3148 43.7353 10.9633C44.1686 11.6119 44.3999 12.3744 44.3999 13.1544C44.3999 14.2004 43.9844 15.2035 43.2448 15.9432C42.5052 16.6828 41.502 17.0983 40.4561 17.0983ZM40.4561 11.1825C40.0661 11.1825 39.6848 11.2982 39.3605 11.5148C39.0362 11.7315 38.7835 12.0395 38.6342 12.3998C38.485 12.7601 38.4459 13.1566 38.522 13.5391C38.5981 13.9217 38.7859 14.273 39.0617 14.5488C39.3375 14.8246 39.6888 15.0124 40.0714 15.0885C40.4539 15.1646 40.8504 15.1255 41.2107 14.9763C41.571 14.827 41.879 14.5743 42.0957 14.25C42.3123 13.9257 42.428 13.5444 42.428 13.1544C42.4126 12.6418 42.1981 12.1553 41.8299 11.7982C41.4618 11.441 40.969 11.2414 40.4561 11.2417V11.1825Z" fill="black"/>
<path d="M25.6074 18.9913C25.3853 18.9885 25.1703 18.9123 24.9961 18.7744C24.8825 18.6847 24.79 18.571 24.7252 18.4415C24.6605 18.312 24.625 18.1698 24.6214 18.0251C24.5966 17.1005 24.2476 16.2141 23.6355 15.5207C23.5203 15.3913 23.4429 15.2328 23.4116 15.0624C23.3803 14.8921 23.3963 14.7164 23.458 14.5545C23.5125 14.3919 23.6085 14.2464 23.7365 14.1323C23.8644 14.0182 24.0199 13.9394 24.1876 13.9038L37.4981 11.3205C37.6653 11.289 37.8378 11.3013 37.9988 11.3562C38.1598 11.411 38.3039 11.5066 38.417 11.6337C38.5302 11.7607 38.6085 11.9149 38.6445 12.0811C38.6804 12.2474 38.6727 12.4201 38.6221 12.5826C38.5635 12.7813 38.5304 12.9867 38.5235 13.1939C38.5284 13.4818 38.5962 13.7652 38.7222 14.0241C38.8483 14.283 39.0295 14.5111 39.2532 14.6925C39.4065 14.8051 39.5224 14.9612 39.5857 15.1406C39.6491 15.32 39.6569 15.5143 39.6081 15.6982C39.565 15.8815 39.4692 16.0483 39.3326 16.1779C39.1959 16.3075 39.0244 16.3944 38.839 16.4278L25.9032 18.9716L25.6074 18.9913ZM26.0018 15.5602C26.2017 15.9686 26.3539 16.3987 26.4553 16.8419L36.9066 14.87C36.7085 14.4689 36.5881 14.034 36.5516 13.5882L26.0018 15.5602Z" fill="black"/>
<path d="M28.7624 43.9362C27.8771 43.9362 27.0116 43.6737 26.2755 43.1818C25.5394 42.6899 24.9657 41.9909 24.6269 41.1729C24.2881 40.355 24.1994 39.455 24.3721 38.5866C24.5449 37.7183 24.9712 36.9207 25.5972 36.2947C26.2232 35.6687 27.0208 35.2424 27.8891 35.0697C28.7574 34.8969 29.6575 34.9856 30.4754 35.3244C31.2933 35.6632 31.9924 36.2369 32.4843 36.973C32.9762 37.7092 33.2387 38.5746 33.2387 39.4599C33.2387 40.6471 32.7671 41.7857 31.9276 42.6251C31.0882 43.4646 29.9496 43.9362 28.7624 43.9362V43.9362ZM28.7624 36.9556C28.2671 36.9556 27.7829 37.1025 27.3711 37.3776C26.9592 37.6528 26.6382 38.0439 26.4487 38.5015C26.2591 38.9592 26.2096 39.4627 26.3062 39.9485C26.4028 40.4343 26.6413 40.8805 26.9916 41.2308C27.3418 41.581 27.788 41.8195 28.2738 41.9162C28.7596 42.0128 29.2632 41.9632 29.7208 41.7736C30.1784 41.5841 30.5695 41.2631 30.8447 40.8513C31.1199 40.4394 31.2668 39.9552 31.2668 39.4599C31.2668 38.7957 31.0029 38.1587 30.5333 37.6891C30.0636 37.2194 29.4266 36.9556 28.7624 36.9556Z" fill="black"/>
<path d="M26.4552 37.843H26.258C26.1054 37.8105 25.9628 37.7415 25.8426 37.6419C25.7224 37.5423 25.6281 37.4151 25.5679 37.2711L19.376 23.4676C19.3076 23.3118 19.2808 23.1409 19.2981 22.9715C19.3153 22.8022 19.3762 22.6402 19.4746 22.5014C19.5722 22.3596 19.7059 22.2464 19.8619 22.1736C20.0179 22.1008 20.1906 22.071 20.362 22.0873H20.5789C21.4211 22.0944 22.2459 21.847 22.9452 21.3774C23.0662 21.2953 23.2036 21.2407 23.3479 21.2172C23.4922 21.1937 23.6399 21.2019 23.7807 21.2413C23.9215 21.2808 24.052 21.3504 24.1631 21.4454C24.2743 21.5404 24.3633 21.6585 24.4241 21.7915L30.6554 35.7725C30.7308 35.9446 30.7554 36.1347 30.7264 36.3203C30.6974 36.506 30.6159 36.6795 30.4916 36.8204C30.3673 36.9612 30.2053 37.0637 30.0247 37.1156C29.8441 37.1675 29.6524 37.1667 29.4723 37.1134C29.07 36.9641 28.6335 36.9331 28.2142 37.0239C27.7949 37.1148 27.4103 37.3237 27.106 37.6261C26.9212 37.7724 26.6909 37.8492 26.4552 37.843V37.843ZM21.7817 24.0395L26.889 35.4964C27.3002 35.3032 27.7396 35.1767 28.1905 35.1217L23.0635 23.6254C22.649 23.7768 22.2192 23.8826 21.7817 23.9409V24.0395Z" fill="black"/>
<path d="M45.2873 47.7617H14.4069C14.1454 47.7617 13.8946 47.6578 13.7097 47.4729C13.5248 47.288 13.4209 47.0372 13.4209 46.7758V39.4796C13.4209 39.2181 13.5248 38.9673 13.7097 38.7824C13.8946 38.5975 14.1454 38.4937 14.4069 38.4937H25.2722C25.5337 38.4937 25.7845 38.5975 25.9694 38.7824C26.1543 38.9673 26.2582 39.2181 26.2582 39.4796C26.2582 40.1438 26.522 40.7808 26.9917 41.2505C27.4613 41.7201 28.0983 41.984 28.7625 41.984C29.4267 41.984 30.0637 41.7201 30.5333 41.2505C31.003 40.7808 31.2668 40.1438 31.2668 39.4796C31.2668 39.2181 31.3707 38.9673 31.5556 38.7824C31.7405 38.5975 31.9913 38.4937 32.2528 38.4937H45.2873C45.5488 38.4937 45.7995 38.5975 45.9844 38.7824C46.1693 38.9673 46.2732 39.2181 46.2732 39.4796V46.7758C46.2732 47.0372 46.1693 47.288 45.9844 47.4729C45.7995 47.6578 45.5488 47.7617 45.2873 47.7617ZM15.3928 45.7898H44.3013V40.4656H33.1205C32.8899 41.4483 32.334 42.3243 31.5428 42.9513C30.7517 43.5783 29.7719 43.9195 28.7625 43.9195C27.7531 43.9195 26.7733 43.5783 25.9822 42.9513C25.191 42.3243 24.6351 41.4483 24.4045 40.4656H15.3928V45.7898Z" fill="black"/>
<path d="M40.4562 23.1324C40.1947 23.1324 39.9439 23.0285 39.759 22.8436C39.5741 22.6587 39.4702 22.4079 39.4702 22.1464V16.1123C39.4702 15.8508 39.5741 15.6 39.759 15.4151C39.9439 15.2302 40.1947 15.1263 40.4562 15.1263C40.7177 15.1263 40.9685 15.2302 41.1534 15.4151C41.3383 15.6 41.4421 15.8508 41.4421 16.1123V22.1464C41.4421 22.4079 41.3383 22.6587 41.1534 22.8436C40.9685 23.0285 40.7177 23.1324 40.4562 23.1324Z" fill="black"/>
<path d="M36.9461 24.9269C36.7226 24.9278 36.5054 24.8527 36.3301 24.714C36.1548 24.5753 36.0319 24.3811 35.9815 24.1633C35.931 23.9456 35.9561 23.7171 36.0526 23.5155C36.149 23.3138 36.3111 23.151 36.5123 23.0535L40.0617 21.2591C40.2954 21.1473 40.5633 21.13 40.8094 21.2108C41.0555 21.2917 41.261 21.4643 41.3829 21.6929C41.4957 21.9295 41.5136 22.2003 41.4329 22.4497C41.3522 22.6991 41.1791 22.9081 40.9491 23.0338L37.3996 24.8283C37.2566 24.8913 37.1024 24.9248 36.9461 24.9269V24.9269Z" fill="black"/>
<path d="M38.7208 29.9948C38.5194 29.9893 38.3242 29.9247 38.1594 29.8089C37.9946 29.6932 37.8675 29.5315 37.794 29.344L35.9798 24.3353C35.9315 24.2127 35.9082 24.0816 35.9114 23.9498C35.9146 23.818 35.9443 23.6882 35.9985 23.5681C36.0528 23.4479 36.1306 23.3399 36.2273 23.2503C36.3241 23.1608 36.4378 23.0915 36.5617 23.0467C36.6857 23.0019 36.8174 22.9823 36.949 22.9893C37.0807 22.9962 37.2096 23.0295 37.3282 23.0871C37.4467 23.1448 37.5525 23.2256 37.6393 23.3248C37.7261 23.4241 37.7921 23.5397 37.8334 23.6649L39.7067 28.6736C39.7955 28.9194 39.7831 29.1904 39.6722 29.427C39.5612 29.6637 39.3609 29.8466 39.1151 29.9356C38.9895 29.9837 38.855 30.0039 38.7208 29.9948V29.9948Z" fill="black"/>
<path d="M44.0845 24.9268C43.9348 24.9222 43.7875 24.8887 43.6506 24.8282L40.1012 23.0338C39.9846 22.9755 39.8807 22.8949 39.7954 22.7964C39.71 22.698 39.6448 22.5837 39.6036 22.4601C39.5624 22.3365 39.546 22.206 39.5552 22.0761C39.5645 21.9461 39.5992 21.8193 39.6575 21.7027C39.7157 21.5862 39.7964 21.4823 39.8948 21.3969C39.9932 21.3115 40.1075 21.2464 40.2311 21.2052C40.3547 21.164 40.4852 21.1476 40.6152 21.1568C40.7451 21.166 40.872 21.2008 40.9885 21.259L44.538 23.0535C44.768 23.1792 44.9411 23.3882 45.0218 23.6376C45.1025 23.887 45.0846 24.1578 44.9718 24.3944C44.886 24.5552 44.7582 24.6897 44.6019 24.7835C44.4456 24.8773 44.2667 24.9268 44.0845 24.9268V24.9268Z" fill="black"/>
<path d="M42.3097 29.9947H41.9744C41.7287 29.9057 41.5284 29.7227 41.4174 29.4861C41.3065 29.2494 41.2941 28.9784 41.3829 28.7326L43.197 23.7239C43.2902 23.4814 43.4737 23.2843 43.709 23.1741C43.9442 23.0638 44.213 23.0488 44.4591 23.1324C44.5824 23.1741 44.6959 23.2404 44.793 23.3272C44.89 23.414 44.9685 23.5195 45.0237 23.6373C45.079 23.7552 45.1099 23.883 45.1145 24.0131C45.1191 24.1432 45.0974 24.2729 45.0507 24.3944L43.2365 29.4031C43.1582 29.5826 43.0283 29.7347 42.8632 29.8401C42.6981 29.9454 42.5054 29.9992 42.3097 29.9947V29.9947Z" fill="black"/>
</svg>
