<svg width="60" height="60" viewBox="0 0 60 60" fill="none" xmlns="http://www.w3.org/2000/svg">
<mask id="path-1-inside-1_804_17583" fill="white">
<path fill-rule="evenodd" clip-rule="evenodd" d="M0 0H60L60 29.0667H52.2V30.9333H60L60 60H0V30.9332H7.8V29.0665H0V0Z"/>
</mask>
<path d="M60 0L61 1.3124e-07V-1H60V0ZM0 0V-1H-1V0H0ZM60 29.0667V30.0667H61V29.0667H60ZM52.2 29.0667V28.0667H51.2V29.0667H52.2ZM52.2 30.9333H51.2V31.9333H52.2V30.9333ZM60 30.9333H61V29.9333H60V30.9333ZM60 60V61H61V60H60ZM0 60H-1V61H0V60ZM0 30.9332V29.9332H-1V30.9332H0ZM7.8 30.9332V31.9332H8.8V30.9332H7.8ZM7.8 29.0665H8.8V28.0665H7.8V29.0665ZM0 29.0665H-1V30.0665H0V29.0665ZM60 -1H0V1H60V-1ZM61 29.0667L61 1.3124e-07L59 -1.3124e-07L59 29.0667H61ZM52.2 30.0667H60V28.0667H52.2V30.0667ZM53.2 30.9333V29.0667H51.2V30.9333H53.2ZM60 29.9333H52.2V31.9333H60V29.9333ZM61 60L61 30.9333H59L59 60H61ZM0 61H60V59H0V61ZM-1 30.9332V60H1V30.9332H-1ZM7.8 29.9332H0V31.9332H7.8V29.9332ZM6.8 29.0665V30.9332H8.8V29.0665H6.8ZM0 30.0665H7.8V28.0665H0V30.0665ZM-1 0V29.0665H1V0H-1Z" fill="#F2994A" mask="url(#path-1-inside-1_804_17583)"/>
<path d="M30.0595 50.0101C29.8945 50.0108 29.7313 49.9759 29.581 49.9076L28.419 49.3437C24.406 47.5392 20.9586 44.6782 18.4454 41.0665C15.9323 37.4547 14.4477 33.2279 14.1504 28.8379L13.501 16.0389C13.4904 15.7928 13.5618 15.5501 13.7041 15.349C13.8464 15.148 14.0515 14.9999 14.2871 14.9281L29.6665 10.0409C29.8834 9.97269 30.116 9.97269 30.3329 10.0409L45.7123 14.9281C45.9495 14.9972 46.1563 15.1447 46.2991 15.3464C46.4418 15.548 46.512 15.7921 46.4983 16.0389L45.9686 28.8379C45.6643 33.2282 44.175 37.4539 41.6593 41.0649C39.1437 44.6759 35.6958 47.537 31.6829 49.3437L30.5209 49.8905C30.3779 49.9644 30.2203 50.0052 30.0595 50.0101V50.0101ZM15.7738 16.7224L16.3719 28.6841C16.6369 32.6809 17.986 36.5299 20.2742 39.8176C22.5623 43.1054 25.703 45.7075 29.3589 47.3444L30.0595 47.6691L30.743 47.3444C34.3998 45.7068 37.542 43.1049 39.8329 39.8177C42.1237 36.5304 43.4768 32.6817 43.7471 28.6841L44.3281 16.7224L30.0595 12.2282L15.7738 16.7224Z" fill="black"/>
<path d="M28.5215 31.5718C28.2785 31.5709 28.0432 31.4864 27.8551 31.3326L24.1982 28.5643C24.0323 28.3687 23.9392 28.1217 23.9347 27.8652C23.9303 27.6087 24.0147 27.3586 24.1737 27.1573C24.3327 26.9561 24.5565 26.816 24.8071 26.761C25.0576 26.706 25.3195 26.7394 25.5482 26.8555L28.5728 29.1453L34.622 25.0783C34.8702 24.9217 35.1697 24.868 35.4568 24.9286C35.744 24.9892 35.9962 25.1594 36.1599 25.403C36.2397 25.5253 36.2946 25.6621 36.3214 25.8056C36.3483 25.9491 36.3466 26.0964 36.3164 26.2393C36.2862 26.3821 36.2282 26.5176 36.1457 26.638C36.0631 26.7584 35.9576 26.8613 35.8353 26.9409L29.1367 31.3839C28.9542 31.5049 28.7405 31.5702 28.5215 31.5718V31.5718Z" fill="black"/>
</svg>
