<svg width="60" height="60" viewBox="0 0 60 60" fill="none" xmlns="http://www.w3.org/2000/svg">
<mask id="path-1-inside-1_804_17589" fill="white">
<path fill-rule="evenodd" clip-rule="evenodd" d="M0 0H60L60 29.0667H52.2V30.9333H60L60 60H0V30.9332H7.8V29.0665H0V0Z"/>
</mask>
<path d="M60 0L61 1.3124e-07V-1H60V0ZM0 0V-1H-1V0H0ZM60 29.0667V30.0667H61V29.0667H60ZM52.2 29.0667V28.0667H51.2V29.0667H52.2ZM52.2 30.9333H51.2V31.9333H52.2V30.9333ZM60 30.9333H61V29.9333H60V30.9333ZM60 60V61H61V60H60ZM0 60H-1V61H0V60ZM0 30.9332V29.9332H-1V30.9332H0ZM7.8 30.9332V31.9332H8.8V30.9332H7.8ZM7.8 29.0665H8.8V28.0665H7.8V29.0665ZM0 29.0665H-1V30.0665H0V29.0665ZM60 -1H0V1H60V-1ZM61 29.0667L61 1.3124e-07L59 -1.3124e-07L59 29.0667H61ZM52.2 30.0667H60V28.0667H52.2V30.0667ZM53.2 30.9333V29.0667H51.2V30.9333H53.2ZM60 29.9333H52.2V31.9333H60V29.9333ZM61 60L61 30.9333H59L59 60H61ZM0 61H60V59H0V61ZM-1 30.9332V60H1V30.9332H-1ZM7.8 29.9332H0V31.9332H7.8V29.9332ZM6.8 29.0665V30.9332H8.8V29.0665H6.8ZM0 30.0665H7.8V28.0665H0V30.0665ZM-1 0V29.0665H1V0H-1Z" fill="#F2994A" mask="url(#path-1-inside-1_804_17589)"/>
<path d="M13.9926 17.1763C17.1269 17.1763 18.4702 18.4002 18.4702 21.0271C18.4702 23.654 17.1269 24.9077 13.9926 24.9077H11.0075C10.8729 24.9077 10.7438 24.8542 10.6486 24.7591C10.5535 24.6639 10.5 24.5348 10.5 24.4002V17.6837C10.5 17.5491 10.5535 17.4201 10.6486 17.3249C10.7438 17.2297 10.8729 17.1763 11.0075 17.1763H13.9926ZM12.5 18.6987V23.3853H13.9329C15.903 23.3853 16.4404 22.6987 16.4404 21.0271C16.4404 19.3554 15.903 18.6987 13.9329 18.6987H12.5Z" fill="black"/>
<path d="M21.6338 22.0719V24.4003C21.6338 24.4669 21.6207 24.5329 21.5952 24.5945C21.5697 24.6561 21.5323 24.712 21.4852 24.7591C21.4381 24.8062 21.3821 24.8436 21.3205 24.8691C21.259 24.8946 21.193 24.9078 21.1263 24.9078H20.1413C20.009 24.9006 19.884 24.8448 19.7904 24.7512C19.6967 24.6575 19.641 24.5326 19.6338 24.4003V17.6838C19.6338 17.5492 19.6873 17.4201 19.7824 17.325C19.8776 17.2298 20.0067 17.1763 20.1413 17.1763H24.6189C24.9674 17.1345 25.3208 17.1663 25.6562 17.2696C25.9916 17.373 26.3016 17.5456 26.5661 17.7764C26.8306 18.0071 27.0437 18.2908 27.1917 18.6091C27.3396 18.9274 27.4191 19.2732 27.4249 19.6241C27.4249 20.8182 26.5294 21.3555 25.3951 21.5943C25.8428 21.7435 26.201 22.1316 26.6189 22.848L27.604 24.4003C27.7831 24.6689 27.604 24.9078 27.4249 24.9078H26.1115C25.9431 24.8909 25.7807 24.8365 25.6361 24.7487C25.4915 24.6609 25.3683 24.5419 25.2757 24.4003L24.3503 22.9674C24.2278 22.7049 24.0342 22.4819 23.7916 22.3236C23.5489 22.1653 23.2668 22.0782 22.9771 22.0719H21.6338ZM21.6338 18.6987V20.5495H23.9324C24.5592 20.5495 25.3354 20.3405 25.3354 19.6241C25.3354 18.9077 24.5592 18.6987 23.9324 18.6987H21.6338Z" fill="black"/>
<path d="M28.6489 17.6837C28.6489 17.5491 28.7024 17.4201 28.7976 17.3249C28.8927 17.2297 29.0218 17.1763 29.1564 17.1763H30.1713C30.3059 17.1763 30.435 17.2297 30.5302 17.3249C30.6253 17.4201 30.6788 17.5491 30.6788 17.6837V24.4002C30.6716 24.5325 30.6159 24.6575 30.5222 24.7511C30.4285 24.8448 30.3036 24.9005 30.1713 24.9077H29.1564C29.0241 24.9005 28.8992 24.8448 28.8055 24.7511C28.7119 24.6575 28.6561 24.5325 28.6489 24.4002V17.6837Z" fill="black"/>
<path d="M35.5441 24.9075C35.3721 24.9044 35.2053 24.8482 35.0664 24.7467C34.9275 24.6452 34.8233 24.5033 34.768 24.3404L31.7829 17.6239C31.769 17.57 31.7678 17.5136 31.7794 17.4592C31.7911 17.4048 31.8152 17.3538 31.85 17.3103C31.8847 17.2669 31.9292 17.2321 31.9797 17.2088C32.0302 17.1855 32.0855 17.1743 32.1411 17.1761H33.3352C33.4761 17.1951 33.6091 17.2525 33.7197 17.342C33.8303 17.4315 33.9141 17.5496 33.962 17.6836L36.0516 22.3403L38.1412 17.6836C38.1892 17.5496 38.273 17.4315 38.3835 17.342C38.4941 17.2525 38.6271 17.1951 38.7681 17.1761H39.9621C40.2009 17.1761 40.4397 17.385 40.3203 17.6239L37.3352 24.3404C37.2799 24.5033 37.1757 24.6452 37.0368 24.7467C36.8979 24.8482 36.7311 24.9044 36.5591 24.9075H35.5441Z" fill="black"/>
<path d="M48.5 17.6837V18.1315C48.4929 18.2638 48.4371 18.3887 48.3435 18.4824C48.2498 18.576 48.1248 18.6318 47.9926 18.639H43.2164V20.1912H47.2762C47.4084 20.1984 47.5334 20.2541 47.627 20.3478C47.7207 20.4415 47.7765 20.5664 47.7836 20.6987V21.2062C47.7838 21.3436 47.7313 21.476 47.6369 21.5759C47.5425 21.6759 47.4134 21.7358 47.2762 21.7435H43.2164V23.3256H47.903C48.0326 23.3254 48.1574 23.3747 48.2517 23.4635C48.3461 23.5523 48.4029 23.6739 48.4105 23.8032V24.3405C48.4033 24.4728 48.3476 24.5977 48.2539 24.6914C48.1602 24.7851 48.0353 24.8408 47.903 24.848H41.694C41.5567 24.8404 41.4276 24.7804 41.3332 24.6804C41.2388 24.5805 41.1863 24.4482 41.1865 24.3107V17.6539C41.1941 17.5245 41.251 17.403 41.3453 17.3142C41.4397 17.2254 41.5644 17.176 41.694 17.1763H47.9329C48.0044 17.1678 48.0768 17.1746 48.1455 17.1963C48.2141 17.218 48.2773 17.254 48.331 17.302C48.3846 17.35 48.4274 17.4089 48.4566 17.4747C48.4857 17.5405 48.5005 17.6117 48.5 17.6837V17.6837Z" fill="black"/>
<path d="M41.3063 28.0016H20.0514C19.7041 28.0016 19.3709 28.1396 19.1253 28.3852C18.8797 28.6308 18.7417 28.9639 18.7417 29.3113V39.1903C18.7417 39.3623 18.7756 39.5326 18.8414 39.6915C18.9072 39.8504 19.0037 39.9948 19.1253 40.1164C19.2469 40.2381 19.3913 40.3345 19.5502 40.4003C19.7091 40.4662 19.8794 40.5 20.0514 40.5H41.3063C41.4783 40.5 41.6486 40.4662 41.8075 40.4003C41.9664 40.3345 42.1108 40.2381 42.2324 40.1164C42.354 39.9948 42.4505 39.8504 42.5163 39.6915C42.5821 39.5326 42.616 39.3623 42.616 39.1903V29.3113C42.616 29.1393 42.5821 28.969 42.5163 28.8101C42.4505 28.6512 42.354 28.5068 42.2324 28.3852C42.1108 28.2636 41.9664 28.1671 41.8075 28.1013C41.6486 28.0355 41.4783 28.0016 41.3063 28.0016V28.0016ZM28.6207 37.0948C28.7073 37.0897 28.7941 37.1023 28.8757 37.132C28.9572 37.1617 29.0318 37.2077 29.0949 37.2673C29.158 37.3269 29.2083 37.3988 29.2425 37.4785C29.2768 37.5582 29.2944 37.6441 29.2943 37.7309V38.3671C29.2847 38.5392 29.2095 38.701 29.0842 38.8193C28.9589 38.9377 28.7931 39.0035 28.6207 39.0032H21.1366C20.9643 39.0035 20.7984 38.9377 20.6731 38.8193C20.5478 38.701 20.4726 38.5392 20.463 38.3671V37.3941C20.463 33.1656 26.8245 34.3631 26.8245 32.4921C26.8245 31.4443 26.3006 31.1449 25.1032 31.1449H24.8787C24.5382 31.0953 24.1907 31.1512 23.8829 31.3051C23.5752 31.459 23.3219 31.7034 23.1573 32.0056C23.0893 32.1899 22.9672 32.3493 22.8069 32.4628C22.6466 32.5764 22.4556 32.6388 22.2592 32.6417H21.1366C21.0432 32.6369 20.9517 32.6138 20.8672 32.5735C20.7828 32.5333 20.7071 32.4768 20.6445 32.4073C20.582 32.3378 20.5337 32.2566 20.5026 32.1684C20.4714 32.0802 20.458 31.9867 20.463 31.8933C20.463 30.2468 22.4463 29.2365 24.2051 29.2365H25.1032C27.3484 29.2365 29.182 29.91 29.182 32.4921C29.182 36.2341 22.8205 35.5231 22.8205 37.0948H28.6207ZM40.4456 35.1489C40.4456 37.6187 39.0236 38.891 36.1797 38.891H34.9822C32.1382 38.891 30.7163 37.469 30.7163 35.1489V29.9475C30.7163 29.7787 30.7833 29.6169 30.9026 29.4976C31.0219 29.3783 31.1837 29.3113 31.3524 29.3113H32.6247C32.7934 29.3113 32.9552 29.3783 33.0745 29.4976C33.1938 29.6169 33.2609 29.7787 33.2609 29.9475V35.1863C33.2609 36.496 33.8222 37.1322 35.057 37.1322H36.1048C37.3397 37.1322 37.901 36.496 37.901 35.1863V29.9475C37.901 29.8639 37.9175 29.7812 37.9494 29.704C37.9814 29.6268 38.0283 29.5567 38.0873 29.4976C38.1464 29.4386 38.2165 29.3917 38.2937 29.3597C38.3709 29.3278 38.4536 29.3113 38.5371 29.3113H39.8469C39.9318 29.3058 40.017 29.3185 40.0967 29.3485C40.1763 29.3785 40.2487 29.4252 40.3089 29.4854C40.3691 29.5456 40.4158 29.618 40.4458 29.6977C40.4758 29.7773 40.4885 29.8625 40.483 29.9475L40.4456 35.1489Z" fill="black"/>
</svg>
