<svg width="60" height="60" viewBox="0 0 60 60" fill="none" xmlns="http://www.w3.org/2000/svg">
<mask id="path-1-inside-1_804_17408" fill="white">
<path fill-rule="evenodd" clip-rule="evenodd" d="M0 0H60L60 29.0667H52.2V30.9333H60L60 60H0V30.9332H7.8V29.0665H0V0Z"/>
</mask>
<path d="M60 0L61 1.3124e-07V-1H60V0ZM0 0V-1H-1V0H0ZM60 29.0667V30.0667H61V29.0667H60ZM52.2 29.0667V28.0667H51.2V29.0667H52.2ZM52.2 30.9333H51.2V31.9333H52.2V30.9333ZM60 30.9333H61V29.9333H60V30.9333ZM60 60V61H61V60H60ZM0 60H-1V61H0V60ZM0 30.9332V29.9332H-1V30.9332H0ZM7.8 30.9332V31.9332H8.8V30.9332H7.8ZM7.8 29.0665H8.8V28.0665H7.8V29.0665ZM0 29.0665H-1V30.0665H0V29.0665ZM60 -1H0V1H60V-1ZM61 29.0667L61 1.3124e-07L59 -1.3124e-07L59 29.0667H61ZM52.2 30.0667H60V28.0667H52.2V30.0667ZM53.2 30.9333V29.0667H51.2V30.9333H53.2ZM60 29.9333H52.2V31.9333H60V29.9333ZM61 60L61 30.9333H59L59 60H61ZM0 61H60V59H0V61ZM-1 30.9332V60H1V30.9332H-1ZM7.8 29.9332H0V31.9332H7.8V29.9332ZM6.8 29.0665V30.9332H8.8V29.0665H6.8ZM0 30.0665H7.8V28.0665H0V30.0665ZM-1 0V29.0665H1V0H-1Z" fill="#F2994A" mask="url(#path-1-inside-1_804_17408)"/>
<path d="M31.1511 43.0468C29.2388 43.0468 27.3695 42.4797 25.7795 41.4173C24.1895 40.3549 22.9502 38.8449 22.2184 37.0781C21.4866 35.3114 21.2951 33.3674 21.6682 31.4919C22.0413 29.6163 22.9621 27.8935 24.3143 26.5414C25.6665 25.1892 27.3893 24.2683 29.2648 23.8953C31.1403 23.5222 33.0844 23.7137 34.8511 24.4455C36.6178 25.1773 38.1278 26.4165 39.1902 28.0065C40.2526 29.5965 40.8197 31.4658 40.8197 33.3781C40.8197 34.6478 40.5696 35.9051 40.0837 37.0781C39.5978 38.2512 38.8856 39.3171 37.9878 40.2149C37.09 41.1127 36.0241 41.8249 34.8511 42.3108C33.678 42.7967 32.4208 43.0468 31.1511 43.0468V43.0468ZM31.1511 25.7335C29.6391 25.7335 28.1611 26.1819 26.9039 27.0219C25.6468 27.8619 24.667 29.0558 24.0884 30.4527C23.5098 31.8495 23.3584 33.3866 23.6533 34.8695C23.9483 36.3524 24.6764 37.7146 25.7455 38.7837C26.8146 39.8528 28.1768 40.5809 29.6597 40.8758C31.1426 41.1708 32.6797 41.0194 34.0765 40.4408C35.4734 39.8622 36.6673 38.8824 37.5073 37.6252C38.3473 36.3681 38.7957 34.8901 38.7957 33.3781C38.7957 31.3506 37.9903 29.4062 36.5566 27.9726C35.123 26.5389 33.1785 25.7335 31.1511 25.7335V25.7335Z" fill="black" stroke="black" stroke-width="0.5"/>
<path d="M31.1515 38.2826C30.1815 38.2826 29.2332 37.995 28.4267 37.4561C27.6202 36.9172 26.9916 36.1512 26.6204 35.2551C26.2492 34.3589 26.1521 33.3728 26.3413 32.4215C26.5305 31.4701 26.9976 30.5962 27.6835 29.9103C28.3694 29.2244 29.2433 28.7574 30.1947 28.5681C31.146 28.3789 32.1321 28.476 33.0283 28.8472C33.9244 29.2184 34.6904 29.847 35.2293 30.6535C35.7682 31.4601 36.0558 32.4083 36.0558 33.3783C36.0558 34.679 35.5391 35.9264 34.6194 36.8462C33.6996 37.7659 32.4522 38.2826 31.1515 38.2826V38.2826ZM31.1515 30.4979C30.5818 30.4979 30.0249 30.6668 29.5512 30.9833C29.0775 31.2998 28.7084 31.7497 28.4904 32.276C28.2724 32.8023 28.2153 33.3815 28.3264 33.9402C28.4376 34.4989 28.7119 35.0122 29.1147 35.415C29.5176 35.8178 30.0308 36.0921 30.5895 36.2033C31.1483 36.3144 31.7274 36.2574 32.2537 36.0394C32.78 35.8214 33.2299 35.4522 33.5464 34.9785C33.8629 34.5048 34.0318 33.9479 34.0318 33.3783C34.0318 33 33.9573 32.6255 33.8126 32.276C33.6678 31.9265 33.4556 31.609 33.1882 31.3415C32.9207 31.0741 32.6032 30.8619 32.2537 30.7172C31.9043 30.5724 31.5297 30.4979 31.1515 30.4979V30.4979Z" fill="black" stroke="black" stroke-width="0.5"/>
<path d="M31.1515 18.8986C30.0737 18.8986 29.0201 18.579 28.124 17.9803C27.2279 17.3815 26.5294 16.5304 26.117 15.5347C25.7045 14.5389 25.5966 13.4433 25.8069 12.3862C26.0171 11.3291 26.5361 10.3582 27.2982 9.59607C28.0603 8.83397 29.0313 8.31497 30.0884 8.10471C31.1454 7.89445 32.2411 8.00236 33.2368 8.41481C34.2326 8.82725 35.0836 9.5257 35.6824 10.4218C36.2812 11.318 36.6008 12.3715 36.6008 13.4493C36.6008 14.8946 36.0267 16.2806 35.0047 17.3026C33.9828 18.3245 32.5967 18.8986 31.1515 18.8986V18.8986ZM31.1515 9.55695C30.3816 9.55695 29.6291 9.78523 28.989 10.2129C28.3489 10.6406 27.85 11.2485 27.5554 11.9598C27.2608 12.671 27.1837 13.4536 27.3339 14.2087C27.4841 14.9637 27.8548 15.6573 28.3991 16.2016C28.9435 16.746 29.6371 17.1167 30.3921 17.2669C31.1471 17.4171 31.9298 17.34 32.641 17.0454C33.3522 16.7508 33.9602 16.2519 34.3878 15.6118C34.8155 14.9717 35.0438 14.2192 35.0438 13.4493C35.0438 12.417 34.6337 11.427 33.9038 10.697C33.1738 9.96704 32.1838 9.55695 31.1515 9.55695Z" fill="black" stroke="black" stroke-width="0.5"/>
<path d="M48.4024 48.7921C47.451 48.7889 46.517 48.5366 45.6933 48.0603V48.0603C44.916 47.6126 44.2613 46.98 43.7872 46.2186C43.3131 45.4571 43.0343 44.5904 42.9756 43.6954C42.9168 42.8003 43.0799 41.9046 43.4504 41.0877C43.8208 40.2708 44.3872 39.558 45.0992 39.0125C45.8113 38.467 46.647 38.1058 47.5321 37.9607C48.4173 37.8157 49.3246 37.8914 50.1735 38.1812C51.0224 38.4709 51.7866 38.9658 52.3984 39.6217C53.0101 40.2777 53.4505 41.0745 53.6804 41.9415C53.8664 42.6316 53.9144 43.3516 53.8216 44.0602C53.7289 44.7689 53.4973 45.4522 53.1401 46.0712C52.7829 46.6902 52.307 47.2327 51.7399 47.6675C51.1727 48.1023 50.5253 48.421 49.8348 48.6053C49.3677 48.7308 48.886 48.7937 48.4024 48.7921V48.7921ZM46.4718 46.7214C46.914 46.9775 47.4026 47.1436 47.9093 47.2102C48.416 47.2768 48.9309 47.2425 49.4243 47.1094C49.9177 46.9763 50.3799 46.7469 50.7844 46.4345C51.1888 46.1221 51.5275 45.7328 51.781 45.289C52.0426 44.8507 52.212 44.3638 52.2789 43.8578C52.3458 43.3518 52.3089 42.8375 52.1702 42.3464C52.0384 41.8529 51.8104 41.3904 51.4994 40.9854C51.1883 40.5803 50.8003 40.2407 50.3576 39.9861C49.9149 39.7315 49.4262 39.5668 48.9197 39.5016C48.4131 39.4364 47.8987 39.4719 47.4059 39.6061C46.9119 39.7364 46.4485 39.963 46.0424 40.2729C45.6363 40.5829 45.2954 40.9701 45.0394 41.4122C44.5298 42.3097 44.3944 43.3719 44.6625 44.3686C44.9306 45.3653 45.5806 46.2162 46.4718 46.7369V46.7214Z" fill="black" stroke="black" stroke-width="0.5"/>
<path d="M13.9006 48.7919C12.9529 48.7804 12.0244 48.5233 11.2058 48.0458C10.3871 47.5682 9.70628 46.8865 9.22977 46.0673C8.50755 44.816 8.31177 43.3292 8.68548 41.9336C9.05918 40.538 9.97179 39.348 11.2227 38.6251C12.4563 37.9114 13.9189 37.7049 15.3019 38.049C16.5771 38.3918 17.6845 39.186 18.4182 40.284C19.1518 41.3819 19.4618 42.7089 19.2905 44.0183C19.1192 45.3277 18.4783 46.5303 17.4869 47.4026C16.4955 48.2749 15.2211 48.7575 13.9006 48.7608V48.7919ZM13.9006 39.4502C13.2158 39.4466 12.543 39.6296 11.9544 39.9796V39.9796C11.5067 40.2306 11.1144 40.5696 10.8013 40.9764C10.4882 41.3831 10.2608 41.8491 10.1328 42.3462C9.99415 42.8373 9.95715 43.3516 10.0241 43.8576C10.091 44.3636 10.2604 44.8506 10.522 45.2888C10.8654 45.8741 11.3564 46.3589 11.9459 46.695C12.5354 47.031 13.2028 47.2065 13.8813 47.2038C14.5599 47.201 15.2258 47.0203 15.8126 46.6795C16.3994 46.3388 16.8865 45.85 17.2252 45.262C17.5639 44.674 17.7423 44.0074 17.7426 43.3289C17.7429 42.6503 17.5652 41.9835 17.227 41.3952C16.8889 40.8069 16.4023 40.3176 15.8158 39.9763C15.2294 39.635 14.5636 39.4536 13.885 39.4502H13.9006Z" fill="black" stroke="black" stroke-width="0.5"/>
<path d="M31.93 18.1201H30.373V24.7216H31.93V18.1201Z" fill="black" stroke="black" stroke-width="0.5"/>
<path d="M39.0373 37.0268L38.2588 38.3751L43.9758 41.6758L44.7543 40.3275L39.0373 37.0268Z" fill="black" stroke="black" stroke-width="0.5"/>
<path d="M23.267 37.0364L17.5376 40.3469L18.3165 41.695L24.0459 38.3845L23.267 37.0364Z" fill="black" stroke="black" stroke-width="0.5"/>
</svg>
