<svg width="60" height="60" viewBox="0 0 60 60" fill="none" xmlns="http://www.w3.org/2000/svg">
<mask id="path-1-inside-1_804_17402" fill="white">
<path fill-rule="evenodd" clip-rule="evenodd" d="M0 0H60L60 29.0667H52.2V30.9333H60L60 60H0V30.9332H7.8V29.0665H0V0Z"/>
</mask>
<path d="M60 0L61 1.3124e-07V-1H60V0ZM0 0V-1H-1V0H0ZM60 29.0667V30.0667H61V29.0667H60ZM52.2 29.0667V28.0667H51.2V29.0667H52.2ZM52.2 30.9333H51.2V31.9333H52.2V30.9333ZM60 30.9333H61V29.9333H60V30.9333ZM60 60V61H61V60H60ZM0 60H-1V61H0V60ZM0 30.9332V29.9332H-1V30.9332H0ZM7.8 30.9332V31.9332H8.8V30.9332H7.8ZM7.8 29.0665H8.8V28.0665H7.8V29.0665ZM0 29.0665H-1V30.0665H0V29.0665ZM60 -1H0V1H60V-1ZM61 29.0667L61 1.3124e-07L59 -1.3124e-07L59 29.0667H61ZM52.2 30.0667H60V28.0667H52.2V30.0667ZM53.2 30.9333V29.0667H51.2V30.9333H53.2ZM60 29.9333H52.2V31.9333H60V29.9333ZM61 60L61 30.9333H59L59 60H61ZM0 61H60V59H0V61ZM-1 30.9332V60H1V30.9332H-1ZM7.8 29.9332H0V31.9332H7.8V29.9332ZM6.8 29.0665V30.9332H8.8V29.0665H6.8ZM0 30.0665H7.8V28.0665H0V30.0665ZM-1 0V29.0665H1V0H-1Z" fill="#F2994A" mask="url(#path-1-inside-1_804_17402)"/>
<path fill-rule="evenodd" clip-rule="evenodd" d="M22.9361 48.4547L30.1505 50.3715C30.6152 50.3715 31.08 50.3715 31.5446 50.3599C31.777 50.3018 32.0093 50.2438 32.2417 50.174C33.6852 49.763 34.8779 48.9109 36.0437 48.0281L43.7049 42.6042L43.7031 42.601C44.5078 42.0468 45.312 41.4826 46.078 40.8801C47.9368 39.4163 47.6347 36.5701 45.5436 35.6175C44.5329 35.1528 43.5222 35.2457 42.5347 35.7569C41.9401 36.0618 41.3468 36.3654 40.7543 36.6687C39.5408 37.2897 38.3309 37.9089 37.121 38.5334C36.6449 38.7773 36.1681 39.0215 35.6804 39.2653C34.9253 38.4986 34.0075 38.2546 32.9736 38.2778C32.4302 38.2935 31.8845 38.288 31.3375 38.2826C30.6682 38.2758 29.997 38.2691 29.3257 38.3011C28.6287 38.3243 28.0594 38.1849 27.6063 37.6273C27.4736 37.4661 27.3023 37.3359 27.1301 37.2051C27.0912 37.1756 27.0523 37.1461 27.0139 37.1161C25.399 35.8382 23.61 35.025 21.5072 35.0714C20.1944 35.1063 18.9165 35.4083 17.7083 35.9079C16.9416 36.2216 16.1632 36.361 15.3384 36.3261C15.106 36.3145 14.9782 36.2448 14.8737 36.0357C14.4206 35.1644 13.6887 34.7462 12.7245 34.7345C11.6208 34.7229 10.5172 34.7229 9.41351 34.7345C7.99619 34.7462 7.00871 35.7336 7.00871 37.151C6.9971 40.1134 6.9971 43.0874 7.00871 46.0615C7.00871 47.4904 7.98457 48.4547 9.41351 48.4663H12.7245C13.7236 48.4663 14.4322 48.0132 14.8969 47.1419C14.9434 47.0374 15.0596 46.8979 15.1409 46.8979C15.3668 46.9047 15.5956 46.9026 15.8248 46.9006C16.3854 46.8955 16.9482 46.8904 17.476 47.0141C18.7683 47.3086 20.0433 47.6606 21.3213 48.0134C21.8585 48.1618 22.3963 48.3103 22.9361 48.4547ZM42.8419 41.0738C43.4899 40.6168 44.1379 40.1599 44.7652 39.6719C45.0905 39.4163 45.3926 39.033 45.5087 38.6496C45.7992 37.6854 44.9162 36.8605 43.8823 37.0696C43.6616 37.1161 43.4408 37.209 43.2317 37.3136C41.1057 38.4056 38.9798 39.4977 36.8538 40.5781C36.6214 40.6943 36.5285 40.7988 36.5517 41.1009C36.7492 43.041 35.3319 44.6442 33.3918 44.679C31.5911 44.7039 29.7904 44.6992 27.9897 44.6944C27.2694 44.6925 26.5491 44.6906 25.8289 44.6906C25.2364 44.6906 24.8414 44.3305 24.8414 43.8193C24.8414 43.2849 25.2248 42.9597 25.8637 42.948H33.2175C34.0772 42.948 34.7046 42.4601 34.8323 41.7282C34.995 40.8221 34.3096 40.0088 33.3453 39.9972C31.8235 39.9856 30.3016 39.974 28.7797 39.9972C28.0129 40.0088 27.374 39.7765 26.8164 39.2421C25.887 38.3359 24.853 37.5808 23.61 37.1393C21.9951 36.5701 20.4036 36.7676 18.8468 37.3368L18.8217 37.346C17.6801 37.7611 16.5491 38.1724 15.3035 38.0571C15.2591 38.0571 15.2214 38.0707 15.1749 38.0875C15.1607 38.0927 15.1456 38.0981 15.1293 38.1036V45.0856C15.147 45.0945 15.1614 45.1034 15.1736 45.111C15.1935 45.1232 15.2078 45.1321 15.2222 45.1321C16.8579 44.9754 18.3945 45.405 19.9364 45.836C20.2234 45.9163 20.5105 45.9965 20.7986 46.0731C21.6799 46.3112 22.5612 46.5482 23.4422 46.7852C25.4413 47.3227 27.4386 47.8599 29.4303 48.4082C30.7895 48.78 32.0442 48.6173 33.2175 47.8622C36.5099 45.7171 39.6326 43.3369 42.8419 41.0738ZM13.375 37.2555V41.6469V45.9337C13.375 46.5727 13.2124 46.7237 12.5734 46.7237H9.49483C8.96043 46.7237 8.76294 46.5378 8.76294 45.9918V37.2207C8.76294 36.663 8.96044 36.4655 9.52969 36.4655H12.6083C13.1892 36.4655 13.375 36.663 13.375 37.2555Z" fill="black"/>
<path d="M41.8978 25.2308C41.5526 26.0154 41.2283 26.7477 40.9145 27.4905C40.8831 27.5742 40.9354 27.7416 40.9981 27.8148C41.856 28.7877 41.8351 29.6874 40.9249 30.5976C40.3809 31.1416 39.8369 31.6856 39.2929 32.2296C38.456 33.0666 37.4725 33.077 36.6356 32.2715C36.4682 32.1041 36.3427 32.0936 36.1335 32.1983C35.5267 32.4807 34.9199 32.7318 34.2922 32.962C34.083 33.0456 33.9783 33.1084 33.9783 33.3595C33.9574 34.5312 33.2565 35.2217 32.0848 35.2321C31.2792 35.2321 30.4632 35.2426 29.6577 35.2321C28.5069 35.2217 27.785 34.5207 27.7745 33.3909C27.7745 33.1398 27.6909 33.0456 27.4502 32.9515C26.8435 32.7318 26.2367 32.4703 25.6508 32.2087C25.4311 32.1041 25.2951 32.1041 25.1068 32.2819C24.2803 33.077 23.2865 33.0666 22.4705 32.261C21.8741 31.6752 21.2883 31.0788 20.7024 30.493C19.9387 29.7188 19.9178 28.6936 20.6815 27.9194C20.8698 27.7311 20.8907 27.5951 20.7757 27.3545C20.4932 26.7582 20.2526 26.1305 20.0224 25.5132C19.9492 25.3144 19.855 25.2412 19.6353 25.2308C18.4427 25.2098 17.7627 24.5089 17.7627 23.3058C17.7627 22.5002 17.7627 21.6842 17.7627 20.8787C17.7732 19.7593 18.4636 19.0374 19.583 19.027C19.8237 19.027 19.9387 18.9537 20.0329 18.7131C20.263 18.0959 20.5141 17.4786 20.7966 16.8719C20.8907 16.6626 20.8803 16.5371 20.7234 16.3697C19.9178 15.5223 19.9283 14.5389 20.7652 13.7124C21.3406 13.1266 21.9265 12.5407 22.5123 11.9653C23.3074 11.1807 24.3117 11.1702 25.1173 11.9549C25.2951 12.1327 25.4207 12.1432 25.6508 12.0385C26.2367 11.7665 26.8435 11.5155 27.4502 11.2853C27.6699 11.2016 27.785 11.1284 27.785 10.8564C27.8059 9.70558 28.5069 9.01511 29.6577 9.00465C30.5051 9.00465 31.3525 8.99419 32.1998 9.00465C33.2356 9.01511 33.9783 9.73697 33.9888 10.7727C33.9888 11.0761 34.083 11.1911 34.3654 11.2853C34.9617 11.4945 35.5476 11.7561 36.1335 12.0176C36.3322 12.1118 36.4578 12.1432 36.6356 11.9653C37.4725 11.1388 38.4664 11.1598 39.2929 11.9758C39.8787 12.5512 40.4646 13.137 41.04 13.7229C41.8246 14.518 41.8455 15.5223 41.0714 16.3278C40.8831 16.5266 40.8831 16.6522 40.9877 16.8928C41.2597 17.4786 41.5003 18.0854 41.7305 18.6922C41.8142 18.9014 41.8978 18.9956 42.1385 18.9956C43.3206 19.0165 43.9902 19.7279 44.0007 20.8996C44.0007 21.6842 44.0007 22.4689 44.0007 23.2535C44.0007 24.4984 43.3206 25.1889 42.0757 25.2203C42.0129 25.2203 41.9397 25.2308 41.8978 25.2308ZM33.9888 31.4869C34.7107 31.1312 35.3488 30.8278 35.9765 30.4825C36.5205 30.1896 36.7821 30.2105 37.2319 30.6499C37.3889 30.8068 37.5562 30.9533 37.7027 31.1207C37.8701 31.309 38.0166 31.309 38.1944 31.1312C38.7593 30.5558 39.3347 29.9804 39.9101 29.4154C40.0984 29.2376 40.0775 29.0911 39.8997 28.9237C39.7009 28.7354 39.5126 28.5367 39.3138 28.3379C39.0209 28.0345 38.9686 27.6893 39.1883 27.3336C39.7741 26.3815 40.1821 25.3563 40.4646 24.2787C40.5692 23.8498 40.8412 23.6615 41.2911 23.651C41.5526 23.6406 41.8142 23.6406 42.0757 23.651C42.3582 23.6615 42.4419 23.5464 42.4419 23.2744C42.4314 22.4898 42.4314 21.7052 42.4419 20.9205C42.4419 20.659 42.3582 20.5334 42.0757 20.5439C41.8037 20.5544 41.5317 20.5544 41.2492 20.5439C40.8412 20.523 40.5588 20.3242 40.4541 19.9162C40.1926 18.8282 39.7741 17.8134 39.1883 16.8614C38.9686 16.5057 39.0313 16.1605 39.3138 15.8571C39.5126 15.6478 39.7114 15.4491 39.9206 15.2503C40.0671 15.1038 40.088 14.9783 39.931 14.8214C39.3347 14.2355 38.7489 13.6392 38.163 13.0533C38.0061 12.8964 37.8806 12.9069 37.7341 13.0638C37.5353 13.273 37.3365 13.4718 37.1273 13.6706C36.8239 13.953 36.4891 14.0263 36.123 13.8066C35.171 13.2207 34.1562 12.8022 33.0682 12.5302C32.6392 12.4256 32.4509 12.1641 32.43 11.7038C32.4195 11.4318 32.4195 11.1598 32.43 10.8773C32.4405 10.6471 32.3359 10.553 32.1057 10.553C31.3001 10.5634 30.4841 10.5634 29.6786 10.553C29.417 10.553 29.3333 10.6681 29.3438 10.9087C29.3543 11.1807 29.3543 11.4527 29.3438 11.7352C29.3229 12.1222 29.145 12.4256 28.7579 12.5198C27.649 12.7918 26.6028 13.2207 25.6299 13.817C25.2847 14.0263 24.9499 13.953 24.6674 13.681C24.4582 13.4823 24.2594 13.2835 24.0606 13.0743C23.9037 12.9069 23.7677 12.9173 23.6003 13.0847C23.0249 13.6706 22.4391 14.2564 21.8532 14.8318C21.6963 14.9783 21.6858 15.1143 21.8532 15.2607C22.0625 15.4595 22.2612 15.6583 22.46 15.8675C22.7634 16.2023 22.8157 16.5162 22.5751 16.9032C22.0101 17.8343 21.5917 18.8282 21.3301 19.8848C21.2151 20.3661 20.964 20.5439 20.4618 20.5648C20.2003 20.5753 19.9387 20.5753 19.6772 20.5648C19.447 20.5544 19.3424 20.6485 19.3424 20.8891C19.3529 21.7156 19.3424 22.5316 19.3424 23.3581C19.3424 23.5673 19.4366 23.672 19.6458 23.6615C19.9283 23.651 20.2212 23.651 20.5037 23.6615C20.9117 23.672 21.2046 23.8707 21.2988 24.2787C21.5603 25.3772 21.9892 26.4025 22.5855 27.3754C22.7948 27.7206 22.732 28.0554 22.46 28.3483C22.2717 28.5471 22.0834 28.7459 21.8741 28.9342C21.6754 29.112 21.6649 29.2585 21.8741 29.4468C22.3449 29.8967 22.7948 30.3675 23.2656 30.8278C23.8828 31.4345 23.7468 31.4555 24.364 30.8382C25.044 30.1582 25.1696 30.1582 26.017 30.629C26.5715 30.9324 27.1573 31.173 27.7745 31.4764C27.7745 30.3884 27.7641 29.405 27.785 28.432C27.7955 28.1391 27.6909 28.0031 27.4398 27.8671C23.4957 25.7852 22.5228 20.5439 25.4625 17.1962C26.0902 16.4848 26.7807 15.8466 27.7118 15.5641C28.4755 15.334 29.1346 15.7211 29.3229 16.4952C29.3752 16.7254 29.4066 16.9555 29.3961 17.1962C29.3961 18.5248 29.3752 19.8534 29.3647 21.1925C29.3647 21.3704 29.3856 21.5587 29.417 21.7365C29.5635 22.3956 30.1703 22.9501 30.798 23.0024C31.3525 23.0547 32.0325 22.563 32.2522 21.9353C32.3359 21.7052 32.3672 21.4541 32.3672 21.203C32.3777 20.0627 32.3672 18.9328 32.3777 17.7925C32.3777 17.3845 32.3463 16.9765 32.4091 16.5894C32.5451 15.7524 33.246 15.334 34.062 15.5746C34.2503 15.6269 34.4282 15.7001 34.606 15.7943C36.9913 17.1125 38.4246 20.1778 37.9224 22.8664C37.4935 25.1366 36.2695 26.8209 34.2294 27.9299C34.1143 27.9926 33.9888 28.1496 33.9888 28.2646C33.9783 29.2794 33.9888 30.3151 33.9888 31.4869ZM27.8059 17.2171C27.7118 17.2799 27.6595 17.3008 27.6072 17.3426C25.9961 18.5143 25.18 20.1045 25.3265 22.0922C25.4834 24.2578 26.6133 25.7957 28.601 26.6849C29.1346 26.9256 29.3543 27.2499 29.3438 27.8148C29.3229 29.6037 29.3438 31.3927 29.3229 33.1817C29.3229 33.5897 29.4484 33.7047 29.8355 33.6838C30.5364 33.6524 31.2478 33.6629 31.9488 33.6838C32.3045 33.6943 32.43 33.5792 32.4195 33.213C32.3986 31.4241 32.43 29.6351 32.4091 27.8462C32.3986 27.2603 32.5974 26.9151 33.1623 26.6849C35.6941 25.6178 37.0018 22.8455 36.2276 20.2301C35.851 18.9642 35.0977 17.9703 33.947 17.2171C33.947 18.4306 33.947 19.5814 33.947 20.7427C33.947 21.1193 33.947 21.5064 33.8842 21.8725C33.6436 23.4523 32.2522 24.6031 30.7875 24.5612C29.281 24.5089 27.9733 23.2953 27.8582 21.7889C27.7536 20.4184 27.8059 19.027 27.7955 17.646C27.8059 17.51 27.8059 17.3845 27.8059 17.2171Z" fill="black" stroke="black" stroke-width="0.5"/>
</svg>
