<?xml version="1.0" encoding="utf-8"?>
<!-- Generator: Adobe Illustrator 22.0.1, SVG Export Plug-In . SVG Version: 6.00 Build 0)  -->
<svg version="1.1" id="Layer_1" xmlns="http://www.w3.org/2000/svg" xmlns:xlink="http://www.w3.org/1999/xlink" x="0px" y="0px"
	 viewBox="0 0 62 62" style="enable-background:new 0 0 62 62;" xml:space="preserve">
<style type="text/css">
	.st0{fill:#F2994A;}
	.st1{stroke:#FFFFFF;stroke-width:0.25;stroke-miterlimit:10;}
</style>
<path class="st0" d="M61,1h1V0h-1V1z M1,1V0H0v1H1z M61,30.1v1h1v-1H61z M53.2,30.1v-1h-1v1H53.2z M53.2,31.9h-1v1h1V31.9z M61,31.9
	h1v-1h-1V31.9z M61,61v1h1v-1H61z M1,61H0v1h1V61z M1,31.9v-1H0v1H1z M8.8,31.9v1h1v-1H8.8z M8.8,30.1h1v-1h-1V30.1z M1,30.1H0v1h1
	V30.1z M61,0H1v2h60V0z M62,30.1V1h-2v29.1H62z M53.2,31.1H61v-2h-7.8V31.1z M54.2,31.9V30h-2v1.9H54.2z M61,30.9h-7.8v2H61V30.9z
	 M62,61V31.9h-2V61H62z M1,62h60v-2H1V62z M0,31.9V61h2V31.9H0z M8.8,30.9H1v2h7.8V30.9z M7.8,30.1V32h2v-1.9H7.8z M1,31.1h7.8v-2H1
	V31.1z M0,1v29.1h2V1H0z"/>
<g>
	<path class="st1" d="M25.4,21.4v-5.3h-0.7H24h-2.4v-1.5c0-0.9-0.9-1.7-1.9-1.7h-4c-1,0-1.9,0.7-1.9,1.7v4.5c0,0.9,0.9,1.7,1.9,1.7
		h4.1c1,0,1.9-0.7,1.9-1.7v-1.5h2.4v3.8h-1.6l2.2,3.5l2.2-3.5C27.1,21.4,25.4,21.4,25.4,21.4z M20.7,19.1c0,0.3-0.3,0.6-0.8,0.6h-4
		c-0.4,0-0.8-0.3-0.8-0.6v-4.5c0-0.3,0.3-0.6,0.8-0.6H20c0.4,0,0.8,0.3,0.8,0.6L20.7,19.1L20.7,19.1z"/>
	<path class="st1" d="M46.1,39.2H42c-1,0-1.9,0.7-1.9,1.7v4.5c0,0.9,0.9,1.7,1.9,1.7h4.1c1,0,1.9-0.7,1.9-1.7v-4.5
		C48,39.9,47.1,39.2,46.1,39.2z M46.9,45.3c0,0.3-0.3,0.6-0.8,0.6H42c-0.4,0-0.8-0.3-0.8-0.6v-4.5c0-0.3,0.3-0.6,0.8-0.6h4.1
		c0.4,0,0.8,0.3,0.8,0.6C46.9,40.8,46.9,45.3,46.9,45.3z"/>
	<path class="st1" d="M32.6,39.2h-4.1c-1,0-1.9,0.7-1.9,1.7v4.5c0,0.9,0.9,1.7,1.9,1.7h4.1c1,0,1.9-0.7,1.9-1.7v-4.5
		C34.5,39.9,33.7,39.2,32.6,39.2z M33.4,45.3c0,0.3-0.3,0.6-0.8,0.6h-4.1c-0.4,0-0.8-0.3-0.8-0.6v-4.5c0-0.3,0.3-0.6,0.8-0.6h4.1
		c0.4,0,0.8,0.3,0.8,0.6V45.3z"/>
	<path class="st1" d="M19.9,39.2h-4.1c-1,0-1.9,0.7-1.9,1.7v4.5c0,0.9,0.9,1.7,1.9,1.7h4.1c1,0,1.9-0.7,1.9-1.7v-4.5
		C21.8,39.9,20.9,39.2,19.9,39.2z M20.7,45.3c0,0.3-0.3,0.6-0.8,0.6h-4.1c-0.4,0-0.8-0.3-0.8-0.6v-4.5c0-0.3,0.3-0.6,0.8-0.6h4.1
		c0.4,0,0.8,0.3,0.8,0.6V45.3z"/>
	<path class="st1" d="M44.3,34.7v-5.5h-0.9h-0.5h-2.2v-1.9c0-0.8-0.5-1.3-1.4-1.3h-4.9h-1.1h-5.2H27h-4.9c-1.1,0-1.5,0.7-1.5,1.3
		v1.9h-2.2h-0.5H17v5.5h-1.5l2.2,3.5l2.2-3.5h-1.6v-4h2.2v1.9c0,0.6,0.4,1.3,1.5,1.3h4.8h1.1h1.6v0.7h-1.6l2.2,3.5l2.2-3.5h-1.6
		v-0.7H33h1.1H39c0.9,0,1.4-0.5,1.4-1.3v-1.9h2.2v4H41l2.2,3.5l2.2-3.5H44.3L44.3,34.7z M27,32.8h-4.8c-0.4,0-0.4-0.1-0.4-0.2v-5.2
		c0-0.1,0-0.2,0.4-0.2h4.9L27,32.8L27,32.8z M33.4,32.8h-5.2v-5.6h5.2V32.8z M39.8,32.6C39.8,32.7,39.8,32.7,39.8,32.6
		c0,0.1-0.1,0.1-0.3,0.1h-5v-5.6h4.9c0.2,0,0.3,0,0.3,0l0,0c0,0,0,0,0,0.1L39.8,32.6L39.8,32.6z"/>
</g>
</svg>
