<?xml version="1.0" encoding="utf-8"?>
<!-- Generator: Adobe Illustrator 22.0.1, SVG Export Plug-In . SVG Version: 6.00 Build 0)  -->
<svg version="1.1" id="Layer_1" xmlns="http://www.w3.org/2000/svg" xmlns:xlink="http://www.w3.org/1999/xlink" x="0px" y="0px"
	 viewBox="0 0 62 62" style="enable-background:new 0 0 62 62;" xml:space="preserve">
<style type="text/css">
	.st0{fill:#F2994A;}
	.st1{fill:none;stroke:#202020;stroke-linecap:round;stroke-linejoin:round;}
	.st2{fill:none;stroke:#202020;stroke-width:1.3;stroke-linecap:round;stroke-linejoin:round;}
</style>
<path class="st0" d="M61,1h1V0h-1V1z M1,1V0H0v1H1z M61,30.1v1h1v-1H61z M53.2,30.1v-1h-1v1H53.2z M53.2,31.9h-1v1h1V31.9z M61,31.9
	h1v-1h-1V31.9z M61,61v1h1v-1H61z M1,61H0v1h1V61z M1,31.9v-1H0v1H1z M8.8,31.9v1h1v-1H8.8z M8.8,30.1h1v-1h-1V30.1z M1,30.1H0v1h1
	V30.1z M61,0H1v2h60V0z M62,30.1V1h-2v29.1C60,30.1,62,30.1,62,30.1z M53.2,31.1H61v-2h-7.8V31.1z M54.2,31.9V30h-2v1.9H54.2z
	 M61,30.9h-7.8v2H61V30.9z M62,61V31.9h-2V61H62z M1,62h60v-2H1C1,60,1,62,1,62z M0,31.9V61h2V31.9H0z M8.8,30.9H1v2h7.8V30.9z
	 M7.8,30.1V32h2v-1.9H7.8z M1,31.1h7.8v-2H1V31.1z M0,1v29.1h2V1H0z"/>
<g>
	<path class="st1" d="M23.4,45.2v2.3c0,0.6-0.5,1.1-1.1,1.1H20c-0.6,0-1.1-0.5-1.1-1.1v-2.3 M42.6,45.2v2.3c0,0.6-0.5,1.1-1.1,1.1
		h-2.3c-0.6,0-1.1-0.5-1.1-1.1v-2.3 M22.3,19.2h17v4.5h-17V19.2z"/>
	<path class="st1" d="M17.7,27.2h14.7v10.2H17.7"/>
	<path class="st2" d="M37,37.3V27.1h6.8v-9c0-1.9-1.5-3.4-3.4-3.4H21.1c-1.9,0-3.4,1.5-3.4,3.4v27.1h26v-7.9L37,37.3L37,37.3z
		 M42.6,27.2v10.2 M17.7,40.7h4.5 M39.2,40.7h4.5"/>
</g>
</svg>
