<?xml version="1.0" encoding="utf-8"?>
<!-- Generator: Adobe Illustrator 22.0.1, SVG Export Plug-In . SVG Version: 6.00 Build 0)  -->
<svg version="1.1" id="Layer_1" xmlns="http://www.w3.org/2000/svg" xmlns:xlink="http://www.w3.org/1999/xlink" x="0px" y="0px"
	 viewBox="0 0 62 62" style="enable-background:new 0 0 62 62;" xml:space="preserve">
<style type="text/css">
	.st0{fill:#F2994A;}
	.st1{fill:none;stroke:#000000;stroke-width:1.3;stroke-linecap:round;stroke-linejoin:round;stroke-miterlimit:10;}
	.st2{fill:none;stroke:#000000;stroke-miterlimit:10;}
	.st3{fill:none;stroke:#000000;stroke-linecap:round;stroke-miterlimit:10;}
	.st4{fill:none;stroke:#000000;stroke-linecap:round;stroke-linejoin:round;stroke-miterlimit:10;}
	.st5{stroke:#FFFFFF;stroke-width:0.25;stroke-miterlimit:10;}
</style>
<path class="st0" d="M61,1h1V0h-1V1z M1,1V0H0v1H1z M61,30.1v1h1v-1H61z M53.2,30.1v-1h-1v1H53.2z M53.2,31.9h-1v1h1V31.9z M61,31.9
	h1v-1h-1V31.9z M61,61v1h1v-1H61z M1,61H0v1h1V61z M1,31.9v-1H0v1H1z M8.8,31.9v1h1v-1H8.8z M8.8,30.1h1v-1h-1V30.1z M1,30.1H0v1h1
	V30.1z M61,0H1v2h60V0z M62,30.1V1h-2v29.1H62z M53.2,31.1H61v-2h-7.8V31.1z M54.2,31.9V30h-2v1.9H54.2z M61,30.9h-7.8v2H61V30.9z
	 M62,61V31.9h-2V61H62z M1,62h60v-2H1V62z M0,31.9V61h2V31.9H0z M8.8,30.9H1v2h7.8V30.9z M7.8,30.1V32h2v-1.9H7.8z M1,31.1h7.8v-2H1
	V31.1z M0,1v29.1h2V1H0z"/>
<g>
	<path class="st1" d="M36.9,44.1H42c0,0,0-8.3,0-8.6c0-0.5-0.3-1.5-1.3-1.5c-0.3,0-5.2,1.4-10.6,1.4S20.1,34,19.3,34
		c-1.1,0-1.3,0.9-1.3,1.5c0,0.3,0,8.6,0,8.6h5"/>
	<path class="st2" d="M37.6,40.7"/>
	<path class="st2" d="M22.9,40.7"/>
	<path class="st3" d="M37.5,40.7c0,0-2.8,0.7-7.4,0.7s-7.6-0.7-7.6-0.7"/>
	<path class="st1" d="M38.2,31.5c0,0-1.4-2.2-1.6-2.5s-0.2-0.4-0.7-0.4s-11.4,0-11.9,0s-0.5,0.2-0.7,0.4s-1.6,2.5-1.6,2.5"/>
	<polyline class="st4" points="40.5,37.3 34.6,37.3 34.6,35.3 	"/>
	<polyline class="st4" points="19.5,37.3 25.3,37.3 25.3,35.3 	"/>
</g>
<path class="st5" d="M38.9,25.4l3.8,1.9c-2-7.1-9.4-11.1-16.5-9.1c-4.6,1.3-8.2,5.1-9.3,9.8c0,0.4-0.4,0.6-0.7,0.6s-0.6-0.4-0.6-0.7
	v-0.1c1.8-7.9,9.7-12.8,17.6-11c5.1,1.2,9.2,5,10.7,10.1l1.8-3.7c0.2-0.3,0.6-0.4,0.9-0.2c0.2,0.2,0.3,0.5,0.3,0.7l-2.6,5.2
	c-0.2,0.3-0.6,0.5-0.9,0.3l-5.2-2.6c-0.3-0.2-0.5-0.6-0.3-0.9C38.1,25.4,38.5,25.3,38.9,25.4L38.9,25.4z"/>
</svg>
