<?xml version="1.0" encoding="utf-8"?>
<!-- Generator: Adobe Illustrator 22.0.1, SVG Export Plug-In . SVG Version: 6.00 Build 0)  -->
<svg version="1.1" id="Layer_1" xmlns="http://www.w3.org/2000/svg" xmlns:xlink="http://www.w3.org/1999/xlink" x="0px" y="0px"
	 viewBox="0 0 62 62" style="enable-background:new 0 0 62 62;" xml:space="preserve">
<style type="text/css">
	.st0{fill:#F2994A;}
</style>
<path class="st0" d="M61,1h1V0h-1V1z M1,1V0H0v1H1z M61,30.1v1h1v-1H61z M53.2,30.1v-1h-1v1H53.2z M53.2,31.9h-1v1h1V31.9z M61,31.9
	h1v-1h-1V31.9z M61,61v1h1v-1H61z M1,61H0v1h1V61z M1,31.9v-1H0v1H1z M8.8,31.9v1h1v-1H8.8z M8.8,30.1h1v-1h-1V30.1z M1,30.1H0v1h1
	V30.1z M61,0H1v2h60V0z M62,30.1V1h-2v29.1H62z M53.2,31.1H61v-2h-7.8V31.1z M54.2,31.9V30h-2v1.9H54.2z M61,30.9h-7.8v2H61V30.9z
	 M62,61V31.9h-2V61H62z M1,62h60v-2H1V62z M0,31.9V61h2V31.9H0L0,31.9z M8.8,30.9H1v2h7.8V30.9z M7.8,30.1V32h2v-1.9H7.8z M1,31.1
	h7.8v-2H1V31.1z M0,1v29.1h2V1H0z"/>
<g>
	<path d="M48,28.4l-8-7h-3.2c-1.5-1.2-3.3-1.9-5.4-1.9c-2,0-3.9,0.7-5.4,1.9h-3l-8.1,7v15.7H39l2.7,4.1c0.3,0.4,0.7,0.7,1.2,0.7
		c0.3,0,0.6-0.1,0.8-0.2l1.6-1c0.3-0.2,0.6-0.5,0.6-0.9c0.1-0.4,0-0.8-0.2-1.1l-1-1.5h3.2L48,28.4L48,28.4z M46.3,28.1h-6.1
		c0-2.2-0.9-4.2-2.3-5.8h1.8L46.3,28.1z M39.2,28.2c0,4.3-3.5,7.7-7.7,7.7c-4.3,0-7.7-3.5-7.7-7.7c0-4.3,3.5-7.7,7.7-7.7
		S39.2,24,39.2,28.2z M36.2,36.7l-0.6-0.9c0.4-0.2,0.8-0.5,1.1-0.7l0.6,0.9L36.2,36.7z M31.5,36.9c0.5,0,0.9,0,1.3-0.1v6.4h-2.6
		v-6.4C30.6,36.8,31,36.9,31.5,36.9z M23.4,22.4h1.7c-1.4,1.5-2.3,3.5-2.3,5.8h-6.1L23.4,22.4z M15.9,29.1h7
		c0.4,3.6,2.9,6.6,6.3,7.5v6.6H15.9V29.1z M33.7,43.1v-6.6c0.3-0.1,0.7-0.2,1-0.3l0.8,1.2c-0.1,0.1-0.1,0.2-0.1,0.4
		c-0.1,0.4,0,0.8,0.2,1.1l2.8,4.3C38.4,43.1,33.7,43.1,33.7,43.1z M45,46.5c0,0.1-0.1,0.3-0.2,0.3l-1.6,1c-0.2,0.2-0.6,0.1-0.7-0.1
		l-6.1-9.3c-0.1-0.1-0.1-0.3-0.1-0.4s0.1-0.3,0.2-0.3l1.6-1c0.1-0.1,0.2-0.1,0.3-0.1c0.2,0,0.3,0.1,0.4,0.2l6.1,9.3
		C45,46.2,45,46.3,45,46.5z M44.2,43.1l-4.5-6.9c-0.3-0.4-0.7-0.7-1.2-0.7c-0.1,0-0.1,0-0.2,0l-0.7-1.1c1.5-1.4,2.4-3.3,2.6-5.4h4
		v5.3h0.9V29h2v14.1H44.2z"/>
	<polygon points="35.3,25.5 34.7,24.8 29.7,29.8 28.3,28.4 27.6,29.1 29.7,31.2 	"/>
</g>
</svg>
