<?xml version="1.0" encoding="utf-8"?>
<!-- Generator: Adobe Illustrator 22.0.1, SVG Export Plug-In . SVG Version: 6.00 Build 0)  -->
<svg version="1.1" id="Layer_1" xmlns="http://www.w3.org/2000/svg" xmlns:xlink="http://www.w3.org/1999/xlink" x="0px" y="0px"
	 viewBox="0 0 62 62" style="enable-background:new 0 0 62 62;" xml:space="preserve">
<style type="text/css">
	.st0{fill:#F2994A;}
</style>
<path class="st0" d="M61,1h1V0h-1V1z M1,1V0H0v1H1z M61,30.1v1h1v-1H61z M53.2,30.1v-1h-1v1H53.2z M53.2,31.9h-1v1h1V31.9z M61,31.9
	h1v-1h-1V31.9z M61,61v1h1v-1H61z M1,61H0v1h1V61z M1,31.9v-1H0v1H1z M8.8,31.9v1h1v-1H8.8z M8.8,30.1h1v-1h-1V30.1z M1,30.1H0v1h1
	V30.1z M61,0H1v2h60V0z M62,30.1V1h-2v29.1H62z M53.2,31.1H61v-2h-7.8V31.1z M54.2,31.9V30h-2v1.9H54.2z M61,30.9h-7.8v2H61V30.9z
	 M62,61V31.9h-2V61H62z M1,62h60v-2H1C1,60,1,62,1,62z M0,31.9V61h2V31.9H0z M8.8,30.9H1v2h7.8C8.8,32.9,8.8,30.9,8.8,30.9z
	 M7.8,30.1V32h2v-1.9H7.8z M1,31.1h7.8v-2H1C1,29.1,1,31.1,1,31.1z M0,1v29.1h2V1H0z"/>
<g>
	<path d="M30.6,18.9c-7.1,0-12.9,5.8-12.9,12.9s5.8,12.9,12.9,12.9s12.9-5.8,12.9-12.9S37.7,18.9,30.6,18.9z M42,31.5h-6.4
		c0-4.9-1.2-8.9-2.8-10.9C38,21.6,41.9,26.1,42,31.5z M31.7,43.3c-0.3,0-0.7,0.1-1.1,0.1s-0.7,0-1.1-0.1c-1.8-1.3-3.2-5.8-3.3-11.1
		h8.7C34.9,37.4,33.5,41.9,31.7,43.3z M26.2,31.5c0.1-5.2,1.4-9.8,3.3-11.1c0.3,0,0.7-0.1,1.1-0.1c0.4,0,0.7,0,1.1,0.1
		c1.8,1.3,3.2,5.8,3.3,11.1H26.2z M28.3,20.5c-1.6,2-2.8,6-2.8,10.9h-6.4C19.3,26.1,23.2,21.6,28.3,20.5z M19.1,32.2h6.4
		c0,4.9,1.2,8.9,2.8,10.9C23.2,42.1,19.3,37.6,19.1,32.2z M32.8,43.1c1.6-2,2.8-6,2.8-10.9H42C41.9,37.6,38,42.1,32.8,43.1z"/>
</g>
</svg>
