<?xml version="1.0" encoding="utf-8"?>
<!-- Generator: Adobe Illustrator 22.0.1, SVG Export Plug-In . SVG Version: 6.00 Build 0)  -->
<svg version="1.1" id="Layer_1" xmlns="http://www.w3.org/2000/svg" xmlns:xlink="http://www.w3.org/1999/xlink" x="0px" y="0px"
	 viewBox="0 0 62 62" style="enable-background:new 0 0 62 62;" xml:space="preserve">
<style type="text/css">
	.st0{fill:#FFFFFF;stroke:#000000;stroke-width:1.3;stroke-linecap:round;stroke-linejoin:round;stroke-miterlimit:10;}
	.st1{fill:#FFFFFF;stroke:#202020;stroke-width:1.3;stroke-linecap:round;stroke-linejoin:round;stroke-miterlimit:10;}
	.st2{fill:none;stroke:#202020;stroke-linecap:round;stroke-linejoin:round;stroke-miterlimit:10;}
	.st3{fill:#F2994A;}
</style>
<g>
	<g>
		<g>
			<path class="st0" d="M38.4,32.1c-0.6,0.3-1.4,0.6-1.9,0.8c-1,0.4-1.7,0.9-1.7,2v1.8c0,0.2,0.2,0.4,0.4,0.4h13.4
				c0.2,0,0.4-0.2,0.4-0.4v-1.8c0-1.2-0.6-1.7-1.7-2c-0.5-0.2-1.3-0.5-1.9-0.8"/>
			<path class="st0" d="M41.9,30.3c0.8,0,1.8-0.5,2.5-1.4c0.8-1,1.3-2.1,1.3-3.2c0-1.2-0.4-2.2-1.1-2.9c-0.7-0.7-1.7-1.2-2.8-1.2
				c-2.2,0-3.8,1.7-3.8,4.1c0,1.1,0.5,2.2,1.3,3.2C40.2,29.7,41.1,30.3,41.9,30.3z"/>
		</g>
	</g>
	<g>
		<path class="st0" d="M23.1,34c-0.9,0.4-2,0.9-2.8,1.2c-1.5,0.6-2.5,1.3-2.5,3v2.7c0,0.3,0.3,0.6,0.6,0.6h19.7
			c0.3,0,0.6-0.3,0.6-0.6v-2.7c0.1-1.7-0.9-2.4-2.4-3c-0.8-0.3-1.9-0.7-2.8-1.2"/>
		<path class="st0" d="M28.2,31.3c1.1,0,2.6-0.8,3.7-2.1c1.2-1.4,1.9-3.1,1.9-4.7c0-1.7-0.6-3.2-1.6-4.3c-1-1.1-2.5-1.7-4.1-1.7
			c-3.2,0-5.6,2.5-5.6,6c0,1.6,0.7,3.3,1.9,4.7C25.6,30.5,27,31.3,28.2,31.3z"/>
	</g>
	<circle class="st1" cx="17" cy="41.3" r="4"/>
	<path class="st2" d="M18.8,40.1l-2.2,2.5l-1.4-1.4"/>
	<path class="st3" d="M61,1h1V0h-1V1z M1,1V0H0v1H1z M61,30.1v1h1v-1H61z M53.2,30.1v-1h-1v1H53.2z M53.2,31.9h-1v1h1V31.9z
		 M61,31.9h1v-1h-1V31.9z M61,61v1h1v-1H61z M1,61H0v1h1V61z M1,31.9v-1H0v1H1z M8.9,31.9v1h1v-1H8.9z M8.9,30.1h1v-1h-1V30.1z
		 M1,30.1H0v1h1V30.1z M61,0H1v2h60V0z M62,30.1V1h-2v29.1H62z M53.2,31.1H61v-2h-7.8V31.1z M54.2,31.9V30h-2v1.9H54.2z M61,30.9
		h-7.8v2H61V30.9z M62,61V31.9h-2V61H62z M1,62h60v-2H1C1,60,1,62,1,62z M0,31.9V61h2V31.9H0z M8.9,30.9H1.1v2h7.8
		C8.9,32.9,8.9,30.9,8.9,30.9z M7.8,30.1V32h2v-1.9H7.8z M1,31.1h7.8v-2H1V31.1z M0,1v29.1h2V1H0z"/>
</g>
</svg>
