<?xml version="1.0" encoding="utf-8"?>
<!-- Generator: Adobe Illustrator 22.0.1, SVG Export Plug-In . SVG Version: 6.00 Build 0)  -->
<svg version="1.1" id="Layer_1" xmlns="http://www.w3.org/2000/svg" xmlns:xlink="http://www.w3.org/1999/xlink" x="0px" y="0px"
	 viewBox="0 0 62 62" style="enable-background:new 0 0 62 62;" xml:space="preserve">
<style type="text/css">
	.st0{fill:#F2994A;}
	.st1{stroke:#FFFFFF;stroke-width:0.5;stroke-miterlimit:10;}
	.st2{fill:#FFFFFF;stroke:#000000;stroke-width:1.3;stroke-linecap:round;stroke-linejoin:round;stroke-miterlimit:10;}
	.st3{stroke:#FFFFFF;stroke-width:0.75;stroke-miterlimit:10;}
</style>
<path class="st0" d="M61,1h1V0h-1V1z M1,1V0H0v1H1z M61,30.1v1h1v-1H61z M53.2,30.1v-1h-1v1H53.2z M53.2,31.9h-1v1h1V31.9z M61,31.9
	h1v-1h-1V31.9z M61,61v1h1v-1H61z M1,61H0v1h1V61z M1,31.9v-1H0v1H1z M8.8,31.9v1h1v-1H8.8z M8.8,30.1h1v-1h-1V30.1z M1,30.1H0v1h1
	V30.1z M61,0H1v2h60V0z M62,30.1V1h-2v29.1H62z M53.2,31.1H61v-2h-7.8V31.1z M54.2,31.9V30h-2v1.9H54.2z M61,30.9h-7.8v2H61V30.9z
	 M62,61V31.9h-2V61H62z M1,62h60v-2H1V62z M0,31.9V61h2V31.9H0z M8.8,30.9H1v2h7.8V30.9z M7.8,30.1V32h2v-1.9H7.8z M1,31.1h7.8v-2H1
	V31.1z M0,1v29.1h2V1H0z"/>
<g>
	<path class="st1" d="M48.9,8h-9.8c-1.8,0-3.3,1.5-3.3,3.3v8.2c0,1.8,1.5,3.3,3.3,3.3h0.1v2.4c0,0.7,0.4,1.3,1.1,1.5
		c0.2,0.1,0.4,0.1,0.6,0.1c0.4,0,0.9-0.2,1.2-0.6l3.1-3.5h3.7c1.8,0,3.3-1.5,3.3-3.3v-8.2C52.2,9.4,50.7,8,48.9,8z M50.4,19.4
		c0,0.9-0.7,1.6-1.6,1.6h-4.1c-0.3,0-0.5,0.1-0.6,0.3l-3.2,3.6v-3.1c0-0.5-0.4-0.9-0.9-0.9h-1c-0.9,0-1.6-0.7-1.6-1.6v-8.1
		c0-0.9,0.7-1.6,1.6-1.6h9.8c0.9,0,1.6,0.7,1.6,1.6V19.4L50.4,19.4z"/>
</g>
<g>
	<path class="st2" d="M24.3,40.1c-0.9,0.4-2,0.9-2.8,1.2c-1.5,0.6-2.5,1.3-2.5,3V47c0,0.3,0.3,0.6,0.6,0.6h19.7
		c0.3,0,0.6-0.3,0.6-0.6v-2.7c0.1-1.7-0.9-2.4-2.4-3c-0.8-0.3-1.9-0.7-2.8-1.2"/>
	<path class="st2" d="M29.4,37.4c1.1,0,2.6-0.8,3.7-2.1c1.2-1.4,1.9-3.1,1.9-4.7c0-1.7-0.6-3.2-1.6-4.3s-2.5-1.7-4.1-1.7
		c-3.2,0-5.6,2.5-5.6,6c0,1.6,0.7,3.3,1.9,4.7C26.8,36.6,28.2,37.4,29.4,37.4z"/>
</g>
<g>
	<path class="st3" d="M46.2,19.4c-0.1,0-0.3-0.1-0.4-0.1l-1.7-0.9l-1.7,0.9c-0.3,0.2-0.7,0.1-0.9-0.1c-0.2-0.2-0.4-0.5-0.4-0.8
		l0.3-1.8l-1.4-1.3c-0.2-0.2-0.3-0.5-0.2-0.8s0.4-0.5,0.7-0.6l1.9-0.3l0.8-1.7c0.1-0.3,0.4-0.5,0.8-0.5c0.4,0,0.6,0.2,0.8,0.5
		l0.9,1.7l1.9,0.3c0.3,0.1,0.6,0.2,0.7,0.6c0.1,0.3,0,0.7-0.2,0.8l-1.4,1.3l0.3,1.8c0.1,0.3-0.1,0.7-0.4,0.8
		C46.6,19.4,46.4,19.4,46.2,19.4z M44.1,16.7c0.1,0,0.3,0.1,0.4,0.1l0.5,0.3l-0.1-0.7c-0.1-0.3,0.1-0.5,0.2-0.7l0.5-0.4l-0.7-0.1
		c-0.3-0.1-0.5-0.2-0.7-0.5l-0.3-0.6l-0.3,0.6c-0.1,0.2-0.4,0.4-0.7,0.5l-0.7,0.1l0.5,0.4c0.2,0.2,0.3,0.5,0.2,0.7l-0.1,0.7l0.5-0.3
		C43.9,16.7,44,16.7,44.1,16.7z"/>
</g>
</svg>
