<?xml version="1.0" encoding="utf-8"?>
<!-- Generator: Adobe Illustrator 22.0.1, SVG Export Plug-In . SVG Version: 6.00 Build 0)  -->
<svg version="1.1" id="Layer_1" xmlns="http://www.w3.org/2000/svg" xmlns:xlink="http://www.w3.org/1999/xlink" x="0px" y="0px"
	 viewBox="0 0 62 62" style="enable-background:new 0 0 62 62;" xml:space="preserve">
<style type="text/css">
	.st0{fill:#F2994A;}
	.st1{fill:none;stroke:#202020;stroke-linecap:round;stroke-linejoin:round;stroke-miterlimit:10;}
</style>
<path class="st0" d="M61,1h1V0h-1V1z M1,1V0H0v1H1z M61,30.1v1h1v-1H61z M53.2,30.1v-1h-1v1H53.2z M53.2,31.9h-1v1h1V31.9z M61,31.9
	h1v-1h-1V31.9z M61,61v1h1v-1H61z M1,61H0v1h1V61z M1,31.9v-1H0v1H1z M8.8,31.9v1h1v-1H8.8z M8.8,30.1h1v-1h-1V30.1z M1,30.1H0v1h1
	V30.1z M61,0H1v2h60V0z M62,30.1V1h-2v29.1H62z M53.2,31.1H61v-2h-7.8V31.1z M54.2,31.9V30h-2v1.9H54.2z M61,30.9h-7.8v2H61V30.9z
	 M62,61V31.9h-2V61H62z M1,62h60v-2H1C1,60,1,62,1,62z M0,31.9V61h2V31.9H0z M8.8,30.9H1v2h7.8V30.9z M7.8,30.1V32h2v-1.9H7.8z
	 M1,31.1h7.8v-2H1C1,29.1,1,31.1,1,31.1z M0,1v29.1h2V1H0z"/>
<g>
	<path class="st1" d="M26,24.5v-2c0-2.2,1.8-4,4-4h2c2.2,0,4,1.8,4,4v2"/>
	<path class="st1" d="M33,37.5h13v-11c0-1.1-0.9-2-2-2H18c-1.1,0-2,0.9-2,2v11h13 M45,37.5v8H17v-8"/>
	<path class="st1" d="M29,35.5h4v4h-4V35.5z"/>
</g>
</svg>
