<svg width="60" height="60" viewBox="0 0 60 60" fill="none" xmlns="http://www.w3.org/2000/svg">
<mask id="path-1-inside-1_789_16490" fill="white">
<path fill-rule="evenodd" clip-rule="evenodd" d="M0 0H60L60 29.0667H52.2V30.9333H60L60 60H0V30.9332H7.8V29.0665H0V0Z"/>
</mask>
<path d="M60 0L61 1.3124e-07V-1H60V0ZM0 0V-1H-1V0H0ZM60 29.0667V30.0667H61V29.0667H60ZM52.2 29.0667V28.0667H51.2V29.0667H52.2ZM52.2 30.9333H51.2V31.9333H52.2V30.9333ZM60 30.9333H61V29.9333H60V30.9333ZM60 60V61H61V60H60ZM0 60H-1V61H0V60ZM0 30.9332V29.9332H-1V30.9332H0ZM7.8 30.9332V31.9332H8.8V30.9332H7.8ZM7.8 29.0665H8.8V28.0665H7.8V29.0665ZM0 29.0665H-1V30.0665H0V29.0665ZM60 -1H0V1H60V-1ZM61 29.0667L61 1.3124e-07L59 -1.3124e-07L59 29.0667H61ZM52.2 30.0667H60V28.0667H52.2V30.0667ZM53.2 30.9333V29.0667H51.2V30.9333H53.2ZM60 29.9333H52.2V31.9333H60V29.9333ZM61 60L61 30.9333H59L59 60H61ZM0 61H60V59H0V61ZM-1 30.9332V60H1V30.9332H-1ZM7.8 29.9332H0V31.9332H7.8V29.9332ZM6.8 29.0665V30.9332H8.8V29.0665H6.8ZM0 30.0665H7.8V28.0665H0V30.0665ZM-1 0V29.0665H1V0H-1Z" fill="#F2994A" mask="url(#path-1-inside-1_789_16490)"/>
<path d="M10.5163 21.5439C11.0704 21.0107 11.614 20.488 12.189 19.9339C12.9209 20.6762 13.6527 21.408 14.3427 22.1085C17.3119 19.1393 20.2497 16.2015 23.2188 13.2324C22.5184 12.5423 21.7865 11.8314 21.0756 11.1309C21.6402 10.5664 22.1838 10.0227 22.7065 9.5C23.9507 10.7441 25.2261 12.0196 26.5644 13.3578C26.2925 13.5669 25.9998 13.7969 25.6966 14.0374C26.1775 14.6333 26.5748 15.041 27.2962 15.0619C27.9444 15.0829 28.5821 15.2397 29.2303 15.3024C29.6381 15.3442 29.9517 15.4906 30.1922 15.8042C30.2863 15.9297 30.3699 16.0656 30.4745 16.2015C31.2063 15.1874 32.2413 15.2815 33.1822 15.1247C33.5691 15.0619 33.9873 15.0829 34.3323 14.9469C34.6564 14.811 34.9177 14.5078 35.2 14.2778C35.2418 14.2465 35.2732 14.2047 35.3568 14.1001C35.0641 13.8596 34.7714 13.6296 34.51 13.4101C35.8691 12.051 37.1551 10.765 38.4096 9.51046C38.9115 10.0123 39.4551 10.5559 40.0092 11.11C39.3087 11.8105 38.5769 12.5319 37.8764 13.2324C40.8456 16.2015 43.7834 19.1393 46.7525 22.1085C47.4426 21.408 48.1639 20.6762 48.8644 19.9757C49.429 20.5403 49.9726 21.0839 50.5058 21.6066C49.2617 22.8508 47.9758 24.1367 46.6375 25.4749C46.4285 25.2031 46.188 24.9104 45.958 24.6176C45.3412 25.0881 44.9543 25.5167 44.923 26.2486C44.8916 27.0013 44.7452 27.7436 44.6198 28.4963C44.5884 28.6532 44.4734 28.8204 44.3479 28.9459C42.9679 30.3364 41.5879 31.7164 40.1974 33.0964C40.0092 33.2846 39.936 33.4728 39.936 33.7446C39.9465 35.7415 39.936 37.7384 39.9465 39.7248C39.9465 40.1012 39.8524 40.3939 39.6224 40.6866C39.2251 41.1675 38.901 41.7216 38.4724 42.1712C37.981 42.6939 37.8973 43.2794 38.0124 43.9799C38.3678 43.9799 38.7337 43.9799 39.1519 43.9799C39.1519 45.8513 39.1519 47.6704 39.1519 49.5C38.3678 49.5 37.5837 49.5 36.7996 49.5C36.7996 48.465 36.7996 47.4195 36.7996 46.374C32.5968 46.374 28.4462 46.374 24.2748 46.374C24.2748 47.4404 24.2748 48.465 24.2748 49.5C23.4907 49.5 22.7065 49.5 21.9224 49.5C21.9224 47.6809 21.9224 45.8513 21.9224 43.9799C22.3406 43.9799 22.7065 43.9799 23.0516 43.9799C23.177 43.269 23.0725 42.6939 22.5915 42.1712C22.1315 41.6694 21.7343 41.0839 21.3474 40.5193C21.222 40.3416 21.1383 40.1012 21.1383 39.8816C21.1279 37.8325 21.1279 35.7833 21.1383 33.7446C21.1383 33.4728 21.0651 33.2846 20.877 33.0964C19.4865 31.7164 18.1064 30.3364 16.7264 28.9459C16.601 28.8204 16.486 28.6636 16.4546 28.4963C16.3291 27.7541 16.1828 27.0013 16.1514 26.2486C16.12 25.5272 15.7332 25.0881 15.1164 24.6176C14.8864 24.9104 14.6564 25.2031 14.4159 25.5167C13.6841 24.7744 13.015 24.1053 12.3354 23.4258C11.729 22.8194 11.1122 22.2235 10.4954 21.6275C10.5163 21.5962 10.5163 21.5753 10.5163 21.5439ZM35.6391 43.959C35.6391 43.4049 35.6182 42.8926 35.6496 42.3698C35.66 42.1817 35.7332 41.9621 35.8378 41.8053C36.3396 41.1048 36.8728 40.4357 37.3746 39.7352C37.5001 39.5575 37.5942 39.317 37.5942 39.1079C37.6046 35.4279 37.6046 31.7582 37.6046 28.0781C37.6046 26.7713 36.8832 26.0604 35.5659 26.0499C33.2554 26.0499 30.9554 26.0499 28.6449 26.0499C28.509 26.0499 28.373 26.0604 28.1953 26.0708C28.1953 30.2737 28.1953 34.4347 28.1953 38.5957C27.4007 38.5957 26.648 38.5957 25.8639 38.5957C25.8639 37.8116 25.8639 37.0379 25.8639 36.2747C25.8639 34.8947 24.9021 34.1315 23.5116 34.4242C23.5116 36.0447 23.5116 37.6756 23.522 39.2961C23.522 39.4216 23.6161 39.5575 23.6998 39.6725C24.2225 40.373 24.7557 41.063 25.268 41.7739C25.3934 41.9516 25.4666 42.1921 25.4771 42.4117C25.5084 42.9135 25.4875 43.4258 25.4875 43.9485C28.8644 43.959 32.2204 43.959 35.6391 43.959ZM25.8534 32.396C25.8534 29.4686 25.8534 26.604 25.8534 23.6976C26.6062 23.6976 27.3067 23.6976 28.0176 23.6976C28.028 23.6662 28.0489 23.6349 28.0594 23.6035C27.3589 22.903 26.648 22.213 25.9371 21.5021C26.4703 20.9689 26.9616 20.4775 27.4635 19.9757C27.4948 19.9443 27.5471 19.913 27.6203 19.8607C28.1535 20.4043 28.718 20.9062 29.2199 21.4707C30.0772 22.4326 31.384 22.4326 32.2518 21.1571C31.1017 20.0175 29.9622 18.8779 28.8121 17.7384C28.7076 17.6443 28.5403 17.592 28.3939 17.5711C27.7771 17.477 27.1603 17.362 26.533 17.3202C25.7593 17.2784 25.1321 17.0065 24.672 16.3792C24.5152 16.1702 24.327 15.982 24.1807 15.8147C21.7447 18.2507 19.3506 20.6343 16.9251 23.0599C17.2492 23.3735 17.5837 23.7185 17.9496 24.0321C18.1796 24.2308 18.2842 24.4712 18.326 24.7744C18.4305 25.6004 18.5455 26.4263 18.671 27.2522C18.7024 27.43 18.7755 27.639 18.901 27.7645C20.2601 29.1445 21.6193 30.5037 22.9888 31.8628C23.0725 31.9464 23.2084 32.0301 23.3129 32.0301C24.1598 32.0196 25.0066 32.0091 25.8534 32.396ZM39.9569 30.0332C40.741 29.2491 41.4624 28.5486 42.1524 27.8272C42.2988 27.6704 42.4138 27.4404 42.4452 27.2209C42.5915 26.374 42.6856 25.5167 42.8216 24.6699C42.8529 24.4712 42.9679 24.2622 43.1038 24.1053C43.4488 23.729 43.8357 23.3735 44.1598 23.0599C41.7343 20.6343 39.3506 18.2611 36.9355 15.8461C36.601 16.1911 36.2559 16.5779 35.8691 16.9334C35.7332 17.0588 35.545 17.1634 35.3777 17.1947C34.5205 17.3306 33.6527 17.4456 32.785 17.5711C32.5968 17.6025 32.419 17.6861 32.1681 17.7593C33.36 18.9407 34.4682 20.0593 35.5764 21.1675C34.74 22.0144 33.935 22.8194 33.0881 23.6767C33.2554 23.6871 33.3495 23.708 33.4541 23.708C34.1859 23.708 34.9177 23.6976 35.6391 23.708C38.1692 23.7394 39.9256 25.5063 39.936 28.0363C39.9569 28.6636 39.9569 29.2804 39.9569 30.0332Z" fill="black"/>
</svg>
