<svg width="60" height="60" viewBox="0 0 60 60" fill="none" xmlns="http://www.w3.org/2000/svg">
<mask id="path-1-inside-1_789_16504" fill="white">
<path fill-rule="evenodd" clip-rule="evenodd" d="M0 0H60L60 29.0667H52.2V30.9333H60L60 60H0V30.9332H7.8V29.0665H0V0Z"/>
</mask>
<path d="M60 0L61 1.3124e-07V-1H60V0ZM0 0V-1H-1V0H0ZM60 29.0667V30.0667H61V29.0667H60ZM52.2 29.0667V28.0667H51.2V29.0667H52.2ZM52.2 30.9333H51.2V31.9333H52.2V30.9333ZM60 30.9333H61V29.9333H60V30.9333ZM60 60V61H61V60H60ZM0 60H-1V61H0V60ZM0 30.9332V29.9332H-1V30.9332H0ZM7.8 30.9332V31.9332H8.8V30.9332H7.8ZM7.8 29.0665H8.8V28.0665H7.8V29.0665ZM0 29.0665H-1V30.0665H0V29.0665ZM60 -1H0V1H60V-1ZM61 29.0667L61 1.3124e-07L59 -1.3124e-07L59 29.0667H61ZM52.2 30.0667H60V28.0667H52.2V30.0667ZM53.2 30.9333V29.0667H51.2V30.9333H53.2ZM60 29.9333H52.2V31.9333H60V29.9333ZM61 60L61 30.9333H59L59 60H61ZM0 61H60V59H0V61ZM-1 30.9332V60H1V30.9332H-1ZM7.8 29.9332H0V31.9332H7.8V29.9332ZM6.8 29.0665V30.9332H8.8V29.0665H6.8ZM0 30.0665H7.8V28.0665H0V30.0665ZM-1 0V29.0665H1V0H-1Z" fill="#F2994A" mask="url(#path-1-inside-1_789_16504)"/>
<path d="M26.5312 23.625H28.0312C28.0312 22.7966 27.3597 22.125 26.5312 22.125V23.625ZM26.5312 35V36.5C27.3597 36.5 28.0312 35.8284 28.0312 35H26.5312ZM23.8984 35H22.3984C22.3984 35.8284 23.07 36.5 23.8984 36.5V35ZM23.8984 26.5938H25.3984C25.3984 26.1215 25.176 25.6768 24.7982 25.3935C24.4203 25.1103 23.9311 25.0215 23.4778 25.1539L23.8984 26.5938ZM21.3047 27.3516H19.8047C19.8047 27.8238 20.0271 28.2685 20.405 28.5518C20.7828 28.835 21.272 28.9238 21.7254 28.7914L21.3047 27.3516ZM21.3047 25.3516L20.8137 23.9342C20.2097 24.1434 19.8047 24.7124 19.8047 25.3516H21.3047ZM26.2891 23.625V22.125C26.1219 22.125 25.956 22.1529 25.7981 22.2076L26.2891 23.625ZM25.0312 23.625V35H28.0312V23.625H25.0312ZM26.5312 33.5H23.8984V36.5H26.5312V33.5ZM25.3984 35V26.5938H22.3984V35H25.3984ZM23.4778 25.1539L20.884 25.9118L21.7254 28.7914L24.3191 28.0336L23.4778 25.1539ZM22.8047 27.3516V25.3516H19.8047V27.3516H22.8047ZM21.7957 26.7689L26.78 25.0424L25.7981 22.2076L20.8137 23.9342L21.7957 26.7689ZM26.2891 25.125H26.5312V22.125H26.2891V25.125ZM36.8737 32.4844L35.4446 32.0285L35.4412 32.0398L36.8737 32.4844ZM36.0612 33.9844L34.9434 32.9842L34.9361 32.9924L36.0612 33.9844ZM31.8972 34.9766L31.4561 36.4102C31.4617 36.412 31.4673 36.4137 31.4729 36.4153L31.8972 34.9766ZM30.7956 34.4141L29.8655 35.5909C29.8725 35.5964 29.8795 35.6018 29.8866 35.6072L30.7956 34.4141ZM29.4206 32.1172L27.962 32.4672L27.9628 32.4706L29.4206 32.1172ZM29.5144 26.1406L28.0853 25.6848L28.0829 25.6925L29.5144 26.1406ZM34.4987 23.6562L34.0524 25.0883C34.0597 25.0906 34.0671 25.0928 34.0745 25.095L34.4987 23.6562ZM35.6003 24.2188L34.6794 25.4028C34.6833 25.4058 34.6873 25.4089 34.6912 25.4119L35.6003 24.2188ZM36.4362 25.1641L35.1516 25.9384C35.1541 25.9427 35.1567 25.9469 35.1594 25.9512L36.4362 25.1641ZM36.9753 26.5156L35.5167 26.8657L35.5175 26.869L36.9753 26.5156ZM34.4675 26.9844L32.9809 27.1845C32.9822 27.1938 32.9835 27.2032 32.9849 27.2125L34.4675 26.9844ZM34.2956 26.2969L32.8976 26.8405C32.9019 26.8517 32.9064 26.8628 32.911 26.8738L34.2956 26.2969ZM34.0222 25.8438L32.9145 26.8552C32.9219 26.8633 32.9295 26.8714 32.9372 26.8795L34.0222 25.8438ZM33.6472 25.5859L33.0627 26.9674C33.0837 26.9763 33.1049 26.9847 33.1262 26.9926L33.6472 25.5859ZM32.6316 25.6328L33.3195 26.9657C33.3248 26.963 33.3301 26.9603 33.3353 26.9575L32.6316 25.6328ZM31.9519 26.7891L30.481 26.4949C30.4794 26.5028 30.4779 26.5107 30.4765 26.5186L31.9519 26.7891ZM31.9206 31.6406L30.4335 31.837C30.4349 31.8476 30.4364 31.8582 30.4381 31.8687L31.9206 31.6406ZM32.0925 32.3359L30.6896 32.8668C30.6954 32.8822 30.7015 32.8976 30.7079 32.9129L32.0925 32.3359ZM32.3737 32.7969L31.266 33.8083C31.2735 33.8165 31.2811 33.8246 31.2887 33.8326L32.3737 32.7969ZM32.7487 33.0469L32.2278 34.4535L32.7487 33.0469ZM33.7566 33L34.4445 34.3329L33.7566 33ZM34.1706 32.5938L32.8967 31.8018L32.8907 31.8116L34.1706 32.5938ZM34.4362 31.8359L32.9645 31.5464C32.9632 31.5527 32.962 31.5591 32.9608 31.5654L34.4362 31.8359ZM35.6628 28.2734V30.3516H38.6628V28.2734H35.6628ZM35.6628 30.3516C35.6628 31.0569 35.5791 31.6073 35.4447 32.0286L38.3028 32.9402C38.5539 32.1531 38.6628 31.2816 38.6628 30.3516H35.6628ZM35.4412 32.0398C35.3055 32.477 35.1292 32.7765 34.9434 32.9842L37.1791 34.9846C37.7016 34.4006 38.067 33.7 38.3063 32.929L35.4412 32.0398ZM34.9361 32.9924C34.7411 33.2136 34.5192 33.369 34.2567 33.4734L35.3658 36.2609C36.0721 35.9799 36.6835 35.5468 37.1864 34.9763L34.9361 32.9924ZM34.2567 33.4734C33.9686 33.5881 33.6257 33.6562 33.2097 33.6562V36.6562C33.9604 36.6562 34.6851 36.5317 35.3658 36.2609L34.2567 33.4734ZM33.2097 33.6562C32.8694 33.6562 32.5761 33.6129 32.3214 33.5378L31.4729 36.4153C32.0308 36.5798 32.6125 36.6562 33.2097 36.6562V33.6562ZM32.3383 33.5429C32.0958 33.4683 31.8879 33.3605 31.7047 33.2209L29.8866 35.6072C30.3596 35.9676 30.8861 36.2349 31.4561 36.4102L32.3383 33.5429ZM31.7257 33.2372C31.5515 33.0996 31.3868 32.9176 31.2366 32.6738L28.6828 34.2481C29.0013 34.7647 29.3939 35.2181 29.8655 35.5909L31.7257 33.2372ZM31.2366 32.6738C31.0988 32.4502 30.973 32.1542 30.8784 31.7638L27.9628 32.4706C28.1182 33.1114 28.3519 33.7112 28.6828 34.2481L31.2366 32.6738ZM30.8792 31.7671C30.7871 31.3832 30.7331 30.9152 30.7331 30.3516H27.7331C27.7331 31.1004 27.8042 31.8095 27.962 32.4672L30.8792 31.7671ZM30.7331 30.3516V28.2734H27.7331V30.3516H30.7331ZM30.7331 28.2734C30.7331 27.5581 30.8154 27.0056 30.9459 26.5887L28.0829 25.6925C27.8384 26.4736 27.7331 27.343 27.7331 28.2734H30.7331ZM30.9434 26.5964C31.0842 26.1552 31.2639 25.8516 31.4525 25.6408L29.2168 23.6404C28.6971 24.2213 28.33 24.9177 28.0853 25.6848L30.9434 26.5964ZM31.4525 25.6408C31.6549 25.4146 31.8825 25.2568 32.147 25.1516L31.038 22.3641C30.3337 22.6443 29.7228 23.075 29.2168 23.6404L31.4525 25.6408ZM32.147 25.1516C32.4351 25.0369 32.7781 24.9688 33.1941 24.9688V21.9688C32.4434 21.9688 31.7186 22.0933 31.038 22.3641L32.147 25.1516ZM33.1941 24.9688C33.5288 24.9688 33.8115 25.0132 34.0524 25.0883L34.9451 22.2242C34.3839 22.0493 33.7968 21.9688 33.1941 21.9688V24.9688ZM34.0745 25.095C34.3042 25.1627 34.5023 25.265 34.6794 25.4028L36.5212 23.0347C36.0421 22.6621 35.5058 22.3893 34.923 22.2175L34.0745 25.095ZM34.6912 25.4119C34.8577 25.5387 35.0126 25.7078 35.1516 25.9384L37.7209 24.3897C37.4016 23.8599 36.9991 23.3988 36.5094 23.0256L34.6912 25.4119ZM35.1594 25.9512C35.2957 26.1724 35.4216 26.4694 35.5167 26.8657L38.4339 26.1656C38.279 25.5201 38.0455 24.9161 37.7131 24.3769L35.1594 25.9512ZM35.5175 26.869C35.6088 27.2455 35.6628 27.7094 35.6628 28.2734H38.6628C38.6628 27.525 38.5918 26.817 38.4331 26.1622L35.5175 26.869ZM36.03 30.6719V27.9375H33.03V30.6719H36.03ZM36.03 27.9375C36.03 27.5198 36.0064 27.1226 35.9501 26.7563L32.9849 27.2125C33.0119 27.3878 33.03 27.626 33.03 27.9375H36.03ZM35.9541 26.7843C35.9058 26.4254 35.8225 26.0614 35.6802 25.72L32.911 26.8738C32.925 26.9073 32.9563 27.0017 32.9809 27.1845L35.9541 26.7843ZM35.6936 25.7532C35.568 25.4302 35.3833 25.0973 35.1072 24.808L32.9372 26.8795C32.9081 26.849 32.8931 26.8259 32.8883 26.818C32.8837 26.8104 32.8881 26.8161 32.8976 26.8405L35.6936 25.7532ZM35.1299 24.8323C34.8727 24.5507 34.5511 24.3211 34.1682 24.1793L33.1262 26.9926C33.0245 26.9549 32.9529 26.8972 32.9145 26.8552L35.1299 24.8323ZM34.2316 24.2045C33.8882 24.0592 33.5348 24 33.1941 24V27C33.1866 27 33.1353 26.9981 33.0627 26.9674L34.2316 24.2045ZM33.1941 24C32.7663 24 32.333 24.0929 31.9278 24.3081L33.3353 26.9575C33.3029 26.9747 33.2705 26.9863 33.2419 26.9931C33.2139 26.9997 33.1966 27 33.1941 27V24ZM31.9436 24.2999C31.4915 24.5332 31.1653 24.8843 30.9376 25.2569L33.4974 26.8212C33.4989 26.8188 33.4487 26.8991 33.3195 26.9657L31.9436 24.2999ZM30.9376 25.2569C30.6999 25.6459 30.5639 26.0806 30.481 26.4949L33.4227 27.0832C33.4427 26.9836 33.4629 26.9137 33.4791 26.868C33.4955 26.8217 33.5042 26.8101 33.4974 26.8212L30.9376 25.2569ZM30.4765 26.5186C30.3975 26.9491 30.3659 27.4285 30.3659 27.9375H33.3659C33.3659 27.5402 33.3916 27.254 33.4273 27.0596L30.4765 26.5186ZM30.3659 27.9375V30.6719H33.3659V27.9375H30.3659ZM30.3659 30.6719C30.3659 31.0875 30.3862 31.4788 30.4335 31.837L33.4077 31.4442C33.3821 31.2504 33.3659 30.9959 33.3659 30.6719H30.3659ZM30.4381 31.8687C30.4908 32.2113 30.5698 32.5502 30.6896 32.8668L33.4954 31.8051C33.4694 31.7362 33.4338 31.6116 33.4032 31.4125L30.4381 31.8687ZM30.7079 32.9129C30.8365 33.2214 31.0148 33.5331 31.266 33.8083L33.4815 31.7855C33.4982 31.8038 33.504 31.8141 33.5019 31.8105C33.4996 31.8067 33.4904 31.7909 33.4771 31.759L30.7079 32.9129ZM31.2887 33.8326C31.5464 34.1025 31.8614 34.3178 32.2278 34.4535L33.2697 31.6403C33.3549 31.6718 33.4199 31.7204 33.4588 31.7612L31.2887 33.8326ZM32.2278 34.4535C32.5527 34.5738 32.8849 34.625 33.2097 34.625V31.625C33.2046 31.625 33.2086 31.6246 33.2201 31.6266C33.2319 31.6285 33.249 31.6326 33.2697 31.6403L32.2278 34.4535ZM33.2097 34.625C33.6236 34.625 34.0463 34.5385 34.4445 34.3329L33.0686 31.6671C33.1031 31.6493 33.1364 31.6379 33.1645 31.6315C33.192 31.6252 33.2084 31.625 33.2097 31.625V34.625ZM34.4445 34.3329C34.8966 34.0996 35.2229 33.7485 35.4505 33.3759L32.8907 31.8116C32.8892 31.814 32.9394 31.7337 33.0686 31.6671L34.4445 34.3329ZM35.4446 33.3857C35.6947 32.9832 35.833 32.5353 35.9117 32.1064L32.9608 31.5654C32.9437 31.6588 32.9256 31.7229 32.9113 31.7636C32.897 31.8044 32.8895 31.8134 32.8967 31.8018L35.4446 33.3857ZM35.908 32.1255C35.9952 31.6822 36.03 31.1908 36.03 30.6719H33.03C33.03 31.0696 33.0023 31.3543 32.9645 31.5464L35.908 32.1255Z" fill="black"/>
<path d="M30 8.76891L36.9339 18.8863C37.0639 19.076 37.2554 19.2151 37.476 19.2802L49.2409 22.7482L41.7614 32.4692C41.6211 32.6515 41.548 32.8766 41.5543 33.1065L41.8915 45.3673L30.335 41.2578C30.1183 41.1807 29.8817 41.1807 29.665 41.2578L18.1085 45.3673L18.4457 33.1065C18.452 32.8766 18.3789 32.6515 18.2386 32.4692L10.7591 22.7482L22.524 19.2802C22.7446 19.2151 22.9361 19.076 23.0661 18.8863L30 8.76891Z" stroke="black" stroke-width="2" stroke-linejoin="round"/>
</svg>
