<svg width="60" height="60" viewBox="0 0 60 60" fill="none" xmlns="http://www.w3.org/2000/svg">
<mask id="path-1-inside-1_789_16481" fill="white">
<path fill-rule="evenodd" clip-rule="evenodd" d="M0 0H60L60 29.0667H52.2V30.9333H60L60 60H0V30.9332H7.8V29.0665H0V0Z"/>
</mask>
<path d="M60 0L61 1.3124e-07V-1H60V0ZM0 0V-1H-1V0H0ZM60 29.0667V30.0667H61V29.0667H60ZM52.2 29.0667V28.0667H51.2V29.0667H52.2ZM52.2 30.9333H51.2V31.9333H52.2V30.9333ZM60 30.9333H61V29.9333H60V30.9333ZM60 60V61H61V60H60ZM0 60H-1V61H0V60ZM0 30.9332V29.9332H-1V30.9332H0ZM7.8 30.9332V31.9332H8.8V30.9332H7.8ZM7.8 29.0665H8.8V28.0665H7.8V29.0665ZM0 29.0665H-1V30.0665H0V29.0665ZM60 -1H0V1H60V-1ZM61 29.0667L61 1.3124e-07L59 -1.3124e-07L59 29.0667H61ZM52.2 30.0667H60V28.0667H52.2V30.0667ZM53.2 30.9333V29.0667H51.2V30.9333H53.2ZM60 29.9333H52.2V31.9333H60V29.9333ZM61 60L61 30.9333H59L59 60H61ZM0 61H60V59H0V61ZM-1 30.9332V60H1V30.9332H-1ZM7.8 29.9332H0V31.9332H7.8V29.9332ZM6.8 29.0665V30.9332H8.8V29.0665H6.8ZM0 30.0665H7.8V28.0665H0V30.0665ZM-1 0V29.0665H1V0H-1Z" fill="#F2994A" mask="url(#path-1-inside-1_789_16481)"/>
<path d="M46.7954 42.1041H39.6844C39.4422 42.1041 39.2098 42.0079 39.0385 41.8366C38.8672 41.6652 38.771 41.4329 38.771 41.1906C38.771 40.9484 38.8672 40.716 39.0385 40.5447C39.2098 40.3734 39.4422 40.2772 39.6844 40.2772H45.91V29.1611C45.91 28.7254 45.7835 27.9947 44.9403 27.9947L44.2939 28.1492C39.6239 29.2359 34.852 29.8248 30.058 29.9059C25.6128 29.8284 21.1869 29.3011 16.8479 28.3319C16.2122 28.1873 15.5696 28.0747 14.9226 27.9947C14.0794 27.9947 13.953 28.7254 13.953 29.1611V40.2772H20.1785C20.4208 40.2772 20.6531 40.3734 20.8244 40.5447C20.9958 40.716 21.092 40.9484 21.092 41.1906C21.092 41.4329 20.9958 41.6652 20.8244 41.8366C20.6531 42.0079 20.4208 42.1041 20.1785 42.1041H13.0676C12.8253 42.1041 12.593 42.0079 12.4217 41.8366C12.2504 41.6652 12.1541 41.4329 12.1541 41.1906V29.1611C12.1291 28.7769 12.1833 28.3917 12.3133 28.0293C12.4433 27.6669 12.6463 27.3351 12.9099 27.0545C13.1734 26.7738 13.4918 26.5503 13.8453 26.3977C14.1987 26.2452 14.5798 26.1669 14.9648 26.1677C15.7463 26.2349 16.5215 26.3617 17.2836 26.5472C21.5027 27.4883 25.8061 28.0015 30.1282 28.079C34.7899 27.9963 39.4297 27.4216 43.9707 26.3645C44.3092 26.2617 44.6579 26.1957 45.0106 26.1677C45.3956 26.1669 45.7766 26.2452 46.1301 26.3977C46.4836 26.5503 46.802 26.7738 47.0655 27.0545C47.329 27.3351 47.5321 27.6669 47.6621 28.0293C47.7921 28.3917 47.8463 28.7769 47.8212 29.1611V41.1906C47.8222 41.3207 47.7954 41.4494 47.7427 41.5683C47.6899 41.6871 47.6124 41.7933 47.5153 41.8798C47.4181 41.9663 47.3037 42.031 47.1795 42.0697C47.0554 42.1084 46.9244 42.1201 46.7954 42.1041Z" fill="black"/>
<path d="M30.1143 38.1129C26.4466 38.1688 22.7842 37.8153 19.1949 37.0589C19.0145 37.0156 18.8585 36.9025 18.7611 36.7446C18.6637 36.5866 18.6327 36.3965 18.675 36.2158C18.7215 36.0342 18.8373 35.8781 18.9975 35.7809C19.1578 35.6837 19.3497 35.6532 19.5322 35.6958C23.0131 36.4112 26.5609 36.7504 30.1143 36.7076C33.5418 36.7811 36.9672 36.4842 40.331 35.8223C40.4205 35.799 40.5137 35.7937 40.6053 35.8066C40.6969 35.8194 40.785 35.8502 40.8646 35.8973C40.9443 35.9443 41.0139 36.0065 41.0694 36.0805C41.1249 36.1544 41.1653 36.2386 41.1882 36.3282C41.2309 36.5107 41.2003 36.7026 41.1031 36.8629C41.0059 37.0231 40.8498 37.1389 40.6683 37.1854C37.1964 37.8912 33.656 38.2023 30.1143 38.1129Z" fill="black"/>
<path d="M18.3939 24.3267C18.2198 24.3284 18.0489 24.2796 17.902 24.1861C17.6994 24.0537 17.5565 23.8473 17.504 23.6109C17.4515 23.3746 17.4935 23.1271 17.6209 22.9213L19.8976 19.4361C20.0557 19.1264 20.3009 18.8696 20.603 18.6974C20.9051 18.5251 21.2509 18.4449 21.598 18.4665H35.4124C35.6547 18.4665 35.887 18.5627 36.0583 18.734C36.2297 18.9053 36.3259 19.1377 36.3259 19.3799C36.3259 19.6222 36.2297 19.8545 36.0583 20.0258C35.887 20.1971 35.6547 20.2934 35.4124 20.2934H21.4996L21.3872 20.462L19.1387 23.9051C19.0584 24.0308 18.9486 24.135 18.8187 24.2085C18.6889 24.282 18.543 24.3226 18.3939 24.3267Z" fill="black"/>
<path d="M44.6733 32.2528H36.4802C36.2939 32.2528 36.1152 32.1787 35.9834 32.047C35.8516 31.9152 35.7776 31.7365 35.7776 31.5501V28.7957C35.7776 28.6093 35.8516 28.4306 35.9834 28.2988C36.1152 28.167 36.2939 28.093 36.4802 28.093C36.6655 28.0966 36.8421 28.1718 36.9731 28.3028C37.1041 28.4338 37.1793 28.6104 37.1829 28.7957V30.7912H44.6733C44.8596 30.7912 45.0384 30.8653 45.1701 30.997C45.3019 31.1288 45.3759 31.3075 45.3759 31.4939C45.3837 31.5908 45.3713 31.6882 45.3395 31.7801C45.3077 31.8719 45.2572 31.9562 45.1911 32.0275C45.1251 32.0988 45.045 32.1557 44.9558 32.1945C44.8667 32.2332 44.7705 32.2531 44.6733 32.2528Z" fill="black"/>
<path d="M23.3827 32.2528H15.1896C15.0102 32.2569 14.836 32.1923 14.7027 32.0721C14.5694 31.9519 14.4872 31.7852 14.4729 31.6063C14.4729 31.42 14.5469 31.2412 14.6787 31.1095C14.8105 30.9777 14.9892 30.9037 15.1756 30.9037H22.6659V28.7957C22.6695 28.6104 22.7447 28.4338 22.8757 28.3028C23.0067 28.1718 23.1834 28.0966 23.3686 28.093C23.555 28.093 23.7337 28.167 23.8655 28.2988C23.9972 28.4306 24.0713 28.6093 24.0713 28.7957V31.6063C24.0573 31.7804 23.9791 31.943 23.8518 32.0625C23.7245 32.182 23.5572 32.2498 23.3827 32.2528Z" fill="black"/>
<path d="M44.243 27.7958C44.1432 27.7962 44.0446 27.7781 43.9537 27.7429L43.2513 27.4517C40.8253 26.5199 38.7413 25.0426 37.222 23.1776C35.7028 21.3125 34.8053 19.13 34.6256 16.8631L34.2331 10.254C34.2266 10.1269 34.2698 10.0016 34.3558 9.89776C34.4418 9.79394 34.5658 9.71748 34.7082 9.68042L44.0054 7.15679C44.1365 7.12157 44.2771 7.12157 44.4083 7.15679L53.7054 9.68042C53.8488 9.71611 53.9739 9.79223 54.0602 9.89638C54.1465 10.0005 54.1889 10.1266 54.1806 10.254L53.8604 16.8631C53.6764 19.1301 52.7761 21.3121 51.2553 23.1767C49.7346 25.0414 47.6503 26.5188 45.2244 27.4517L44.5219 27.7341C44.4355 27.7722 44.3402 27.7933 44.243 27.7958ZM35.607 10.6069L35.9685 16.7836C36.1288 18.8475 36.9443 20.835 38.3276 22.5327C39.7108 24.2304 41.6094 25.5741 43.8195 26.4193L44.243 26.587L44.6562 26.4193C46.8668 25.5737 48.7664 24.2302 50.1512 22.5327C51.5361 20.8353 52.3541 18.8479 52.5175 16.7836L52.8687 10.6069L44.243 8.28625L35.607 10.6069Z" fill="black" stroke="black" stroke-width="0.5"/>
<path d="M43.3132 18.9305C43.1663 18.9299 43.024 18.8788 42.9103 18.7858L40.6997 17.1123C40.5994 16.9941 40.5431 16.8448 40.5404 16.6897C40.5377 16.5347 40.5887 16.3835 40.6849 16.2618C40.781 16.1401 40.9163 16.0555 41.0677 16.0222C41.2192 15.9889 41.3775 16.0091 41.5157 16.0793L43.3442 17.4636L47.0011 15.005C47.1511 14.9103 47.3322 14.8778 47.5057 14.9145C47.6793 14.9511 47.8318 15.054 47.9308 15.2013C47.979 15.2752 48.0122 15.3579 48.0284 15.4446C48.0446 15.5314 48.0436 15.6205 48.0254 15.7068C48.0071 15.7932 47.9721 15.8751 47.9222 15.9478C47.8723 16.0206 47.8085 16.0829 47.7345 16.131L43.6851 18.8168C43.5748 18.89 43.4456 18.9295 43.3132 18.9305Z" fill="black"/>
</svg>
