<svg width="60" height="60" viewBox="0 0 60 60" fill="none" xmlns="http://www.w3.org/2000/svg">
<mask id="path-1-inside-1_789_16484" fill="white">
<path fill-rule="evenodd" clip-rule="evenodd" d="M0 0H60L60 29.0667H52.2V30.9333H60L60 60H0V30.9332H7.8V29.0665H0V0Z"/>
</mask>
<path d="M60 0L61 1.3124e-07V-1H60V0ZM0 0V-1H-1V0H0ZM60 29.0667V30.0667H61V29.0667H60ZM52.2 29.0667V28.0667H51.2V29.0667H52.2ZM52.2 30.9333H51.2V31.9333H52.2V30.9333ZM60 30.9333H61V29.9333H60V30.9333ZM60 60V61H61V60H60ZM0 60H-1V61H0V60ZM0 30.9332V29.9332H-1V30.9332H0ZM7.8 30.9332V31.9332H8.8V30.9332H7.8ZM7.8 29.0665H8.8V28.0665H7.8V29.0665ZM0 29.0665H-1V30.0665H0V29.0665ZM60 -1H0V1H60V-1ZM61 29.0667L61 1.3124e-07L59 -1.3124e-07L59 29.0667H61ZM52.2 30.0667H60V28.0667H52.2V30.0667ZM53.2 30.9333V29.0667H51.2V30.9333H53.2ZM60 29.9333H52.2V31.9333H60V29.9333ZM61 60L61 30.9333H59L59 60H61ZM0 61H60V59H0V61ZM-1 30.9332V60H1V30.9332H-1ZM7.8 29.9332H0V31.9332H7.8V29.9332ZM6.8 29.0665V30.9332H8.8V29.0665H6.8ZM0 30.0665H7.8V28.0665H0V30.0665ZM-1 0V29.0665H1V0H-1Z" fill="#F2994A" mask="url(#path-1-inside-1_789_16484)"/>
<path fill-rule="evenodd" clip-rule="evenodd" d="M26.031 28.1513H27.5708L22.7659 33.7784L22.6794 33.6417V28.8986V27.3986H21.1794H19.6396L24.531 21.6703V26.6513V28.1513H26.031ZM22.6794 33.6417L19.6794 28.8986H18.5457C17.3328 28.8986 17.0209 28.1495 17.8179 27.2221L23.6052 20.4446L24.2983 19.6241C25.234 18.5183 26.031 18.8037 26.031 20.3019V25.1513V26.6513H27.531H28.6647C29.8776 26.6157 30.1895 27.4004 29.3925 28.3279L23.6052 35.1054L22.7659 33.7784L22.6794 33.8797V33.6417ZM21.5645 35.1612C21.5914 35.1475 21.7289 35.0867 21.9314 35.0974L22.1098 35.2481L22.9121 35.9258L22.1111 35.2481L21.9314 35.0974L21.7663 34.9578C21.6466 35.0991 21.5744 35.1523 21.5602 35.1627C21.5584 35.164 21.5576 35.1646 21.5576 35.1647C21.5576 35.1648 21.5583 35.1644 21.5595 35.1638C21.5607 35.1632 21.5623 35.1623 21.5645 35.1612ZM23.7312 45.711C25.3277 45.711 26.9504 44.6888 28.3127 43.5123C29.7512 42.2698 31.2109 40.58 32.5136 38.7173C33.2605 37.6492 33.9663 36.5094 34.5943 35.3437C34.7183 35.534 34.8449 35.7214 34.9733 35.9051C35.7526 37.0194 36.6357 38.0453 37.5222 38.8109C38.3323 39.5106 39.4274 40.243 40.5984 40.243C41.7694 40.243 42.8645 39.5106 43.6746 38.8109C44.5611 38.0453 45.4442 37.0194 46.2235 35.9051C47.0059 34.7864 47.7156 33.5328 48.2346 32.2868C48.7457 31.0601 49.1127 29.7438 49.1127 28.5268C49.1127 23.8955 45.2588 20.2159 40.5984 20.2159C38.9868 20.2159 37.4716 20.656 36.1788 21.4232C34.0931 16.72 29.2831 13.454 23.7312 13.454C16.2883 13.454 10.1787 19.3238 10.1787 26.6568C10.1787 28.5492 10.7543 30.6619 11.6046 32.7032C12.463 34.7637 13.643 36.8502 14.9487 38.7173C16.2514 40.58 17.7111 42.2698 19.1497 43.5123C20.5119 44.6888 22.1346 45.711 23.7312 45.711ZM36.7144 22.8545C37.0845 24.057 37.2836 25.333 37.2836 26.6568C37.2836 26.6825 37.2835 26.7082 37.2833 26.734C37.4531 26.3753 37.6699 26.059 37.952 25.785C38.2537 25.4628 38.6459 25.1991 39.0683 24.9941C39.4906 24.789 39.9432 24.7011 40.4259 24.7011C40.9086 24.7011 41.3611 24.789 41.7835 24.9941C42.2059 25.1991 42.5679 25.4628 42.8998 25.785C43.2316 26.1073 43.473 26.4881 43.654 26.9275C43.835 27.3669 43.9255 27.8063 43.9255 28.275C43.9255 28.773 43.835 29.2125 43.654 29.6519C43.473 30.0913 43.2316 30.4721 42.8998 30.7943C42.5981 31.1166 42.2059 31.3802 41.7835 31.5853C41.3611 31.7903 40.9086 31.8782 40.4259 31.8782C39.9432 31.8782 39.4906 31.7903 39.0683 31.5853C38.6459 31.3802 38.2839 31.1166 37.952 30.7943C37.6201 30.4721 37.3788 30.0913 37.1978 29.6519C37.1201 29.4633 37.0591 29.2694 37.0147 29.0723C36.7662 30.2675 36.3598 31.4978 35.8577 32.7032C35.7094 33.0592 35.5515 33.416 35.3849 33.7723C36.9494 36.4335 39.1809 38.743 40.5984 38.743C42.9682 38.743 47.6127 32.2883 47.6127 28.5268C47.6127 24.7652 44.4723 21.7159 40.5984 21.7159C39.162 21.7159 37.8264 22.1352 36.7144 22.8545ZM23.7312 44.211C27.8031 44.211 35.7836 33.1201 35.7836 26.6568C35.7836 20.1935 30.3875 14.954 23.7312 14.954C17.0748 14.954 11.6787 20.1935 11.6787 26.6568C11.6787 33.1201 19.6592 44.211 23.7312 44.211ZM39.0226 26.8363L38.9969 26.8612C38.8357 27.0177 38.7009 27.2168 38.5847 27.4989C38.4748 27.7656 38.4262 28.0114 38.4262 28.275C38.4262 28.5512 38.4796 28.8255 38.5847 29.0805C38.7009 29.3625 38.8357 29.5616 38.9969 29.7182C39.2266 29.9412 39.4594 30.1078 39.7234 30.2359C39.9086 30.3258 40.1304 30.3782 40.4259 30.3782C40.7214 30.3782 40.9432 30.3258 41.1284 30.2359C41.4344 30.0873 41.6611 29.9227 41.8048 29.7692L41.8292 29.7431L41.8549 29.7182C42.0161 29.5616 42.1509 29.3625 42.2671 29.0805C42.3745 28.8198 42.4255 28.5743 42.4255 28.275C42.4255 28.0114 42.377 27.7656 42.2671 27.4988C42.1509 27.2168 42.0161 27.0177 41.8549 26.8612L42.8643 25.8215L41.8548 26.8612C41.6251 26.6381 41.3923 26.4716 41.1284 26.3435C40.9432 26.2536 40.7214 26.2011 40.4259 26.2011C40.1304 26.2011 39.9086 26.2536 39.7234 26.3435C39.4174 26.492 39.1907 26.6567 39.047 26.8102L39.0226 26.8363Z" fill="black"/>
</svg>
