<svg width="60" height="60" viewBox="0 0 60 60" fill="none" xmlns="http://www.w3.org/2000/svg">
<mask id="path-1-inside-1_789_16511" fill="white">
<path fill-rule="evenodd" clip-rule="evenodd" d="M0 0H60L60 29.0667H52.2V30.9333H60L60 60H0V30.9332H7.8V29.0665H0V0Z"/>
</mask>
<path d="M60 0L61 1.3124e-07V-1H60V0ZM0 0V-1H-1V0H0ZM60 29.0667V30.0667H61V29.0667H60ZM52.2 29.0667V28.0667H51.2V29.0667H52.2ZM52.2 30.9333H51.2V31.9333H52.2V30.9333ZM60 30.9333H61V29.9333H60V30.9333ZM60 60V61H61V60H60ZM0 60H-1V61H0V60ZM0 30.9332V29.9332H-1V30.9332H0ZM7.8 30.9332V31.9332H8.8V30.9332H7.8ZM7.8 29.0665H8.8V28.0665H7.8V29.0665ZM0 29.0665H-1V30.0665H0V29.0665ZM60 -1H0V1H60V-1ZM61 29.0667L61 1.3124e-07L59 -1.3124e-07L59 29.0667H61ZM52.2 30.0667H60V28.0667H52.2V30.0667ZM53.2 30.9333V29.0667H51.2V30.9333H53.2ZM60 29.9333H52.2V31.9333H60V29.9333ZM61 60L61 30.9333H59L59 60H61ZM0 61H60V59H0V61ZM-1 30.9332V60H1V30.9332H-1ZM7.8 29.9332H0V31.9332H7.8V29.9332ZM6.8 29.0665V30.9332H8.8V29.0665H6.8ZM0 30.0665H7.8V28.0665H0V30.0665ZM-1 0V29.0665H1V0H-1Z" fill="#F2994A" mask="url(#path-1-inside-1_789_16511)"/>
<path fill-rule="evenodd" clip-rule="evenodd" d="M24.3547 48.6449L30.8532 50.3716C31.2717 50.3716 31.6905 50.3716 32.109 50.3611C32.3182 50.3088 32.5275 50.2565 32.7368 50.1937C34.0371 49.8234 35.1115 49.0558 36.1616 48.2606L43.0625 43.375L43.0609 43.3722C43.7857 42.8729 44.5101 42.3647 45.2001 41.822C46.8744 40.5035 46.6023 37.9397 44.7187 37.0816C43.8083 36.663 42.8979 36.7467 42.0084 37.2072C41.4728 37.4818 40.9384 37.7554 40.4047 38.0285C39.3117 38.5879 38.2218 39.1457 37.1319 39.7082C36.7031 39.9278 36.2736 40.1478 35.8343 40.3675C35.1541 39.6768 34.3274 39.457 33.3961 39.478C32.9067 39.4921 32.4151 39.4872 31.9224 39.4822C31.3195 39.4762 30.7149 39.4701 30.1102 39.4989C29.4824 39.5198 28.9696 39.3943 28.5615 38.892C28.4419 38.7468 28.2876 38.6295 28.1325 38.5117C28.0975 38.4851 28.0625 38.4585 28.0278 38.4315C26.5732 37.2804 24.9617 36.5479 23.0676 36.5898C21.8851 36.6212 20.734 36.8932 19.6457 37.3432C18.955 37.6257 18.2539 37.7513 17.5109 37.7199C17.3016 37.7095 17.1865 37.6467 17.0923 37.4583C16.6842 36.6735 16.025 36.2968 15.1564 36.2863C14.1623 36.2758 13.1681 36.2758 12.174 36.2863C10.8973 36.2968 10.0078 37.1862 10.0078 38.4629C9.99738 41.1314 9.99738 43.8103 10.0078 46.4892C10.0078 47.7764 10.8869 48.6449 12.174 48.6554H15.1564C16.0564 48.6554 16.6947 48.2473 17.1133 47.4624C17.1551 47.3682 17.2598 47.2427 17.333 47.2427C17.5365 47.2487 17.7426 47.2469 17.9491 47.245C18.454 47.2405 18.961 47.2359 19.4364 47.3473C20.6004 47.6125 21.7489 47.9296 22.9001 48.2475C23.384 48.3811 23.8685 48.5148 24.3547 48.6449ZM42.2851 41.9965C42.8688 41.5848 43.4525 41.1732 44.0176 40.7337C44.3106 40.5035 44.5827 40.1582 44.6873 39.8128C44.9489 38.9443 44.1536 38.2013 43.2223 38.3897C43.0235 38.4315 42.8246 38.5152 42.6363 38.6094C40.7213 39.5931 38.8063 40.5768 36.8913 41.55C36.682 41.6546 36.5982 41.7488 36.6192 42.0209C36.7971 43.7684 35.5204 45.2125 33.7728 45.2439C32.1508 45.2664 30.5288 45.2621 28.9068 45.2578C28.258 45.2561 27.6092 45.2544 26.9604 45.2544C26.4267 45.2544 26.0709 44.93 26.0709 44.4696C26.0709 43.9882 26.4162 43.6952 26.9918 43.6847H33.6159C34.3902 43.6847 34.9553 43.2452 35.0704 42.5859C35.2169 41.7697 34.5995 41.0372 33.731 41.0267C32.3601 41.0163 30.9893 41.0058 29.6184 41.0267C28.9277 41.0372 28.3522 40.8279 27.8499 40.3465C27.0127 39.5303 26.0814 38.8501 24.9617 38.4524C23.5071 37.9397 22.0735 38.1176 20.6712 38.6303L20.6486 38.6386C19.6203 39.0125 18.6015 39.383 17.4795 39.2791C17.4395 39.2791 17.4056 39.2914 17.3637 39.3066C17.3509 39.3112 17.3373 39.3161 17.3226 39.321V45.6102C17.3386 45.6182 17.3515 45.6262 17.3625 45.633C17.3804 45.6441 17.3933 45.6521 17.4063 45.6521C18.8796 45.5109 20.2637 45.8978 21.6527 46.2861C21.9112 46.3584 22.1698 46.4307 22.4293 46.4997C23.2231 46.7142 24.017 46.9277 24.8106 47.1411C26.6112 47.6253 28.4103 48.1091 30.2044 48.6031C31.4288 48.9379 32.5589 48.7914 33.6159 48.1112C36.5815 46.179 39.3943 44.035 42.2851 41.9965ZM15.7424 38.5571V42.5127V46.3741C15.7424 46.9497 15.5959 47.0857 15.0204 47.0857H12.2473C11.7659 47.0857 11.588 46.9183 11.588 46.4264V38.5257C11.588 38.0234 11.7659 37.8455 12.2787 37.8455H15.0518C15.575 37.8455 15.7424 38.0234 15.7424 38.5571Z" fill="black"/>
<circle cx="31.2314" cy="21.0771" r="14.0771" stroke="black" stroke-width="2"/>
<path d="M28.7914 26.3531L28.1613 27.7143C28.1682 27.7176 28.1752 27.7207 28.1822 27.7239L28.7914 26.3531ZM27.4954 25.2331L26.2018 25.9924C26.2043 25.9966 26.2067 26.0008 26.2092 26.0049L27.4954 25.2331ZM27.0794 23.0571L25.5945 22.845C25.5899 22.8773 25.5864 22.9096 25.5839 22.9421L27.0794 23.0571ZM27.1754 22.6251L28.6091 23.0663C28.7491 22.6113 28.6648 22.1169 28.382 21.734C28.0992 21.3511 27.6515 21.1251 27.1754 21.1251V22.6251ZM26.3914 22.6251H24.8914C24.8914 23.4536 25.563 24.1251 26.3914 24.1251V22.6251ZM26.3914 21.4411V19.9411C25.563 19.9411 24.8914 20.6127 24.8914 21.4411H26.3914ZM27.7834 21.4411V22.9411C28.2333 22.9411 28.6595 22.7392 28.9444 22.391L27.7834 21.4411ZM28.1034 21.1211L29.0533 22.2821C29.0735 22.2656 29.0932 22.2486 29.1125 22.2311L28.1034 21.1211ZM28.4714 20.8171L27.6176 19.5839C27.602 19.5947 27.5866 19.6058 27.5714 19.6171L28.4714 20.8171ZM28.9034 20.5451L29.6477 21.8475C29.6703 21.8346 29.6926 21.821 29.7146 21.8069L28.9034 20.5451ZM29.3674 20.2891L30.0018 21.6484C30.639 21.351 30.9842 20.6508 30.8318 19.9643C30.6795 19.2777 30.0707 18.7891 29.3674 18.7891V20.2891ZM26.3914 20.2891H24.8914C24.8914 21.1176 25.563 21.7891 26.3914 21.7891V20.2891ZM26.3914 19.1051V17.6051C25.563 17.6051 24.8914 18.2767 24.8914 19.1051H26.3914ZM31.7354 19.1051V20.6051C32.1125 20.6051 32.4758 20.4631 32.7529 20.2074L31.7354 19.1051ZM32.0394 18.6731L30.6652 18.0719C30.6588 18.0865 30.6527 18.1013 30.6467 18.1161L32.0394 18.6731ZM31.9754 17.5051L30.7274 18.3372C30.7398 18.3558 30.7526 18.3742 30.7658 18.3922L31.9754 17.5051ZM31.4954 17.1371L32.0525 15.7444L32.0525 15.7444L31.4954 17.1371ZM29.8314 17.0891L29.5583 15.6142L29.5482 15.6161L29.8314 17.0891ZM28.9514 17.3131L28.5068 15.8806L28.5068 15.8806L28.9514 17.3131ZM27.9594 17.6811L26.5579 18.2156C26.7031 18.5963 26.9969 18.9016 27.3717 19.0612C27.7465 19.2208 28.1702 19.2211 28.5453 19.062L27.9594 17.6811ZM27.2394 15.7931L26.6327 14.4213C25.9028 14.7442 25.5535 15.582 25.8379 16.3276L27.2394 15.7931ZM28.9674 15.2171L29.3066 16.6783C29.3128 16.6769 29.319 16.6754 29.3252 16.6739L28.9674 15.2171ZM32.8074 15.3611L32.1806 16.7239C32.1914 16.7289 32.2023 16.7337 32.2133 16.7385L32.8074 15.3611ZM34.0714 16.4171L35.3369 15.6118V15.6118L34.0714 16.4171ZM34.4874 18.6411L35.9743 18.8394L35.9743 18.8394L34.4874 18.6411ZM34.3914 19.1051L32.9492 18.6931C32.8199 19.1456 32.9105 19.6327 33.1939 20.0084C33.4774 20.3842 33.9208 20.6051 34.3914 20.6051V19.1051ZM35.2074 19.1051H36.7074C36.7074 18.2767 36.0359 17.6051 35.2074 17.6051V19.1051ZM35.2074 20.2891V21.7891C36.0359 21.7891 36.7074 21.1176 36.7074 20.2891H35.2074ZM33.7194 20.2891V18.7891C33.299 18.7891 32.8978 18.9656 32.6137 19.2756L33.7194 20.2891ZM33.3194 20.6571L34.234 21.8461C34.2381 21.843 34.2421 21.8398 34.2462 21.8366L33.3194 20.6571ZM32.8714 20.9611L33.6157 22.2635C33.6249 22.2582 33.6341 22.2529 33.6432 22.2474L32.8714 20.9611ZM32.3914 21.2171L33.0258 22.5764C33.038 22.5707 33.0502 22.5648 33.0623 22.5588L32.3914 21.2171ZM31.8954 21.4411L31.2942 20.0669C30.6437 20.3515 30.2818 21.0533 30.4272 21.7483C30.5726 22.4433 31.1854 22.9411 31.8954 22.9411V21.4411ZM35.2074 21.4411H36.7074C36.7074 20.6127 36.0359 19.9411 35.2074 19.9411V21.4411ZM35.2074 22.6251V24.1251C36.0359 24.1251 36.7074 23.4536 36.7074 22.6251H35.2074ZM29.7354 22.6251V21.1251C29.3128 21.1251 28.9098 21.3034 28.6255 21.6161L29.7354 22.6251ZM29.4954 23.0251L28.0828 22.5206C28.0753 22.5416 28.0683 22.5627 28.0618 22.584L29.4954 23.0251ZM29.6074 24.1611L28.3275 24.9433C28.3448 24.9715 28.3629 24.9992 28.382 25.0262L29.6074 24.1611ZM30.1674 24.5931L29.5694 25.9688C29.5929 25.979 29.6167 25.9886 29.6408 25.9976L30.1674 24.5931ZM32.7914 24.5451L33.1287 26.0067C33.1376 26.0047 33.1464 26.0026 33.1552 26.0004L32.7914 24.5451ZM34.4554 24.0011H35.9554C35.9554 23.5025 35.7077 23.0365 35.2943 22.7577C34.881 22.4788 34.3561 22.4236 33.8938 22.6103L34.4554 24.0011ZM34.4554 26.0171L35.1137 27.365C35.6288 27.1135 35.9554 26.5904 35.9554 26.0171H34.4554ZM32.8714 26.5451L32.5572 25.0784L32.8714 26.5451ZM30.9514 25.2371C30.2242 25.2371 29.7277 25.1278 29.4007 24.9824L28.1822 27.7239C29.0071 28.0905 29.9507 28.2371 30.9514 28.2371V25.2371ZM29.4216 24.9919C29.0806 24.8341 28.8949 24.6501 28.7817 24.4614L26.2092 26.0049C26.672 26.7762 27.3502 27.3389 28.1613 27.7143L29.4216 24.9919ZM28.7891 24.4738C28.6589 24.2521 28.5634 23.9429 28.5634 23.4891H25.5634C25.5634 24.3794 25.756 25.2329 26.2018 25.9924L28.7891 24.4738ZM28.5634 23.4891C28.5634 23.3754 28.5675 23.2699 28.575 23.1722L25.5839 22.9421C25.57 23.1217 25.5634 23.3042 25.5634 23.4891H28.5634ZM28.5644 23.2693C28.5751 23.1944 28.5904 23.1272 28.6091 23.0663L25.7418 22.184C25.6752 22.4005 25.6265 22.6212 25.5945 22.845L28.5644 23.2693ZM27.1754 21.1251H26.3914V24.1251H27.1754V21.1251ZM27.8914 22.6251V21.4411H24.8914V22.6251H27.8914ZM26.3914 22.9411H27.7834V19.9411H26.3914V22.9411ZM28.9444 22.391C28.9772 22.3509 29.0132 22.3149 29.0533 22.2821L27.1536 19.9602C26.9591 20.1194 26.7817 20.2968 26.6225 20.4913L28.9444 22.391ZM29.1125 22.2311C29.1946 22.1564 29.2808 22.0851 29.3714 22.0171L27.5714 19.6171C27.4061 19.7412 27.247 19.8726 27.0944 20.0112L29.1125 22.2311ZM29.3253 22.0504C29.4277 21.9795 29.5351 21.9118 29.6477 21.8475L28.1592 19.2428C27.9731 19.3491 27.7925 19.4628 27.6176 19.5839L29.3253 22.0504ZM29.7146 21.8069C29.8075 21.7472 29.9032 21.6944 30.0018 21.6484L28.7331 18.9299C28.5117 19.0332 28.298 19.1511 28.0923 19.2834L29.7146 21.8069ZM29.3674 18.7891H26.3914V21.7891H29.3674V18.7891ZM27.8914 20.2891V19.1051H24.8914V20.2891H27.8914ZM26.3914 20.6051H31.7354V17.6051H26.3914V20.6051ZM32.7529 20.2074C33.0398 19.9425 33.2776 19.6167 33.4322 19.2302L30.6467 18.1161C30.6589 18.0856 30.6738 18.0591 30.6887 18.0379C30.7034 18.0171 30.7149 18.0058 30.718 18.0029L32.7529 20.2074ZM33.4137 19.2744C33.5825 18.8885 33.6514 18.4875 33.6514 18.0971H30.6514C30.6514 18.1163 30.6498 18.1212 30.651 18.1148C30.6524 18.108 30.6562 18.0925 30.6652 18.0719L33.4137 19.2744ZM33.6514 18.0971C33.6514 17.6035 33.5237 17.0799 33.1851 16.6181L30.7658 18.3922C30.7188 18.328 30.6875 18.2608 30.6696 18.2006C30.6524 18.1427 30.6514 18.1047 30.6514 18.0971H33.6514ZM33.2235 16.6731C32.9179 16.2147 32.4916 15.9201 32.0525 15.7444L30.9384 18.5299C30.9352 18.5286 30.9054 18.5163 30.8628 18.4836C30.8185 18.4496 30.7698 18.4008 30.7274 18.3372L33.2235 16.6731ZM32.0525 15.7444C31.6072 15.5663 31.1366 15.5091 30.6954 15.5091V18.5091C30.7901 18.5091 30.8563 18.5156 30.8985 18.5223C30.9407 18.5291 30.9509 18.5349 30.9384 18.5299L32.0525 15.7444ZM30.6954 15.5091C30.3143 15.5091 29.9349 15.5445 29.5583 15.6142L30.1046 18.5641C30.304 18.5271 30.5006 18.5091 30.6954 18.5091V15.5091ZM29.5482 15.6161C29.2091 15.6813 28.8617 15.7704 28.5068 15.8806L29.396 18.7457C29.6599 18.6639 29.8991 18.6036 30.1147 18.5622L29.5482 15.6161ZM28.5068 15.8806C28.142 15.9938 27.7638 16.1347 27.3736 16.3003L28.5453 19.062C28.8591 18.9289 29.1422 18.8245 29.396 18.7457L28.5068 15.8806ZM29.361 17.1467L28.641 15.2587L25.8379 16.3276L26.5579 18.2156L29.361 17.1467ZM27.8462 17.165C28.3137 16.9582 28.8001 16.7959 29.3066 16.6783L28.6283 13.756C27.9401 13.9157 27.2745 14.1375 26.6327 14.4213L27.8462 17.165ZM29.3252 16.6739C29.8079 16.5553 30.3272 16.4931 30.8874 16.4931V13.4931C30.1037 13.4931 29.343 13.5803 28.6097 13.7604L29.3252 16.6739ZM30.8874 16.4931C31.4745 16.4931 31.8897 16.5901 32.1806 16.7239L33.4343 13.9984C32.6586 13.6416 31.7937 13.4931 30.8874 13.4931V16.4931ZM32.2133 16.7385C32.5001 16.8622 32.6794 17.0236 32.806 17.2225L35.3369 15.6118C34.8662 14.872 34.2027 14.3294 33.4016 13.9838L32.2133 16.7385ZM32.806 17.2225C32.92 17.4016 33.0194 17.6828 33.0194 18.1451H36.0194C36.0194 17.2422 35.8203 16.3714 35.3369 15.6118L32.806 17.2225ZM33.0194 18.1451C33.0194 18.2533 33.0127 18.3522 33.0006 18.4429L35.9743 18.8394C36.0049 18.6101 36.0194 18.3784 36.0194 18.1451H33.0194ZM33.0006 18.4429C32.9885 18.5335 32.971 18.6165 32.9492 18.6931L35.8337 19.5172C35.8972 19.2951 35.9437 19.0688 35.9743 18.8394L33.0006 18.4429ZM34.3914 20.6051H35.2074V17.6051H34.3914V20.6051ZM33.7074 19.1051V20.2891H36.7074V19.1051H33.7074ZM35.2074 18.7891H33.7194V21.7891H35.2074V18.7891ZM32.6137 19.2756C32.5563 19.3382 32.4839 19.406 32.3927 19.4777L34.2462 21.8366C34.4537 21.6736 34.6479 21.4961 34.8252 21.3027L32.6137 19.2756ZM32.4049 19.4682C32.3148 19.5375 32.2135 19.6066 32.0997 19.6749L33.6432 22.2474C33.8494 22.1237 34.0467 21.9901 34.234 21.8461L32.4049 19.4682ZM32.1272 19.6588C32.0044 19.729 31.8691 19.8013 31.7206 19.8755L33.0623 22.5588C33.2551 22.4624 33.4398 22.364 33.6157 22.2635L32.1272 19.6588ZM31.7571 19.8579C31.6087 19.9271 31.4544 19.9968 31.2942 20.0669L32.4967 22.8154C32.6778 22.7361 32.8542 22.6565 33.0258 22.5764L31.7571 19.8579ZM31.8954 22.9411H35.2074V19.9411H31.8954V22.9411ZM33.7074 21.4411V22.6251H36.7074V21.4411H33.7074ZM35.2074 21.1251H29.7354V24.1251H35.2074V21.1251ZM28.6255 21.6161C28.3857 21.88 28.2028 22.1848 28.0828 22.5206L30.9081 23.5297C30.9022 23.5462 30.8935 23.5652 30.8817 23.5849C30.8699 23.6046 30.8571 23.6212 30.8454 23.6342L28.6255 21.6161ZM28.0618 22.584C27.9682 22.8882 27.9314 23.1946 27.9314 23.4891H30.9314C30.9314 23.4424 30.9374 23.4394 30.9291 23.4663L28.0618 22.584ZM27.9314 23.4891C27.9314 23.9823 28.0473 24.4847 28.3275 24.9433L30.8874 23.379C30.9073 23.4116 30.9198 23.4436 30.9265 23.4691C30.9329 23.4935 30.9314 23.5022 30.9314 23.4891H27.9314ZM28.382 25.0262C28.6982 25.4741 29.124 25.7751 29.5694 25.9688L30.7655 23.2175C30.7413 23.207 30.743 23.2046 30.7597 23.2175C30.7776 23.2313 30.8053 23.257 30.8329 23.2961L28.382 25.0262ZM29.6408 25.9976C30.1102 26.1737 30.6082 26.2371 31.0954 26.2371V23.2371C30.8573 23.2371 30.7367 23.2046 30.6941 23.1887L29.6408 25.9976ZM31.0954 26.2371C31.7836 26.2371 32.4621 26.1606 33.1287 26.0067L32.4542 23.0836C32.0114 23.1857 31.5593 23.2371 31.0954 23.2371V26.2371ZM33.1552 26.0004C33.7803 25.8441 34.401 25.6408 35.0171 25.392L33.8938 22.6103C33.4005 22.8095 32.9119 22.9689 32.4276 23.0899L33.1552 26.0004ZM32.9554 24.0011V26.0171H35.9554V24.0011H32.9554ZM33.7972 24.6693C33.4669 24.8306 33.058 24.9711 32.5572 25.0784L33.1857 28.0119C33.8796 27.8632 34.5267 27.6517 35.1137 27.365L33.7972 24.6693ZM32.5572 25.0784C32.0744 25.1819 31.5406 25.2371 30.9514 25.2371V28.2371C31.7276 28.2371 32.4739 28.1644 33.1857 28.0119L32.5572 25.0784Z" fill="black"/>
</svg>
