<svg width="60" height="60" viewBox="0 0 60 60" fill="none" xmlns="http://www.w3.org/2000/svg">
<mask id="path-1-inside-1_794_16913" fill="white">
<path fill-rule="evenodd" clip-rule="evenodd" d="M0 0H60L60 29.0667H52.2V30.9333H60L60 60H0V30.9332H7.8V29.0665H0V0Z"/>
</mask>
<path d="M60 0L61 1.3124e-07L61 -1H60V0ZM0 0V-1H-1V0H0ZM60 29.0667V30.0667H61L61 29.0667L60 29.0667ZM52.2 29.0667V28.0667H51.2V29.0667H52.2ZM52.2 30.9333H51.2V31.9333H52.2V30.9333ZM60 30.9333L61 30.9333L61 29.9333H60V30.9333ZM60 60V61H61L61 60L60 60ZM0 60H-1V61H0V60ZM0 30.9332V29.9332H-1V30.9332H0ZM7.8 30.9332V31.9332H8.8V30.9332H7.8ZM7.8 29.0665H8.8V28.0665H7.8V29.0665ZM0 29.0665H-1V30.0665H0V29.0665ZM60 -1H0V1H60V-1ZM61 29.0667L61 1.3124e-07L59 -1.3124e-07L59 29.0667L61 29.0667ZM52.2 30.0667H60V28.0667H52.2V30.0667ZM53.2 30.9333V29.0667H51.2V30.9333H53.2ZM60 29.9333H52.2V31.9333H60V29.9333ZM61 60L61 30.9333L59 30.9333L59 60L61 60ZM0 61H60V59H0V61ZM-1 30.9332V60H1V30.9332H-1ZM7.8 29.9332H0V31.9332H7.8V29.9332ZM6.8 29.0665V30.9332H8.8V29.0665H6.8ZM0 30.0665H7.8V28.0665H0V30.0665ZM-1 0V29.0665H1V0H-1Z" fill="#F2994A" mask="url(#path-1-inside-1_794_16913)"/>
<path d="M18.5 29.5189L21.5545 33.9758C21.6845 34.1655 21.876 34.3046 22.0966 34.3697L27.2793 35.8974L23.9844 40.1797C23.8442 40.362 23.771 40.5871 23.7774 40.817L23.9259 46.2181L18.835 44.4078C18.6183 44.3307 18.3817 44.3307 18.165 44.4078L13.0741 46.2181L13.2226 40.817C13.229 40.5871 13.1558 40.362 13.0156 40.1797L9.72071 35.8974L14.9034 34.3697C15.124 34.3046 15.3155 34.1655 15.4455 33.9758L18.5 29.5189Z" stroke="black" stroke-width="2" stroke-linejoin="round"/>
<path d="M30 13.5189L33.0545 17.9758C33.1845 18.1655 33.376 18.3046 33.5966 18.3697L38.7793 19.8974L35.4844 24.1797C35.3442 24.362 35.271 24.5871 35.2774 24.817L35.4259 30.2181L30.335 28.4078C30.1183 28.3307 29.8817 28.3307 29.665 28.4078L24.5741 30.2181L24.7226 24.817C24.729 24.5871 24.6558 24.362 24.5156 24.1797L21.2207 19.8974L26.4034 18.3697C26.624 18.3046 26.8155 18.1655 26.9455 17.9758L30 13.5189Z" stroke="black" stroke-width="2" stroke-linejoin="round"/>
<path d="M41.5 29.5189L44.5545 33.9758C44.6845 34.1655 44.876 34.3046 45.0966 34.3697L50.2793 35.8974L46.9844 40.1797C46.8442 40.362 46.771 40.5871 46.7774 40.817L46.9259 46.2181L41.835 44.4078C41.6183 44.3307 41.3817 44.3307 41.165 44.4078L36.0741 46.2181L36.2226 40.817C36.229 40.5871 36.1558 40.362 36.0156 40.1797L32.7207 35.8974L37.9034 34.3697C38.124 34.3046 38.3155 34.1655 38.4455 33.9758L41.5 29.5189Z" stroke="black" stroke-width="2" stroke-linejoin="round"/>
</svg>
