<svg width="60" height="60" viewBox="0 0 60 60" fill="none" xmlns="http://www.w3.org/2000/svg">
<mask id="path-1-inside-1_789_16497" fill="white">
<path fill-rule="evenodd" clip-rule="evenodd" d="M0 0H60L60 29.0667H52.2V30.9333H60L60 60H0V30.9332H7.8V29.0665H0V0Z"/>
</mask>
<path d="M60 0L61 1.3124e-07V-1H60V0ZM0 0V-1H-1V0H0ZM60 29.0667V30.0667H61V29.0667H60ZM52.2 29.0667V28.0667H51.2V29.0667H52.2ZM52.2 30.9333H51.2V31.9333H52.2V30.9333ZM60 30.9333H61V29.9333H60V30.9333ZM60 60V61H61V60H60ZM0 60H-1V61H0V60ZM0 30.9332V29.9332H-1V30.9332H0ZM7.8 30.9332V31.9332H8.8V30.9332H7.8ZM7.8 29.0665H8.8V28.0665H7.8V29.0665ZM0 29.0665H-1V30.0665H0V29.0665ZM60 -1H0V1H60V-1ZM61 29.0667L61 1.3124e-07L59 -1.3124e-07L59 29.0667H61ZM52.2 30.0667H60V28.0667H52.2V30.0667ZM53.2 30.9333V29.0667H51.2V30.9333H53.2ZM60 29.9333H52.2V31.9333H60V29.9333ZM61 60L61 30.9333H59L59 60H61ZM0 61H60V59H0V61ZM-1 30.9332V60H1V30.9332H-1ZM7.8 29.9332H0V31.9332H7.8V29.9332ZM6.8 29.0665V30.9332H8.8V29.0665H6.8ZM0 30.0665H7.8V28.0665H0V30.0665ZM-1 0V29.0665H1V0H-1Z" fill="#F2994A" mask="url(#path-1-inside-1_789_16497)"/>
<path d="M19.2062 50.5283C19.9888 50.3296 20.7465 50.0688 21.3924 49.5347C23.1686 48.0565 23.504 45.4481 22.1252 43.6098C21.9389 43.3614 21.9637 43.2123 22.1252 42.9763C23.7151 40.6412 25.2926 38.3184 26.8701 35.9708C27.0191 35.7472 27.1433 35.6727 27.4166 35.7721C28.7953 36.2441 30.1741 36.1944 31.5404 35.6727C31.764 35.5858 31.8882 35.5982 32.0372 35.8093C33.3539 37.6849 34.6705 39.5605 36.012 41.4237C36.1859 41.6597 36.0989 41.7963 35.9747 41.9826C34.1613 44.6904 35.2046 48.3174 38.223 49.5595C40.1606 50.3669 42.0114 50.0688 43.5889 48.6652C45.1788 47.2492 45.7129 45.4233 45.0918 43.3738C44.4832 41.3616 43.0796 40.1691 41.0053 39.7965C39.8253 39.5854 39.0924 39.7468 37.7137 40.3555C36.3349 38.4053 34.9562 36.4552 33.565 34.4927C33.8507 34.1325 34.1488 33.8095 34.3973 33.4493C35.6766 31.611 35.8754 29.6485 35.1053 27.5617C35.0183 27.3381 35.068 27.2264 35.2419 27.0897C37.4032 25.4129 39.5769 23.736 41.7381 22.0468C41.9244 21.8977 42.0611 21.8977 42.2722 22.0219C43.5143 22.7175 44.7937 22.7672 46.0483 22.0716C47.4022 21.3263 48.048 20.1339 48.0605 18.6185C48.0729 16.7678 46.5699 15.1282 44.7068 14.8922C42.8188 14.6562 41.0177 15.8486 40.5209 17.6373C40.2973 18.4446 40.3097 19.2396 40.6078 20.0221C40.6823 20.2084 40.7196 20.3451 40.5084 20.5065C38.3223 22.1834 36.1486 23.8727 33.9749 25.5619C33.9501 25.5744 33.9253 25.5868 33.888 25.5992C31.6522 23.5 29.1307 23.1026 26.3235 24.4192C26.249 24.3198 26.1621 24.208 26.0875 24.0962C24.5101 21.8729 22.945 19.6495 21.3551 17.4261C21.1812 17.1777 21.1688 17.0162 21.3675 16.7678C22.6345 15.1903 22.7338 12.9669 21.6532 11.2404C20.585 9.53871 18.4982 8.66923 16.573 9.11639C14.5483 9.57597 13.0578 11.228 12.8342 13.2402C12.4367 16.8423 15.8526 19.5501 19.2684 18.3204C19.3429 18.2956 19.4174 18.2707 19.5292 18.2335C21.2682 20.6929 23.0195 23.1522 24.7833 25.6489C24.6467 25.8352 24.4976 26.0091 24.3734 26.183C23.7027 27.127 23.2928 28.1704 23.2183 29.3255C23.2058 29.5864 23.0941 29.6733 22.8705 29.7106C21.7898 29.9217 20.6968 30.1329 19.6161 30.3565C19.3677 30.4062 19.2311 30.3441 19.0945 30.1205C18.2622 28.7417 16.6227 28.0213 15.1073 28.3567C13.4553 28.7045 12.2877 29.9342 12.0393 31.5613C11.7536 33.5363 13.0578 35.4864 14.9334 35.859C17.0326 36.2813 19.0324 35.151 19.4919 33.1264C19.6534 32.4308 19.9764 32.2693 20.5477 32.1824C21.4048 32.0457 22.237 31.847 23.0941 31.698C23.2183 31.6731 23.4791 31.7476 23.504 31.8346C23.889 32.9152 24.5349 33.8095 25.4044 34.5921C25.3299 34.7039 25.2677 34.8032 25.1932 34.9026C23.653 37.1757 22.1004 39.4611 20.5726 41.7466C20.3987 42.0075 20.2496 42.082 19.9267 41.9826C17.6288 41.2374 15.0079 42.7031 14.4738 45.001C13.8776 47.5721 15.4427 49.9942 17.9641 50.3917C18.0387 50.4041 18.1132 50.4414 18.1877 50.4662C18.5107 50.5283 18.8585 50.5283 19.2062 50.5283ZM29.3419 34.1076C27.0315 34.1076 25.1311 32.2321 25.1187 29.9342C25.1063 27.6238 27.0067 25.6986 29.317 25.6861C31.5901 25.6737 33.5278 27.599 33.5402 29.8721C33.5526 32.1948 31.6646 34.0952 29.3419 34.1076ZM43.2783 44.8643C43.2783 46.5784 41.8748 47.982 40.1606 47.982C38.459 47.982 37.043 46.5536 37.043 44.8519C37.043 43.1502 38.459 41.7342 40.1731 41.7466C41.8996 41.759 43.2783 43.1502 43.2783 44.8643ZM17.5915 16.6933C16.0513 16.6933 14.7719 15.4387 14.7719 13.8985C14.7595 12.3707 16.0389 11.0913 17.5791 11.0913C19.1193 11.0913 20.3863 12.3459 20.3987 13.8861C20.4111 15.4139 19.1317 16.6808 17.5915 16.6933ZM16.2873 46.1934C16.2873 44.8892 17.3555 43.821 18.6473 43.821C19.9391 43.821 21.0073 44.9016 20.9949 46.2058C20.9825 47.4852 19.9391 48.541 18.6473 48.5534C17.3555 48.5782 16.2749 47.4976 16.2873 46.1934ZM44.1727 16.9044C45.2036 16.9044 46.0234 17.7242 46.0358 18.7427C46.0483 19.7737 45.1912 20.6308 44.1727 20.6183C43.1666 20.6059 42.3219 19.7613 42.3219 18.7552C42.3095 17.7366 43.1417 16.9168 44.1727 16.9044ZM13.9273 32.1948C13.9273 31.1638 14.7347 30.3441 15.7656 30.3441C16.809 30.3316 17.6536 31.1887 17.6412 32.2072C17.6288 33.2257 16.7717 34.058 15.778 34.058C14.7595 34.058 13.9273 33.2258 13.9273 32.1948Z" fill="black"/>
</svg>
