<?xml version="1.0" encoding="utf-8"?>
<!-- Generator: Adobe Illustrator 22.0.1, SVG Export Plug-In . SVG Version: 6.00 Build 0)  -->
<svg version="1.1" id="Layer_1" xmlns="http://www.w3.org/2000/svg" xmlns:xlink="http://www.w3.org/1999/xlink" x="0px" y="0px"
	 viewBox="0 0 62 62" style="enable-background:new 0 0 62 62;" xml:space="preserve">
<style type="text/css">
	.st0{fill:#F2994A;}
	.st1{fill:#FFFFFF;stroke:#000000;stroke-width:0.5;stroke-miterlimit:10;}
	.st2{stroke:#FFFFFF;stroke-width:0.25;stroke-miterlimit:10;}
</style>
<path class="st0" d="M61,1h1V0h-1V1z M1,1V0H0v1H1z M61,30.1v1h1v-1H61z M53.2,30.1v-1h-1v1H53.2z M53.2,31.9h-1v1h1V31.9z M61,31.9
	h1v-1h-1V31.9z M61,61v1h1v-1H61z M1,61H0v1h1V61z M1,31.9v-1H0v1H1z M8.8,31.9v1h1v-1H8.8z M8.8,30.1h1v-1h-1V30.1z M1,30.1H0v1h1
	V30.1z M61,0H1v2h60V0z M62,30.1V1h-2v29.1H62z M53.2,31.1H61v-2h-7.8V31.1z M54.2,31.9V30h-2v1.9H54.2z M61,30.9h-7.8v2H61V30.9z
	 M62,61V31.9h-2V61H62z M1,62h60v-2H1C1,60,1,62,1,62z M0,31.9V61h2V31.9H0z M8.8,30.9H1v2h7.8V30.9z M7.8,30.1V32h2v-1.9H7.8z
	 M1,31.1h7.8v-2H1C1,29.1,1,31.1,1,31.1z M0,1v29.1h2V1H0z"/>
<g>
	<path class="st1" d="M35.8,23.7c-0.1-0.2-0.3-0.3-0.5-0.3h-1.4c-0.3,0-0.5,0.3-0.5,0.5h-2.2c0-0.1-0.1-0.2-0.1-0.3
		c-0.1-0.1-0.2-0.2-0.4-0.2h-1.4c-0.2,0-0.4,0.1-0.5,0.3l-1,2.7c0,0.1,0,0.1,0,0.2v5.3c0,0.3,0.2,0.5,0.5,0.5h8
		c0.3,0,0.5-0.2,0.5-0.5v-5.3v-0.1v-0.1L35.8,23.7z"/>
	<path class="st2" d="M46.9,33.4H26.7v-9.6c0-0.6-0.5-1.1-1.1-1.1h-7.9c-0.4,0-0.8,0.3-1,0.6l-2.8,6.5c-0.1,0.1-0.1,0.3-0.1,0.4v9.2
		c0,0.6,0.4,1.1,1,1.1l0,0h0.3c0.3,0,0.5-0.2,0.5-0.5s-0.2-0.5-0.5-0.5h-0.3v-4h10.6v4.3h-1.1c-0.3,0-0.5,0.2-0.5,0.5
		s0.2,0.5,0.5,0.5h11.2c0.3,0,0.5-0.2,0.5-0.5s-0.2-0.5-0.5-0.5h-9v-1.1c0-0.4,0-0.7,0-1.1v-1.1c0-0.4,0-0.7,0-1.1v-1.1h20.2v5.3
		h-1.6c-0.3,0-0.5,0.2-0.5,0.5s0.2,0.5,0.5,0.5h1.6c0.6,0,1.1-0.5,1.1-1.1v-5.3C47.6,34.2,47.3,33.8,46.9,33.4z M25.7,34.5H15.1
		v-1.1h10.6C25.7,33.4,25.7,34.5,25.7,34.5z M15.1,32.4v-2l2.8-6.5h7.9v8.5H15.1z"/>
	<path class="st2" d="M24.1,24.9H19c-0.2,0-0.4,0.1-0.5,0.3l-2.3,5.3c-0.1,0.3,0,0.6,0.3,0.7c0.1,0,0.1,0,0.2,0h7.4
		c0.3,0,0.5-0.2,0.5-0.5v-5.3C24.6,25.2,24.4,24.9,24.1,24.9z M23.6,30.3h-6.1l1.9-4.3h4.3v4.3H23.6z"/>
	<path class="st2" d="M19.8,37c-1.8,0-3.2,1.4-3.2,3.2s1.4,3.2,3.2,3.2S23,42,23,40.2S21.6,37,19.8,37z M19.8,42.3
		c-1.2,0-2.1-1-2.1-2.1s1-2.1,2.1-2.1c1.2,0,2.1,1,2.1,2.1S21,42.3,19.8,42.3z"/>
	<path class="st2" d="M40.6,37.3c-1.8,0-3.2,1.4-3.2,3.2s1.4,3.2,3.2,3.2s3.2-1.4,3.2-3.2S42.3,37.3,40.6,37.3z M40.6,42.6
		c-1.2,0-2.1-1-2.1-2.1s1-2.1,2.1-2.1c1.2,0,2.1,1,2.1,2.1S41.7,42.6,40.6,42.6z"/>
	<path class="st1" d="M45.8,23.7c-0.1-0.2-0.3-0.3-0.5-0.3h-1.4c-0.3,0-0.5,0.3-0.5,0.5h-2.2c0-0.1-0.1-0.2-0.1-0.3
		c-0.1-0.1-0.2-0.2-0.4-0.2h-1.4c-0.2,0-0.4,0.1-0.5,0.3l-1,2.7c0,0.1,0,0.1,0,0.2v5.3c0,0.3,0.2,0.5,0.5,0.5h8
		c0.3,0,0.5-0.2,0.5-0.5v-5.3v-0.1v-0.1L45.8,23.7z"/>
</g>
</svg>
