<?xml version="1.0" encoding="utf-8"?>
<!-- Generator: Adobe Illustrator 22.0.1, SVG Export Plug-In . SVG Version: 6.00 Build 0)  -->
<svg version="1.1" id="Layer_1" xmlns="http://www.w3.org/2000/svg" xmlns:xlink="http://www.w3.org/1999/xlink" x="0px" y="0px"
	 viewBox="0 0 62 62" style="enable-background:new 0 0 62 62;" xml:space="preserve">
<style type="text/css">
	.st0{fill:#F2994A;}
</style>
<path class="st0" d="M61,1h1V0h-1V1z M1,1V0H0v1H1z M61,30.1v1h1v-1H61z M53.2,30.1v-1h-1v1H53.2z M53.2,31.9h-1v1h1V31.9z M61,31.9
	h1v-1h-1V31.9z M61,61v1h1v-1H61z M1,61H0v1h1V61z M1,31.9v-1H0v1H1z M8.8,31.9v1h1v-1H8.8z M8.8,30.1h1v-1h-1V30.1z M1,30.1H0v1h1
	V30.1z M61,0H1v2h60V0z M62,30.1V1h-2v29.1H62z M53.2,31.1H61v-2h-7.8V31.1z M54.2,31.9V30h-2v1.9H54.2z M61,30.9h-7.8v2H61V30.9z
	 M62,61V31.9h-2V61H62z M1,62h60v-2H1C1,60,1,62,1,62z M0,31.9V61h2V31.9H0z M8.8,30.9H1v2h7.8V30.9z M7.8,30.1V32h2v-1.9H7.8z
	 M1,31.1h7.8v-2H1C1,29.1,1,31.1,1,31.1z M0,1v29.1h2V1H0z"/>
<g transform="translate(0,-952.36218)">
	<path d="M41.9,966.4c2.8,0,5.1,2.2,5.1,5.1c0,0.7-0.2,1.6-0.4,2.3c-1.4,3-2.8,5.9-4.1,8.9c-0.1,0.2-0.3,0.4-0.6,0.4h-8.6
		c-1.6,0-2.9,1.3-2.9,2.9s1.3,2.9,2.9,2.9h3.8c2.6,0,4.8,2.2,4.8,4.8s-2.2,4.8-4.8,4.8H20.8c-0.2,0-0.5-0.2-0.6-0.4
		c-1.6-3.3-3.2-6.6-4.7-10c-0.3-0.7-0.4-1.7-0.4-2.5c0-3.2,2.6-5.8,5.8-5.8s5.8,2.5,5.8,5.8c0,0.8-0.2,1.8-0.4,2.5
		c-1.4,3-2.9,6-4.3,9h15.3c2,0,3.5-1.6,3.5-3.5s-1.6-3.5-3.5-3.5h-3.8c-2.3,0-4.2-1.9-4.2-4.2s1.9-4.2,4.2-4.2h7.6
		c-1.2-2.7-2.5-5.3-3.7-8c-0.2-0.6-0.4-1.6-0.4-2.3C36.8,968.6,39.1,966.4,41.9,966.4z M41.9,967.6c-2.1,0-3.8,1.6-3.8,3.8
		c0,0.5,0.2,1.4,0.3,1.8c1.2,2.5,2.3,5,3.5,7.5c1.1-2.5,2.3-5,3.5-7.5c0.1-0.4,0.3-1.4,0.3-1.8C45.7,969.2,44,967.6,41.9,967.6z
		 M41.9,969.2c1.2,0,2.2,1,2.2,2.2s-1,2.2-2.2,2.2s-2.2-1-2.2-2.2C39.6,970.3,40.7,969.2,41.9,969.2z M41.9,970.5c-0.5,0-1,0.4-1,1
		c0,0.5,0.4,1,1,1s1-0.4,1-1C42.8,970.9,42.4,970.5,41.9,970.5z M20.8,981.1c-2.5,0-4.5,1.9-4.5,4.5c0,0.5,0.2,1.5,0.4,2
		c1.4,2.9,2.7,5.8,4.1,8.6c1.3-2.9,2.8-5.8,4.1-8.6c0.2-0.5,0.4-1.5,0.4-2C25.2,983,23.3,981.1,20.8,981.1L20.8,981.1z M20.8,982.7
		c1.6,0,2.9,1.3,2.9,2.9s-1.3,2.9-2.9,2.9s-2.9-1.3-2.9-2.9S19.2,982.7,20.8,982.7z M20.8,984c-0.9,0-1.6,0.7-1.6,1.6
		s0.7,1.6,1.6,1.6s1.6-0.7,1.6-1.6S21.7,984,20.8,984z"/>
</g>
</svg>
