<?xml version="1.0" encoding="utf-8"?>
<!-- Generator: Adobe Illustrator 22.0.1, SVG Export Plug-In . SVG Version: 6.00 Build 0)  -->
<svg version="1.1" id="Layer_1" xmlns="http://www.w3.org/2000/svg" xmlns:xlink="http://www.w3.org/1999/xlink" x="0px" y="0px"
	 viewBox="0 0 62 62" style="enable-background:new 0 0 62 62;" xml:space="preserve">
<style type="text/css">
	.st0{fill:#F2994A;}
</style>
<path class="st0" d="M61,1h1V0h-1V1z M1,1V0H0v1H1z M61,30.1v1h1v-1H61z M53.2,30.1v-1h-1v1H53.2z M53.2,31.9h-1v1h1V31.9z M61,31.9
	h1v-1h-1V31.9z M61,61v1h1v-1H61z M1,61H0v1h1V61z M1,31.9v-1H0v1H1z M8.8,31.9v1h1v-1H8.8z M8.8,30.1h1v-1h-1V30.1z M1,30.1H0v1h1
	V30.1z M61,0H1v2h60V0z M62,30.1V1h-2v29.1H62z M53.2,31.1H61v-2h-7.8V31.1z M54.2,31.9V30h-2v1.9H54.2z M61,30.9h-7.8v2H61V30.9z
	 M62,61V31.9h-2V61H62z M1,62h60v-2H1C1,60,1,62,1,62z M0,31.9V61h2V31.9H0z M8.8,30.9H1v2h7.8V30.9z M7.8,30.1V32h2v-1.9H7.8z
	 M1,31.1h7.8v-2H1C1,29.1,1,31.1,1,31.1z M0,1v29.1h2V1H0z"/>
<g>
	<path d="M29.1,27.8c0.1,0,0.1,0,0.2,0c0.2-0.1,0.3-0.3,0.2-0.5L25,19l0,0c0,0,0,0,0-0.1c0,0,0,0-0.1,0l0,0l0,0c0,0,0,0-0.1,0
		c0,0,0,0-0.1,0c0,0,0,0-0.1,0c0,0,0,0-0.1,0l0,0l0,0l0,0c0,0,0,0,0,0.1l0,0L20,27.3c-0.1,0.2,0,0.4,0.2,0.5c0.1,0,0.2,0,0.2,0
		c0.1,0,0.3-0.1,0.3-0.2l1.7-3.2h4.9l1.7,3.2C28.8,27.8,29,27.8,29.1,27.8z M22.5,23.7l2-3.7l2,3.7H22.5z M46.1,29h-11V16.9
		c0-1.1-0.8-1.9-1.9-1.9H15.8c-1.1,0-1.9,0.8-1.9,1.9v12.8c0,1.1,0.8,1.9,1.9,1.9h2.3v3c0,0.2,0.1,0.3,0.2,0.3c0,0,0.1,0,0.2,0
		s0.2,0,0.3-0.1l3.4-3.3h4.6v12.1c0,1.1,0.8,1.9,1.9,1.9h11.1l3.4,3.3c0.1,0.1,0.2,0.1,0.3,0.1c0,0,0.1,0,0.2,0
		c0.2-0.1,0.2-0.2,0.2-0.3v-3h2.3c1.1,0,1.9-0.8,1.9-1.9V30.9C48,29.8,47.2,29,46.1,29z M26.8,30.9H22c-0.1,0-0.2,0-0.3,0.1
		l-2.9,2.8v-2.5c0-0.2-0.2-0.4-0.4-0.4h-2.6c-0.6,0-1.1-0.5-1.1-1.1V17c0-0.6,0.5-1.1,1.1-1.1h17.4c0.6,0,1.1,0.5,1.1,1.1v12h-5.7
		C27.7,29,26.8,29.8,26.8,30.9z M47.2,43.7c0,0.6-0.5,1.1-1.1,1.1h-2.6c-0.2,0-0.4,0.2-0.4,0.4v2.5l-2.9-2.8c-0.1,0-0.2-0.1-0.3-0.1
		H28.7c-0.6,0-1.1-0.5-1.1-1.1V30.9c0-0.6,0.5-1.1,1.1-1.1h17.4c0.6,0,1.1,0.5,1.1,1.1V43.7z M42,34.6h-4.2v-1.5
		c0-0.2-0.2-0.4-0.4-0.4S37,32.9,37,33.1v1.5h-4.2c-0.2,0-0.4,0.2-0.4,0.4s0.2,0.4,0.4,0.4h2.5c0.1,0.6,0.5,2,1.5,3.4
		c-0.8,0.9-2,1.8-3.8,2.3c-0.2,0-0.3,0.3-0.3,0.5s0.2,0.3,0.4,0.3h0.1c1.9-0.5,3.1-1.4,4-2.4c0.9,1,2.2,1.9,4,2.4h0.1
		c0.2,0,0.3-0.1,0.4-0.3c0-0.2-0.1-0.4-0.3-0.5c-1.8-0.5-2.9-1.4-3.8-2.3c1-1.4,1.4-2.8,1.5-3.4h2.5c0.2,0,0.4-0.2,0.4-0.4
		C42.3,34.8,42.1,34.6,42,34.6z M37.4,38.2c-0.8-1.1-1.1-2.2-1.2-2.8h2.5C38.6,36,38.2,37.1,37.4,38.2z"/>
</g>
</svg>
