<?xml version="1.0" encoding="utf-8"?>
<!-- Generator: Adobe Illustrator 22.0.1, SVG Export Plug-In . SVG Version: 6.00 Build 0)  -->
<svg version="1.1" id="Layer_1" xmlns="http://www.w3.org/2000/svg" xmlns:xlink="http://www.w3.org/1999/xlink" x="0px" y="0px"
	 viewBox="0 0 62 62" style="enable-background:new 0 0 62 62;" xml:space="preserve">
<style type="text/css">
	.st0{fill:#FFFFFF;stroke:#000000;stroke-width:1.3;stroke-miterlimit:10;}
	.st1{fill:#FFFFFF;stroke:#000000;stroke-width:1.3;stroke-linecap:round;stroke-linejoin:round;stroke-miterlimit:10;}
	.st2{fill:none;stroke:#000000;stroke-width:1.3;stroke-linecap:round;stroke-linejoin:round;stroke-miterlimit:10;}
	.st3{fill:#F2994A;}
</style>
<g>
	<g>
		<g>
			<g>
				<g>
					<path class="st0" d="M27.7,24.3c-0.5,0.2-1.1,0.5-1.5,0.6c-0.8,0.3-1.4,0.7-1.4,1.6V28c0,0.2,0.2,0.3,0.3,0.3h10.6
						c0.2,0,0.3-0.2,0.3-0.3c0,0-0.5-2.8-1.3-3.1c-0.4-0.2-1-0.4-1.5-0.6"/>
					<path class="st0" d="M30.5,22.9c0.6,0,1.4-0.4,2-1.1c0.7-0.8,1-1.7,1-2.5c0-0.9-0.3-1.7-0.9-2.3c-0.5-0.6-1.3-0.9-2.2-0.9
						c-1.7,0-3,1.4-3,3.2c0,0.9,0.4,1.8,1,2.5C29.1,22.5,29.9,22.9,30.5,22.9z"/>
				</g>
			</g>
		</g>
		<g>
			<g>
				<g>
					<path class="st1" d="M16.7,34.3c-0.5,0.2-1.1,0.5-1.5,0.6c-0.8,0.3-1.4,0.7-1.4,1.6V38c0,0.2,0.2,0.3,0.3,0.3h10.6
						c0.2,0,0.3-0.2,0.3-0.3v-1.5c0-0.9-0.5-1.3-1.3-1.6c-0.4-0.2-1-0.4-1.5-0.6"/>
					<path class="st1" d="M19.5,32.9c0.6,0,1.4-0.4,2-1.1c0.7-0.8,1-1.7,1-2.5c0-0.9-0.3-1.7-0.9-2.3c-0.5-0.6-1.3-0.9-2.2-0.9
						c-1.7,0-3,1.4-3,3.2c0,0.9,0.4,1.8,1,2.5C18.1,32.5,18.9,32.9,19.5,32.9z"/>
				</g>
			</g>
		</g>
		<g>
			<path class="st2" d="M39.7,34.3c-0.5,0.2-1.1,0.5-1.5,0.6c-0.8,0.3-1.4,0.7-1.4,1.6V38c0,0.2,0.2,0.3,0.3,0.3h10.6
				c0.2,0,0.3-0.2,0.3-0.3v-1.5c0-0.9-0.5-1.3-1.3-1.6c-0.4-0.2-1-0.4-1.5-0.6"/>
			<path class="st1" d="M42.5,32.9c0.6,0,1.4-0.4,2-1.1c0.7-0.8,1-1.7,1-2.5c0-0.9-0.3-1.7-0.9-2.3c-0.5-0.6-1.3-0.9-2.2-0.9
				c-1.7,0-3,1.4-3,3.2c0,0.9,0.4,1.8,1,2.5C41.1,32.5,41.9,32.9,42.5,32.9z"/>
		</g>
	</g>
	<path class="st0" d="M44.2,45.7L38,32c-0.3-0.7-1-1.1-1.8-1.1H25.7c-0.7,0-1.4,0.5-1.8,1.1l-6.2,13.7c-0.1,0.3-0.2,0.5-0.2,0.8v1.3
		c0,0.7,0.6,1.3,1.2,1.3h24.4c0.7,0,1.2-0.6,1.2-1.3v-1.3C44.4,46.2,44.3,45.9,44.2,45.7z"/>
	<path class="st3" d="M61,1h1V0h-1V1z M1,1V0H0v1H1z M61,30.1v1h1v-1H61z M53.2,30.1v-1h-1v1H53.2z M53.2,31.9h-1v1h1V31.9z
		 M61,31.9h1v-1h-1V31.9z M61,61v1h1v-1H61z M1,61H0v1h1V61z M1,31.9v-1H0v1H1z M8.8,31.9v1h1v-1H8.8z M8.8,30.1h1v-1h-1V30.1z
		 M1,30.1H0v1h1V30.1z M61,0H1v2h60V0z M62,30.1V1h-2v29.1H62z M53.2,31.1H61v-2h-7.8V31.1z M54.2,31.9V30h-2v1.9H54.2z M61,30.9
		h-7.8v2H61V30.9z M62,61V31.9h-2V61H62z M1,62h60v-2H1V62z M0,31.9V61h2V31.9H0z M8.8,30.9H1v2h7.8V30.9z M7.8,30.1V32h2v-1.9H7.8z
		 M1,31.1h7.8v-2H1V31.1z M0,1v29.1h2V1H0z"/>
</g>
</svg>
