<svg width="60" height="60" viewBox="0 0 60 60" fill="none" xmlns="http://www.w3.org/2000/svg">
<mask id="path-1-inside-1_795_16962" fill="white">
<path fill-rule="evenodd" clip-rule="evenodd" d="M0 0H60L60 29.0667H52.2V30.9333H60L60 60H0V30.9332H7.8V29.0665H0V0Z"/>
</mask>
<path d="M60 0L61 1.3124e-07V-1H60V0ZM0 0V-1H-1V0H0ZM60 29.0667V30.0667H61V29.0667H60ZM52.2 29.0667V28.0667H51.2V29.0667H52.2ZM52.2 30.9333H51.2V31.9333H52.2V30.9333ZM60 30.9333H61V29.9333H60V30.9333ZM60 60V61H61V60H60ZM0 60H-1V61H0V60ZM0 30.9332V29.9332H-1V30.9332H0ZM7.8 30.9332V31.9332H8.8V30.9332H7.8ZM7.8 29.0665H8.8V28.0665H7.8V29.0665ZM0 29.0665H-1V30.0665H0V29.0665ZM60 -1H0V1H60V-1ZM61 29.0667L61 1.3124e-07L59 -1.3124e-07L59 29.0667H61ZM52.2 30.0667H60V28.0667H52.2V30.0667ZM53.2 30.9333V29.0667H51.2V30.9333H53.2ZM60 29.9333H52.2V31.9333H60V29.9333ZM61 60L61 30.9333H59L59 60H61ZM0 61H60V59H0V61ZM-1 30.9332V60H1V30.9332H-1ZM7.8 29.9332H0V31.9332H7.8V29.9332ZM6.8 29.0665V30.9332H8.8V29.0665H6.8ZM0 30.0665H7.8V28.0665H0V30.0665ZM-1 0V29.0665H1V0H-1Z" fill="#F2994A" mask="url(#path-1-inside-1_795_16962)"/>
<path d="M12.2042 37.7383C12.01 37.7413 11.8199 37.6833 11.6605 37.5724C11.5012 37.4615 11.3806 37.3034 11.3159 37.1204C9.6811 32.8427 9.56492 28.1334 10.9868 23.7804C12.4087 19.4273 15.2825 15.6946 19.1272 13.2068C22.9719 10.7191 27.5544 9.62717 32.1079 10.1138C36.6613 10.6004 40.9096 12.6361 44.1417 15.8802C44.3235 16.062 44.4256 16.3085 44.4256 16.5657C44.4256 16.8228 44.3235 17.0693 44.1417 17.2511C43.9599 17.4329 43.7133 17.5351 43.4562 17.5351C43.1991 17.5351 42.9526 17.4329 42.7708 17.2511C41.0957 15.5732 39.1061 14.242 36.9161 13.3337C34.726 12.4255 32.3783 11.958 30.0073 11.958C27.6364 11.958 25.2887 12.4255 23.0986 13.3337C20.9085 14.242 18.919 15.5732 17.2439 17.2511C14.7921 19.7083 13.0989 22.8188 12.3662 26.2117C11.6335 29.6047 11.8923 33.1367 13.1117 36.3866C13.176 36.5057 13.2145 36.637 13.2248 36.772C13.2351 36.9069 13.2168 37.0425 13.1713 37.17C13.1258 37.2974 13.054 37.4139 12.9606 37.5118C12.8671 37.6097 12.7542 37.6869 12.629 37.7383C12.4887 37.7659 12.3444 37.7659 12.2042 37.7383Z" fill="black"/>
<path d="M30.0062 49.9992C27.385 50.0107 24.7873 49.505 22.3619 48.511C19.9365 47.5169 17.731 46.0542 15.8718 44.2064C15.69 44.0246 15.5879 43.7781 15.5879 43.521C15.5879 43.2639 15.69 43.0173 15.8718 42.8355C16.0536 42.6537 16.3002 42.5516 16.5573 42.5516C16.8144 42.5516 17.061 42.6537 17.2428 42.8355C20.2057 45.8252 24.1201 47.6858 28.3093 48.0954C32.4985 48.5051 36.6992 47.4382 40.1852 45.0791C43.6712 42.72 46.2233 39.217 47.4004 35.1757C48.5774 31.1345 48.3055 26.8089 46.6315 22.9469C46.5343 22.7136 46.5324 22.4515 46.6262 22.2169C46.7201 21.9822 46.9022 21.7937 47.1336 21.6918C47.3696 21.5938 47.6345 21.5913 47.8723 21.685C48.1102 21.7787 48.3022 21.9612 48.408 22.1939C49.7005 25.2337 50.2195 28.5466 49.9183 31.836C49.6172 35.1255 48.5054 38.2891 46.6824 41.0437C44.8593 43.7983 42.3819 46.0581 39.4718 47.621C36.5616 49.1838 33.3095 50.0009 30.0062 49.9992Z" fill="black"/>
<path d="M44.4095 18.583H44.2744L40.6831 18.1196C40.4271 18.0889 40.1937 17.9577 40.0344 17.7549C39.8751 17.5521 39.8029 17.2944 39.8336 17.0384C39.8643 16.7823 39.9955 16.549 40.1983 16.3897C40.401 16.2303 40.6588 16.1581 40.9148 16.1888L44.5254 16.6329C44.7787 16.6665 45.0083 16.7992 45.1639 17.0019C45.3196 17.2046 45.3885 17.4607 45.3556 17.7141C45.332 17.9498 45.2225 18.1685 45.048 18.3287C44.8736 18.4889 44.6463 18.5794 44.4095 18.583Z" fill="black"/>
<path d="M44.3905 18.4284C44.1533 18.4301 43.9238 18.3444 43.7457 18.1877C43.5677 18.031 43.4535 17.8143 43.4251 17.5788L43.0003 14.1034C42.9813 13.9776 42.988 13.8492 43.0198 13.7259C43.0516 13.6027 43.1079 13.4872 43.1854 13.3862C43.263 13.2853 43.36 13.201 43.4709 13.1384C43.5817 13.0759 43.7041 13.0364 43.8305 13.0222C44.084 12.9893 44.3401 13.0582 44.5428 13.2139C44.7454 13.3695 44.8781 13.5991 44.9118 13.8524L45.3366 17.3471C45.3694 17.6005 45.3005 17.8567 45.1449 18.0593C44.9893 18.262 44.7596 18.3947 44.5063 18.4284H44.3905Z" fill="black"/>
<path d="M16.0257 46.9665C15.7897 46.9642 15.5624 46.8771 15.3852 46.7211C15.208 46.5652 15.0927 46.3508 15.0603 46.117L14.5583 42.5258C14.5254 42.2724 14.5944 42.0162 14.75 41.8136C14.9056 41.6109 15.1353 41.4782 15.3886 41.4445C15.5144 41.4256 15.6428 41.4322 15.766 41.464C15.8893 41.4958 16.0048 41.5521 16.1058 41.6297C16.2067 41.7072 16.291 41.8043 16.3535 41.9151C16.4161 42.026 16.4556 42.1483 16.4698 42.2748L16.9139 45.8853C16.9301 46.0097 16.9213 46.1361 16.8882 46.2571C16.8551 46.378 16.7983 46.4912 16.721 46.59C16.6438 46.6889 16.5476 46.7713 16.4382 46.8327C16.3288 46.894 16.2083 46.9329 16.0836 46.9472L16.0257 46.9665Z" fill="black"/>
<path d="M19.1731 43.8194H19.0572L15.4467 43.3753C15.1934 43.3416 14.9637 43.2089 14.8081 43.0062C14.6525 42.8036 14.5835 42.5475 14.6164 42.2941C14.6306 42.1676 14.6701 42.0452 14.7327 41.9344C14.7952 41.8235 14.8795 41.7265 14.9804 41.6489C15.0814 41.5714 15.1969 41.5151 15.3202 41.4833C15.4434 41.4515 15.5718 41.4448 15.6977 41.4638L19.2889 41.9079C19.416 41.9222 19.5391 41.9617 19.6508 42.024C19.7626 42.0863 19.8608 42.1702 19.9399 42.2708C20.0189 42.3714 20.0772 42.4867 20.1113 42.61C20.1454 42.7333 20.1546 42.8622 20.1385 42.9891C20.1019 43.2194 19.9848 43.4292 19.808 43.5813C19.6312 43.7333 19.4062 43.8177 19.1731 43.8194Z" fill="black"/>
<path d="M39.4361 32.6659C39.1404 33.338 38.8626 33.9653 38.5938 34.6016C38.5669 34.6732 38.6117 34.8166 38.6654 34.8793C39.4003 35.7127 39.3823 36.4834 38.6027 37.263C38.1367 37.729 37.6708 38.195 37.2048 38.661C36.4879 39.3779 35.6455 39.3868 34.9286 38.6968C34.7853 38.5534 34.6777 38.5445 34.4985 38.6341C33.9788 38.876 33.459 39.0911 32.9213 39.2882C32.7421 39.3599 32.6525 39.4137 32.6525 39.6288C32.6346 40.6324 32.0342 41.2239 31.0305 41.2328C30.3405 41.2328 29.6416 41.2418 28.9515 41.2328C27.9658 41.2239 27.3475 40.6235 27.3385 39.6556C27.3385 39.4406 27.2668 39.3599 27.0607 39.2793C26.541 39.0911 26.0212 38.8671 25.5194 38.643C25.3312 38.5534 25.2147 38.5534 25.0534 38.7058C24.3455 39.3868 23.4942 39.3778 22.7952 38.6878C22.2844 38.186 21.7826 37.6752 21.2808 37.1734C20.6266 36.5103 20.6087 35.6321 21.2629 34.969C21.4242 34.8077 21.4421 34.6912 21.3435 34.4851C21.1016 33.9743 20.8955 33.4366 20.6983 32.9079C20.6356 32.7376 20.5549 32.6749 20.3667 32.6659C19.3452 32.648 18.7627 32.0476 18.7627 31.0171C18.7627 30.3271 18.7627 29.6281 18.7627 28.9381C18.7717 27.9792 19.3631 27.3609 20.3219 27.352C20.528 27.352 20.6266 27.2892 20.7073 27.0831C20.9044 26.5544 21.1195 26.0257 21.3614 25.506C21.4421 25.3267 21.4331 25.2192 21.2987 25.0758C20.6087 24.35 20.6177 23.5076 21.3345 22.7997C21.8274 22.2979 22.3292 21.796 22.8311 21.3032C23.5121 20.6311 24.3724 20.6221 25.0624 21.2942C25.2147 21.4466 25.3223 21.4555 25.5194 21.3659C26.0212 21.1329 26.541 20.9178 27.0607 20.7207C27.2489 20.649 27.3475 20.5863 27.3475 20.3533C27.3654 19.3676 27.9658 18.7761 28.9515 18.7672C29.6774 18.7672 30.4033 18.7582 31.1291 18.7672C32.0163 18.7761 32.6525 19.3944 32.6615 20.2816C32.6615 20.5415 32.7421 20.6401 32.9841 20.7207C33.4949 20.8999 33.9967 21.124 34.4985 21.348C34.6688 21.4286 34.7763 21.4555 34.9286 21.3032C35.6455 20.5952 36.4968 20.6132 37.2048 21.3121C37.7066 21.805 38.2084 22.3068 38.7013 22.8087C39.3734 23.4897 39.3913 24.35 38.7282 25.04C38.5669 25.2102 38.5669 25.3178 38.6565 25.5239C38.8895 26.0257 39.0956 26.5455 39.2927 27.0652C39.3644 27.2444 39.4361 27.3251 39.6422 27.3251C40.6548 27.343 41.2283 27.9524 41.2373 28.956C41.2373 29.6281 41.2373 30.3002 41.2373 30.9723C41.2373 32.0387 40.6548 32.6301 39.5884 32.657C39.5347 32.657 39.472 32.6659 39.4361 32.6659ZM32.6615 38.0247C33.2798 37.72 33.8264 37.4602 34.3641 37.1644C34.8301 36.9135 35.0541 36.9315 35.4394 37.3078C35.5738 37.4422 35.7172 37.5677 35.8427 37.7111C35.9861 37.8724 36.1115 37.8724 36.2639 37.72C36.7478 37.2272 37.2406 36.7343 37.7335 36.2504C37.8948 36.0981 37.8769 35.9726 37.7245 35.8292C37.5543 35.6679 37.393 35.4977 37.2227 35.3274C36.9718 35.0675 36.927 34.7718 37.1152 34.4671C37.617 33.6517 37.9665 32.7735 38.2084 31.8505C38.298 31.4831 38.531 31.3218 38.9164 31.3128C39.1404 31.3038 39.3644 31.3038 39.5884 31.3128C39.8304 31.3218 39.9021 31.2232 39.9021 30.9902C39.8931 30.3181 39.8931 29.646 39.9021 28.9739C39.9021 28.7499 39.8304 28.6424 39.5884 28.6513C39.3555 28.6603 39.1225 28.6603 38.8805 28.6513C38.531 28.6334 38.2891 28.4631 38.1995 28.1137C37.9754 27.1817 37.617 26.3125 37.1152 25.497C36.927 25.1923 36.9807 24.8966 37.2227 24.6367C37.393 24.4575 37.5632 24.2872 37.7424 24.117C37.8679 23.9915 37.8858 23.884 37.7514 23.7496C37.2406 23.2478 36.7388 22.737 36.237 22.2351C36.1026 22.1007 35.995 22.1097 35.8696 22.2441C35.6993 22.4233 35.529 22.5936 35.3498 22.7638C35.0899 23.0058 34.8032 23.0685 34.4895 22.8803C33.6741 22.3785 32.8048 22.0201 31.8729 21.7871C31.5055 21.6975 31.3442 21.4734 31.3263 21.0791C31.3173 20.8462 31.3173 20.6132 31.3263 20.3712C31.3352 20.1741 31.2456 20.0934 31.0485 20.0934C30.3584 20.1024 29.6595 20.1024 28.9695 20.0934C28.7454 20.0934 28.6737 20.192 28.6827 20.3981C28.6917 20.6311 28.6917 20.8641 28.6827 21.106C28.6648 21.4376 28.5124 21.6975 28.1809 21.7781C27.231 22.0111 26.3349 22.3785 25.5015 22.8893C25.2058 23.0685 24.919 23.0058 24.6771 22.7728C24.4978 22.6025 24.3276 22.4323 24.1573 22.2531C24.0229 22.1097 23.9064 22.1186 23.763 22.262C23.2702 22.7638 22.7683 23.2657 22.2665 23.7585C22.1321 23.884 22.1231 24.0005 22.2665 24.1259C22.4457 24.2962 22.616 24.4665 22.7863 24.6457C23.0461 24.9324 23.0909 25.2013 22.8848 25.5328C22.4009 26.3304 22.0425 27.1817 21.8185 28.0868C21.7199 28.499 21.5048 28.6513 21.0747 28.6693C20.8506 28.6782 20.6266 28.6782 20.4026 28.6693C20.2054 28.6603 20.1158 28.7409 20.1158 28.9471C20.1248 29.655 20.1158 30.354 20.1158 31.0619C20.1158 31.2411 20.1965 31.3307 20.3757 31.3218C20.6177 31.3128 20.8686 31.3128 21.1105 31.3218C21.46 31.3307 21.7109 31.501 21.7916 31.8505C22.0156 32.7914 22.383 33.6696 22.8938 34.503C23.073 34.7987 23.0192 35.0855 22.7863 35.3364C22.625 35.5066 22.4637 35.6769 22.2844 35.8382C22.1142 35.9905 22.1052 36.116 22.2844 36.2773C22.6877 36.6626 23.073 37.0659 23.4763 37.4602C24.005 37.9799 23.8885 37.9978 24.4172 37.4691C24.9997 36.8866 25.1072 36.8866 25.8331 37.2899C26.308 37.5498 26.8098 37.7559 27.3385 38.0158C27.3385 37.0838 27.3296 36.2414 27.3475 35.4081C27.3565 35.1571 27.2668 35.0406 27.0518 34.9242C23.6734 33.1409 22.84 28.6513 25.3581 25.7838C25.8958 25.1744 26.4872 24.6278 27.2848 24.3858C27.9389 24.1887 28.5035 24.5202 28.6648 25.1834C28.7096 25.3805 28.7365 25.5777 28.7275 25.7838C28.7275 26.9218 28.7096 28.0599 28.7006 29.2069C28.7006 29.3593 28.7186 29.5206 28.7454 29.6729C28.8709 30.2375 29.3906 30.7124 29.9283 30.7572C30.4033 30.802 30.9857 30.3808 31.1739 29.8432C31.2456 29.646 31.2725 29.431 31.2725 29.2159C31.2814 28.2391 31.2725 27.2713 31.2814 26.2945C31.2814 25.9451 31.2546 25.5956 31.3083 25.264C31.4248 24.5471 32.0252 24.1887 32.7242 24.3948C32.8855 24.4396 33.0378 24.5023 33.1902 24.583C35.2333 25.7121 36.461 28.3377 36.0309 30.6407C35.6635 32.5853 34.615 34.028 32.8676 34.9779C32.769 35.0317 32.6615 35.1661 32.6615 35.2647C32.6525 36.1339 32.6615 37.0211 32.6615 38.0247ZM27.3654 25.8017C27.2848 25.8554 27.24 25.8734 27.1952 25.9092C25.8151 26.9129 25.1162 28.275 25.2416 29.9776C25.376 31.8325 26.3438 33.1498 28.0465 33.9115C28.5035 34.1176 28.6917 34.3954 28.6827 34.8793C28.6648 36.4117 28.6827 37.9441 28.6648 39.4764C28.6648 39.8259 28.7723 39.9245 29.1039 39.9066C29.7043 39.8797 30.3136 39.8886 30.914 39.9066C31.2187 39.9155 31.3263 39.8169 31.3173 39.5033C31.2994 37.9709 31.3263 36.4386 31.3083 34.9062C31.2994 34.4044 31.4696 34.1087 31.9535 33.9115C34.1221 32.9975 35.2423 30.6228 34.5792 28.3825C34.2566 27.2982 33.6113 26.4469 32.6256 25.8017C32.6256 26.8412 32.6256 27.8269 32.6256 28.8216C32.6256 29.1442 32.6256 29.4758 32.5719 29.7894C32.3657 31.1425 31.1739 32.1283 29.9193 32.0924C28.6289 32.0476 27.5088 31.0081 27.4102 29.7177C27.3206 28.5438 27.3654 27.352 27.3565 26.1691C27.3654 26.0526 27.3654 25.9451 27.3654 25.8017Z" fill="black" stroke="black" stroke-width="0.5"/>
</svg>
