<svg width="60" height="60" viewBox="0 0 60 60" fill="none" xmlns="http://www.w3.org/2000/svg">
<mask id="path-1-inside-1_795_17011" fill="white">
<path fill-rule="evenodd" clip-rule="evenodd" d="M0 0H60L60 29.0667H52.2V30.9333H60L60 60H0V30.9332H7.8V29.0665H0V0Z"/>
</mask>
<path d="M60 0L61 1.3124e-07V-1H60V0ZM0 0V-1H-1V0H0ZM60 29.0667V30.0667H61V29.0667H60ZM52.2 29.0667V28.0667H51.2V29.0667H52.2ZM52.2 30.9333H51.2V31.9333H52.2V30.9333ZM60 30.9333H61V29.9333H60V30.9333ZM60 60V61H61V60H60ZM0 60H-1V61H0V60ZM0 30.9332V29.9332H-1V30.9332H0ZM7.8 30.9332V31.9332H8.8V30.9332H7.8ZM7.8 29.0665H8.8V28.0665H7.8V29.0665ZM0 29.0665H-1V30.0665H0V29.0665ZM60 -1H0V1H60V-1ZM61 29.0667L61 1.3124e-07L59 -1.3124e-07L59 29.0667H61ZM52.2 30.0667H60V28.0667H52.2V30.0667ZM53.2 30.9333V29.0667H51.2V30.9333H53.2ZM60 29.9333H52.2V31.9333H60V29.9333ZM61 60L61 30.9333H59L59 60H61ZM0 61H60V59H0V61ZM-1 30.9332V60H1V30.9332H-1ZM7.8 29.9332H0V31.9332H7.8V29.9332ZM6.8 29.0665V30.9332H8.8V29.0665H6.8ZM0 30.0665H7.8V28.0665H0V30.0665ZM-1 0V29.0665H1V0H-1Z" fill="#F2994A" mask="url(#path-1-inside-1_795_17011)"/>
<path d="M13.2778 30.7778C13.0715 30.7778 12.8737 30.6958 12.7278 30.55C12.5819 30.4041 12.5 30.2063 12.5 30V17.3222C12.5 16.0433 13.0081 14.8167 13.9124 13.9124C14.8167 13.0081 16.0433 12.5 17.3222 12.5H30C30.2063 12.5 30.4041 12.5819 30.55 12.7278C30.6958 12.8737 30.7778 13.0715 30.7778 13.2778C30.7778 13.4841 30.6958 13.6819 30.55 13.8278C30.4041 13.9736 30.2063 14.0556 30 14.0556H17.3222C16.4558 14.0556 15.625 14.3997 15.0123 15.0123C14.3997 15.625 14.0556 16.4558 14.0556 17.3222V30C14.0556 30.2063 13.9736 30.4041 13.8278 30.55C13.6819 30.6958 13.4841 30.7778 13.2778 30.7778Z" fill="black"/>
<path d="M30 47.4998H17.3222C16.0433 47.4998 14.8167 46.9918 13.9124 46.0874C13.0081 45.1831 12.5 43.9565 12.5 42.6776V29.9998C12.5 29.7935 12.5819 29.5957 12.7278 29.4499C12.8737 29.304 13.0715 29.222 13.2778 29.222H19.2511C19.3907 29.2233 19.5275 29.2613 19.6477 29.3323C19.7678 29.4034 19.8671 29.5048 19.9356 29.6265C20.0084 29.746 20.0469 29.8832 20.0469 30.0232C20.0469 30.1631 20.0084 30.3003 19.9356 30.4198C19.7728 30.6881 19.6743 30.9903 19.6475 31.3029C19.6207 31.6155 19.6665 31.93 19.7813 32.222C19.896 32.514 20.0766 32.7756 20.309 32.9863C20.5415 33.1971 20.8194 33.3513 21.1212 33.437C21.423 33.5227 21.7405 33.5375 22.049 33.4804C22.3575 33.4232 22.6487 33.2956 22.8997 33.1075C23.1508 32.9194 23.3551 32.6758 23.4966 32.3958C23.6381 32.1158 23.713 31.8069 23.7156 31.4932C23.7154 31.1109 23.6017 30.7373 23.3889 30.4198C23.3207 30.2987 23.285 30.1621 23.285 30.0232C23.285 29.8842 23.3207 29.7476 23.3889 29.6265C23.456 29.5037 23.5551 29.4014 23.6755 29.3302C23.796 29.259 23.9334 29.2217 24.0733 29.222H30C30.2063 29.222 30.4041 29.304 30.55 29.4499C30.6958 29.5957 30.7778 29.7935 30.7778 29.9998V34.8376C31.3052 34.7207 31.8522 34.7236 32.3784 34.8463C32.9045 34.969 33.3964 35.2082 33.8178 35.5464C34.2392 35.8846 34.5792 36.313 34.8129 36.8002C35.0465 37.2873 35.1678 37.8207 35.1678 38.3609C35.1678 38.9012 35.0465 39.4346 34.8129 39.9217C34.5792 40.4089 34.2392 40.8373 33.8178 41.1755C33.3964 41.5136 32.9045 41.7529 32.3784 41.8756C31.8522 41.9982 31.3052 42.0012 30.7778 41.8843V46.722C30.7778 46.9283 30.6958 47.1262 30.55 47.272C30.4041 47.4179 30.2063 47.4998 30 47.4998ZM14.0556 30.7776V42.6776C14.0556 43.544 14.3997 44.3749 15.0123 44.9875C15.625 45.6001 16.4558 45.9443 17.3222 45.9443H29.2222V40.7487C29.2235 40.6091 29.2615 40.4724 29.3325 40.3522C29.4035 40.232 29.505 40.1327 29.6267 40.0643C29.7449 39.996 29.879 39.9601 30.0156 39.9601C30.1521 39.9601 30.2862 39.996 30.4044 40.0643C30.7287 40.275 31.1066 40.3884 31.4933 40.3909C32.0051 40.3463 32.4815 40.1114 32.8285 39.7327C33.1756 39.3541 33.3681 38.8591 33.3681 38.3454C33.3681 37.8317 33.1756 37.3367 32.8285 36.958C32.4815 36.5793 32.0051 36.3445 31.4933 36.2998C31.1066 36.3024 30.7287 36.4157 30.4044 36.6265C30.2862 36.6948 30.1521 36.7307 30.0156 36.7307C29.879 36.7307 29.7449 36.6948 29.6267 36.6265C29.505 36.5581 29.4035 36.4588 29.3325 36.3386C29.2615 36.2184 29.2235 36.0816 29.2222 35.942V30.7776H25.1622C25.2792 31.3051 25.2762 31.8521 25.1535 32.3782C25.0308 32.9044 24.7916 33.3963 24.4534 33.8176C24.1153 34.239 23.6868 34.579 23.1997 34.8127C22.7125 35.0463 22.1792 35.1676 21.6389 35.1676C21.0986 35.1676 20.5652 35.0463 20.0781 34.8127C19.591 34.579 19.1625 34.239 18.8244 33.8176C18.4862 33.3963 18.2469 32.9044 18.1243 32.3782C18.0016 31.8521 17.9986 31.3051 18.1156 30.7776H14.0556Z" fill="black"/>
<path d="M42.6622 47.4998H29.9999C29.7937 47.4998 29.5958 47.4179 29.45 47.272C29.3041 47.1262 29.2222 46.9283 29.2222 46.722C29.2222 46.5158 29.3041 46.3179 29.45 46.1721C29.5958 46.0262 29.7937 45.9443 29.9999 45.9443H42.6622C43.53 45.9443 44.3625 45.6006 44.9776 44.9884C45.5927 44.3763 45.9403 43.5454 45.9444 42.6776V29.9998C45.9444 29.7935 46.0263 29.5957 46.1722 29.4499C46.3181 29.304 46.5159 29.222 46.7222 29.222C46.9284 29.222 47.1263 29.304 47.2721 29.4499C47.418 29.5957 47.4999 29.7935 47.4999 29.9998V42.6776C47.4999 43.3122 47.3747 43.9405 47.1314 44.5266C46.8881 45.1127 46.5315 45.645 46.0821 46.0929C45.6326 46.5409 45.0992 46.8958 44.5123 47.1372C43.9255 47.3787 43.2967 47.5019 42.6622 47.4998Z" fill="black"/>
<path d="M46.7226 30.7778H40.7492C40.6096 30.7765 40.4729 30.7385 40.3527 30.6675C40.2325 30.5965 40.1332 30.495 40.0648 30.3733C39.992 30.2538 39.9534 30.1166 39.9534 29.9767C39.9534 29.8367 39.992 29.6995 40.0648 29.58C40.2644 29.2698 40.3768 28.9116 40.3901 28.5431C40.4034 28.1745 40.3173 27.8091 40.1406 27.4853C39.9639 27.1615 39.7033 26.8913 39.3862 26.7031C39.069 26.5148 38.707 26.4154 38.3381 26.4154C37.9693 26.4154 37.6073 26.5148 37.2901 26.7031C36.9729 26.8913 36.7123 27.1615 36.5356 27.4853C36.359 27.8091 36.2728 28.1745 36.2861 28.5431C36.2995 28.9116 36.4118 29.2698 36.6114 29.58C36.6823 29.6995 36.7205 29.8354 36.7223 29.9743C36.7241 30.1132 36.6894 30.2501 36.6217 30.3714C36.554 30.4926 36.4556 30.594 36.3364 30.6653C36.2172 30.7366 36.0814 30.7754 35.9426 30.7778H30.0003C29.7941 30.7778 29.5962 30.6958 29.4504 30.55C29.3045 30.4041 29.2226 30.2063 29.2226 30V25.1622C28.6951 25.2792 28.1481 25.2762 27.6219 25.1535C27.0958 25.0308 26.6039 24.7916 26.1825 24.4534C25.7612 24.1153 25.4211 23.6868 25.1875 23.1997C24.9538 22.7125 24.8325 22.1792 24.8325 21.6389C24.8325 21.0986 24.9538 20.5652 25.1875 20.0781C25.4211 19.591 25.7612 19.1625 26.1825 18.8244C26.6039 18.4862 27.0958 18.2469 27.6219 18.1243C28.1481 18.0016 28.6951 17.9986 29.2226 18.1156V13.2778C29.2226 13.0715 29.3045 12.8737 29.4504 12.7278C29.5962 12.5819 29.7941 12.5 30.0003 12.5H42.6781C43.957 12.5 45.1836 13.0081 46.0879 13.9124C46.9923 14.8167 47.5003 16.0433 47.5003 17.3222V30C47.5003 30.2063 47.4184 30.4041 47.2725 30.55C47.1267 30.6958 46.9288 30.7778 46.7226 30.7778ZM41.8848 29.2222H45.9448V17.3222C45.9448 16.4558 45.6006 15.625 44.988 15.0123C44.3754 14.3997 43.5445 14.0556 42.6781 14.0556H30.7781V19.2511C30.7769 19.3907 30.7388 19.5275 30.6678 19.6477C30.5968 19.7678 30.4953 19.8671 30.3737 19.9356C30.2554 20.0038 30.1213 20.0398 29.9848 20.0398C29.8483 20.0398 29.7141 20.0038 29.5959 19.9356C29.2716 19.7248 28.8937 19.6114 28.507 19.6089C27.9953 19.6536 27.5189 19.8884 27.1718 20.2671C26.8248 20.6458 26.6322 21.1408 26.6322 21.6544C26.6322 22.1681 26.8248 22.6631 27.1718 23.0418C27.5189 23.4205 27.9953 23.6553 28.507 23.7C28.8937 23.6975 29.2716 23.5841 29.5959 23.3733C29.7141 23.3051 29.8483 23.2691 29.9848 23.2691C30.1213 23.2691 30.2554 23.3051 30.3737 23.3733C30.4953 23.4418 30.5968 23.5411 30.6678 23.6612C30.7388 23.7814 30.7769 23.9182 30.7781 24.0578V29.2222H34.8381C34.7212 28.6948 34.7242 28.1478 34.8468 27.6216C34.9695 27.0954 35.2088 26.6035 35.5469 26.1822C35.8851 25.7608 36.3135 25.4208 36.8007 25.1871C37.2878 24.9535 37.8212 24.8322 38.3615 24.8322C38.9017 24.8322 39.4351 24.9535 39.9222 25.1871C40.4094 25.4208 40.8378 25.7608 41.176 26.1822C41.5141 26.6035 41.7534 27.0954 41.8761 27.6216C41.9987 28.1478 42.0017 28.6948 41.8848 29.2222Z" fill="black"/>
</svg>
