<svg width="60" height="60" viewBox="0 0 60 60" fill="none" xmlns="http://www.w3.org/2000/svg">
<mask id="path-1-inside-1_795_16977" fill="white">
<path fill-rule="evenodd" clip-rule="evenodd" d="M0 0H60L60 29.0667H52.2V30.9333H60L60 60H0V30.9332H7.8V29.0665H0V0Z"/>
</mask>
<path d="M60 0L61 1.3124e-07V-1H60V0ZM0 0V-1H-1V0H0ZM60 29.0667V30.0667H61V29.0667H60ZM52.2 29.0667V28.0667H51.2V29.0667H52.2ZM52.2 30.9333H51.2V31.9333H52.2V30.9333ZM60 30.9333H61V29.9333H60V30.9333ZM60 60V61H61V60H60ZM0 60H-1V61H0V60ZM0 30.9332V29.9332H-1V30.9332H0ZM7.8 30.9332V31.9332H8.8V30.9332H7.8ZM7.8 29.0665H8.8V28.0665H7.8V29.0665ZM0 29.0665H-1V30.0665H0V29.0665ZM60 -1H0V1H60V-1ZM61 29.0667L61 1.3124e-07L59 -1.3124e-07L59 29.0667H61ZM52.2 30.0667H60V28.0667H52.2V30.0667ZM53.2 30.9333V29.0667H51.2V30.9333H53.2ZM60 29.9333H52.2V31.9333H60V29.9333ZM61 60L61 30.9333H59L59 60H61ZM0 61H60V59H0V61ZM-1 30.9332V60H1V30.9332H-1ZM7.8 29.9332H0V31.9332H7.8V29.9332ZM6.8 29.0665V30.9332H8.8V29.0665H6.8ZM0 30.0665H7.8V28.0665H0V30.0665ZM-1 0V29.0665H1V0H-1Z" fill="#F2994A" mask="url(#path-1-inside-1_795_16977)"/>
<path d="M11.6123 31.1594C11.7878 30.6447 11.9048 30.0948 12.1505 29.6152C12.6652 28.6324 13.5426 28.0592 14.6073 27.7667C16.6195 27.2169 18.62 26.6787 20.6206 26.1171C20.8078 26.0703 21.0066 25.93 21.1236 25.7662C22.4222 24.0932 23.674 22.3734 24.996 20.7356C25.8617 19.6593 27.0667 19.1211 28.4472 19.086C29.5352 19.0509 30.6232 19.0743 31.7113 19.0743C31.8399 19.0743 31.9686 19.0743 32.1441 19.0743C32.1441 18.9105 32.1441 18.7935 32.1441 18.6649C32.1441 17.2961 32.1441 15.939 32.1441 14.5702C32.1441 13.915 32.5185 13.4822 33.0683 13.4822C33.6299 13.4822 34.0043 13.915 34.0043 14.5702C34.0043 15.4359 34.0043 16.3133 34.0043 17.2142C34.8583 17.2142 35.6655 17.2142 36.4728 17.2142C36.6366 17.2142 36.812 17.2142 36.9758 17.2142C37.631 17.2259 37.9702 17.53 38.0404 18.1735C38.0872 18.6766 38.1457 19.1679 38.1808 19.671C38.1925 19.9166 38.2744 20.0453 38.5201 20.1389C39.1284 20.3612 39.7017 20.642 40.3101 20.876C40.4153 20.9228 40.6142 20.8877 40.7078 20.8175C41.1173 20.5133 41.5034 20.1623 41.9011 19.8465C42.451 19.4019 42.9072 19.4253 43.422 19.9283C44.1707 20.6771 44.9078 21.4258 45.6448 22.1746C46.1596 22.701 46.1713 23.1456 45.7033 23.7188C45.3289 24.1751 44.9546 24.6197 44.627 25.0291C44.9312 25.7662 45.2003 26.4681 45.4927 27.1584C45.5395 27.2636 45.7033 27.3806 45.8203 27.3923C46.3468 27.4625 46.8732 27.4976 47.388 27.5444C48.0431 27.6029 48.3824 27.9656 48.3824 28.6207C48.3824 29.7204 48.3941 30.8202 48.3824 31.9199C48.3824 32.575 48.0314 32.9377 47.3763 32.9962C46.8498 33.043 46.3234 33.0781 45.8086 33.1483C45.7033 33.16 45.5629 33.2653 45.5161 33.3705C45.2353 33.9789 44.9897 34.5989 44.7206 35.2073C44.6387 35.3828 44.6504 35.5115 44.7791 35.6519C45.1184 36.0379 45.4459 36.4357 45.7618 36.8452C46.2064 37.395 46.1947 37.8396 45.7033 38.3426C44.9429 39.1148 44.1824 39.8752 43.422 40.6356C42.9306 41.127 42.4744 41.1387 41.9245 40.7058C41.5151 40.3783 41.1173 40.0273 40.7078 39.6997C40.6259 39.6295 40.4504 39.6178 40.3451 39.6529C39.7368 39.8869 39.1401 40.1677 38.5201 40.39C38.2861 40.4719 38.2159 40.6006 38.1925 40.8345C38.1574 41.3493 38.0989 41.8641 38.0521 42.3671C37.9819 43.0106 37.6427 43.3381 36.9875 43.3381C36.1218 43.3498 35.2678 43.3381 34.402 43.3381C34.285 43.3381 34.1681 43.3381 34.016 43.3381C34.016 44.0752 34.0511 44.7771 34.0043 45.4791C33.9809 45.7481 33.8522 46.0523 33.665 46.2629C33.431 46.532 33.08 46.5905 32.7408 46.4267C32.3781 46.2629 32.1558 45.9821 32.1441 45.561C32.1441 44.6952 32.1441 43.8412 32.1441 42.9755C32.1441 41.2791 32.1441 39.571 32.1441 37.8279C32.0154 37.8162 31.8984 37.8045 31.7931 37.8045C29.7692 37.8045 27.7453 37.8045 25.7213 37.7928C25.464 37.7928 25.3704 37.8747 25.3002 38.1087C24.5982 40.1209 22.7732 41.4195 20.644 41.4078C18.5732 41.3961 16.7599 40.0858 16.0813 38.097C16.0111 37.8981 15.9526 37.7928 15.7187 37.8045C13.6596 37.9449 11.9048 36.3655 11.6591 34.5522C11.6474 34.5054 11.624 34.4703 11.6123 34.4235C11.6123 33.3588 11.6123 32.2591 11.6123 31.1594ZM32.1441 20.9462C31.021 20.9462 29.9213 20.9579 28.8333 20.9462C27.6868 20.9228 26.8094 21.379 26.1308 22.2916C24.9024 23.9294 23.6506 25.5439 22.4105 27.1818C22.1414 27.5327 21.8256 27.7433 21.3927 27.8603C19.2869 28.4219 17.1927 28.9951 15.0986 29.5684C14.0457 29.8608 13.4842 30.5745 13.4725 31.6508C13.4725 32.3878 13.4725 33.1366 13.4725 33.8736C13.4842 35.2307 14.4552 36.0847 15.8474 35.9443C16.0462 34.7627 16.5493 33.7332 17.4618 32.926C18.3744 32.1188 19.4507 31.7093 20.6674 31.6976C21.6969 31.6859 22.6445 31.9901 23.4985 32.5867C24.6567 33.4173 25.3236 34.5522 25.5342 35.9443C27.7453 35.9443 29.933 35.9443 32.1324 35.9443C32.1441 30.9488 32.1441 25.9768 32.1441 20.9462ZM46.5222 29.3461C45.9724 29.2876 45.4225 29.2291 44.8727 29.1823C44.3111 29.1355 43.9836 28.843 43.8549 28.2815C43.6443 27.3572 43.2699 26.4915 42.7668 25.6843C42.3808 25.0525 42.4159 24.7718 42.8838 24.1985C43.2114 23.8007 43.5273 23.4147 43.8198 23.0637C43.3635 22.6191 42.9423 22.198 42.5095 21.7768C42.5329 21.7651 42.5095 21.7768 42.4861 21.7885C42.1585 22.0576 41.8192 22.3384 41.4917 22.6074C40.8014 23.169 40.6025 23.1573 39.8187 22.7595C39.0583 22.3734 38.2627 22.0459 37.4438 21.7651C36.6483 21.496 36.4611 21.3205 36.3909 20.4899C36.3558 20.0219 36.2973 19.5657 36.2505 19.0977C35.49 19.0977 34.7647 19.0977 34.0277 19.0977C34.0277 20.8526 34.0277 22.5957 34.0277 24.3389C38.0053 23.5667 41.1173 26.5383 41.3396 29.8023C41.4566 31.487 40.9769 33.0079 39.8421 34.2714C38.2861 35.9911 36.3207 36.5878 34.0394 36.19C34.0394 37.9683 34.0394 39.7114 34.0394 41.4663C34.7881 41.4663 35.5134 41.4663 36.2388 41.4663C36.2505 41.4312 36.2739 41.3961 36.2856 41.361C36.3324 40.8579 36.3792 40.3549 36.4377 39.8635C36.5196 39.2201 36.7067 38.9861 37.3502 38.834C38.251 38.6 39.0934 38.2607 39.8889 37.7811C40.5791 37.3599 40.8365 37.3833 41.4683 37.8981C41.8426 38.2023 42.217 38.5181 42.568 38.7989C43.0242 38.3426 43.4454 37.9215 43.8783 37.4769C43.5507 37.0791 43.1997 36.6463 42.8487 36.2251C42.5212 35.8273 42.4744 35.4062 42.7552 34.9616C43.305 34.0959 43.6794 33.16 43.9485 32.1655C44.1005 31.604 44.3696 31.4051 44.9429 31.3583C45.4693 31.3115 46.0075 31.253 46.5456 31.1945C46.5222 30.5745 46.5222 29.9778 46.5222 29.3461ZM34.0277 34.2246C34.1096 34.2597 34.1681 34.2831 34.2265 34.2948C37.0928 35.0669 39.7836 32.7856 39.4911 29.8257C39.2454 27.3572 36.7535 25.6141 34.3435 26.2224C34.1096 26.2809 34.0043 26.3628 34.016 26.6319C34.0394 27.1584 34.0277 27.6848 34.0277 28.2113C34.0277 30.2001 34.0277 32.2006 34.0277 34.2246ZM23.6974 36.5878C23.6974 34.9265 22.3403 33.5694 20.6791 33.5811C19.0295 33.5928 17.6958 34.9148 17.6724 36.5644C17.649 38.2022 19.0178 39.5827 20.6674 39.5944C22.3403 39.6178 23.6974 38.249 23.6974 36.5878Z" fill="black"/>
</svg>
