<svg width="60" height="60" viewBox="0 0 60 60" fill="none" xmlns="http://www.w3.org/2000/svg">
<mask id="path-1-inside-1_795_16982" fill="white">
<path fill-rule="evenodd" clip-rule="evenodd" d="M0 0H60L60 29.0667H52.2V30.9333H60L60 60H0V30.9332H7.8V29.0665H0V0Z"/>
</mask>
<path d="M60 0L61 1.3124e-07V-1H60V0ZM0 0V-1H-1V0H0ZM60 29.0667V30.0667H61V29.0667H60ZM52.2 29.0667V28.0667H51.2V29.0667H52.2ZM52.2 30.9333H51.2V31.9333H52.2V30.9333ZM60 30.9333H61V29.9333H60V30.9333ZM60 60V61H61V60H60ZM0 60H-1V61H0V60ZM0 30.9332V29.9332H-1V30.9332H0ZM7.8 30.9332V31.9332H8.8V30.9332H7.8ZM7.8 29.0665H8.8V28.0665H7.8V29.0665ZM0 29.0665H-1V30.0665H0V29.0665ZM60 -1H0V1H60V-1ZM61 29.0667L61 1.3124e-07L59 -1.3124e-07L59 29.0667H61ZM52.2 30.0667H60V28.0667H52.2V30.0667ZM53.2 30.9333V29.0667H51.2V30.9333H53.2ZM60 29.9333H52.2V31.9333H60V29.9333ZM61 60L61 30.9333H59L59 60H61ZM0 61H60V59H0V61ZM-1 30.9332V60H1V30.9332H-1ZM7.8 29.9332H0V31.9332H7.8V29.9332ZM6.8 29.0665V30.9332H8.8V29.0665H6.8ZM0 30.0665H7.8V28.0665H0V30.0665ZM-1 0V29.0665H1V0H-1Z" fill="#F2994A" mask="url(#path-1-inside-1_795_16982)"/>
<path d="M45.7956 43.4834H38.6847C38.4424 43.4834 38.2101 43.3871 38.0388 43.2158C37.8674 43.0445 37.7712 42.8122 37.7712 42.5699C37.7712 42.3276 37.8674 42.0953 38.0388 41.924C38.2101 41.7527 38.4424 41.6564 38.6847 41.6564H44.9103V30.5403C44.9103 30.1047 44.7838 29.3739 43.9406 29.3739L43.2941 29.5285C38.6242 30.6152 33.8522 31.2041 29.0582 31.2852C24.613 31.2077 20.1871 30.6803 15.8482 29.7112C15.2125 29.5665 14.5699 29.454 13.9229 29.3739C13.0797 29.3739 12.9532 30.1047 12.9532 30.5403V41.6564H19.1788C19.421 41.6564 19.6534 41.7527 19.8247 41.924C19.996 42.0953 20.0922 42.3276 20.0922 42.5699C20.0922 42.8122 19.996 43.0445 19.8247 43.2158C19.6534 43.3871 19.421 43.4834 19.1788 43.4834H12.0678C11.8256 43.4834 11.5932 43.3871 11.4219 43.2158C11.2506 43.0445 11.1544 42.8122 11.1544 42.5699V30.5403C11.1294 30.1562 11.1835 29.7709 11.3135 29.4086C11.4435 29.0462 11.6466 28.7144 11.9101 28.4337C12.1736 28.1531 12.492 27.9295 12.8455 27.777C13.199 27.6245 13.58 27.5462 13.965 27.547C14.7465 27.6141 15.5217 27.741 16.2838 27.9264C20.503 28.8676 24.8063 29.3808 29.1285 29.4582C33.7901 29.3755 38.43 28.8009 42.9709 27.7438C43.3095 27.641 43.6581 27.575 44.0108 27.547C44.3958 27.5462 44.7769 27.6245 45.1304 27.777C45.4839 27.9295 45.8022 28.1531 46.0658 28.4337C46.3293 28.7144 46.5323 29.0462 46.6623 29.4086C46.7924 29.7709 46.8465 30.1562 46.8215 30.5403V42.5699C46.8225 42.6999 46.7957 42.8287 46.7429 42.9475C46.6902 43.0664 46.6126 43.1726 46.5155 43.2591C46.4184 43.3455 46.3039 43.4103 46.1798 43.449C46.0556 43.4876 45.9247 43.4994 45.7956 43.4834Z" fill="black"/>
<path d="M29.1145 39.4922C25.4469 39.5481 21.7844 39.1946 18.1952 38.4382C18.0147 38.3948 17.8587 38.2818 17.7613 38.1238C17.6639 37.9659 17.6329 37.7758 17.6752 37.595C17.7217 37.4135 17.8375 37.2574 17.9978 37.1602C18.158 37.063 18.3499 37.0324 18.5324 37.0751C22.0134 37.7905 25.5611 38.1297 29.1145 38.0869C32.542 38.1603 35.9675 37.8635 39.3312 37.2015C39.4207 37.1783 39.514 37.173 39.6055 37.1858C39.6971 37.1987 39.7852 37.2295 39.8649 37.2765C39.9445 37.3235 40.0141 37.3858 40.0696 37.4597C40.1252 37.5337 40.1656 37.6179 40.1885 37.7074C40.2311 37.89 40.2005 38.0819 40.1033 38.2421C40.0061 38.4024 39.8501 38.5182 39.6685 38.5647C36.1967 39.2705 32.6562 39.5816 29.1145 39.4922Z" fill="black"/>
<path d="M17.3939 25.7059C17.2198 25.7077 17.0489 25.6589 16.902 25.5654C16.6994 25.433 16.5565 25.2265 16.504 24.9902C16.4515 24.7539 16.4935 24.5064 16.6209 24.3006L18.8976 20.8154C19.0557 20.5057 19.3009 20.2489 19.603 20.0767C19.9051 19.9044 20.2509 19.8241 20.598 19.8457H34.4124C34.6547 19.8457 34.887 19.942 35.0583 20.1133C35.2297 20.2846 35.3259 20.5169 35.3259 20.7592C35.3259 21.0015 35.2297 21.2338 35.0583 21.4051C34.887 21.5764 34.6547 21.6727 34.4124 21.6727H20.4996L20.3872 21.8413L18.1387 25.2843C18.0584 25.4101 17.9486 25.5143 17.8187 25.5878C17.6889 25.6613 17.543 25.7018 17.3939 25.7059Z" fill="black"/>
<path d="M43.6735 33.632H35.4805C35.2941 33.632 35.1154 33.558 34.9836 33.4262C34.8519 33.2945 34.7778 33.1157 34.7778 32.9294V30.175C34.7778 29.9886 34.8519 29.8099 34.9836 29.6781C35.1154 29.5463 35.2941 29.4723 35.4805 29.4723C35.6657 29.4759 35.8424 29.5511 35.9734 29.6821C36.1044 29.8131 36.1796 29.9897 36.1832 30.175V32.1705H43.6735C43.8599 32.1705 44.0386 32.2445 44.1704 32.3763C44.3022 32.5081 44.3762 32.6868 44.3762 32.8732C44.384 32.9701 44.3716 33.0675 44.3397 33.1594C44.3079 33.2512 44.2574 33.3355 44.1914 33.4068C44.1253 33.4781 44.0452 33.535 43.9561 33.5737C43.8669 33.6125 43.7707 33.6324 43.6735 33.632Z" fill="black"/>
<path d="M22.3829 33.632H14.1899C14.0104 33.6362 13.8362 33.5716 13.7029 33.4513C13.5697 33.3311 13.4875 33.1645 13.4731 32.9856C13.4731 32.7992 13.5472 32.6205 13.6789 32.4887C13.8107 32.357 13.9894 32.2829 14.1758 32.2829H21.6662V30.175C21.6698 29.9897 21.745 29.8131 21.876 29.6821C22.007 29.5511 22.1836 29.4759 22.3688 29.4723C22.5552 29.4723 22.7339 29.5463 22.8657 29.6781C22.9975 29.8099 23.0715 29.9886 23.0715 30.175V32.9856C23.0576 33.1596 22.9793 33.3223 22.852 33.4418C22.7247 33.5613 22.5575 33.6291 22.3829 33.632Z" fill="black"/>
<path d="M43.6828 13.0123C43.7229 12.9625 43.7743 12.8988 43.8211 12.8334C45.3494 10.715 48.0429 10.0293 50.3577 11.1775L50.3603 11.1788C52.7859 12.3732 53.9472 15.2852 52.7975 17.8645L52.7972 17.8651C52.1301 19.3643 51.1074 20.641 49.8824 21.845L49.8821 21.8453C47.7995 23.8941 45.425 25.5917 42.8801 27.0997C41.3616 26.1867 39.9024 25.2068 38.5166 24.1194C36.876 22.8299 35.3787 21.4853 34.1713 19.8803C33.3284 18.7539 32.7226 17.6433 32.5384 16.3845L32.5384 16.3845L32.5373 16.3772C32.5109 16.2056 32.4873 16.0513 32.4688 15.9012V15.9007V15.9001V15.8995V15.8989V15.8983V15.8977V15.8971V15.8965V15.8958V15.8952V15.8946V15.894V15.8934V15.8928V15.8922V15.8916V15.8909V15.8903V15.8897V15.8891V15.8885V15.8879V15.8873V15.8867V15.886V15.8854V15.8848V15.8842V15.8836V15.883V15.8824V15.8817V15.8811V15.8805V15.8799V15.8793V15.8787V15.8781V15.8774V15.8768V15.8762V15.8756V15.875V15.8744V15.8737V15.8731V15.8725V15.8719V15.8713V15.8707V15.8701V15.8694V15.8688V15.8682V15.8676V15.867V15.8664V15.8657V15.8651V15.8645V15.8639V15.8633V15.8627V15.862V15.8614V15.8608V15.8602V15.8596V15.859V15.8583V15.8577V15.8571V15.8565V15.8559V15.8553V15.8546V15.854V15.8534V15.8528V15.8522V15.8516V15.8509V15.8503V15.8497V15.8491V15.8485V15.8479V15.8472V15.8466V15.846V15.8454V15.8448V15.8441V15.8435V15.8429V15.8423V15.8417V15.8411V15.8404V15.8398V15.8392V15.8386V15.838V15.8373V15.8367V15.8361V15.8355V15.8349V15.8343V15.8336V15.833V15.8324V15.8318V15.8312V15.8305V15.8299V15.8293V15.8287V15.8281V15.8274V15.8268V15.8262V15.8256V15.825V15.8244V15.8237V15.8231V15.8225V15.8219V15.8213V15.8206V15.82V15.8194V15.8188V15.8182V15.8175V15.8169V15.8163V15.8157V15.8151V15.8144V15.8138V15.8132V15.8126V15.812V15.8113V15.8107V15.8101V15.8095V15.8089V15.8083V15.8076V15.807V15.8064V15.8058V15.8052V15.8045V15.8039V15.8033V15.8027V15.8021V15.8014V15.8008V15.8002V15.7996V15.799V15.7983V15.7977V15.7971V15.7965V15.7959V15.7952V15.7946V15.794V15.7934V15.7928V15.7921V15.7915V15.7909V15.7903V15.7897V15.7891V15.7884V15.7878V15.7872V15.7866V15.786V15.7853V15.7847V15.7841V15.7835V15.7829V15.7822V15.7816V15.781V15.7804V15.7798V15.7791V15.7785V15.7779V15.7773V15.7767V15.7761V15.7754V15.7748V15.7742V15.7736V15.773V15.7723V15.7717V15.7711V15.7705V15.7699V15.7692V15.7686V15.768V15.7674V15.7668V15.7662V15.7655V15.7649V15.7643V15.7637V15.7631V15.7625V15.7618V15.7612V15.7606V15.76V15.7594V15.7587V15.7581V15.7575V15.7569V15.7563V15.7557V15.755V15.7544V15.7538V15.7532V15.7526V15.752V15.7513V15.7507V15.7501V15.7495V15.7489V15.7483V15.7476V15.747V15.7464V15.7458V15.7452V15.7446V15.7439V15.7433V15.7427V15.7421V15.7415V15.7409V15.7408C32.4718 15.7257 32.4753 15.7084 32.4781 15.6939C32.4896 15.6341 32.509 15.5262 32.5121 15.3973C32.5445 14.8106 32.6661 14.2786 32.8963 13.7957L32.8963 13.7957L32.8979 13.7923C33.3898 12.7503 34.022 11.9912 34.7758 11.4822C35.5269 10.9751 36.4541 10.6789 37.5984 10.647L37.601 10.647C39.4041 10.5921 40.8167 11.3289 41.9218 12.817L41.9218 12.817L41.9247 12.8208C41.9761 12.8894 42.0338 12.9635 42.0969 13.0424L42.8778 14.0185L43.6586 13.0424C43.6661 13.0331 43.6742 13.023 43.6828 13.0123Z" stroke="black" stroke-width="2"/>
</svg>
