<svg width="60" height="60" viewBox="0 0 60 60" fill="none" xmlns="http://www.w3.org/2000/svg">
<mask id="path-1-inside-1_795_17001" fill="white">
<path fill-rule="evenodd" clip-rule="evenodd" d="M0 0H60L60 29.0667H52.2V30.9333H60L60 60H0V30.9332H7.8V29.0665H0V0Z"/>
</mask>
<path d="M60 0L61 1.3124e-07V-1H60V0ZM0 0V-1H-1V0H0ZM60 29.0667V30.0667H61V29.0667H60ZM52.2 29.0667V28.0667H51.2V29.0667H52.2ZM52.2 30.9333H51.2V31.9333H52.2V30.9333ZM60 30.9333H61V29.9333H60V30.9333ZM60 60V61H61V60H60ZM0 60H-1V61H0V60ZM0 30.9332V29.9332H-1V30.9332H0ZM7.8 30.9332V31.9332H8.8V30.9332H7.8ZM7.8 29.0665H8.8V28.0665H7.8V29.0665ZM0 29.0665H-1V30.0665H0V29.0665ZM60 -1H0V1H60V-1ZM61 29.0667L61 1.3124e-07L59 -1.3124e-07L59 29.0667H61ZM52.2 30.0667H60V28.0667H52.2V30.0667ZM53.2 30.9333V29.0667H51.2V30.9333H53.2ZM60 29.9333H52.2V31.9333H60V29.9333ZM61 60L61 30.9333H59L59 60H61ZM0 61H60V59H0V61ZM-1 30.9332V60H1V30.9332H-1ZM7.8 29.9332H0V31.9332H7.8V29.9332ZM6.8 29.0665V30.9332H8.8V29.0665H6.8ZM0 30.0665H7.8V28.0665H0V30.0665ZM-1 0V29.0665H1V0H-1Z" fill="#F2994A" mask="url(#path-1-inside-1_795_17001)"/>
<path d="M12.985 29.8031C13.1625 29.4036 13.4111 29.0751 13.8816 29.013C14.5474 28.9153 15.0978 29.3947 15.1067 30.0872C15.1244 31.4898 15.2842 32.8747 15.7104 34.2152C17.3261 39.3376 20.6818 42.7999 25.8308 44.3268C33.1193 46.4841 40.612 42.8975 43.6748 35.9286C46.3647 29.8208 44.4471 22.3992 39.1206 18.3066C37.0166 16.6909 34.6551 15.6788 32.0185 15.3149C31.3527 15.2261 30.9177 14.7023 31.0064 14.1075C31.1041 13.4772 31.6456 13.0866 32.3203 13.2109C39.4313 14.4626 44.2252 18.4842 46.3203 25.3998C49.0546 34.4283 43.5593 44.0516 34.4421 46.4752C33.6076 46.6971 32.7465 46.8036 31.9031 46.9634C31.8409 46.9723 31.7788 46.999 31.7167 47.0256C30.5626 47.0256 29.4174 47.0256 28.2633 47.0256C28.21 47.0078 28.1656 46.9723 28.1124 46.9723C26.4434 46.7948 24.8188 46.3953 23.2918 45.6939C17.8055 43.2082 14.4498 39.0091 13.2513 33.1055C13.1181 32.4575 13.0649 31.8005 12.9761 31.1436C12.985 30.6908 12.985 30.247 12.985 29.8031Z" fill="black"/>
<path d="M12.9849 24.1569C13.6418 22.6122 14.8136 21.4936 16.0743 20.455C16.8555 19.8158 17.6367 19.1855 18.4091 18.5374C18.9595 18.0846 19.137 17.481 19.1104 16.7885C19.0838 16.1582 18.7997 15.6877 18.2581 15.377C17.5923 15.0041 16.891 14.942 16.1719 15.1994C15.444 15.4569 15.1244 15.9984 15.151 16.8329C15.1776 17.4632 14.9113 17.8805 14.3964 18.0491C13.7838 18.2356 13.1269 17.8183 13.047 17.188C12.7452 14.8976 14.4319 13.0067 16.749 12.98C17.6545 12.9712 18.5067 13.0688 19.3057 13.5304C20.8504 14.4182 21.534 16.1138 21.1256 17.9959C20.9037 19.0168 20.2822 19.7625 19.5188 20.4106C18.6843 21.1208 17.8143 21.7955 16.9709 22.4879C16.6957 22.7099 16.4471 22.9584 16.2163 23.278C16.3317 23.278 16.4382 23.278 16.5537 23.278C17.8853 23.278 19.208 23.278 20.5397 23.2869C21.0368 23.2869 21.4274 23.5976 21.5517 24.0504C21.6849 24.5031 21.5162 24.9914 21.099 25.2311C20.9037 25.3376 20.664 25.4086 20.442 25.4086C18.3469 25.4175 16.2607 25.4175 14.1656 25.4175C13.5264 25.4175 13.1713 25.0713 12.9849 24.5031C12.9849 24.3788 12.9849 24.2634 12.9849 24.1569Z" fill="black"/>
<path d="M28.8225 20.3485C29.9677 20.4817 30.3849 20.7835 30.3849 21.4493C30.3761 22.124 29.9411 22.4347 28.8225 22.5235C28.8225 22.7454 28.8225 22.9674 28.8225 23.1893C28.8225 23.5622 28.8314 23.9439 28.8225 24.3168C28.8047 24.9293 28.3609 25.3821 27.7838 25.391C27.2156 25.3998 26.7363 24.956 26.7096 24.3434C26.683 23.8285 26.7007 23.3047 26.7007 22.781C26.7007 22.6922 26.683 22.6123 26.6741 22.488C26.541 22.488 26.4255 22.488 26.3013 22.488C24.7388 22.488 23.1763 22.488 21.6228 22.488C21.1434 22.488 20.7794 22.3104 20.5752 21.8754C20.3799 21.4582 20.4598 21.0587 20.7616 20.7036C22.8124 18.2534 24.8808 15.8121 26.9138 13.3441C27.3754 12.7848 28.5562 12.8381 28.7692 13.6548C28.8136 13.8324 28.8225 14.0277 28.8225 14.2141C28.8225 16.1139 28.8225 18.0226 28.8225 19.9224C28.8225 20.0644 28.8225 20.1976 28.8225 20.3485ZM26.683 16.9484C25.6976 18.1202 24.7832 19.221 23.8333 20.3485C24.8187 20.3485 25.7508 20.3485 26.683 20.3485C26.683 19.2299 26.683 18.138 26.683 16.9484Z" fill="black"/>
<path d="M21.2233 37.4468C20.815 37.4379 20.4954 37.2604 20.3001 36.8964C20.0959 36.5235 20.1136 36.1507 20.3533 35.7956C20.4155 35.7068 20.4954 35.6269 20.5664 35.547C25.7243 30.3891 30.8821 25.2312 36.04 20.0645C36.3063 19.7981 36.5993 19.6295 36.981 19.665C37.416 19.7094 37.7268 19.9402 37.8866 20.3486C38.0375 20.7569 37.9665 21.1387 37.6557 21.4583C37.1231 22.0087 36.5816 22.5413 36.04 23.0829C31.4059 27.717 26.7718 32.3511 22.1377 36.9851C21.8803 37.2515 21.6139 37.4645 21.2233 37.4468Z" fill="black"/>
<path d="M37.6464 30.8063C37.3712 30.8063 37.1582 30.8063 36.954 30.8063C35.8265 30.8063 34.6991 30.8152 33.5627 30.8063C32.9502 30.8063 32.4974 30.3624 32.4797 29.7765C32.4619 29.1817 32.9147 28.7201 33.5361 28.6846C33.5805 28.6846 33.6249 28.6846 33.6693 28.6846C35.5957 28.6846 37.5221 28.6846 39.4486 28.6846C39.9013 28.6846 40.2831 28.8266 40.505 29.235C40.727 29.6434 40.6648 30.0428 40.4162 30.4246C38.2501 33.8069 36.084 37.1804 33.9178 40.5628C33.6604 40.9623 33.323 41.1931 32.8437 41.1309C32.3998 41.0777 32.0891 40.8291 31.9559 40.3941C31.8316 40.0124 31.9559 39.6839 32.1601 39.3643C33.8912 36.6744 35.6135 33.9845 37.3357 31.2946C37.4334 31.1525 37.5221 31.0194 37.6464 30.8063Z" fill="black"/>
<path d="M26.6832 16.9484C26.6832 18.138 26.6832 19.2299 26.6832 20.3485C25.7511 20.3485 24.8189 20.3485 23.8335 20.3485C24.7834 19.221 25.6978 18.1202 26.6832 16.9484Z" fill="white"/>
</svg>
