<svg width="60" height="60" viewBox="0 0 60 60" fill="none" xmlns="http://www.w3.org/2000/svg">
<mask id="path-1-inside-1_795_16949" fill="white">
<path fill-rule="evenodd" clip-rule="evenodd" d="M0 0H60L60 29.0667H52.2V30.9333H60L60 60H0V30.9332H7.8V29.0665H0V0Z"/>
</mask>
<path d="M60 0L61 1.3124e-07V-1H60V0ZM0 0V-1H-1V0H0ZM60 29.0667V30.0667H61V29.0667H60ZM52.2 29.0667V28.0667H51.2V29.0667H52.2ZM52.2 30.9333H51.2V31.9333H52.2V30.9333ZM60 30.9333H61V29.9333H60V30.9333ZM60 60V61H61V60H60ZM0 60H-1V61H0V60ZM0 30.9332V29.9332H-1V30.9332H0ZM7.8 30.9332V31.9332H8.8V30.9332H7.8ZM7.8 29.0665H8.8V28.0665H7.8V29.0665ZM0 29.0665H-1V30.0665H0V29.0665ZM60 -1H0V1H60V-1ZM61 29.0667L61 1.3124e-07L59 -1.3124e-07L59 29.0667H61ZM52.2 30.0667H60V28.0667H52.2V30.0667ZM53.2 30.9333V29.0667H51.2V30.9333H53.2ZM60 29.9333H52.2V31.9333H60V29.9333ZM61 60L61 30.9333H59L59 60H61ZM0 61H60V59H0V61ZM-1 30.9332V60H1V30.9332H-1ZM7.8 29.9332H0V31.9332H7.8V29.9332ZM6.8 29.0665V30.9332H8.8V29.0665H6.8ZM0 30.0665H7.8V28.0665H0V30.0665ZM-1 0V29.0665H1V0H-1Z" fill="#F2994A" mask="url(#path-1-inside-1_795_16949)"/>
<path d="M6.99414 21.1806C7.4383 19.8961 8.44665 19.2599 9.67107 18.8998C11.7838 18.2876 13.8725 18.3236 15.9012 19.2119C16.3094 19.392 16.6935 19.6561 17.0176 19.9562C17.9059 20.7844 18.002 21.7808 17.3417 22.9572C17.4858 23.0292 17.6178 23.1013 17.7619 23.1733C19.9346 24.2056 22.1074 25.238 24.2802 26.2824C24.6283 26.4504 24.9284 26.5224 25.2885 26.3184C25.5406 26.1743 25.8527 26.1143 26.2008 25.9943C26.0688 25.8142 25.9487 25.6461 25.8287 25.4901C24.7963 24.0856 23.848 22.6331 23.3198 20.9525C22.0834 17.0271 24.7243 12.7657 28.7937 12.1174C33.3073 11.3972 37.2087 14.8544 37.0046 19.404C36.9566 20.5324 36.5844 21.5887 36.0442 22.5491C35.468 23.5574 34.8078 24.5297 34.1836 25.5141C34.0756 25.6701 33.9555 25.8262 33.8355 25.9943C34.2076 26.0183 41.9383 20.7844 43.991 19.1399C43.931 19.0678 43.871 18.9838 43.811 18.9118C42.8506 17.8674 42.9346 16.607 44.039 15.6947C44.8313 15.0465 45.7556 14.7343 46.752 14.5903C48.1805 14.3862 49.597 14.4462 50.9414 14.9864C51.3496 15.1545 51.7577 15.3826 52.0938 15.6587C53.3303 16.679 53.3063 18.1915 52.0458 19.1879C51.1335 19.9081 50.0411 20.2203 48.9127 20.2563C47.9884 20.2803 47.0641 20.1482 46.1518 20.1002C45.9837 20.0882 45.7916 20.1002 45.6596 20.1962C42.4665 22.405 39.2734 24.6378 36.0322 26.8946C37.1366 27.6148 38.0369 28.4791 38.097 29.8716C38.157 31.2641 37.3287 32.1764 36.2363 32.9447C36.3444 33.0287 36.4284 33.1007 36.5244 33.1608C38.337 34.3492 40.1497 35.5496 41.9743 36.726C42.1544 36.846 42.4545 36.882 42.6706 36.834C44.7953 36.3659 46.896 36.3899 48.9127 37.2902C49.4649 37.5423 49.9931 37.9504 50.4012 38.4066C51.2415 39.3429 51.1815 40.5913 50.3292 41.5397C49.5489 42.404 48.5286 42.8121 47.4362 43.0402C45.5876 43.4363 43.7389 43.4123 41.9503 42.7281C41.3501 42.5 40.7499 42.1639 40.2577 41.7437C39.0453 40.7114 39.0333 39.2589 40.1617 38.1305C40.2337 38.0585 40.3297 38.0104 40.4498 37.9144C40.2697 37.7824 40.1617 37.6983 40.0416 37.6143C38.241 36.4379 36.4284 35.2615 34.6398 34.0611C34.3757 33.881 34.1596 33.869 33.8595 33.941C30.7384 34.7573 27.6653 34.6733 24.6883 33.3768C23.932 33.0407 23.2478 32.5846 22.7076 31.9363C21.6873 30.6999 21.6873 29.2474 22.7076 28.011C22.7916 27.9029 22.8877 27.8069 23.0077 27.6748C22.8757 27.6028 22.7556 27.5308 22.6236 27.4708C20.4268 26.4264 18.2301 25.37 16.0093 24.3497C15.8172 24.2537 15.5171 24.2657 15.313 24.3257C13.2003 24.9979 11.1236 24.9259 9.07086 24.1216C8.09853 23.7375 7.35427 23.1013 7.00614 22.0809C6.99414 21.7808 6.99414 21.4807 6.99414 21.1806ZM29.9821 27.7829C30.7504 26.8586 31.4587 26.0423 32.1429 25.19C33.1032 24.0016 33.9795 22.7531 34.6278 21.3606C35.1079 20.3283 35.384 19.2479 35.1439 18.0955C34.7118 16.0428 33.5114 14.6383 31.5187 14.0381C29.466 13.4139 27.6173 13.9301 26.1768 15.5266C24.7723 17.0752 24.3762 18.8998 25.2165 20.8445C25.6846 21.9128 26.2849 22.9572 26.9571 23.9175C27.8694 25.238 28.9258 26.4624 29.9821 27.7829ZM29.9581 32.6926C31.3266 32.6686 32.6711 32.5485 33.9315 32.0444C34.5917 31.7803 35.252 31.3961 35.7922 30.94C36.4644 30.3638 36.4044 29.5955 35.7682 28.9833C35.5281 28.7552 35.264 28.5391 34.9639 28.4191C34.2916 28.131 33.5954 27.9149 32.9112 27.6508C32.6471 27.5428 32.479 27.6028 32.2989 27.8309C31.8068 28.4191 31.3026 28.9833 30.7984 29.5595C30.2702 30.1597 29.7301 30.1717 29.2139 29.5715C28.6977 28.9953 28.1935 28.3951 27.6773 27.8189C27.5933 27.7229 27.4252 27.5788 27.3292 27.6028C26.2248 27.8789 25.1204 28.167 24.2561 28.9713C23.5959 29.5835 23.5479 30.3638 24.2321 30.964C24.7003 31.3841 25.2765 31.7202 25.8527 31.9723C27.1612 32.5125 28.5656 32.6566 29.9581 32.6926ZM44.7593 41.4916C46.3438 41.4916 47.5202 41.2516 48.3005 40.8314C48.6846 40.6274 49.1528 40.4233 49.1648 39.9431C49.1768 39.4269 48.6967 39.1989 48.2885 39.0188C46.1878 38.1065 44.087 38.1065 41.9863 39.0188C41.6022 39.1868 41.134 39.4029 41.134 39.9071C41.122 40.4353 41.6142 40.6394 41.9983 40.8314C42.9827 41.3356 44.051 41.4796 44.7593 41.4916ZM12.42 20.2803C11.4117 20.2923 10.4273 20.4003 9.53903 20.9045C9.25093 21.0725 8.85479 21.3847 8.85479 21.6247C8.85479 21.8648 9.23892 22.2129 9.53903 22.345C11.4597 23.2213 13.3924 23.2213 15.301 22.321C15.5771 22.1889 15.9132 21.8648 15.9373 21.6007C15.9613 21.3967 15.5771 21.0845 15.313 20.9285C14.4127 20.4123 13.4164 20.2923 12.42 20.2803ZM48.0724 16.2829C47.1481 16.3069 46.2598 16.4149 45.4435 16.8831C44.7953 17.2552 44.7713 17.6033 45.4315 17.9154C47.1841 18.7798 48.9727 18.7798 50.7374 17.9154C51.3976 17.5913 51.3736 17.2552 50.7254 16.8831C49.8971 16.4029 48.9968 16.2949 48.0724 16.2829Z" fill="black"/>
<path d="M21.3866 41.3716C21.9147 41.7317 22.4549 42.0078 22.8991 42.392C24.2196 43.5204 24.2316 45.1169 22.9591 46.2933C21.9628 47.2177 20.7263 47.6138 19.4299 47.8179C17.3051 48.142 15.2164 48.0219 13.2597 47.0016C12.7556 46.7375 12.2754 46.3534 11.9033 45.9212C11.027 44.9129 11.099 43.6164 12.0233 42.6321C12.7916 41.8278 13.7879 41.4196 14.8443 41.1315C16.2008 40.7594 17.5812 40.6514 18.9857 40.8554C19.2858 40.9035 19.4779 40.8314 19.682 40.5914C20.1141 40.0512 20.5703 39.535 21.0264 39.0188C21.4346 38.5506 21.9628 38.4906 22.3709 38.8507C22.755 39.1869 22.767 39.7151 22.3949 40.1712C22.0588 40.5914 21.7107 40.9755 21.3866 41.3716ZM17.6173 46.2333C18.3735 46.1133 19.1418 46.0653 19.862 45.8612C20.4863 45.6811 21.0985 45.393 21.6266 45.0329C22.2509 44.6248 22.2389 44.1566 21.6507 43.7004C21.3506 43.4604 21.0024 43.2563 20.6543 43.1242C18.6976 42.392 16.7049 42.38 14.7242 43.0522C14.4001 43.1602 14.088 43.3163 13.7999 43.5084C12.8756 44.0966 12.8876 44.6728 13.8119 45.261C14.052 45.417 14.3041 45.5371 14.5682 45.6451C15.5525 46.0172 16.5729 46.1733 17.6173 46.2333Z" fill="black"/>
<path d="M25.3123 36.45C25.3123 36.9541 24.9162 37.3503 24.4 37.3503C23.8958 37.3503 23.5237 36.9781 23.5237 36.474C23.5117 35.9818 23.9318 35.5496 24.424 35.5616C24.9042 35.5736 25.3123 35.9818 25.3123 36.45Z" fill="black"/>
<path d="M33.0792 19.0439C33.0672 20.7365 31.7108 22.105 30.0302 22.105C28.2536 22.105 26.9331 20.7845 26.9331 19.0199C26.9331 17.2553 28.2776 15.9468 30.0542 15.9588C31.7348 15.9588 33.0912 17.3513 33.0792 19.0439ZM29.9822 17.7594C29.2739 17.7715 28.7217 18.3357 28.7217 19.0559C28.7337 19.7641 29.2979 20.3163 30.0182 20.3043C30.7504 20.2923 31.2666 19.7521 31.2666 19.0079C31.2666 18.2756 30.7264 17.7474 29.9822 17.7594Z" fill="black"/>
</svg>
