<svg width="60" height="60" viewBox="0 0 60 60" fill="none" xmlns="http://www.w3.org/2000/svg">
<mask id="path-1-inside-1_795_16991" fill="white">
<path fill-rule="evenodd" clip-rule="evenodd" d="M0 0H60L60 29.0667H52.2V30.9333H60L60 60H0V30.9332H7.8V29.0665H0V0Z"/>
</mask>
<path d="M60 0L61 1.3124e-07V-1H60V0ZM0 0V-1H-1V0H0ZM60 29.0667V30.0667H61V29.0667H60ZM52.2 29.0667V28.0667H51.2V29.0667H52.2ZM52.2 30.9333H51.2V31.9333H52.2V30.9333ZM60 30.9333H61V29.9333H60V30.9333ZM60 60V61H61V60H60ZM0 60H-1V61H0V60ZM0 30.9332V29.9332H-1V30.9332H0ZM7.8 30.9332V31.9332H8.8V30.9332H7.8ZM7.8 29.0665H8.8V28.0665H7.8V29.0665ZM0 29.0665H-1V30.0665H0V29.0665ZM60 -1H0V1H60V-1ZM61 29.0667L61 1.3124e-07L59 -1.3124e-07L59 29.0667H61ZM52.2 30.0667H60V28.0667H52.2V30.0667ZM53.2 30.9333V29.0667H51.2V30.9333H53.2ZM60 29.9333H52.2V31.9333H60V29.9333ZM61 60L61 30.9333H59L59 60H61ZM0 61H60V59H0V61ZM-1 30.9332V60H1V30.9332H-1ZM7.8 29.9332H0V31.9332H7.8V29.9332ZM6.8 29.0665V30.9332H8.8V29.0665H6.8ZM0 30.0665H7.8V28.0665H0V30.0665ZM-1 0V29.0665H1V0H-1Z" fill="#F2994A" mask="url(#path-1-inside-1_795_16991)"/>
<path d="M47.2691 51.95C46.7881 51.95 46.2956 51.95 45.8146 51.95C45.7344 51.9271 45.6542 51.8928 45.5741 51.8699C43.1804 51.4805 41.4166 50.2206 40.2713 48.0904C40.1109 47.7926 39.9621 47.6895 39.6299 47.6895C33.1017 47.701 26.562 47.701 20.0337 47.6895C19.713 47.6895 19.5298 47.7926 19.3466 48.056C17.9836 49.9343 16.1282 50.7933 13.8376 50.4497C11.5012 50.0946 9.96649 48.6745 9.24495 46.4182C9.15333 46.1548 9.09606 45.8799 9.02734 45.605C9.02734 45.1469 9.02734 44.6888 9.02734 44.2307C9.05025 44.1391 9.08461 44.0474 9.10751 43.9444C9.47401 41.963 10.585 40.5313 12.406 39.6953C12.9099 39.4662 13.4711 39.3517 14.0209 39.1799C13.9751 39.0997 13.9407 39.031 13.9063 38.9508C11.4898 34.9995 10.6193 30.7161 11.4439 26.1692C12.6236 19.7326 16.2886 15.1743 22.2098 12.4255C24.2141 11.4978 26.3444 11.0397 28.5434 10.9137C28.761 10.9023 28.9213 10.8908 29.0129 10.6045C29.5283 8.9667 30.8454 8.02755 32.5519 8.05046C34.8425 8.07336 37.053 8.50858 39.1947 9.34465C46.1467 12.059 50.8768 19.0339 50.7967 26.467C50.7852 27.8757 50.1095 28.9179 48.884 29.5822C48.5977 29.7426 48.2884 29.8342 47.9563 29.9602C47.8418 32.6974 47.166 35.3087 45.8947 37.7826C46.1238 37.7826 46.2842 37.7826 46.433 37.7826C48.9527 37.7826 50.8883 38.8477 52.3772 40.8635C52.9956 41.6881 52.9727 42.57 52.8926 43.5091C50.7738 43.2801 48.6778 43.051 46.5705 42.8105C46.33 42.7876 46.2154 42.8334 46.1124 43.051C45.8375 43.658 45.3106 44.2536 45.2992 44.8606C45.2877 45.4332 45.8146 46.0059 46.078 46.59C46.1925 46.8305 46.3185 46.9221 46.5934 46.8878C47.796 46.7389 49.01 46.6129 50.2126 46.4869C51.1059 46.3953 51.9878 46.2922 52.9727 46.1891C52.9155 46.8534 53.0186 47.5521 52.7666 48.0789C51.9992 49.7281 50.6936 50.862 48.9871 51.4919C48.4488 51.7095 47.8532 51.8012 47.2691 51.95ZM51.3579 41.9286C51.1975 41.6996 51.0944 41.5278 50.9685 41.3789C49.6055 39.6953 47.8303 38.9508 45.7 39.283C43.5698 39.6036 42.0694 40.8291 41.2906 42.8449C41.0959 43.3488 40.8669 43.4748 40.3515 43.4748C33.3651 43.4519 26.3787 43.4519 19.3924 43.4748C18.8999 43.4748 18.6479 43.3602 18.4189 42.9021C17.4453 40.978 15.1547 40.1419 13.1504 40.9093C11.1691 41.6766 10.0581 43.7955 10.5506 45.8799C10.9629 47.6093 12.4175 48.8806 14.2499 49.0982C15.9335 49.3044 17.6744 48.3538 18.4647 46.7504C18.6479 46.3839 18.8541 46.2808 19.2435 46.2808C26.2986 46.2922 33.3651 46.2922 40.4202 46.2808C40.8898 46.2808 41.0959 46.3953 41.2677 46.8534C42.3558 49.7396 45.471 51.217 48.3457 50.2435C49.6055 49.8198 50.579 49.0295 51.3235 47.8269C51.0715 47.8498 50.8883 47.8613 50.705 47.8842C49.0558 48.0675 47.418 48.2507 45.7688 48.4454C45.5397 48.4683 45.3794 48.4339 45.2648 48.1934C44.7723 47.1627 44.2455 46.1548 43.753 45.124C43.6958 44.998 43.6958 44.7804 43.753 44.6544C44.2455 43.6237 44.7723 42.6158 45.2763 41.585C45.3794 41.3674 45.5053 41.2987 45.7344 41.3331C46.6507 41.4476 47.5783 41.5392 48.506 41.6423C49.4337 41.7225 50.35 41.8255 51.3579 41.9286ZM29.5741 39.1913C35.0372 39.1913 39.481 34.759 39.481 29.3073C39.481 23.8328 35.0372 19.3661 29.5627 19.3775C24.0881 19.3775 19.6443 23.8442 19.6558 29.3188C19.6672 34.7819 24.0996 39.2028 29.5741 39.1913ZM40.0308 11.2688C39.5383 11.7956 39.0687 12.2881 38.5877 12.792C38.2326 12.437 37.912 12.1163 37.4767 11.6811C37.8661 11.3489 38.2556 11.0168 38.6679 10.6618C36.7437 9.91731 34.8311 9.505 32.8841 9.48209C38.3815 14.9796 43.879 20.477 49.3765 25.9745C49.3421 24.0046 48.9413 22.0805 48.151 20.0762C47.7616 20.5343 47.4409 20.9122 47.1431 21.2558C46.7537 20.8893 46.4216 20.5801 46.0436 20.2251C46.559 19.744 47.063 19.2745 47.5783 18.782C47.3035 18.3009 47.0286 17.8428 46.6965 17.2587C46.0436 17.9115 45.471 18.4957 44.9327 19.0454C44.6349 18.7591 44.3257 18.4498 43.9363 18.0833C44.6005 17.442 45.2534 16.8006 45.9291 16.1478C45.5855 15.7355 45.2648 15.3575 44.8869 14.8994C44.1997 15.6209 43.524 16.3196 42.9055 16.9609C42.5275 16.6173 42.1954 16.3081 41.7831 15.9416C42.4932 15.2659 43.1804 14.6131 43.9019 13.9259C43.4781 13.5708 43.0887 13.2501 42.6764 12.9066C42.0122 13.5823 41.3708 14.2351 40.7523 14.8765C40.3973 14.5329 40.0766 14.2237 39.6757 13.8228C40.2598 13.2501 40.8669 12.6775 41.4853 12.0705C40.9928 11.8185 40.5462 11.5665 40.0308 11.2688ZM18.2585 28.6087C18.4418 26.0432 19.3695 23.7984 21.076 21.7941C20.5377 21.5078 20.0681 21.1986 19.5527 21.0039C17.8347 20.351 16.1855 20.7405 14.5821 21.462C14.4675 21.5078 14.3874 21.6567 14.3187 21.7827C13.0474 24.3367 12.4633 27.0511 12.5663 29.8914C12.5892 30.6473 12.7038 31.3918 12.7725 32.1477C14.1125 30.132 15.8305 28.8721 18.2585 28.6087ZM22.0609 20.8206C24.0079 19.1141 26.2527 18.1979 28.7953 17.9803C28.6693 16.7891 28.2227 15.8156 27.4439 14.991C26.688 14.1778 25.7603 13.6396 24.7295 13.2501C24.5233 13.17 24.2485 13.1585 24.0423 13.2272C21.1561 14.2237 18.7166 15.8729 16.7238 18.175C16.3688 18.5873 16.0366 19.0339 15.6243 19.5493C18.0409 18.9652 20.1597 19.2859 22.0609 20.8206ZM45.0129 28.036C43.9019 29.1241 42.6077 29.7655 41.0959 29.9373C40.9928 29.9487 40.8783 30.1549 40.8439 30.2808C40.6607 31.1169 40.5462 31.9644 40.3057 32.7891C39.8704 34.2551 39.0916 35.5493 38.0265 36.7976C38.6106 37.0954 39.126 37.4276 39.6986 37.6223C41.2677 38.1835 42.791 37.8628 44.2684 37.2329C44.486 37.1412 44.7265 36.9236 44.8296 36.706C45.8833 34.5528 46.4559 32.2737 46.5247 29.8685C46.5247 29.7311 46.5132 29.5593 46.433 29.4791C45.9864 28.9867 45.5053 28.5171 45.0129 28.036ZM18.2585 29.9945C17.7088 30.1549 17.1934 30.2579 16.7238 30.4641C15.0173 31.22 14.0781 32.6631 13.4368 34.3352C13.391 34.4498 13.4368 34.6101 13.4711 34.7475C13.9865 36.3166 14.731 37.7711 15.7045 39.1112C15.819 39.26 16.0252 39.3746 16.2199 39.4318C17.3881 39.7869 18.3616 40.4283 19.1289 41.3789C19.2549 41.5392 19.3809 41.711 19.5756 41.9744C19.3809 39.9701 19.8734 38.298 21.0874 36.8205C19.4267 34.8735 18.4761 32.6402 18.2585 29.9945ZM48.8725 27.8184C42.917 21.8629 36.9843 15.9187 31.0172 9.96312C30.9027 10.112 30.7194 10.2838 30.5935 10.4785C30.1926 11.0855 30.2155 11.2459 30.7194 11.7498C33.9721 15.0025 37.2248 18.2551 40.4774 21.5078C42.7452 23.7755 45.0014 26.0318 47.2691 28.288C47.3951 28.414 47.6242 28.5285 47.773 28.4942C48.2541 28.4025 48.6549 28.1506 48.8725 27.8184ZM30.2384 17.9803C33.0673 18.2093 35.5183 19.263 37.5226 21.2558C39.5383 23.2487 40.6263 25.6996 40.8669 28.54C42.1038 28.3911 43.1346 27.9101 43.9821 27.0511C43.9477 26.9938 43.9248 26.9595 43.8905 26.9251C39.0802 22.1148 34.2699 17.3045 29.4596 12.5057C29.3794 12.4255 29.242 12.3224 29.1389 12.3339C28.3372 12.3797 27.5355 12.437 26.7338 12.5057C26.7223 12.5515 26.7109 12.5859 26.6994 12.6317C27.65 13.2158 28.4746 13.9144 29.1046 14.8307C29.7574 15.7584 30.1124 16.8006 30.2384 17.9803ZM37.0415 37.7826C36.0909 38.6072 35.0716 39.3173 33.9148 39.7296C32.7581 40.1305 31.5555 40.4053 30.3186 40.7489C30.3873 41.0238 30.4789 41.3789 30.5591 41.7339C30.6164 41.963 30.7423 42.0431 30.9829 42.0431C33.9148 42.0317 36.8354 42.0431 39.7674 42.0317C39.9162 42.0317 40.1224 41.9057 40.1911 41.7797C40.6607 40.8749 41.2677 40.0961 42.0465 39.4547C42.0923 39.4204 42.1152 39.3631 42.161 39.2944C40.3629 39.4204 38.8626 39.1341 37.0415 37.7826ZM22.0266 37.9086C21.1218 39.0768 20.7782 40.4512 21.0302 41.9973C23.756 41.9973 26.436 41.9973 29.1275 41.9973C29.0473 41.6079 28.9557 41.2643 28.9328 40.9093C28.9099 40.623 28.7839 40.5657 28.5319 40.5428C27.3179 40.4512 26.1268 40.1877 25.0387 39.638C24.0079 39.1341 23.0459 38.5041 22.0266 37.9086Z" fill="black" stroke="black" stroke-width="0.3"/>
<path d="M14.6963 47.6896C13.1387 47.6896 11.856 46.4297 11.856 44.8721C11.856 43.3145 13.1387 42.0317 14.6849 42.0317C16.2425 42.0317 17.5138 43.303 17.5138 44.8606C17.5252 46.4297 16.2654 47.6896 14.6963 47.6896ZM13.2876 44.8606C13.2876 45.6395 13.9061 46.2808 14.6849 46.2923C15.4522 46.2923 16.105 45.6624 16.1165 44.8836C16.1279 44.1047 15.4866 43.4634 14.7078 43.4634C13.9175 43.4519 13.2876 44.0704 13.2876 44.8606Z" fill="black" stroke="black" stroke-width="0.3"/>
<path d="M38.0608 29.3074C38.0379 34.0031 34.2125 37.8055 29.5282 37.7941C24.8554 37.7826 21.0186 33.9115 21.053 29.2615C21.0873 24.5543 24.9012 20.7863 29.5969 20.8092C34.2927 20.8321 38.0837 24.646 38.0608 29.3074ZM29.5626 36.3624C33.4795 36.3624 36.6406 33.1899 36.6406 29.273C36.6406 25.3904 33.4681 22.2065 29.5855 22.195C25.68 22.1836 22.496 25.3561 22.4846 29.273C22.4846 33.1899 25.6456 36.3624 29.5626 36.3624Z" fill="black" stroke="black" stroke-width="0.3"/>
<path d="M31.9908 30.7505C32.5291 31.2544 33.0559 31.7583 33.6171 32.2966C33.2392 32.6173 32.8956 32.9151 32.4833 33.2587C32.1168 32.8807 31.6701 32.4341 31.2349 31.9645C31.0745 31.8041 30.96 31.7469 30.7309 31.8614C29.9521 32.2394 29.1619 32.2165 28.3716 31.8614C28.2571 31.8156 28.0395 31.85 27.9478 31.9416C27.4783 32.3883 27.0431 32.8578 26.6307 33.2816C26.2872 32.9265 25.9779 32.6059 25.6229 32.2508C25.9894 31.8843 26.4246 31.4262 26.8827 31.0139C27.1003 30.8077 27.1003 30.6588 26.9858 30.3954C26.6536 29.6739 26.6422 28.918 26.9972 28.1964C27.1347 27.9101 27.066 27.7727 26.8713 27.5894C26.4246 27.1771 25.9894 26.7419 25.5312 26.2952C25.9092 25.9631 26.2413 25.6768 26.6078 25.3446C26.9858 25.7226 27.4325 26.1463 27.8677 26.6045C28.0509 26.7992 28.1998 26.8679 28.4861 26.7419C29.2191 26.3983 29.9865 26.3983 30.7195 26.7533C30.96 26.8679 31.0974 26.8335 31.2692 26.6503C31.693 26.1921 32.1511 25.7569 32.6092 25.2874C32.9414 25.6309 33.2506 25.9631 33.6057 26.3296C33.159 26.7648 32.6894 27.2229 32.2313 27.6925C32.1511 27.7727 32.0709 27.9559 32.1168 28.0361C32.5291 28.9294 32.4833 29.8228 31.9908 30.7505ZM29.5627 30.6932C30.353 30.6932 30.9829 30.0633 30.9829 29.2845C30.9829 28.5171 30.3415 27.8643 29.5627 27.8643C28.7954 27.8643 28.154 28.5057 28.154 29.2845C28.154 30.0747 28.7839 30.6932 29.5627 30.6932Z" fill="black" stroke="black" stroke-width="0.3"/>
</svg>
