<svg width="60" height="60" viewBox="0 0 60 60" fill="none" xmlns="http://www.w3.org/2000/svg">
<mask id="path-1-inside-1_795_16995" fill="white">
<path fill-rule="evenodd" clip-rule="evenodd" d="M0 0H60L60 29.0667H52.2V30.9333H60L60 60H0V30.9332H7.8V29.0665H0V0Z"/>
</mask>
<path d="M60 0L61 1.3124e-07V-1H60V0ZM0 0V-1H-1V0H0ZM60 29.0667V30.0667H61V29.0667H60ZM52.2 29.0667V28.0667H51.2V29.0667H52.2ZM52.2 30.9333H51.2V31.9333H52.2V30.9333ZM60 30.9333H61V29.9333H60V30.9333ZM60 60V61H61V60H60ZM0 60H-1V61H0V60ZM0 30.9332V29.9332H-1V30.9332H0ZM7.8 30.9332V31.9332H8.8V30.9332H7.8ZM7.8 29.0665H8.8V28.0665H7.8V29.0665ZM0 29.0665H-1V30.0665H0V29.0665ZM60 -1H0V1H60V-1ZM61 29.0667L61 1.3124e-07L59 -1.3124e-07L59 29.0667H61ZM52.2 30.0667H60V28.0667H52.2V30.0667ZM53.2 30.9333V29.0667H51.2V30.9333H53.2ZM60 29.9333H52.2V31.9333H60V29.9333ZM61 60L61 30.9333H59L59 60H61ZM0 61H60V59H0V61ZM-1 30.9332V60H1V30.9332H-1ZM7.8 29.9332H0V31.9332H7.8V29.9332ZM6.8 29.0665V30.9332H8.8V29.0665H6.8ZM0 30.0665H7.8V28.0665H0V30.0665ZM-1 0V29.0665H1V0H-1Z" fill="#F2994A" mask="url(#path-1-inside-1_795_16995)"/>
<path d="M31.014 46.4122C26.1451 46.4122 21.2763 46.4122 16.4074 46.4122C15.9368 45.9073 15.4747 45.4024 14.9956 44.8976C14.542 44.4184 14.08 43.9478 13.6265 43.4771C13.6521 43.4258 13.6692 43.3916 13.6864 43.3745C14.5763 42.4846 15.4662 41.5861 16.3647 40.7047C16.4417 40.6277 16.5871 40.5935 16.7069 40.5849C16.9636 40.5678 17.2203 40.5764 17.5284 40.5764C17.4428 40.4566 17.4 40.3967 17.3487 40.3368C14.1912 36.3407 13.036 31.8313 13.9773 26.817C15.3892 19.2869 22.1234 13.6565 29.7904 13.6052C34.2827 13.571 38.775 13.5966 43.276 13.6052C43.4129 13.6052 43.5926 13.6736 43.6867 13.7763C44.5338 14.632 45.3724 15.5048 46.2024 16.3691C46.2623 16.4289 46.3051 16.4974 46.3735 16.5744C45.5863 17.3616 44.7991 18.1061 44.0546 18.9019C43.6952 19.2869 43.3187 19.5265 42.7797 19.4324C42.6941 19.4153 42.6 19.441 42.5058 19.441C42.523 19.4837 42.5229 19.5094 42.5315 19.5265C42.6 19.6121 42.6684 19.6977 42.7283 19.7747C45.689 23.5739 46.8442 27.8695 46.1083 32.6271C45.5777 36.084 44.029 39.0618 41.5646 41.5433C39.1259 43.9991 36.1994 45.5479 32.7853 46.1469C32.1948 46.2667 31.5959 46.3266 31.014 46.4122ZM19.4109 29.9916C19.4023 35.8188 24.1343 40.5764 29.9701 40.5849C35.7973 40.5935 40.5549 35.8444 40.5549 30.0172C40.5549 24.2071 35.8315 19.4581 30.0128 19.441C24.1856 19.4238 19.4195 24.1643 19.4109 29.9916ZM23.2957 40.5849C23.1674 40.4908 23.116 40.448 23.0561 40.4052C19.1028 37.59 17.1947 33.7737 17.5541 28.922C17.8193 25.4051 19.4195 22.53 22.1491 20.3052C24.4594 18.4227 27.1292 17.5242 30.1155 17.5242C34.2142 17.5242 38.313 17.5242 42.4117 17.5242C42.5229 17.5242 42.677 17.5328 42.7454 17.4729C43.062 17.182 43.3615 16.8739 43.738 16.4974C43.4385 16.2321 43.1562 16.0097 42.9166 15.7615C42.7625 15.5989 42.6085 15.5476 42.386 15.5476C38.2873 15.5562 34.1886 15.5562 30.0898 15.5562C28.9518 15.5562 27.8394 15.6845 26.727 15.9327C20.5062 17.3445 15.8341 22.9493 15.586 29.3498C15.432 33.3287 16.7069 36.8114 19.3681 39.7806C20.1126 40.6106 20.1126 40.6021 21.2078 40.6021C21.8753 40.5849 22.5427 40.5849 23.2957 40.5849ZM36.6701 19.441C36.7727 19.5265 36.807 19.5522 36.8412 19.5779C40.8287 22.3845 42.7454 26.2094 42.4117 31.0954C42.2149 33.979 41.0512 36.4776 39.066 38.5655C36.5759 41.1925 33.4869 42.4931 29.8674 42.5017C25.7686 42.5102 21.6699 42.5017 17.5712 42.5102C17.4514 42.5102 17.2888 42.5102 17.2118 42.5787C16.8952 42.8611 16.6042 43.1691 16.2876 43.4686C16.5444 43.7339 16.7754 43.9563 16.9808 44.1959C17.169 44.4184 17.3744 44.4954 17.6653 44.4954C21.6699 44.4869 25.6745 44.4954 29.6791 44.4869C30.3808 44.4869 31.091 44.4526 31.7841 44.3671C35.6005 43.8708 38.7408 42.1252 41.1539 39.1388C43.8664 35.776 44.8761 31.9168 44.1915 27.6555C43.6867 24.5152 42.2406 21.8369 39.9559 19.6207C39.8789 19.5436 39.7591 19.4581 39.665 19.4581C38.698 19.441 37.7311 19.441 36.6701 19.441Z" fill="black"/>
<path d="M21.3364 29.9915C21.345 25.2339 25.2298 21.3662 29.9874 21.3662C34.7621 21.3662 38.6469 25.2681 38.6298 30.0343C38.6213 34.8005 34.7108 38.6767 29.9446 38.6596C25.187 38.6425 21.3279 34.7491 21.3364 29.9915ZM31.8956 29.0417C31.8357 28.4513 31.7929 27.8865 31.7073 27.3303C31.5276 26.1409 31.2881 24.9686 30.6377 23.9418C30.0987 23.069 29.8077 23.0776 29.3371 23.9418C28.9606 24.6178 28.7124 25.3879 28.49 26.1324C28.2161 27.0736 28.122 28.0491 28.0878 29.0417C29.3628 29.0417 30.595 29.0417 31.8956 29.0417ZM28.0707 30.9927C28.1306 31.5831 28.1734 32.1564 28.2589 32.7212C28.4301 33.8849 28.6782 35.0401 29.3029 36.0583C29.8505 36.9568 30.1329 36.9825 30.672 36.0498C31.5704 34.501 31.7672 32.7639 31.887 30.9927C30.6035 30.9927 29.3542 30.9927 28.0707 30.9927ZM27.1551 23.9504C25.2041 24.7205 23.5441 26.9709 23.3644 29.0331C24.2886 29.0331 25.2127 29.0331 26.1625 29.0331C26.2566 27.2961 26.5048 25.5933 27.1551 23.9504ZM32.8454 23.9589C33.4615 25.6019 33.7011 27.3132 33.8123 29.0417C34.7793 29.0417 35.7034 29.0417 36.6532 29.0417C36.2254 26.6971 34.9675 25.0114 32.8454 23.9589ZM23.3131 30.9841C23.7495 33.3287 24.9988 35.0144 27.0866 36.084C26.8727 35.2283 26.6246 34.4068 26.462 33.5683C26.2994 32.7212 26.231 31.8569 26.1112 30.9841C25.2127 30.9841 24.2886 30.9841 23.3131 30.9841ZM36.6446 30.9927C35.6692 30.9927 34.7536 30.9927 33.8038 30.9927C33.7096 32.7383 33.4529 34.4411 32.7855 36.1353C34.9675 35.0144 36.2254 33.3287 36.6446 30.9927Z" fill="black"/>
</svg>
