<?xml version="1.0" encoding="utf-8"?>
<!-- Generator: Adobe Illustrator 22.0.1, SVG Export Plug-In . SVG Version: 6.00 Build 0)  -->
<svg version="1.1" id="Layer_1" xmlns="http://www.w3.org/2000/svg" xmlns:xlink="http://www.w3.org/1999/xlink" x="0px" y="0px"
	 viewBox="0 0 62 62" style="enable-background:new 0 0 62 62;" xml:space="preserve">
<style type="text/css">
	.st0{fill:#F2994A;}
	.st1{fill:none;stroke:#000000;stroke-miterlimit:10;}
	.st2{stroke:#FFFFFF;stroke-width:0.25;stroke-miterlimit:10;}
	.st3{fill:#FFFFFF;stroke:#000000;stroke-miterlimit:10;}
</style>
<g>
	<path class="st0" d="M61,1h1V0h-1V1z M1,1V0H0v1H1z M61,30.1v1h1v-1H61z M53.2,30.1v-1h-1v1H53.2z M53.2,31.9h-1v1h1V31.9z
		 M61,31.9h1v-1h-1V31.9z M61,61v1h1v-1H61z M1,61H0v1h1V61z M1,31.9v-1H0v1H1z M8.8,31.9v1h1v-1H8.8z M8.8,30.1h1v-1h-1V30.1z
		 M1,30.1H0v1h1V30.1z M61,0H1v2h60V0z M62,30.1V1h-2v29.1H62z M53.2,31.1H61v-2h-7.8V31.1z M54.2,31.9V30h-2v1.9H54.2z M61,30.9
		h-7.8v2H61V30.9z M62,61V31.9h-2V61H62z M1,62h60v-2H1V62z M0,31.9V61h2V31.9H0z M8.8,30.9H1v2h7.8V30.9z M7.8,30.1V32h2v-1.9H7.8z
		 M1,31.1h7.8v-2H1V31.1z M0,1v29.1h2V1H0z"/>
	<g>
		<path class="st1" d="M47.3,18.6l-5.5,9.6l-1.4-0.8l5.5-9.6L44.5,17L39,26.6l-1.4-0.8l5.5-9.6l-1.4-0.8L36.2,25l-1.4-0.8l5.5-9.6
			l-1.2-0.7l-5.5,9.5c-1.3,2.2-0.8,4.9,0.9,6.6L23.3,47.1c-0.4,0.7,0.8,2.2,1.4,2.6c0.6,0.4,2.5,0.6,2.9-0.1l9.2-18.3
			c2.3,0.7,4.9-0.3,6.2-2.5l5.5-9.5L47.3,18.6z"/>
		<path class="st2" d="M27.7,38.8l2-3L17.4,14.5c-6.2,3.6,5.2,24.9,5.2,24.9l4.1-2.4L27.7,38.8z M17.1,16.5L27.8,35l-4.7,2.7
			C19.2,30.2,15.4,20,17.1,16.5z"/>
		<path class="st3" d="M32.8,40.3l-1.7,3.4l2.6,4.6c0.4,0.8,1.4,1,2.2,0.6s1-1.4,0.6-2.2L32.8,40.3z"/>
	</g>
</g>
</svg>
