<svg width="38" height="38" viewBox="0 0 38 38" fill="none" xmlns="http://www.w3.org/2000/svg">
<path d="M36.2297 27.1709L28.718 19.4959C29.2079 15.7401 28.0648 11.8209 25.2888 8.88157C22.0228 5.61562 17.1239 4.47254 12.7148 5.77892C12.3882 5.94221 12.0616 6.10551 12.0616 6.59541C11.8984 6.922 12.0616 7.41189 12.3882 7.57519L19.0835 14.2704L17.6138 19.006L13.2047 20.1491L6.50953 13.4539C6.18293 13.1273 5.85634 13.1273 5.52974 13.1273C5.20315 13.2906 4.87655 13.4539 4.71325 13.7805C3.24357 18.3528 4.38666 23.2518 7.65261 26.5177C10.1021 28.9672 13.2047 30.1103 16.4707 30.1103C17.4505 30.1103 18.267 29.947 19.2467 29.7837V29.947L23.1659 33.8661C23.3292 34.0294 23.4925 34.0294 23.8191 34.0294C24.1457 34.0294 24.309 34.0294 24.4723 33.8661C24.7989 33.5395 24.7989 33.0496 24.4723 32.723L21.043 29.2938C22.676 28.6406 24.1457 27.8241 25.2888 26.5177C26.7584 25.048 27.7382 23.2518 28.3914 21.4555L35.2499 28.314C35.4132 28.4773 35.5765 28.4773 35.9031 28.4773C36.2297 28.4773 36.393 28.4773 36.5563 28.314C36.5563 27.9874 36.5563 27.4975 36.2297 27.1709ZM23.6558 25.048C19.5733 29.1305 13.2047 29.1305 9.12229 25.048C6.83612 22.7619 5.85634 19.6592 6.18293 16.3933L12.0616 22.272C12.3882 22.5986 12.7148 22.5986 13.0414 22.5986L18.5936 21.1289C18.9202 20.9656 19.2467 20.8023 19.41 20.4757L21.2063 14.597C21.3696 14.2704 21.2063 13.7805 20.8797 13.6172L15.001 7.73849C18.1037 7.2486 21.3696 8.39168 23.6558 10.6778C27.7382 14.4337 27.7382 20.9656 23.6558 25.048Z" fill="white"/>
</svg>
