<svg width="38" height="38" viewBox="0 0 38 38" fill="none" xmlns="http://www.w3.org/2000/svg">
<path d="M36.0242 34.0475H28.7796C28.5328 34.0475 28.2961 33.9495 28.1216 33.7749C27.947 33.6004 27.849 33.3637 27.849 33.1169C27.849 32.8701 27.947 32.6334 28.1216 32.4588C28.2961 32.2843 28.5328 32.1863 28.7796 32.1863H35.1222V20.8612C35.1222 20.4174 34.9934 19.6729 34.1343 19.6729L33.4757 19.8304C28.718 20.9375 23.8563 21.5374 18.9722 21.62C14.4435 21.5411 9.93436 21.0038 5.51386 20.0165C4.86622 19.8691 4.21156 19.7544 3.55238 19.6729C2.69334 19.6729 2.56448 20.4174 2.56448 20.8612V32.1863H8.90708C9.1539 32.1863 9.39061 32.2843 9.56514 32.4588C9.73966 32.6334 9.83771 32.8701 9.83771 33.1169C9.83771 33.3637 9.73966 33.6004 9.56514 33.7749C9.39061 33.9495 9.1539 34.0475 8.90708 34.0475H1.66249C1.41567 34.0475 1.17896 33.9495 1.00443 33.7749C0.829904 33.6004 0.731856 33.3637 0.731856 33.1169V20.8612C0.70636 20.4698 0.761545 20.0774 0.893989 19.7082C1.02643 19.339 1.23331 19.0009 1.50179 18.715C1.77028 18.4291 2.09464 18.2013 2.45477 18.0459C2.81489 17.8905 3.20311 17.8108 3.59533 17.8116C4.3915 17.88 5.18126 18.0092 5.9577 18.1982C10.2562 19.157 14.6404 19.6798 19.0438 19.7588C23.793 19.6745 28.5201 19.089 33.1464 18.0121C33.4913 17.9073 33.8466 17.8401 34.2059 17.8116C34.5981 17.8108 34.9863 17.8905 35.3465 18.0459C35.7066 18.2013 36.031 18.4291 36.2994 18.715C36.5679 19.0009 36.7748 19.339 36.9072 19.7082C37.0397 20.0774 37.0949 20.4698 37.0694 20.8612V33.1169C37.0704 33.2494 37.0431 33.3805 36.9893 33.5016C36.9356 33.6227 36.8566 33.7309 36.7576 33.819C36.6587 33.9071 36.5421 33.9731 36.4156 34.0125C36.2891 34.0519 36.1557 34.0638 36.0242 34.0475Z" fill="white"/>
<path d="M19.0295 29.9814C15.2929 30.0383 11.5616 29.6781 7.90487 28.9076C7.72101 28.8634 7.56211 28.7482 7.46286 28.5873C7.36361 28.4263 7.33207 28.2327 7.37512 28.0485C7.42253 27.8636 7.54051 27.7046 7.70376 27.6055C7.86701 27.5065 8.06255 27.4754 8.24848 27.5188C11.7948 28.2477 15.4093 28.5933 19.0295 28.5496C22.5214 28.6245 26.0112 28.3221 29.4382 27.6477C29.5294 27.624 29.6244 27.6185 29.7177 27.6317C29.811 27.6448 29.9008 27.6762 29.9819 27.7241C30.063 27.7719 30.1339 27.8354 30.1905 27.9107C30.2471 27.986 30.2882 28.0718 30.3116 28.1631C30.355 28.349 30.3238 28.5446 30.2248 28.7078C30.1258 28.8711 29.9668 28.989 29.7818 29.0364C26.2447 29.7555 22.6377 30.0725 19.0295 29.9814Z" fill="white"/>
<path d="M7.08877 15.936C6.9114 15.9378 6.73732 15.8881 6.58766 15.7929C6.38121 15.6579 6.2357 15.4476 6.1822 15.2069C6.1287 14.9661 6.17145 14.714 6.30132 14.5043L8.62073 10.9536C8.78185 10.638 9.03164 10.3764 9.33941 10.2009C9.64718 10.0254 9.99952 9.94366 10.3531 9.96568H22.9524C23.1992 9.96568 23.436 10.0637 23.6105 10.2383C23.785 10.4128 23.8831 10.6495 23.8831 10.8963C23.8831 11.1431 23.785 11.3798 23.6105 11.5544C23.436 11.7289 23.1992 11.8269 22.9524 11.8269H10.2529L10.1384 11.9987L7.84759 15.5065C7.7658 15.6346 7.65388 15.7408 7.5216 15.8156C7.38932 15.8905 7.24071 15.9318 7.08877 15.936Z" fill="white"/>
<path d="M33.8623 24.011H25.5152C25.3254 24.011 25.1433 23.9356 25.0091 23.8014C24.8748 23.6671 24.7994 23.485 24.7994 23.2952V20.489C24.7994 20.2991 24.8748 20.117 25.0091 19.9828C25.1433 19.8485 25.3254 19.7731 25.5152 19.7731C25.704 19.7768 25.8839 19.8533 26.0174 19.9868C26.1509 20.1203 26.2275 20.3002 26.2311 20.489V22.522H33.8623C34.0521 22.522 34.2342 22.5974 34.3685 22.7317C34.5027 22.8659 34.5781 23.048 34.5781 23.2379C34.5861 23.3366 34.5734 23.4359 34.541 23.5295C34.5086 23.623 34.4571 23.7089 34.3898 23.7815C34.3226 23.8542 34.2409 23.9121 34.1501 23.9516C34.0593 23.9911 33.9613 24.0113 33.8623 24.011Z" fill="white"/>
<path d="M12.1714 24.011H3.8244C3.64161 24.0153 3.46411 23.9494 3.32834 23.8269C3.19256 23.7045 3.10879 23.5347 3.09422 23.3524C3.09422 23.1626 3.16964 22.9805 3.30389 22.8462C3.43814 22.712 3.62022 22.6366 3.81008 22.6366H11.4412V20.489C11.4449 20.3002 11.5215 20.1203 11.655 19.9868C11.7884 19.8533 11.9684 19.7768 12.1571 19.7731C12.347 19.7731 12.5291 19.8485 12.6633 19.9828C12.7976 20.117 12.873 20.2991 12.873 20.489V23.3524C12.8588 23.5298 12.7791 23.6954 12.6494 23.8172C12.5197 23.9389 12.3493 24.008 12.1714 24.011Z" fill="white"/>
<path d="M31.6001 10.0659C27.9349 10.0659 25.1859 8.63417 25.1859 6.87313C25.1859 5.11209 27.9349 3.68036 31.6001 3.68036C35.2654 3.68036 38 5.11209 38 6.87313C38 8.63417 35.2511 10.0659 31.6001 10.0659ZM31.6001 5.11209C28.6078 5.11209 26.6177 6.17158 26.6177 6.87313C26.6177 7.57468 28.6078 8.63417 31.6001 8.63417C34.5925 8.63417 36.5683 7.60332 36.5683 6.87313C36.5683 6.14294 34.5925 5.11209 31.6001 5.11209Z" fill="white"/>
<path d="M31.6001 16.609C27.9349 16.609 25.1859 15.1772 25.1859 13.4019C25.1859 13.212 25.2614 13.0299 25.3956 12.8957C25.5299 12.7614 25.712 12.686 25.9018 12.686C26.0917 12.686 26.2738 12.7614 26.408 12.8957C26.5423 13.0299 26.6177 13.212 26.6177 13.4019C26.6177 14.1034 28.6078 15.1772 31.6001 15.1772C34.5925 15.1772 36.5683 14.1034 36.5683 13.4019C36.5719 13.2131 36.6485 13.0332 36.782 12.8997C36.9155 12.7663 37.0954 12.6897 37.2841 12.686C37.474 12.686 37.6561 12.7614 37.7903 12.8957C37.9246 13.0299 38 13.212 38 13.4019C38 15.2345 35.2511 16.609 31.6001 16.609Z" fill="white"/>
<path d="M31.6001 13.3303C27.9349 13.3303 25.1859 11.8985 25.1859 10.1232C25.1859 9.93331 25.2614 9.75123 25.3956 9.61698C25.5299 9.48272 25.712 9.4073 25.9018 9.4073C26.0917 9.4073 26.2738 9.48272 26.408 9.61698C26.5423 9.75123 26.6177 9.93331 26.6177 10.1232C26.6177 10.8247 28.6078 11.8985 31.6001 11.8985C34.5925 11.8985 36.5683 10.8247 36.5683 10.1232C36.5719 9.93446 36.6485 9.7545 36.782 9.62103C36.9155 9.48757 37.0954 9.41097 37.2841 9.4073C37.474 9.4073 37.6561 9.48272 37.7903 9.61698C37.9246 9.75123 38 9.93331 38 10.1232C38 11.9701 35.2511 13.3303 31.6001 13.3303Z" fill="white"/>
</svg>
