<svg width="38" height="38" viewBox="0 0 38 38" fill="none" xmlns="http://www.w3.org/2000/svg">
<path d="M32.6637 34.278H5.6815C5.28798 34.278 4.91057 34.1217 4.6323 33.8434C4.35404 33.5652 4.19771 33.1878 4.19771 32.7942V22.0793C4.19771 21.6857 4.35404 21.3083 4.6323 21.0301C4.91057 20.7518 5.28798 20.5955 5.6815 20.5955C6.07503 20.5955 6.45244 20.7518 6.7307 21.0301C7.00897 21.3083 7.1653 21.6857 7.1653 22.0793V31.3104H31.1799V12.7059C31.1799 12.3124 31.3363 11.935 31.6145 11.6567C31.8928 11.3785 32.2702 11.2221 32.6637 11.2221C33.0573 11.2221 33.4347 11.3785 33.7129 11.6567C33.9912 11.935 34.1475 12.3124 34.1475 12.7059V32.7942C34.1475 33.1878 33.9912 33.5652 33.7129 33.8434C33.4347 34.1217 33.0573 34.278 32.6637 34.278Z" fill="white"/>
<path d="M5.74997 17.2258C5.35644 17.2258 4.97903 17.0695 4.70077 16.7912C4.4225 16.513 4.26617 16.1355 4.26617 15.742V12.7059C4.26617 12.3124 4.4225 11.935 4.70077 11.6567C4.97903 11.3785 5.35644 11.2221 5.74997 11.2221C6.1435 11.2221 6.52091 11.3785 6.79917 11.6567C7.07744 11.935 7.23376 12.3124 7.23376 12.7059V15.742C7.23376 15.9369 7.19538 16.1298 7.12082 16.3098C7.04625 16.4899 6.93696 16.6534 6.79917 16.7912C6.66139 16.929 6.49782 17.0383 6.31779 17.1129C6.13777 17.1874 5.94483 17.2258 5.74997 17.2258Z" fill="white"/>
<path d="M34.1475 14.1897H4.19768C3.80415 14.1897 3.42674 14.0334 3.14847 13.7551C2.87021 13.4769 2.71388 13.0995 2.71388 12.7059V6.67945C2.71388 6.28593 2.87021 5.90852 3.14847 5.63025C3.42674 5.35198 3.80415 5.19566 4.19768 5.19566H34.1475C34.541 5.19566 34.9184 5.35198 35.1967 5.63025C35.475 5.90852 35.6313 6.28593 35.6313 6.67945V12.7059C35.6313 12.9008 35.5929 13.0937 35.5184 13.2738C35.4438 13.4538 35.3345 13.6174 35.1967 13.7551C35.0589 13.8929 34.8954 14.0022 34.7153 14.0768C34.5353 14.1514 34.3424 14.1897 34.1475 14.1897ZM5.68147 11.2221H32.6637V8.16325H5.68147V11.2221Z" fill="white"/>
<path d="M21.8434 19.4629H16.5018C16.1083 19.4629 15.7308 19.3066 15.4526 19.0283C15.1743 18.7501 15.018 18.3727 15.018 17.9791C15.018 17.5856 15.1743 17.2082 15.4526 16.9299C15.7308 16.6517 16.1083 16.4953 16.5018 16.4953H21.8434C22.237 16.4953 22.6144 16.6517 22.8926 16.9299C23.1709 17.2082 23.3272 17.5856 23.3272 17.9791C23.3272 18.3727 23.1709 18.7501 22.8926 19.0283C22.6144 19.3066 22.237 19.4629 21.8434 19.4629Z" fill="white"/>
</svg>
