<svg width="38" height="38" viewBox="0 0 38 38" fill="none" xmlns="http://www.w3.org/2000/svg">
<path d="M19 34.3036C15.9691 34.3036 13.0063 33.4046 10.4864 31.7204C7.96649 30.0361 6.00279 27.6423 4.84369 24.8418C3.6846 22.0412 3.38221 18.9598 3.97477 15.9874C4.56733 13.015 6.02822 10.2851 8.17261 8.1431C10.317 6.00113 13.0485 4.54332 16.0216 3.95411C18.9947 3.3649 22.0758 3.67077 24.875 4.83302C27.6743 5.99527 30.0659 7.96168 31.7473 10.4835C33.4287 13.0052 34.3243 15.9691 34.3209 19C34.3209 21.0111 33.9245 23.0026 33.1543 24.8604C32.3842 26.7183 31.2554 28.4061 29.8325 29.8274C28.4096 31.2487 26.7205 32.3756 24.8617 33.1437C23.003 33.9117 21.0112 34.3059 19 34.3036ZM19 5.92455C16.4139 5.92455 13.8859 6.69141 11.7357 8.12816C9.58543 9.56491 7.90952 11.607 6.91987 13.9962C5.93022 16.3855 5.67128 19.0145 6.1758 21.5509C6.68032 24.0873 7.92563 26.4171 9.75426 28.2457C11.5829 30.0744 13.9127 31.3197 16.4491 31.8242C18.9855 32.3287 21.6145 32.0698 24.0038 31.0801C26.393 30.0905 28.4351 28.4146 29.8718 26.2643C31.3086 24.1141 32.0754 21.5861 32.0754 19C32.0709 15.5336 30.6918 12.2104 28.2407 9.75931C25.7896 7.30818 22.4664 5.92912 19 5.92455Z" fill="white"/>
<path d="M12.0909 22.5927C10.7245 22.4579 9.43913 21.8819 8.4291 20.9518L4.47365 17.9118C4.35564 17.8184 4.26351 17.6964 4.20606 17.5573C4.14861 17.4182 4.12775 17.2667 4.14547 17.1173C4.60721 13.5364 6.33701 10.2397 9.02113 7.82492C11.7052 5.41016 15.1659 4.03734 18.7755 3.95545C18.9767 3.95466 19.1721 4.02278 19.3292 4.14848C19.4863 4.27418 19.5957 4.44988 19.6391 4.64636C19.7771 5.2823 19.8523 5.93026 19.8636 6.58091C19.898 7.33923 19.7806 8.09677 19.5182 8.80909C19.1712 9.56226 18.6914 10.2468 18.1018 10.83L15.0445 14.1636C14.3896 14.854 13.8105 15.6126 13.3173 16.4264C13.0755 16.8927 13.0582 17.1345 13.0927 17.2554C13.2356 17.5024 13.4373 17.7101 13.68 17.86C14.1065 18.1718 14.4601 18.5725 14.7164 19.0345C14.8679 19.3702 14.9346 19.7379 14.9105 20.1054C14.8864 20.4729 14.7723 20.8288 14.5782 21.1418C14.33 21.5528 13.9875 21.8988 13.579 22.1511C13.1705 22.4035 12.7077 22.5548 12.2291 22.5927H12.0909ZM5.92456 16.8582L9.48274 19.5873C10.2228 20.298 11.1753 20.747 12.1946 20.8654C12.3909 20.8439 12.5798 20.7784 12.7473 20.6737C12.9148 20.569 13.0565 20.4279 13.1618 20.2609C13.1985 20.1855 13.2175 20.1029 13.2175 20.0191C13.2175 19.9353 13.1985 19.8526 13.1618 19.7773C13.0063 19.5498 12.8065 19.356 12.5746 19.2073C12.0692 18.8484 11.6791 18.3503 11.4518 17.7736C11.3575 17.4094 11.3394 17.0295 11.3989 16.658C11.4583 16.2864 11.594 15.9312 11.7973 15.6145C12.3582 14.6686 13.0373 13.798 13.8182 13.0236L16.7546 9.67272C17.1959 9.22721 17.5632 8.71409 17.8427 8.15272C18.0293 7.66295 18.106 7.13814 18.0673 6.61545C18.0923 6.31658 18.0923 6.01614 18.0673 5.71727C15.0794 5.94213 12.253 7.16164 10.0395 9.18108C7.82592 11.2005 6.35284 13.9034 5.85547 16.8582H5.92456Z" fill="white"/>
<path d="M19 34.0618H18.5855H18.3955C18.2631 34.0559 18.1338 34.0202 18.0172 33.9574C17.9006 33.8946 17.7996 33.8063 17.7218 33.6991C17.6469 33.5924 17.5972 33.4702 17.5762 33.3416C17.5553 33.2129 17.5637 33.0812 17.6009 32.9563C17.7909 32.2654 18.0327 31.6263 18.2227 31.1082C18.874 29.1272 19.7127 27.2128 20.7273 25.3909C21.3232 24.3399 22.0297 23.3556 22.8345 22.4545C25.3298 19.8452 28.5477 18.0407 32.0754 17.2727L33.0082 17.1C33.2489 17.0735 33.4904 17.1416 33.6818 17.29C33.7734 17.3631 33.8485 17.4547 33.9021 17.5589C33.9557 17.6631 33.9866 17.7775 33.9927 17.8945C33.9927 18.2918 33.9927 18.6545 33.9927 19.0173C33.9837 22.9956 32.4028 26.8091 29.5946 29.6271C26.7863 32.445 22.9783 34.039 19 34.0618ZM32.3345 19C29.2176 19.7193 26.3819 21.3415 24.1818 23.6636C23.439 24.4601 22.7846 25.3345 22.23 26.2718C21.3032 27.9892 20.5343 29.7872 19.9327 31.6436C19.9327 31.8509 19.7773 32.0754 19.6909 32.3172C23.1005 32.132 26.3099 30.6491 28.6609 28.1728C31.0119 25.6966 32.3263 22.4145 32.3345 19Z" fill="white"/>
<path d="M12.0909 36.6009H11.7627C9.46421 35.6376 7.37555 34.2354 5.61365 32.4727C5.5327 32.3924 5.46845 32.2969 5.42461 32.1917C5.38076 32.0864 5.35818 31.9735 5.35818 31.8595C5.35818 31.7455 5.38076 31.6326 5.42461 31.5274C5.46845 31.4222 5.5327 31.3266 5.61365 31.2464C5.778 31.087 5.99792 30.9979 6.22683 30.9979C6.45574 30.9979 6.67566 31.087 6.84001 31.2464C8.43312 32.861 10.3369 34.136 12.4364 34.9945C12.6447 35.0893 12.8091 35.2601 12.8957 35.472C12.9824 35.6839 12.9849 35.9209 12.9027 36.1345C12.8266 36.2821 12.7095 36.4046 12.5655 36.4873C12.4215 36.57 12.2567 36.6094 12.0909 36.6009Z" fill="white"/>
<path d="M19 38C18.7709 38 18.5513 37.909 18.3893 37.747C18.2273 37.5851 18.1364 37.3654 18.1364 37.1363C18.1364 36.9073 18.2273 36.6876 18.3893 36.5257C18.5513 36.3637 18.7709 36.2727 19 36.2727C21.2651 36.2815 23.5089 35.8351 25.5982 34.96C25.8112 34.8706 26.051 34.8696 26.2647 34.9571C26.4785 35.0445 26.6488 35.2133 26.7382 35.4263C26.8275 35.6394 26.8285 35.8791 26.7411 36.0929C26.6536 36.3067 26.4848 36.477 26.2718 36.5663C23.9655 37.5169 21.4945 38.0041 19 38Z" fill="white"/>
<path d="M31.8164 32.68C31.583 32.6794 31.3593 32.5862 31.1946 32.4209C31.0352 32.2565 30.9461 32.0366 30.9461 31.8077C30.9461 31.5788 31.0352 31.3589 31.1946 31.1945C32.8092 29.6014 34.0842 27.6977 34.9427 25.5982C35.0321 25.3852 35.2024 25.2163 35.4161 25.1289C35.6299 25.0414 35.8697 25.0425 36.0827 25.1318C36.2957 25.2211 36.4646 25.3914 36.552 25.6052C36.6395 25.819 36.6384 26.0588 36.5491 26.2718C35.5858 28.5703 34.1836 30.659 32.4209 32.4209C32.3425 32.5022 32.2487 32.5671 32.1448 32.6116C32.041 32.6561 31.9293 32.6793 31.8164 32.68Z" fill="white"/>
<path d="M37.1191 19.8636C36.893 19.8591 36.6778 19.7661 36.5195 19.6046C36.3613 19.4432 36.2727 19.2261 36.2727 19C36.2718 16.7358 35.8258 14.4939 34.96 12.4018C34.8706 12.1888 34.8696 11.949 34.9571 11.7352C35.0445 11.5214 35.2133 11.3511 35.4263 11.2618C35.6394 11.1725 35.8791 11.1714 36.0929 11.2589C36.3067 11.3464 36.477 11.5152 36.5663 11.7282C37.5169 14.0345 38.0041 16.5054 38 19C38 19.1149 37.9771 19.2286 37.9326 19.3345C37.8881 19.4405 37.823 19.5364 37.7409 19.6169C37.6589 19.6973 37.5617 19.7605 37.4549 19.8029C37.3481 19.8453 37.2339 19.8659 37.1191 19.8636Z" fill="white"/>
<path d="M31.8163 7.04728C31.5863 7.0461 31.3649 6.95997 31.1945 6.80546C29.6014 5.19085 27.6976 3.91581 25.5982 3.05728C25.4927 3.01305 25.3969 2.94848 25.3164 2.86725C25.2359 2.78602 25.1722 2.68973 25.1289 2.58387C25.0856 2.47801 25.0635 2.36466 25.064 2.25029C25.0645 2.13591 25.0876 2.02276 25.1318 1.91728C25.176 1.81181 25.2406 1.71608 25.3218 1.63556C25.4031 1.55504 25.4993 1.49131 25.6052 1.448C25.7111 1.40469 25.8244 1.38266 25.9388 1.38316C26.0532 1.38367 26.1663 1.40669 26.2718 1.45092C28.5703 2.41425 30.659 3.81646 32.4209 5.5791C32.5018 5.65938 32.5661 5.7549 32.6099 5.86014C32.6538 5.96539 32.6763 6.07827 32.6763 6.19228C32.6763 6.30629 32.6538 6.41917 32.6099 6.52441C32.5661 6.62965 32.5018 6.72517 32.4209 6.80546C32.2567 6.95884 32.041 7.04512 31.8163 7.04728Z" fill="white"/>
<path d="M12.0909 3.12638C11.9209 3.12331 11.7555 3.07113 11.6145 2.97612C11.4735 2.88111 11.363 2.74733 11.2964 2.59092C11.2142 2.37726 11.2167 2.14027 11.3034 1.92839C11.3901 1.71651 11.5544 1.54572 11.7628 1.45092C14.0571 0.498833 16.5159 0.00589664 19 1.52588e-05C19.2291 1.52588e-05 19.4487 0.0910045 19.6107 0.252968C19.7727 0.414931 19.8637 0.6346 19.8637 0.863651C19.8637 1.0927 19.7727 1.31237 19.6107 1.47433C19.4487 1.6363 19.2291 1.72729 19 1.72729C16.7358 1.72818 14.4939 2.17421 12.4018 3.04001C12.3025 3.08237 12.1979 3.11141 12.0909 3.12638Z" fill="white"/>
<path d="M2.26273 12.92C2.14819 12.9368 2.03182 12.9368 1.91728 12.92C1.7089 12.8252 1.54459 12.6544 1.45791 12.4425C1.37123 12.2306 1.36873 11.9937 1.45091 11.78C2.41424 9.48148 3.81645 7.39282 5.57909 5.63091C5.65938 5.54997 5.7549 5.48572 5.86014 5.44187C5.96538 5.39803 6.07826 5.37545 6.19227 5.37545C6.30628 5.37545 6.41916 5.39803 6.52441 5.44187C6.62965 5.48572 6.72517 5.54997 6.80545 5.63091C6.96479 5.79526 7.0539 6.01518 7.0539 6.24409C7.0539 6.473 6.96479 6.69293 6.80545 6.85728C5.19085 8.45038 3.9158 10.3541 3.05728 12.4536C2.98236 12.5984 2.86799 12.7191 2.72738 12.8016C2.58678 12.8841 2.42568 12.9252 2.26273 12.92Z" fill="white"/>
<path d="M2.26274 26.8073C2.0898 26.8075 1.92061 26.7569 1.77625 26.6617C1.63188 26.5665 1.51874 26.4309 1.45092 26.2718C0.494394 23.9667 0.00137055 21.4957 1.52588e-05 19C1.52588e-05 18.7709 0.0910045 18.5513 0.252968 18.3893C0.414931 18.2273 0.6346 18.1364 0.863651 18.1364C1.0927 18.1364 1.31237 18.2273 1.47433 18.3893C1.6363 18.5513 1.72729 18.7709 1.72729 19C1.71852 21.2651 2.16493 23.5089 3.04001 25.5982C3.1222 25.8118 3.11969 26.0488 3.03301 26.2607C2.94634 26.4726 2.78202 26.6434 2.57365 26.7382C2.4734 26.7744 2.36891 26.7977 2.26274 26.8073Z" fill="white"/>
</svg>
