<svg width="38" height="38" viewBox="0 0 38 38" fill="none" xmlns="http://www.w3.org/2000/svg">
<path d="M10.5834 15.4166C9.5248 15.4166 8.48997 15.1027 7.60978 14.5146C6.72958 13.9264 6.04355 13.0905 5.63845 12.1125C5.23334 11.1345 5.12734 10.0583 5.33386 9.02004C5.54039 7.98178 6.05015 7.02808 6.7987 6.27953C7.54724 5.53099 8.50094 5.02123 9.5392 4.8147C10.5775 4.60818 11.6536 4.71418 12.6317 5.11928C13.6097 5.52439 14.4456 6.21042 15.0337 7.09062C15.6219 7.97081 15.9358 9.00564 15.9358 10.0642C15.9358 11.4838 15.3719 12.8452 14.3681 13.8489C13.3643 14.8527 12.0029 15.4166 10.5834 15.4166ZM10.5834 6.49598C9.87766 6.49598 9.18778 6.70526 8.60098 7.09734C8.01419 7.48943 7.55684 8.04671 7.28676 8.69873C7.01669 9.35074 6.94603 10.0682 7.08371 10.7604C7.22139 11.4525 7.56123 12.0883 8.06026 12.5874C8.55929 13.0864 9.19509 13.4262 9.88727 13.5639C10.5794 13.7016 11.2969 13.6309 11.9489 13.3609C12.6009 13.0908 13.1582 12.6334 13.5503 12.0467C13.9424 11.4599 14.1516 10.77 14.1516 10.0642C14.1516 9.11788 13.7757 8.21028 13.1065 7.5411C12.4374 6.87192 11.5298 6.49598 10.5834 6.49598Z" fill="white"/>
<path d="M28.4604 9.13651C27.7547 9.13651 27.0648 8.92723 26.478 8.53515C25.8912 8.14306 25.4338 7.58578 25.1638 6.93376C24.8937 6.28175 24.823 5.5643 24.9607 4.87212C25.0984 4.17995 25.4382 3.54415 25.9373 3.04512C26.4363 2.54609 27.0721 2.20625 27.7643 2.06856C28.4564 1.93088 29.1739 2.00155 29.8259 2.27162C30.4779 2.54169 31.0352 2.99904 31.4273 3.58584C31.8194 4.17264 32.0287 4.86252 32.0287 5.56825C32.0287 6.51461 31.6527 7.42221 30.9835 8.09139C30.3144 8.76057 29.4068 9.13651 28.4604 9.13651ZM28.4604 3.78413C28.1075 3.78413 27.7626 3.88877 27.4692 4.08481C27.1758 4.28085 26.9471 4.55949 26.8121 4.8855C26.677 5.2115 26.6417 5.57023 26.7106 5.91632C26.7794 6.26241 26.9493 6.58031 27.1988 6.82982C27.4484 7.07934 27.7663 7.24926 28.1123 7.3181C28.4584 7.38694 28.8172 7.35161 29.1432 7.21657C29.4692 7.08154 29.7478 6.85286 29.9438 6.55946C30.1399 6.26606 30.2445 5.92112 30.2445 5.56825C30.2306 5.10441 30.0365 4.66425 29.7034 4.34115C29.3703 4.01805 28.9245 3.83744 28.4604 3.83765V3.78413Z" fill="white"/>
<path d="M15.0259 10.8493C14.8249 10.8467 14.6304 10.7777 14.4728 10.653C14.37 10.5718 14.2863 10.469 14.2277 10.3518C14.1691 10.2346 14.1371 10.106 14.1338 9.97505C14.1114 9.13853 13.7956 8.33652 13.2418 7.7092C13.1376 7.59213 13.0675 7.44871 13.0392 7.29456C13.0109 7.14041 13.0254 6.98144 13.0812 6.83498C13.1305 6.68792 13.2174 6.55627 13.3331 6.45302C13.4489 6.34977 13.5896 6.27849 13.7413 6.24622L25.7842 3.90902C25.9354 3.88051 26.0915 3.89162 26.2371 3.94127C26.3828 3.99091 26.5132 4.07741 26.6156 4.19234C26.7179 4.30728 26.7888 4.44674 26.8213 4.59718C26.8538 4.74762 26.8469 4.90391 26.8011 5.05086C26.7481 5.23069 26.7181 5.41654 26.7119 5.60394C26.7163 5.86444 26.7776 6.12083 26.8917 6.35508C27.0057 6.58934 27.1697 6.79577 27.372 6.95987C27.5108 7.0617 27.6157 7.20298 27.673 7.36529C27.7302 7.5276 27.7373 7.7034 27.6932 7.86978C27.6542 8.03565 27.5675 8.1865 27.4439 8.30378C27.3203 8.42106 27.1651 8.49966 26.9974 8.5299L15.2935 10.8314L15.0259 10.8493ZM15.3827 7.74489C15.5636 8.11439 15.7013 8.50352 15.7931 8.90457L25.2489 7.12044C25.0698 6.75757 24.9608 6.3641 24.9278 5.96076L15.3827 7.74489Z" fill="white"/>
<path d="M17.8805 33.4185C17.0795 33.4185 16.2964 33.1809 15.6304 32.7359C14.9644 32.2909 14.4453 31.6584 14.1388 30.9183C13.8323 30.1783 13.7521 29.364 13.9083 28.5784C14.0646 27.7928 14.4503 27.0711 15.0167 26.5047C15.5831 25.9383 16.3047 25.5526 17.0904 25.3963C17.876 25.2401 18.6903 25.3203 19.4303 25.6268C20.1704 25.9333 20.8029 26.4524 21.2479 27.1185C21.6929 27.7845 21.9304 28.5675 21.9304 29.3685C21.9304 30.4426 21.5037 31.4727 20.7442 32.2323C19.9847 32.9918 18.9546 33.4185 17.8805 33.4185ZM17.8805 27.1027C17.4323 27.1027 16.9943 27.2355 16.6216 27.4845C16.249 27.7335 15.9586 28.0874 15.7871 28.5014C15.6156 28.9154 15.5707 29.371 15.6582 29.8105C15.7456 30.2501 15.9614 30.6538 16.2783 30.9707C16.5952 31.2876 16.9989 31.5034 17.4384 31.5908C17.878 31.6782 18.3335 31.6334 18.7476 31.4619C19.1616 31.2904 19.5155 30.9999 19.7645 30.6273C20.0134 30.2547 20.1463 29.8166 20.1463 29.3685C20.1463 28.7676 19.9076 28.1912 19.4827 27.7663C19.0577 27.3414 18.4814 27.1027 17.8805 27.1027Z" fill="white"/>
<path d="M15.7931 27.9055H15.6147C15.4766 27.8761 15.3476 27.8137 15.2389 27.7236C15.1301 27.6335 15.0448 27.5184 14.9903 27.3881L9.38811 14.8992C9.32626 14.7582 9.30196 14.6036 9.3176 14.4504C9.33323 14.2972 9.38825 14.1506 9.47731 14.025C9.56562 13.8967 9.68661 13.7943 9.82777 13.7284C9.96892 13.6626 10.1251 13.6356 10.2802 13.6503H10.4764C11.2385 13.6568 11.9847 13.4329 12.6174 13.0081C12.7269 12.9338 12.8512 12.8844 12.9818 12.8631C13.1123 12.8418 13.246 12.8493 13.3733 12.885C13.5007 12.9206 13.6188 12.9836 13.7193 13.0696C13.8199 13.1556 13.9005 13.2624 13.9555 13.3827L19.5933 26.0322C19.6615 26.1879 19.6838 26.3599 19.6575 26.5278C19.6313 26.6958 19.5576 26.8528 19.4451 26.9803C19.3326 27.1077 19.186 27.2004 19.0226 27.2474C18.8593 27.2944 18.6858 27.2937 18.5228 27.2454C18.1589 27.1103 17.7639 27.0823 17.3846 27.1645C17.0052 27.2467 16.6573 27.4357 16.3819 27.7093C16.2147 27.8416 16.0063 27.9111 15.7931 27.9055ZM11.5647 15.4166L16.1856 25.7824C16.5577 25.6076 16.9551 25.4932 17.3632 25.4434L12.7244 15.042C12.3494 15.179 11.9605 15.2747 11.5647 15.3274V15.4166Z" fill="white"/>
<path d="M32.8315 36.8797H4.89206C4.65547 36.8797 4.42857 36.7857 4.26128 36.6184C4.09398 36.4511 4 36.2242 4 35.9876V29.3863C4 29.1497 4.09398 28.9228 4.26128 28.7555C4.42857 28.5882 4.65547 28.4943 4.89206 28.4943H14.7226C14.9592 28.4943 15.1861 28.5882 15.3534 28.7555C15.5207 28.9228 15.6147 29.1497 15.6147 29.3863C15.6147 29.9873 15.8534 30.5636 16.2783 30.9885C16.7032 31.4134 17.2796 31.6522 17.8805 31.6522C18.4814 31.6522 19.0578 31.4134 19.4827 30.9885C19.9076 30.5636 20.1463 29.9873 20.1463 29.3863C20.1463 29.1497 20.2403 28.9228 20.4076 28.7555C20.5749 28.5882 20.8018 28.4943 21.0384 28.4943H32.8315C33.0681 28.4943 33.295 28.5882 33.4623 28.7555C33.6295 28.9228 33.7235 29.1497 33.7235 29.3863V35.9876C33.7235 36.2242 33.6295 36.4511 33.4623 36.6184C33.295 36.7857 33.0681 36.8797 32.8315 36.8797ZM5.78413 35.0955H31.9394V30.2784H21.8234C21.6148 31.1676 21.1118 31.9601 20.3961 32.5274C19.6803 33.0947 18.7938 33.4034 17.8805 33.4034C16.9672 33.4034 16.0807 33.0947 15.3649 32.5274C14.6492 31.9601 14.1462 31.1676 13.9376 30.2784H5.78413V35.0955Z" fill="white"/>
<path d="M28.4604 14.5959C28.2238 14.5959 27.9969 14.5019 27.8296 14.3346C27.6623 14.1674 27.5684 13.9405 27.5684 13.7039V8.24443C27.5684 8.00784 27.6623 7.78094 27.8296 7.61365C27.9969 7.44636 28.2238 7.35237 28.4604 7.35237C28.697 7.35237 28.9239 7.44636 29.0912 7.61365C29.2585 7.78094 29.3525 8.00784 29.3525 8.24443V13.7039C29.3525 13.9405 29.2585 14.1674 29.0912 14.3346C28.9239 14.5019 28.697 14.5959 28.4604 14.5959Z" fill="white"/>
<path d="M25.2847 16.2195C25.0824 16.2203 24.8859 16.1524 24.7273 16.0269C24.5688 15.9014 24.4575 15.7257 24.4119 15.5287C24.3663 15.3317 24.389 15.125 24.4762 14.9425C24.5635 14.7601 24.7101 14.6127 24.8922 14.5246L28.1036 12.901C28.315 12.7999 28.5573 12.7842 28.78 12.8574C29.0027 12.9305 29.1886 13.0867 29.2989 13.2935C29.401 13.5076 29.4171 13.7526 29.3442 13.9782C29.2712 14.2039 29.1145 14.393 28.9064 14.5067L25.695 16.1303C25.5656 16.1873 25.426 16.2176 25.2847 16.2195Z" fill="white"/>
<path d="M26.8904 20.8047C26.7082 20.7997 26.5316 20.7413 26.3825 20.6366C26.2333 20.5319 26.1183 20.3856 26.0518 20.2159L24.4104 15.6843C24.3667 15.5733 24.3457 15.4547 24.3486 15.3354C24.3515 15.2162 24.3783 15.0988 24.4274 14.9901C24.4765 14.8814 24.5469 14.7836 24.6344 14.7026C24.7219 14.6216 24.8248 14.5589 24.937 14.5183C25.0491 14.4778 25.1683 14.4601 25.2874 14.4664C25.4065 14.4727 25.5231 14.5028 25.6304 14.5549C25.7377 14.6071 25.8334 14.6802 25.9119 14.77C25.9904 14.8598 26.0501 14.9644 26.0875 15.0777L27.7824 19.6093C27.8628 19.8317 27.8515 20.0769 27.7512 20.291C27.6508 20.5051 27.4695 20.6706 27.2472 20.7512C27.1335 20.7947 27.0118 20.813 26.8904 20.8047Z" fill="white"/>
<path d="M31.7431 16.2195C31.6078 16.2153 31.4745 16.185 31.3506 16.1303L28.1392 14.5067C28.0338 14.454 27.9397 14.381 27.8625 14.292C27.7853 14.2029 27.7263 14.0995 27.6891 13.9877C27.6518 13.8759 27.6369 13.7578 27.6453 13.6402C27.6536 13.5227 27.6851 13.4079 27.7378 13.3024C27.7905 13.197 27.8635 13.103 27.9525 13.0258C28.0416 12.9485 28.1449 12.8896 28.2568 12.8523C28.3686 12.815 28.4867 12.8001 28.6043 12.8085C28.7218 12.8169 28.8366 12.8483 28.9421 12.901L32.1535 14.5246C32.3616 14.6383 32.5182 14.8274 32.5912 15.053C32.6642 15.2787 32.648 15.5237 32.546 15.7378C32.4684 15.8833 32.3527 16.005 32.2113 16.0898C32.0699 16.1747 31.908 16.2195 31.7431 16.2195Z" fill="white"/>
<path d="M30.1375 20.8047H29.8342C29.6119 20.7242 29.4306 20.5587 29.3302 20.3446C29.2299 20.1304 29.2186 19.8852 29.299 19.6628L30.9404 15.1312C31.0247 14.9117 31.1907 14.7334 31.4035 14.6337C31.6164 14.5339 31.8596 14.5204 32.0822 14.5959C32.1938 14.6337 32.2965 14.6937 32.3843 14.7722C32.4721 14.8507 32.5431 14.9462 32.5931 15.0528C32.6431 15.1595 32.671 15.2751 32.6752 15.3928C32.6794 15.5105 32.6597 15.6278 32.6174 15.7378L30.9761 20.2695C30.9052 20.4319 30.7877 20.5695 30.6383 20.6648C30.489 20.7601 30.3146 20.8088 30.1375 20.8047Z" fill="white"/>
</svg>
