<svg width="38" height="38" viewBox="0 0 38 38" fill="none" xmlns="http://www.w3.org/2000/svg">
<path d="M28.9531 37H1.21335C0.891542 37 0.582915 36.8721 0.355362 36.6444C0.127808 36.4167 -3.05176e-05 36.1079 -3.05176e-05 35.786V31.5461C0.00478695 31.2257 0.134171 30.9197 0.360688 30.693C0.587206 30.4664 0.893043 30.3369 1.21335 30.3321H2.89342V2.07284C2.87934 1.89757 2.90347 1.72133 2.96416 1.55631C3.02485 1.39129 3.12064 1.24143 3.24491 1.11709C3.36918 0.992754 3.51896 0.896911 3.68389 0.836189C3.84882 0.775468 4.02496 0.751319 4.20014 0.76541H26.041C26.3628 0.76541 26.6715 0.893317 26.899 1.12099C27.1266 1.34867 27.2544 1.65747 27.2544 1.97946V30.3321H28.9531C29.2734 30.3369 29.5793 30.4664 29.8058 30.693C30.0323 30.9197 30.1617 31.2257 30.1665 31.5461V35.786C30.1665 36.1079 30.0387 36.4167 29.8111 36.6444C29.5836 36.8721 29.275 37 28.9531 37ZM2.42673 34.5719H27.7398V32.7042H26.041C25.7207 32.6993 25.4149 32.5699 25.1884 32.3432C24.9618 32.1166 24.8325 31.8106 24.8276 31.4901V3.1935H5.32019V31.5461C5.32019 31.8681 5.19235 32.1769 4.96479 32.4046C4.73724 32.6323 4.42861 32.7602 4.1068 32.7602H2.42673V34.5719Z" fill="white"/>
<path d="M21.6355 14.1946H8.56835C8.3208 14.1946 8.0834 14.0962 7.90836 13.9211C7.73332 13.746 7.63498 13.5084 7.63498 13.2608V6.31268C7.63498 6.065 7.73332 5.82746 7.90836 5.65232C8.0834 5.47719 8.3208 5.3788 8.56835 5.3788H21.6355C21.8831 5.3788 22.1205 5.47719 22.2955 5.65232C22.4706 5.82746 22.5689 6.065 22.5689 6.31268V13.2794C22.564 13.5239 22.4635 13.7566 22.289 13.9277C22.1145 14.0989 21.8799 14.1947 21.6355 14.1946ZM9.44572 12.3269H20.6462V7.24656H9.44572V12.3269Z" fill="white"/>
<path d="M32.2013 30.0893C31.7919 30.0992 31.3845 30.0283 31.0025 29.8807C30.6204 29.733 30.2712 29.5115 29.9748 29.2288C29.6783 28.9461 29.4405 28.6077 29.2748 28.2329C29.1091 27.8582 29.0188 27.4545 29.0092 27.0448V13.7837C28.9996 13.6193 28.9578 13.4583 28.886 13.3101C28.8141 13.1619 28.7138 13.0294 28.5906 12.92C28.4675 12.8107 28.324 12.7268 28.1684 12.6731C28.0128 12.6194 27.8481 12.5969 27.6838 12.607H26.041C25.795 12.6022 25.5603 12.5023 25.3863 12.3282C25.2123 12.1541 25.1124 11.9193 25.1077 11.6731C25.1077 11.4255 25.206 11.1879 25.381 11.0128C25.5561 10.8377 25.7935 10.7393 26.041 10.7393H27.5904C27.9999 10.7293 28.4072 10.8002 28.7892 10.9479C29.1713 11.0955 29.5205 11.317 29.8169 11.5998C30.1134 11.8825 30.3512 12.2209 30.5169 12.5956C30.6826 12.9703 30.7729 13.3741 30.7826 13.7837V27.0448C30.8213 27.3718 30.9785 27.6732 31.2245 27.8919C31.4706 28.1106 31.7882 28.2314 32.1173 28.2314C32.4464 28.2314 32.764 28.1106 33.01 27.8919C33.256 27.6732 33.4133 27.3718 33.452 27.0448V14.4935C33.4519 14.2769 33.5242 14.0665 33.6573 13.8958L36.3455 10.6085C36.5021 10.4189 36.7273 10.2988 36.9719 10.2743C37.2166 10.2498 37.4611 10.323 37.6522 10.4778C37.7487 10.5556 37.8288 10.6519 37.8878 10.761C37.9467 10.8702 37.9833 10.99 37.9955 11.1134C38.0077 11.2369 37.9951 11.3615 37.9586 11.4801C37.9221 11.5986 37.8623 11.7087 37.7828 11.8039L35.3187 14.811V27.0635C35.2898 27.8729 34.9493 28.6398 34.3682 29.2037C33.7872 29.7677 33.0108 30.085 32.2013 30.0893Z" fill="white"/>
</svg>
